<svg id="Vrstva_1" data-name="Vrstva 1" xmlns="http://www.w3.org/2000/svg" xmlns:xlink="http://www.w3.org/1999/xlink" viewBox="0 0 128.86 18.39"><defs><style>.cls-1{fill:#253858;}.cls-2{fill:none;}.cls-3{fill:#2684ff;}.cls-4{fill:url(#Nepojmenovaný_přechod);}</style><linearGradient id="Nepojmenovaný_přechod" x1="-215.96" y1="391.71" x2="-216.58" y2="391.06" gradientTransform="matrix(14.61, 0, 0, -10.83, 3173.4, 4251.46)" gradientUnits="userSpaceOnUse"><stop offset="0.18" stop-color="#0052cc"/><stop offset="1" stop-color="#2684ff"/></linearGradient></defs><g id="Bitbucket-blue"><g id="Blue"><path id="Path_321" data-name="Path 321" class="cls-1" d="M34,1.33c3.42,0,5.09,1.69,5.09,4.4a3.42,3.42,0,0,1-2.82,3.73c2.49.41,3.71,1.77,3.71,4.15,0,2.68-1.81,4.52-5.57,4.52H27.45V1.33Zm-4.22,2.2v5h3.91c2.17,0,3.07-1,3.07-2.61s-1-2.4-3.07-2.4Zm0,7.06v5.23h4.7c2.2,0,3.2-.79,3.2-2.48s-.95-2.76-3.25-2.76Z" transform="translate(0 0)"/><path id="Path_322" data-name="Path 322" class="cls-1" d="M43.71.44a1.44,1.44,0,0,1,1.54,1.33V2a1.54,1.54,0,0,1-3.07,0A1.43,1.43,0,0,1,43.51.44a.67.67,0,0,1,.2,0ZM42.59,5.35h2.2V18.13h-2.2Z" transform="translate(0 0)"/><path id="Path_323" data-name="Path 323" class="cls-1" d="M53.19,16a6.53,6.53,0,0,0,1.38-.18v2.12a5.05,5.05,0,0,1-1.49.2c-2.73,0-4.06-1.61-4.06-4V7.39H46.94v-2H49V2.63h2.13V5.34h3.4v2h-3.4v6.71A1.8,1.8,0,0,0,52.82,16,2.3,2.3,0,0,0,53.19,16Z" transform="translate(0 0)"/><path id="Path_324" data-name="Path 324" class="cls-1" d="M63.63,18.39a4.21,4.21,0,0,1-4.06-2.5v2.24h-2.2V0h2.21V7.64A4.49,4.49,0,0,1,63.9,5.09C67.3,5.09,69,8,69,11.74,69,15.34,67.21,18.39,63.63,18.39ZM63.3,7.13c-2,0-3.72,1.26-3.72,4.1v1c0,2.84,1.61,4.09,3.49,4.09,2.48,0,3.76-1.64,3.76-4.6S65.58,7.13,63.3,7.13Z" transform="translate(0 0)"/><path id="Path_325" data-name="Path 325" class="cls-1" d="M71.3,5.34h2.2v7.74c0,2.3.93,3.32,3,3.32S80,15.05,80,12.46V5.34h2.2V18.13H80V16a4.48,4.48,0,0,1-4,2.35c-2.94,0-4.63-2-4.63-5.55Z" transform="translate(0 0)"/><path id="Path_326" data-name="Path 326" class="cls-1" d="M94.52,17.8a7,7,0,0,1-3.12.58c-4.55,0-6.68-2.76-6.68-6.68s2.12-6.63,6.68-6.63a6.82,6.82,0,0,1,3,.63v2a6.34,6.34,0,0,0-2.91-.6c-3.32,0-4.67,2.1-4.67,4.57s1.38,4.58,4.73,4.58a8,8,0,0,0,2.9-.46Z" transform="translate(0 0)"/><path id="Path_327" data-name="Path 327" class="cls-1" d="M97,18.13V0h2.2V11.33l5.5-6h2.87l-6,6.27,6.27,6.51h-3l-5.62-6v6Z" transform="translate(0 0)"/><path id="Path_328" data-name="Path 328" class="cls-1" d="M115.13,18.39c-4.78,0-6.87-2.76-6.87-6.69s2.14-6.62,6-6.62,5.52,2.74,5.52,6.62v1h-9.33c.31,2.18,1.71,3.58,4.73,3.58a11.23,11.23,0,0,0,3.89-.69v2A9.34,9.34,0,0,1,115.13,18.39Zm-4.67-7.56h7.13c-.13-2.38-1.2-3.73-3.4-3.73s-3.5,1.5-3.73,3.72Z" transform="translate(0 0)"/><path id="Path_329" data-name="Path 329" class="cls-1" d="M127.48,16a6.36,6.36,0,0,0,1.38-.18v2.12a4.94,4.94,0,0,1-1.48.2c-2.73,0-4.06-1.61-4.06-4V7.39h-2.08v-2h2.08V2.63h2.14V5.34h3.4v2h-3.4v6.71A1.8,1.8,0,0,0,127.12,16,2.11,2.11,0,0,0,127.48,16Z" transform="translate(0 0)"/><path id="Path_330" data-name="Path 330" class="cls-2" d="M7.19,12.64H11l.91-5.34H6.18Z" transform="translate(0 0)"/><path id="Path_331" data-name="Path 331" class="cls-3" d="M.59,1.82A.57.57,0,0,0,0,2.39a.31.31,0,0,0,0,.1l2.46,15a.79.79,0,0,0,.78.66H15.08a.57.57,0,0,0,.58-.49L18.13,2.5a.58.58,0,0,0-.48-.67H.59ZM11,12.64H7.2l-1-5.34h5.71Z" transform="translate(0 0)"/><path id="Path_332" data-name="Path 332" class="cls-4" d="M17.35,7.3H11.89L11,12.64H7.2l-4.46,5.3a.78.78,0,0,0,.51.19H15.09a.59.59,0,0,0,.58-.49Z" transform="translate(0 0)"/></g></g></svg>