<svg id="Vrstva_1" data-name="Vrstva 1" xmlns="http://www.w3.org/2000/svg" xmlns:xlink="http://www.w3.org/1999/xlink" viewBox="0 0 49.95 50.18"><defs><style>.cls-1{fill:url(#Nepojmenovaný_přechod);}.cls-2{fill:#fff;}</style><linearGradient id="Nepojmenovaný_přechod" x1="-266.3" y1="437.25" x2="-265.42" y2="438.14" gradientTransform="matrix(49.95, 0, 0, -50.18, 13313.86, 21976.97)" gradientUnits="userSpaceOnUse"><stop offset="0" stop-color="#070135"/><stop offset="1" stop-color="#612d50"/></linearGradient></defs><g id="Boostrap_logo" data-name="Boostrap logo"><path id="rect3050" class="cls-1" d="M7,0H43a7,7,0,0,1,7,7V43.2a7,7,0,0,1-7,7H7a7,7,0,0,1-7-7H0V7A7,7,0,0,1,7,0Z" transform="translate(0 0)"/><g id="text3836"><path id="path3841" class="cls-2" d="M25.35,21.6a4.41,4.41,0,0,0,2.9-.83,3.51,3.51,0,0,0,0-4.89,4.31,4.31,0,0,0-2.9-.86H20.87V21.6h4.48m.28,13.59a5.53,5.53,0,0,0,3.65-1,3.74,3.74,0,0,0,1.25-3.08,3.72,3.72,0,0,0-1.22-3,5.74,5.74,0,0,0-3.68-1H20.87v8.14h4.76M33.15,24a7.26,7.26,0,0,1,4,2.77,8.34,8.34,0,0,1,1.43,5q0,4.5-3.07,6.7c-2,1.47-5.16,2.2-9.33,2.21H12.78V9.57H24.93c4.36,0,7.52.65,9.46,1.95s3,3.4,3,6.27a6.78,6.78,0,0,1-1.07,3.87A6.36,6.36,0,0,1,33.16,24" transform="translate(0 0)"/></g></g></svg>