<svg xmlns="http://www.w3.org/2000/svg" xmlns:xlink="http://www.w3.org/1999/xlink" viewBox="0 0 200 58"><defs><style>.cls-1{fill:#fff;}.cls-2{fill:url(#Nepojmenovaný_přechod);}.cls-3{fill:url(#Nepojmenovaný_přechod_2);}</style><linearGradient id="Nepojmenovaný_přechod" x1="-1012.33" y1="136.58" x2="-1010.24" y2="135.58" gradientTransform="translate(24404.95 -7869.59) scale(24.11 58.01)" gradientUnits="userSpaceOnUse"><stop offset="0" stop-color="#ed06ef"/><stop offset="0.6" stop-color="#6991f0"/><stop offset="1" stop-color="#02f3ed"/></linearGradient><linearGradient id="Nepojmenovaný_přechod_2" x1="-1013.16" y1="136.72" x2="-1011.07" y2="135.72" gradientTransform="translate(24442.26 -7869.59) scale(24.12 58.01)" xlink:href="#Nepojmenovaný_přechod"/></defs><g id="Group_550" data-name="Group 550"><g id="Group_303" data-name="Group 303"><g id="Group_295" data-name="Group 295"><path id="Path_332" data-name="Path 332" class="cls-1" d="M75,14.94h5.18V43.07H75V40.7a7.8,7.8,0,0,1-6.51,2.93,9.14,9.14,0,0,1-6.94-3.07,11.32,11.32,0,0,1,0-15.07,9.19,9.19,0,0,1,6.94-3.08A7.81,7.81,0,0,1,75,25.35ZM65.41,37.1a5.83,5.83,0,0,0,8,0,6.08,6.08,0,0,0,0-8.15,5.83,5.83,0,0,0-8,0A6,6,0,0,0,65.41,37.1Z"/></g><g id="Group_296" data-name="Group 296"><path id="Path_333" data-name="Path 333" class="cls-1" d="M86.74,20.57a3.23,3.23,0,0,1-3.18-3.18,3.1,3.1,0,0,1,1-2.25,3,3,0,0,1,2.23-1A3.31,3.31,0,0,1,90,17.39a3,3,0,0,1-.8,2.07A3.31,3.31,0,0,1,86.74,20.57Zm-2.58,22.5V25.71A2.74,2.74,0,0,1,86.9,23h2.45V43.1Z"/></g><g id="Group_297" data-name="Group 297"><path id="Path_334" data-name="Path 334" class="cls-1" d="M111.28,23h2.57V42.11a8.55,8.55,0,0,1-3.07,7.11,11.52,11.52,0,0,1-7.42,2.45,12.47,12.47,0,0,1-5.73-1.24,8.78,8.78,0,0,1-3.8-3.66l4.43-2.53A6.36,6.36,0,0,0,107.09,46h0l.28-.2a4.68,4.68,0,0,0,1.4-3.66v-2.2A7.57,7.57,0,0,1,102.35,43a9.46,9.46,0,0,1-7.13-3,10.63,10.63,0,0,1,0-14.57,9.51,9.51,0,0,1,7.11-3,7.57,7.57,0,0,1,6.43,3.06h0A2.48,2.48,0,0,1,111.25,23h0ZM99.12,36.66a6,6,0,0,0,8.08,0,5.66,5.66,0,0,0,0-7.87,6,6,0,0,0-8.08,0A5.66,5.66,0,0,0,99.12,36.66Z"/></g><g id="Group_298" data-name="Group 298"><path id="Path_335" data-name="Path 335" class="cls-1" d="M120.43,20.57a3.23,3.23,0,0,1-3.17-3.18,3.15,3.15,0,0,1,.94-2.25,3.09,3.09,0,0,1,4.37-.13l.13.13a3.1,3.1,0,0,1,1,2.25,3,3,0,0,1-.79,2.07A3.31,3.31,0,0,1,120.43,20.57Zm-2.57,22.5V25.71A2.74,2.74,0,0,1,120.6,23h2.45V43.1Z"/></g><g id="Group_299" data-name="Group 299"><path id="Path_336" data-name="Path 336" class="cls-1" d="M138.24,22.41a7.29,7.29,0,0,1,5.45,2.21,8.42,8.42,0,0,1,2.15,6.11V43.07h-5.19V31.37a4.09,4.09,0,0,0-1.08-3.07,3.94,3.94,0,0,0-2.9-1.07,4.28,4.28,0,0,0-3.21,1.25,5.19,5.19,0,0,0-1.21,3.74V43.07h-5.18V14.94h5.18V25.23Q134.14,22.41,138.24,22.41Z"/></g><g id="Group_300" data-name="Group 300"><path id="Path_337" data-name="Path 337" class="cls-1" d="M152.43,20.57a3.23,3.23,0,0,1-3.18-3.18A3.2,3.2,0,0,1,154.57,15a1.59,1.59,0,0,1,.13.13,3.07,3.07,0,0,1,.94,2.25,3,3,0,0,1-.79,2.07A3.34,3.34,0,0,1,152.43,20.57Zm-2.58,22.5V25.71A2.74,2.74,0,0,1,152.59,23H155V43.1Z"/></g><g id="Group_301" data-name="Group 301"><path id="Path_338" data-name="Path 338" class="cls-1" d="M175.46,23h3.77l-7.64,20.1h-5.91L158,23h5.71l4.91,14,4.26-12.23A2.74,2.74,0,0,1,175.46,23Z"/></g><g id="Group_302" data-name="Group 302"><path id="Path_339" data-name="Path 339" class="cls-1" d="M184.65,35.15c.67,2.52,2.55,3.78,5.66,3.78a5.29,5.29,0,0,0,4.5-2l4.19,2.4a10,10,0,0,1-8.76,4.31,10.84,10.84,0,0,1-8-3,10.6,10.6,0,0,1,7.6-18.21,9.6,9.6,0,0,1,7.3,3.06A10.61,10.61,0,0,1,200,33a11.73,11.73,0,0,1-.2,2.13Zm-.08-4h10.25A4.9,4.9,0,0,0,193,28.08a5.21,5.21,0,0,0-3.16-1,5.5,5.5,0,0,0-3.46,1.06,5.12,5.12,0,0,0-1.81,3Z"/></g></g><g id="Group_304" data-name="Group 304"><path id="Path_340" data-name="Path 340" class="cls-2" d="M0,19.26V38.75a9.29,9.29,0,0,0,4.62,8L24.11,58V53.37L6.63,43.27A5.24,5.24,0,0,1,4,38.75V19.26a5.25,5.25,0,0,1,2.61-4.53L20.1,7V22.53l-.67-.4A7.57,7.57,0,0,0,8,28.62v.32a8.57,8.57,0,0,0,4.23,7.36l11.92,7V0L4.62,11.25A9.31,9.31,0,0,0,0,19.26Zm20.1,17-5.88-3.44A4.5,4.5,0,0,1,12,28.93v-.32a3.54,3.54,0,0,1,3.52-3.55,3.46,3.46,0,0,1,1.85.51l2.74,1.65Z"/><path id="Path_341" data-name="Path 341" class="cls-3" d="M47.63,11.25,28.13,0V4.64L45.62,14.73a5.25,5.25,0,0,1,2.61,4.53V38.75a5.23,5.23,0,0,1-2.61,4.52L32.15,51.05V27.22l2.74-1.64a3.53,3.53,0,0,1,4.86,1.18,3.46,3.46,0,0,1,.52,1.82V41.74l2.66-1.54a2.74,2.74,0,0,0,1.36-2.36V28.57a7.56,7.56,0,0,0-11.46-6.44l-.68.4V11.6l-4-2.32V58L47.63,46.76a9.29,9.29,0,0,0,4.62-8V19.26A9.31,9.31,0,0,0,47.63,11.25Z"/></g></g></svg>