<svg id="Vrstva_1" data-name="Vrstva 1" xmlns="http://www.w3.org/2000/svg" xmlns:xlink="http://www.w3.org/1999/xlink" viewBox="0 0 52.25 58"><defs><style>.cls-1{fill:url(#Nepojmenovaný_přechod);}.cls-2{fill:url(#Nepojmenovaný_přechod_2);}</style><linearGradient id="Nepojmenovaný_přechod" x1="-377.78" y1="14.44" x2="-375.69" y2="13.44" gradientTransform="translate(9106.13 -784) scale(24.11 58.01)" gradientUnits="userSpaceOnUse"><stop offset="0" stop-color="#ed06ef"/><stop offset="0.6" stop-color="#6991f0"/><stop offset="1" stop-color="#02f3ed"/></linearGradient><linearGradient id="Nepojmenovaný_přechod_2" x1="-378.61" y1="14.58" x2="-376.52" y2="13.58" gradientTransform="translate(9136.82 -784) scale(24.12 58.01)" xlink:href="#Nepojmenovaný_přechod"/></defs><g id="Group_550" data-name="Group 550"><g id="Group_304" data-name="Group 304"><path id="Path_340" data-name="Path 340" class="cls-1" d="M0,19.26V38.75a9.29,9.29,0,0,0,4.62,8L24.11,58V53.37L6.63,43.27A5.24,5.24,0,0,1,4,38.75V19.26a5.25,5.25,0,0,1,2.61-4.53L20.1,7V22.53l-.67-.4A7.57,7.57,0,0,0,8,28.62v.32a8.57,8.57,0,0,0,4.23,7.36l11.92,7V0L4.62,11.25A9.31,9.31,0,0,0,0,19.26Zm20.1,17-5.88-3.44A4.5,4.5,0,0,1,12,28.93v-.32a3.54,3.54,0,0,1,3.52-3.55,3.46,3.46,0,0,1,1.85.51l2.74,1.65Z"/><path id="Path_341" data-name="Path 341" class="cls-2" d="M47.63,11.25,28.13,0V4.64L45.62,14.73a5.25,5.25,0,0,1,2.61,4.53V38.75a5.23,5.23,0,0,1-2.61,4.52L32.15,51.05V27.22l2.74-1.64a3.53,3.53,0,0,1,4.86,1.18,3.46,3.46,0,0,1,.52,1.82V41.74l2.66-1.54a2.74,2.74,0,0,0,1.36-2.36V28.57a7.56,7.56,0,0,0-11.46-6.44l-.68.4V11.6l-4-2.32V58L47.63,46.76a9.29,9.29,0,0,0,4.62-8V19.26A9.31,9.31,0,0,0,47.63,11.25Z"/></g></g></svg>