<svg xmlns="http://www.w3.org/2000/svg" width="160.762" height="41.454" viewBox="0 0 160.762 41.454"><defs><style>.a{fill:#2496ed;}</style></defs><g transform="translate(-26.241 -303.623)"><g transform="translate(26.241 303.623)"><path class="a" d="M321.263,359.717a1.535,1.535,0,0,0-1.585,1.483c0,.034,0,.067,0,.1v7.619a8.637,8.637,0,1,0,3.184,6.951q0-.146,0-.291V361.309a1.514,1.514,0,0,0-.465-1.137,1.573,1.573,0,0,0-1.134-.448m-2.005,17.91a5.351,5.351,0,0,1-7.032,2.858,5.344,5.344,0,0,1,4.191-9.831,5.426,5.426,0,0,1,2.841,2.858,5.28,5.28,0,0,1,0,4.129" transform="translate(-245.673 -347.653)"/><path class="a" d="M407.4,396.27a8.634,8.634,0,1,0,2.5,6.326q0-.146,0-.291a8.781,8.781,0,0,0-.632-3.276,8.326,8.326,0,0,0-1.868-2.759m-1.1,8.089a5.544,5.544,0,0,1-1.144,1.7,5.476,5.476,0,0,1-1.7,1.159,5.339,5.339,0,1,1,0-9.823,5.467,5.467,0,0,1,1.7,1.159,5.533,5.533,0,0,1,1.144,1.7,5.307,5.307,0,0,1,0,4.129" transform="translate(-313.993 -374.386)"/><path class="a" d="M570.792,368.624a1.492,1.492,0,0,0-.127-.609,1.79,1.79,0,0,0-.346-.5,1.5,1.5,0,0,0-.5-.343,1.614,1.614,0,0,0-.624-.122,1.553,1.553,0,0,0-.853.249l-9.111,5.928v-11.9a1.545,1.545,0,0,0-.465-1.134,1.522,1.522,0,0,0-1.127-.473,1.59,1.59,0,0,0-1.6,1.58v21.2a1.551,1.551,0,0,0,.465,1.127,1.53,1.53,0,0,0,1.134.473,1.51,1.51,0,0,0,1.122-.473,1.55,1.55,0,0,0,.465-1.127v-5.492l1.858-1.219,7.042,7.908a1.471,1.471,0,0,0,1.065.41,1.567,1.567,0,0,0,.624-.122,1.458,1.458,0,0,0,.5-.341,1.735,1.735,0,0,0,.345-.513,1.492,1.492,0,0,0,.127-.609,1.617,1.617,0,0,0-.44-1.112l-6.547-7.375,6.383-4.144a1.42,1.42,0,0,0,.609-1.266" transform="translate(-442.102 -347.654)"/><path class="a" d="M484.45,398.505a5.45,5.45,0,0,1,1.709-1.144,5.235,5.235,0,0,1,2.087-.418,5.09,5.09,0,0,1,1.858.334,5.778,5.778,0,0,1,1.629.995,1.622,1.622,0,0,0,1.037.354,1.535,1.535,0,0,0,1.149-.448,1.574,1.574,0,0,0,.45-1.144,1.556,1.556,0,0,0-.55-1.2,8.136,8.136,0,0,0-5.562-2.072,8.539,8.539,0,1,0,5.562,15,1.6,1.6,0,0,0,.5-1.171A1.535,1.535,0,0,0,492.835,406c-.033,0-.067,0-.1,0a1.711,1.711,0,0,0-1.008.333,5.417,5.417,0,0,1-1.614.982,5.133,5.133,0,0,1-1.858.328,5.238,5.238,0,0,1-2.087-.418,5.5,5.5,0,0,1-1.709-1.144,5.338,5.338,0,0,1-.023-7.549l.023-.023" transform="translate(-382.198 -374.372)"/><path class="a" d="M726.3,394.836a2.988,2.988,0,0,0-1.075-.647,6.232,6.232,0,0,0-1.415-.328,12.033,12.033,0,0,0-1.44-.09,8.355,8.355,0,0,0-2.866.5,8.747,8.747,0,0,0-2.487,1.4v-.318a1.595,1.595,0,0,0-3.187,0v13.9a1.595,1.595,0,0,0,3.187,0V402.3a5.263,5.263,0,0,1,.418-2.09,5.364,5.364,0,0,1,1.142-1.7,5.444,5.444,0,0,1,1.7-1.144,5.248,5.248,0,0,1,2.09-.418,5.606,5.606,0,0,1,2.087.381,1.694,1.694,0,0,0,.672.167,1.59,1.59,0,0,0,.624-.122,1.494,1.494,0,0,0,.5-.343,1.772,1.772,0,0,0,.344-.5,1.541,1.541,0,0,0,.129-.624,1.41,1.41,0,0,0-.428-1.067" transform="translate(-565.958 -374.384)"/><path class="a" d="M642.944,399.114a8.651,8.651,0,0,0-7.908-5.249,8.532,8.532,0,0,0-8.535,8.53v0a8.537,8.537,0,0,0,14.111,6.467c.023-.022.057-.052.062-.059a1.818,1.818,0,0,0,.361-.393,1.627,1.627,0,0,0-.408-2.264,1.6,1.6,0,0,0-1.968.177c-.052.048-.2.187-.227.207l-.022.02a5.067,5.067,0,0,1-1.532.9,5.342,5.342,0,0,1-1.843.3,5.263,5.263,0,0,1-1.7-.274,5.5,5.5,0,0,1-1.492-.768,5.356,5.356,0,0,1-1.182-1.189,5.219,5.219,0,0,1-.761-1.532h12.067a1.566,1.566,0,0,0,1.134-.45,1.493,1.493,0,0,0,.465-1.134,8.561,8.561,0,0,0-.624-3.283m-13.045,1.7a5.01,5.01,0,0,1,.746-1.532,5.335,5.335,0,0,1,1.189-1.189,5.648,5.648,0,0,1,1.51-.769,5.339,5.339,0,0,1,1.691-.274,5.282,5.282,0,0,1,1.682.274,5.446,5.446,0,0,1,2.682,1.958,5.122,5.122,0,0,1,.771,1.532H629.9Z" transform="translate(-497.41 -374.458)"/><path class="a" d="M742.536,462.395a1.1,1.1,0,1,0,1.122,1.1,1.1,1.1,0,0,0-1.122-1.1h0m0,1.973a.876.876,0,1,1,.835-.915c0,.015,0,.031,0,.046a.839.839,0,0,1-.808.868h-.028" transform="translate(-587.636 -428.249)"/><path class="a" d="M745.2,465.49v-.015a.281.281,0,0,0,.226-.249.309.309,0,0,0-.107-.249.7.7,0,0,0-.381-.08,2.171,2.171,0,0,0-.42.035v1.094h.249v-.44h.119c.142,0,.206.052.229.174a.942.942,0,0,0,.085.266h.276a.841.841,0,0,1-.082-.274.318.318,0,0,0-.2-.266m-.3-.08h-.122v-.316a.6.6,0,0,1,.142,0c.159,0,.234.067.234.166s-.114.162-.249.162" transform="translate(-590.043 -430.212)"/><path class="a" d="M83.44,348.379a7.679,7.679,0,0,0-4.7-1.229,15.016,15.016,0,0,0-2.43.209,9.077,9.077,0,0,0-4.132-6.176l-.828-.478-.545.786a11.107,11.107,0,0,0-1.473,3.443,8.154,8.154,0,0,0,.97,6.405,11.331,11.331,0,0,1-4.2,1.013H28.049a1.808,1.808,0,0,0-1.806,1.8,27.383,27.383,0,0,0,1.667,9.778,14.5,14.5,0,0,0,5.8,7.52c2.843,1.741,7.462,2.736,12.7,2.736a37.909,37.909,0,0,0,7.052-.639,29.484,29.484,0,0,0,9.2-3.343,25.31,25.31,0,0,0,6.281-5.141,35.01,35.01,0,0,0,6.147-10.592h.532a8.851,8.851,0,0,0,6.45-2.428,7.041,7.041,0,0,0,1.7-2.52l.236-.691Z" transform="translate(-26.241 -332.73)"/><path class="a" d="M49.425,369.839h5.1a.445.445,0,0,0,.445-.445h0v-4.542a.445.445,0,0,0-.443-.448h-5.1a.445.445,0,0,0-.445.445v4.545a.445.445,0,0,0,.445.445h0" transform="translate(-44.09 -351.332)"/><path class="a" d="M82.091,369.839h5.1a.445.445,0,0,0,.445-.445h0v-4.542a.445.445,0,0,0-.443-.448h-5.1a.448.448,0,0,0-.448.448v4.542a.448.448,0,0,0,.448.445" transform="translate(-69.728 -351.332)"/><path class="a" d="M115.271,369.839h5.1a.445.445,0,0,0,.445-.445h0v-4.542a.445.445,0,0,0-.443-.448h-5.1a.445.445,0,0,0-.445.445v4.545a.446.446,0,0,0,.445.445h0" transform="translate(-95.775 -351.332)"/><path class="a" d="M148.052,369.839h5.1a.448.448,0,0,0,.448-.445v-4.542a.448.448,0,0,0-.448-.448h-5.1a.445.445,0,0,0-.445.445v4.545a.445.445,0,0,0,.445.445h0" transform="translate(-121.506 -351.332)"/><path class="a" d="M82.092,339.454h5.1a.448.448,0,0,0,.445-.448v-4.542a.445.445,0,0,0-.445-.445h-5.1a.448.448,0,0,0-.448.445v4.542a.45.45,0,0,0,.448.448" transform="translate(-69.729 -327.482)"/><path class="a" d="M115.272,339.454h5.1a.448.448,0,0,0,.445-.448v-4.542a.445.445,0,0,0-.445-.445h-5.1a.445.445,0,0,0-.445.445h0v4.542a.448.448,0,0,0,.445.448" transform="translate(-95.776 -327.482)"/><path class="a" d="M148.052,339.454h5.1a.451.451,0,0,0,.448-.448v-4.542a.448.448,0,0,0-.448-.445h-5.1a.445.445,0,0,0-.445.445h0v4.542a.448.448,0,0,0,.445.448" transform="translate(-121.506 -327.482)"/><path class="a" d="M148.052,309.058h5.1a.448.448,0,0,0,.448-.445v-4.545a.448.448,0,0,0-.448-.445h-5.1a.445.445,0,0,0-.445.445h0v4.545a.445.445,0,0,0,.445.445" transform="translate(-121.506 -303.623)"/><path class="a" d="M181.12,369.839h5.1a.448.448,0,0,0,.448-.445v-4.542a.448.448,0,0,0-.448-.448h-5.1a.445.445,0,0,0-.445.445v4.545a.445.445,0,0,0,.445.445" transform="translate(-147.462 -351.332)"/></g></g></svg>