<svg id="Vrstva_1" data-name="Vrstva 1" xmlns="http://www.w3.org/2000/svg" viewBox="0 0 120 120"><defs><style>.cls-1{fill:#fff;}.cls-2{fill:#0acf83;}.cls-3{fill:#a259ff;}.cls-4{fill:#f24e1e;}.cls-5{fill:#ff7262;}.cls-6{fill:#1abcfe;}</style></defs><g id="figma"><rect id="Rectangle_1322" data-name="Rectangle 1322" class="cls-1" width="120" height="120" rx="10"/><g id="figma-1"><path id="Path_727" data-name="Path 727" class="cls-2" d="M46.33,100A13.34,13.34,0,0,0,59.67,86.67V73.33H46.33a13.34,13.34,0,0,0,0,26.67Z" transform="translate(0 0)"/><path id="Path_728" data-name="Path 728" class="cls-3" d="M33,60A13.33,13.33,0,0,1,46.33,46.67H59.67V73.33H46.33A13.33,13.33,0,0,1,33,60Z" transform="translate(0 0)"/><path id="Path_729" data-name="Path 729" class="cls-4" d="M33,33.33A13.33,13.33,0,0,1,46.33,20H59.67V46.67H46.33A13.34,13.34,0,0,1,33,33.33Z" transform="translate(0 0)"/><path id="Path_730" data-name="Path 730" class="cls-5" d="M59.67,20H73a13.34,13.34,0,0,1,0,26.67H59.67Z" transform="translate(0 0)"/><path id="Path_731" data-name="Path 731" class="cls-6" d="M86.33,60A13.33,13.33,0,1,1,73,46.67,13.33,13.33,0,0,1,86.33,60Z" transform="translate(0 0)"/></g></g></svg>