<svg id="Vrstva_1" data-name="Vrstva 1" xmlns="http://www.w3.org/2000/svg" xmlns:xlink="http://www.w3.org/1999/xlink" viewBox="0 0 50.34 50.34"><defs><style>.cls-1{fill:#ffc517;}.cls-1,.cls-2,.cls-3{fill-rule:evenodd;}.cls-2{fill:#f57e02;}.cls-3{fill:url(#Nepojmenovaný_přechod);}</style><linearGradient id="Nepojmenovaný_přechod" x1="-256.2" y1="433.89" x2="-255.2" y2="433.89" gradientTransform="matrix(17.21, 0, 0, -34.43, 4443.49, 14972.79)" gradientUnits="userSpaceOnUse"><stop offset="0" stop-color="#e96f0b"/><stop offset="1" stop-color="#f37901"/></linearGradient></defs><g id="google_analytics-official" data-name="google analytics-official"><path id="Path_124" data-name="Path 124" class="cls-1" d="M22.78,50.34H4.14A4.14,4.14,0,0,1,0,46.2H0V37.27a4.15,4.15,0,0,1,4.14-4.15H15.91V20.05a4.14,4.14,0,0,1,4.14-4.14H33.13V50.23H22.78Z" transform="translate(0 0)"/><path id="Path_125" data-name="Path 125" class="cls-2" d="M46.2,50.34H33.12V4.14A4.14,4.14,0,0,1,37.26,0H46.2a4.14,4.14,0,0,1,4.14,4.14h0V46.2a4.28,4.28,0,0,1-4.14,4.14Z" transform="translate(0 0)"/><path id="Path_126" data-name="Path 126" class="cls-3" d="M50.23,33.12V46.2a4.14,4.14,0,0,1-4.14,4.14H33V15.91Z" transform="translate(0 0)"/></g></svg>