<svg id="Vrstva_1" data-name="Vrstva 1" xmlns="http://www.w3.org/2000/svg" viewBox="0 0 39.74 53.57"><defs><style>.cls-1{fill:#fba919;}.cls-2{fill:#e78724;}.cls-3{fill:#fdc168;}.cls-4{fill:#fff;}.cls-5{fill:#c9c9c9;}.cls-6{fill:#463014;}</style></defs><g id="grunt"><path id="Path_274" data-name="Path 274" class="cls-1" d="M2.57,13s.91,3.54,1,4.72-2.36,3.8-2.36,5.11A5.12,5.12,0,0,0,4.66,27.7c2.89,1.18,3.28,4.19,3.28,6A27.28,27.28,0,0,1,6.89,39.1s-.65,8.78,2.88,10.35S12.53,51,13.31,51s6.55,2.36,10,1.45,4.33-2,4.33-2,3.4.26,4.45-2.75a35.6,35.6,0,0,0,1.31-12.19c-.39-2.88-.92-6.68,1.44-8s4.85-2.89,4.46-4.2-2.49-3.14-2.49-3.14-.52-3.28-.13-4.07,2.75-2.75,1.44-4.19a5.55,5.55,0,0,0-3.67-1.44l-3,.26S26.29,6.2,19.6,6.46A17.78,17.78,0,0,0,8.72,10.79a6.67,6.67,0,0,0-4.19,0C2.57,11.58,2.17,10.79,2.57,13Z" transform="translate(0 0)"/><path id="Path_275" data-name="Path 275" class="cls-2" d="M14.54,32.53s-2.6,4-4.5,6.79c-.29.43,1.9.46,1.9.46Zm1.24-8.22s-.78,2-1.21,3S12.33,29,12.33,29a5.11,5.11,0,0,0,.92-3.41c0-1,1.32-1.43,1.32-1.43l1.21.17Z" transform="translate(0 0)"/><path id="Path_276" data-name="Path 276" class="cls-2" d="M15,25.41a4.11,4.11,0,0,1-4.58.84c-3-1.07-3.29-4.89-3.29-5.95s5.65,1.06,6.42,1.52,2.21,2.29,1.44,3.59ZM3.74,5a6.31,6.31,0,0,1,4.58.92,8.3,8.3,0,0,1,2.37,2.6L7.6,11A4,4,0,0,1,5.65,8.3C5.19,6.32,5.5,5.4,3.74,5Z" transform="translate(0 0)"/><path id="Path_277" data-name="Path 277" class="cls-2" d="M14.18,19.9A6.35,6.35,0,0,0,9.5,17.37a6,6,0,0,0-3.92.73s4.35.18,5.6,1.82c2.33,3.07,5.74,3.32,6.28,2.64a2.87,2.87,0,0,1-2.06-1A11.26,11.26,0,0,1,14.18,19.9ZM6.85,25.83S2,24.18,2.94,22.5s.19-2.6.19-2.6-2.69,2-2,4.15c.42,1.31,1.13,2.26,5,4.08,1.86,3.46.38,9.69.47,9.72s2.61-1.22,2.45-7c-.06-1.79-.2-4.23-2.21-5ZM13.17,8c-2,1-4.79,2.46-4.79,2.46L9.47,11l-.16.27,1.12.51s2.73,2,4.41,3.25a29.36,29.36,0,0,0-2.2-4.42A2.92,2.92,0,0,1,13.17,8Zm6.72,41.87c-6.22,0-8.33-3.15-8.33-3.15l1,2.36c.36,1,4.28,4.21,7.34,4.21" transform="translate(0 0)"/><path id="Path_278" data-name="Path 278" class="cls-2" d="M12.24,44.6s.58,3.49,2.87,3.49c1.94,0,2.52-3,2.52-3.56Zm-3.8-5.27a25.72,25.72,0,0,0,1.14-4.89,53.62,53.62,0,0,0,.17-6.08s-.61,2.36-1.14,2.75-1.53,3-1.53,3S6.55,38,6.3,39.24c.7.14,1.29-.27,2.13.08ZM2.91,24s1.3-.45,1.68-3.28a12.81,12.81,0,0,0-.46-5.26s.07,3.89-.38,4.65-.84,1-1.38,2A1.47,1.47,0,0,0,2.9,24Z" transform="translate(0 0)"/><path id="Path_279" data-name="Path 279" class="cls-3" d="M4.45,5.69l-.26-.17C3.41,5.55,4.45,5.69,4.45,5.69Z" transform="translate(0 0)"/><path id="Path_280" data-name="Path 280" class="cls-1" d="M14.22,7.17a3,3,0,0,1-1.83-1.11,6.3,6.3,0,0,0-5.1-2.77A23,23,0,0,0,1.81,4l2.38,1.5c.25,0,.69,0,1.42,0A3.65,3.65,0,0,1,9.06,8.6L19.59,7.15" transform="translate(0 0)"/><path id="Path_281" data-name="Path 281" class="cls-4" d="M15.24,23.5a4.13,4.13,0,0,1-3.61,1C9.44,24,8.12,23,8,21.37A3.49,3.49,0,0,1,8.47,19a12.71,12.71,0,0,1,3.62,1.78c1.17,1,2,2.64,3.15,2.7Z" transform="translate(0 0)"/><path id="Path_282" data-name="Path 282" class="cls-5" d="M13.52,23a3.93,3.93,0,0,1-2.62.1A2.93,2.93,0,0,1,9,20.61s-1.11,3.25,2,3.88a4.56,4.56,0,0,0,4-.94L13.52,23Z" transform="translate(0 0)"/><path id="Path_283" data-name="Path 283" class="cls-6" d="M14.39,6.48c-.13-2.79,2.16-5,2.95-5.11.05.47,0,2.32.75,2.89.23-1.51,1-3.17,4.09-4.26a5.17,5.17,0,0,0,.19,3.9c2.1-1.91,3.52-1.59,3.52-1.59S24.43,4.83,25,6.49c-4.22-.34-10.58.44-10.61,0ZM5.44,10.73c-1-.83-.26-1.61-.34-2.56a3.17,3.17,0,0,0-.25-1.25A5.42,5.42,0,0,0,1.72,5l-1-.2L1.37,4a7.24,7.24,0,0,1,7.2-1.37c3,1,5.26,4.28,5.34,4.41l-1.51.71S10.61,4.63,8,3.8a6.65,6.65,0,0,0-4.86.39A5.73,5.73,0,0,1,5.88,6.27a3.92,3.92,0,0,1,.44,1.8,2.78,2.78,0,0,0,.75,2.13ZM2.75,22.94A9.68,9.68,0,0,0,4.39,18.3a11.63,11.63,0,0,0-.53-4.5,18.43,18.43,0,0,1-.5,4.5A44.94,44.94,0,0,1,2.75,22.94Z" transform="translate(0 0)"/><path id="Path_284" data-name="Path 284" class="cls-6" d="M9.44,9.14A5.44,5.44,0,0,0,7.91,6.46a4,4,0,0,0-3.55-.58L4.07,5a5.28,5.28,0,0,1,4.37.7c2.05,1.45,2.3,2.76,2.32,2.9l-1.32.53ZM6.74,21.81a3.23,3.23,0,0,1-.55-2,1.52,1.52,0,0,1,.73-1.24c.8-.35,1.15.56,1.15.56S6.94,19.4,6.74,21.81Z" transform="translate(0 0)"/><path id="Path_285" data-name="Path 285" class="cls-6" d="M14.05,23.27a.46.46,0,0,1,0,.08,3.59,3.59,0,0,1-4.21,0c-1.14-.84-1-2.94-.68-3.83a6.78,6.78,0,0,1,2.32,1c-.81-.73-1.52-1.26-1.52-1.27L9.07,19l-1.8-.61c0,.14-.67,3.21,1.22,5.3.84.93,4.77,3,6.64-.55l-1.08.16Z" transform="translate(0 0)"/><path id="Path_286" data-name="Path 286" class="cls-6" d="M13.86,23.49c1.17,1.78,4.12.77,4.07-1.12a3,3,0,0,1-3.72-.91c-1-1.17-4.28-4.4-8.7-3.33,3.06.68,7.1,3.47,8.35,5.36Z" transform="translate(0 0)"/><path id="Path_287" data-name="Path 287" class="cls-6" d="M5.1,28.52a3.54,3.54,0,0,1,1.28,2.73,61,61,0,0,1-.46,7c.57.37,1,.45,1.54.83a70,70,0,0,0,.4-8.32,4.34,4.34,0,0,0-2-3.57c-.28-.17-.58-.33-.88-.49C3.43,25.87,1.82,25,1.82,23.52a2,2,0,0,1,.93-1.91l0,0a2.74,2.74,0,0,0,.89-1c.58-1.3.67-4.63,0-5.47-.34-.42-1.24-1.84-1-2.78a1.29,1.29,0,0,1,.7-.83A3.59,3.59,0,0,1,5,11.17a12.58,12.58,0,0,1,3.44.63,26,26,0,0,1,6.7,3.94l0,0,.58.4-.37-.6A13.3,13.3,0,0,0,9,10.36,13.07,13.07,0,0,0,5,9.63a5.17,5.17,0,0,0-2.32.48,2.79,2.79,0,0,0-1.47,1.78c-.52,1.9,1.17,4,1.23,4.1a8.21,8.21,0,0,1-.18,3.94,1.52,1.52,0,0,1-.45.46l-.22.17A3.35,3.35,0,0,0,0,23.47C0,25.78,2.35,27,4.23,28.05,4.54,28.21,4.83,28.36,5.1,28.52Z" transform="translate(0 0)"/><path id="Path_288" data-name="Path 288" class="cls-6" d="M5.44,10.73c-1-.83-.26-1.61-.34-2.56a3.09,3.09,0,0,0-.25-1.24A5.38,5.38,0,0,0,1.72,5l-1-.2L1.37,4a7.24,7.24,0,0,1,7.2-1.37c3,1,5.26,4.28,5.34,4.41l-1.51.72S10.61,4.63,8,3.8a6.6,6.6,0,0,0-4.86.38A5.69,5.69,0,0,1,5.88,6.27a3.89,3.89,0,0,1,.44,1.8,2.89,2.89,0,0,0,.75,2.13Z" transform="translate(0 0)"/><path id="Path_289" data-name="Path 289" class="cls-6" d="M5.41,10.9l-.07-.05A1.55,1.55,0,0,1,4.86,9,3,3,0,0,0,5,8.18,3.13,3.13,0,0,0,4.72,7a5.29,5.29,0,0,0-3-1.85L.4,4.91l.85-1A7.15,7.15,0,0,1,6.1,2.09a8,8,0,0,1,2.51.41C11.77,3.51,14,6.94,14,7l.09.15L12.34,8l-.07-.11c-.19-.33-1.89-3.13-4.3-3.91a5.81,5.81,0,0,0-1.85-.28,6.68,6.68,0,0,0-2.58.52A5.65,5.65,0,0,1,6,6.19a4,4,0,0,1,.46,1.86,2.74,2.74,0,0,0,.7,2l.21.18-2,.64Z" transform="translate(0 0)"/><path id="Path_290" data-name="Path 290" class="cls-6" d="M9.44,9.14A5.44,5.44,0,0,0,7.91,6.46a4,4,0,0,0-3.55-.58L4.07,5a5.28,5.28,0,0,1,4.37.7c2.05,1.45,2.3,2.76,2.32,2.9l-1.32.53Z" transform="translate(0 0)"/><path id="Path_291" data-name="Path 291" class="cls-6" d="M9.33,9.35l0-.17a5.31,5.31,0,0,0-1.48-2.6,3.41,3.41,0,0,0-2.2-.73A3.79,3.79,0,0,0,4.41,6l-.14.05L3.89,4.91l.14,0a5.35,5.35,0,0,1,4.5.73c2.11,1.48,2.37,2.85,2.39,3l0,.12-1.6.64ZM5.61,5.54A3.75,3.75,0,0,1,8,6.34a5.35,5.35,0,0,1,1.55,2.6l1-.42A5.14,5.14,0,0,0,8.35,5.84,4.87,4.87,0,0,0,5.51,5a5.19,5.19,0,0,0-1.24.15l.18.58A4.56,4.56,0,0,1,5.61,5.54ZM15,47.25a2,2,0,0,1-1.23-.44,5.45,5.45,0,0,1-1.43-1.9.73.73,0,0,1,.09-.83,1.35,1.35,0,0,1,1-.3h3.08a1.28,1.28,0,0,1,.92.28.62.62,0,0,1,.1.7,7.75,7.75,0,0,1-1.37,2,1.48,1.48,0,0,1-1.15.47Zm.47-23.66-1.62-.1a9.19,9.19,0,0,1,.68,1.69,5.16,5.16,0,0,1-.28,2.64s2.17-2.46,1.22-4.22Zm-2,28a8.74,8.74,0,0,1-7.83-7.06H7.13A7.34,7.34,0,0,0,13.56,50Z" transform="translate(0 0)"/><path id="Path_292" data-name="Path 292" class="cls-4" d="M11.82,41.74a3.84,3.84,0,0,1,0-1.51A6.58,6.58,0,0,0,10,39.59c-.49-.31-3,.31-4.77-1.87C3,35,3.46,33.37,3.46,33.37c-.58.64-1.14.4-2,3.39s.42,5.08,2.83,7.18A7.64,7.64,0,0,0,8.42,45.5C8,45,9.21,45,10.08,44.66a2.34,2.34,0,0,1,.57-1.93A3,3,0,0,1,11.79,42a1,1,0,0,0,.07-.15A.83.83,0,0,1,11.82,41.74Z" transform="translate(0 0)"/><path id="Path_293" data-name="Path 293" class="cls-5" d="M10.07,44.65A3.74,3.74,0,0,1,10,44.2c0-.15-.24-.63,0-.1a2.25,2.25,0,0,1-.13-.42C5.9,43.68,2.5,41,3.15,35.33c-.51-.68-1.23,1.38-1.23,1.38S0,42.4,5,44.61c1.69.73,3.18,1.26,3.53,1a1.76,1.76,0,0,0,1.64-.7l-.12-.32Z" transform="translate(0 0)"/><path id="Path_294" data-name="Path 294" class="cls-6" d="M11.75,40.92a3.14,3.14,0,0,1,.34-1.4.41.41,0,0,1,.05-.09,13.27,13.27,0,0,1-4.72-.75,7.37,7.37,0,0,1-4-5.48S.36,35.56,1.26,40.61c.84,4.74,4.81,6.29,9.34,6.55a3.73,3.73,0,0,1-.36-1.74,7.34,7.34,0,0,1-6.83-3.09C2.14,40.24,2.5,36.68,3,36.15,4.3,40.17,8.88,41,11.75,40.92Z" transform="translate(0 0)"/><path id="Path_295" data-name="Path 295" class="cls-6" d="M12.23,38a14.91,14.91,0,0,1-2.48,4.33s2.29-.1,2.41-.51A47.34,47.34,0,0,0,15,31.53C14.28,32.7,12.3,37.84,12.23,38Z" transform="translate(0 0)"/><path id="Path_296" data-name="Path 296" class="cls-2" d="M25.19,32.53s2.6,4,4.5,6.79c.3.43-1.9.46-1.9.46L25.2,32.53ZM24,24.31s.78,2,1.21,3S27.41,29,27.41,29a5.06,5.06,0,0,1-.92-3.41c0-1-1.32-1.43-1.32-1.43L24,24.31Z" transform="translate(0 0)"/><path id="Path_297" data-name="Path 297" class="cls-2" d="M24.75,25.41a4.1,4.1,0,0,0,4.58.84c3-1.07,3.28-4.89,3.28-5.95S27,21.36,26.2,21.82,24,24.11,24.75,25.41ZM36,5a6.31,6.31,0,0,0-4.58.92A8.43,8.43,0,0,0,29,8.54L32.13,11a4,4,0,0,0,1.95-2.67c.46-2,.16-2.91,1.91-3.29Z" transform="translate(0 0)"/><path id="Path_298" data-name="Path 298" class="cls-2" d="M25.55,19.9a6.41,6.41,0,0,1,4.69-2.54,6.06,6.06,0,0,1,3.91.74s-4.34.18-5.6,1.82c-2.33,3.07-5.73,3.32-6.28,2.64a2.89,2.89,0,0,0,2.07-1A11.2,11.2,0,0,0,25.55,19.9Zm7.34,5.93s4.82-1.65,3.9-3.33-.18-2.6-.18-2.6,2.69,2,2,4.15c-.42,1.31-1.13,2.26-5,4.08-1.86,3.46-.39,9.69-.47,9.72s-2.62-1.22-2.45-7c.05-1.79.19-4.23,2.21-5ZM26.57,8c2,1,4.79,2.46,4.79,2.46L30.27,11l.15.27-1.11.51s-2.74,2-4.41,3.25a28.44,28.44,0,0,1,2.2-4.42A3,3,0,0,0,26.57,8ZM19.85,49.88c6.21,0,8.32-3.15,8.32-3.15l-1,2.36c-.37,1-4.28,4.21-7.34,4.21" transform="translate(0 0)"/><path id="Path_299" data-name="Path 299" class="cls-2" d="M27.49,44.6s-.57,3.49-2.86,3.49c-1.95,0-2.52-3-2.52-3.56Zm3.81-5.27a25,25,0,0,1-1.14-4.89A53.62,53.62,0,0,1,30,28.36s.61,2.36,1.15,2.75a12.27,12.27,0,0,1,1.52,3s.53,3.87.79,5.16c-.7.14-1.29-.27-2.14.08ZM36.83,24s-1.3-.45-1.68-3.28a12.64,12.64,0,0,1,.46-5.26s-.08,3.89.38,4.65.84,1,1.37,2a1.47,1.47,0,0,1-.53,1.9Z" transform="translate(0 0)"/><path id="Path_300" data-name="Path 300" class="cls-3" d="M35.28,5.69l.26-.17C36.33,5.55,35.28,5.69,35.28,5.69Z" transform="translate(0 0)"/><path id="Path_301" data-name="Path 301" class="cls-1" d="M25.51,7.17a3,3,0,0,0,1.83-1.12,6.38,6.38,0,0,1,5.1-2.77A23.12,23.12,0,0,1,37.93,4l-2.38,1.5c-.25,0-.69,0-1.42,0a3.65,3.65,0,0,0-3.45,3.05L20.15,7.14" transform="translate(0 0)"/><path id="Path_302" data-name="Path 302" class="cls-4" d="M24.49,23.5a4.16,4.16,0,0,0,3.62,1c2.19-.46,3.51-1.43,3.61-3.1A3.43,3.43,0,0,0,31.26,19a12.28,12.28,0,0,0-3.61,1.78C26.48,21.82,25.61,23.45,24.49,23.5Z" transform="translate(0 0)"/><path id="Path_303" data-name="Path 303" class="cls-5" d="M26.22,23a3.93,3.93,0,0,0,2.62.1,2.9,2.9,0,0,0,1.92-2.48s1.11,3.25-2,3.88a4.54,4.54,0,0,1-4-.94L26.22,23Z" transform="translate(0 0)"/><path id="Path_304" data-name="Path 304" class="cls-6" d="M34.29,10.73c1-.83.26-1.61.34-2.56a3.09,3.09,0,0,1,.25-1.24A5.38,5.38,0,0,1,38,5l1-.2L38.36,4a7.23,7.23,0,0,0-7.2-1.37c-3,1-5.26,4.28-5.34,4.41l1.52.72s1.78-3.14,4.38-4a6.63,6.63,0,0,1,4.85.39,5.69,5.69,0,0,0-2.72,2.09,3.89,3.89,0,0,0-.44,1.8,2.81,2.81,0,0,1-.75,2.13ZM37,22.94a9.79,9.79,0,0,1-1.64-4.64,11.63,11.63,0,0,1,.53-4.5,18.38,18.38,0,0,0,.5,4.5A45,45,0,0,0,37,22.94Z" transform="translate(0 0)"/><path id="Path_305" data-name="Path 305" class="cls-6" d="M30.29,9.14a5.46,5.46,0,0,1,1.54-2.68,4,4,0,0,1,3.55-.58L35.66,5a5.26,5.26,0,0,0-4.36.7C29.24,7.16,29,8.47,29,8.61ZM33,21.81a3.37,3.37,0,0,0,.55-2,1.52,1.52,0,0,0-.73-1.24c-.8-.35-1.15.56-1.15.56S32.79,19.4,33,21.81Z" transform="translate(0 0)"/><path id="Path_306" data-name="Path 306" class="cls-6" d="M25.68,23.27l0,.08a3.6,3.6,0,0,0,4.21,0c1.14-.84,1-2.94.68-3.83a6.86,6.86,0,0,0-2.32,1c.81-.73,1.53-1.26,1.52-1.27l.93-.27,1.8-.61c0,.14.68,3.21-1.22,5.3-.83.93-4.77,3-6.63-.55l1.08.16Z" transform="translate(0 0)"/><path id="Path_307" data-name="Path 307" class="cls-6" d="M25.88,23.49c-1.17,1.78-4.12.77-4.07-1.12a3,3,0,0,0,3.71-.91c1-1.17,4.28-4.4,8.7-3.33-3,.68-7.1,3.47-8.34,5.36Z" transform="translate(0 0)"/><path id="Path_308" data-name="Path 308" class="cls-6" d="M34.63,28.52a3.5,3.5,0,0,0-1.27,2.73,56.77,56.77,0,0,0,.46,7c-.58.37-1,.45-1.55.83a70,70,0,0,1-.4-8.32,4.36,4.36,0,0,1,2-3.57c.28-.17.58-.33.88-.49,1.55-.84,3.16-1.71,3.16-3.19A2,2,0,0,0,37,21.61l0,0a2.74,2.74,0,0,1-.89-1c-.58-1.3-.67-4.63,0-5.47.34-.42,1.24-1.84,1-2.78a1.26,1.26,0,0,0-.7-.83,3.54,3.54,0,0,0-1.58-.3,12.58,12.58,0,0,0-3.44.63,25.71,25.71,0,0,0-6.7,3.95l0,0-.58.4.36-.61a13.36,13.36,0,0,1,6.44-5.21,13.06,13.06,0,0,1,3.92-.72,5.16,5.16,0,0,1,2.32.47,2.88,2.88,0,0,1,1.48,1.78c.52,1.91-1.18,4-1.24,4.1a8.47,8.47,0,0,0,.18,3.94,1.64,1.64,0,0,0,.45.46l.23.17a3.34,3.34,0,0,1,1.61,2.91c0,2.31-2.34,3.57-4.22,4.58l-.87.47Z" transform="translate(0 0)"/><path id="Path_309" data-name="Path 309" class="cls-6" d="M31.84,10.46a8,8,0,0,0-3.53-2.92,19.05,19.05,0,0,0-8.44-1.8h0a19.08,19.08,0,0,0-8.44,1.8A8,8,0,0,0,7.9,10.46l-.16.21,1.88.42L9.68,11l0-.07c0-.13.28-.8,2.38-1.82a17.54,17.54,0,0,1,7.78-1.65,17.52,17.52,0,0,1,7.77,1.65c2.1,1,2.35,1.7,2.38,1.82l0,.07.06.07L32,10.67l-.16-.21Z" transform="translate(0 0)"/><path id="Path_310" data-name="Path 310" class="cls-6" d="M34.29,10.73c1-.83.26-1.61.34-2.56a3.09,3.09,0,0,1,.25-1.24A5.38,5.38,0,0,1,38,5l1-.2L38.36,4a7.23,7.23,0,0,0-7.2-1.37c-3,1-5.26,4.28-5.34,4.41l1.52.72s1.78-3.14,4.38-4a6.63,6.63,0,0,1,4.85.39,5.69,5.69,0,0,0-2.72,2.09,3.89,3.89,0,0,0-.44,1.8,2.81,2.81,0,0,1-.75,2.13Z" transform="translate(0 0)"/><path id="Path_311" data-name="Path 311" class="cls-6" d="M32.36,10.26l.21-.18a2.74,2.74,0,0,0,.7-2,4,4,0,0,1,.46-1.86,5.65,5.65,0,0,1,2.47-2,6.72,6.72,0,0,0-2.58-.52,6.1,6.1,0,0,0-1.85.28c-2.4.78-4.1,3.58-4.3,3.91L27.4,8l-1.8-.84L25.7,7S28,3.51,31.12,2.49a8.58,8.58,0,0,1,2.52-.41,7.13,7.13,0,0,1,4.84,1.84l.85,1-1.28.25A5.32,5.32,0,0,0,35,7a3.13,3.13,0,0,0-.23,1.17,3.47,3.47,0,0,0,.1.85,1.55,1.55,0,0,1-.48,1.82l-.07.05-2-.64Z" transform="translate(0 0)"/><path id="Path_312" data-name="Path 312" class="cls-6" d="M30.29,9.14a5.46,5.46,0,0,1,1.54-2.68,4,4,0,0,1,3.55-.58L35.66,5a5.26,5.26,0,0,0-4.36.7C29.24,7.16,29,8.47,29,8.61Z" transform="translate(0 0)"/><path id="Path_313" data-name="Path 313" class="cls-6" d="M28.8,8.71l0-.12c0-.15.28-1.52,2.39-3a5.4,5.4,0,0,1,4.5-.73l.15,0-.38,1.16L35.33,6a3.75,3.75,0,0,0-1.2-.17,3.41,3.41,0,0,0-2.2.73,5.31,5.31,0,0,0-1.48,2.6l0,.17Zm6.48-3,.19-.58A5.28,5.28,0,0,0,34.22,5a4.86,4.86,0,0,0-2.83.88,5.09,5.09,0,0,0-2.24,2.68l1,.41a5.34,5.34,0,0,1,1.54-2.59,3.83,3.83,0,0,1,2.39-.8,4.56,4.56,0,0,1,1.16.15ZM23.57,46.79a7.63,7.63,0,0,1-1.36-2,.62.62,0,0,1,.09-.7,1.29,1.29,0,0,1,.93-.28h3.08a1.33,1.33,0,0,1,1,.3.71.71,0,0,1,.09.82A5.19,5.19,0,0,1,26,46.81a1.84,1.84,0,0,1-1.23.44,1.51,1.51,0,0,1-1.15-.46Zm.68-23.19,1.63-.1a8.57,8.57,0,0,0-.69,1.69,5.39,5.39,0,0,0,.28,2.64s-2.17-2.47-1.22-4.23Z" transform="translate(0 0)"/><path id="Path_314" data-name="Path 314" class="cls-2" d="M19.87,17.78A5.79,5.79,0,0,1,16.46,17s1.33,2.33,3.4,2.33v0c2.08,0,3.4-2.33,3.4-2.33A5.82,5.82,0,0,1,19.87,17.78Z" transform="translate(0 0)"/><path id="Path_315" data-name="Path 315" class="cls-6" d="M22.72,17.77a5.12,5.12,0,0,1-5.71,0s1.52,1.85,2.85,1.87h0C21.21,19.62,22.72,17.77,22.72,17.77Zm3.56,33.78L26.17,50a7.32,7.32,0,0,0,6.43-5.55h1.52a8.75,8.75,0,0,1-7.84,7.06Z" transform="translate(0 0)"/><path id="Path_316" data-name="Path 316" class="cls-4" d="M27.91,41.74a4,4,0,0,0,0-1.51,6.58,6.58,0,0,1,1.82-.64c.49-.31,3,.31,4.77-1.87,2.25-2.73,1.78-4.35,1.78-4.35.58.64,1.14.4,2,3.39s-.42,5.08-2.83,7.18a7.64,7.64,0,0,1-4.15,1.56c.47-.47-.79-.52-1.66-.84a2.34,2.34,0,0,0-.57-1.93A3,3,0,0,0,27.94,42a1,1,0,0,1-.07-.15.83.83,0,0,0,0-.15Z" transform="translate(0 0)"/><path id="Path_317" data-name="Path 317" class="cls-5" d="M29.66,44.65a3.81,3.81,0,0,0,.13-.45c0-.15.24-.63,0-.1a2.3,2.3,0,0,0,.14-.42c3.91,0,7.32-2.69,6.66-8.35.51-.68,1.23,1.38,1.23,1.38s2,5.69-3.1,7.9c-1.69.73-3.18,1.26-3.53,1a1.77,1.77,0,0,1-1.64-.7A3.21,3.21,0,0,0,29.66,44.65Z" transform="translate(0 0)"/><path id="Path_318" data-name="Path 318" class="cls-6" d="M28,40.92a3.13,3.13,0,0,0-.33-1.4.41.41,0,0,1,0-.09,13.34,13.34,0,0,0,4.72-.75,7.4,7.4,0,0,0,4-5.48s3,2.36,2.16,7.41c-.85,4.74-4.82,6.29-9.34,6.55a3.7,3.7,0,0,0,.34-1.73,7.39,7.39,0,0,0,6.84-3.09c1.27-2.09.91-5.66.39-6.18C35.44,40.17,30.86,41,28,40.92Z" transform="translate(0 0)"/><path id="Path_319" data-name="Path 319" class="cls-6" d="M29.81,42.11c-.54-.58-1.54-1.28-3.83-1.28H13.75c-2.29,0-3.29.7-3.83,1.28a3.23,3.23,0,0,0-.36,3.52C11,49.56,13,53.56,19.86,53.57h0c6.82,0,8.85-4,10.3-7.94A3.23,3.23,0,0,0,29.81,42.11Zm-1.06,3.24c-.69,2-2.55,6.76-8.88,6.77S11.68,47.33,11,45.35a2.39,2.39,0,0,1,.08-2.41c.3-.35,1-.76,2.58-.76H26.08c1.58,0,2.28.41,2.58.76a2.41,2.41,0,0,1,.09,2.41Z" transform="translate(0 0)"/><path id="Path_320" data-name="Path 320" class="cls-6" d="M27.51,38A14.91,14.91,0,0,0,30,42.37s-2.29-.1-2.41-.51a47.34,47.34,0,0,1-2.83-10.33C25.46,32.7,27.44,37.84,27.51,38Z" transform="translate(0 0)"/></g></svg>