<svg xmlns="http://www.w3.org/2000/svg" xmlns:xlink="http://www.w3.org/1999/xlink" width="619" height="391" viewBox="0 0 619 391"><defs><style>.a{fill:url(#a);}.b{fill:#fff;}</style><linearGradient id="a" x1="1" x2="0" y2="1" gradientUnits="objectBoundingBox"><stop offset="0" stop-color="#c52fef"/><stop offset="0.597" stop-color="#6991f0"/><stop offset="1" stop-color="#24d2ee"/></linearGradient></defs><g transform="translate(-1085 -268)"><g transform="translate(23353 13272)"><path class="a" d="M10,0H339a10,10,0,0,1,10,10V192a40,40,0,0,1-40,40H10A10,10,0,0,1,0,222V10A10,10,0,0,1,10,0Z" transform="translate(-22268 -13004)"/><g transform="translate(-22716.563 -13487.092)"><g transform="translate(516.377 574.98)"><path class="b" d="M-100.912-22.425a28.464,28.464,0,0,0,4.715,4.37,29.074,29.074,0,0,0,5.463,2.932A18.167,18.167,0,0,0-83.662-13.8q6.9,0,10.35-2.933a8.765,8.765,0,0,0,3.45-6.842,8.932,8.932,0,0,0-3.277-6.843q-3.277-2.932-9.372-2.932h-9.2V-48.3h8.05q5.175,0,8.05-2.645A8.548,8.548,0,0,0-72.738-57.5a8.548,8.548,0,0,0-2.875-6.555q-2.875-2.645-8.05-2.645a13.317,13.317,0,0,0-5.923,1.265,26.93,26.93,0,0,0-4.543,2.76,27.676,27.676,0,0,0-3.91,4.025l-11.5-11.5a32.847,32.847,0,0,1,6.9-5.98,41.124,41.124,0,0,1,8.625-4.2,35.024,35.024,0,0,1,12.075-1.9,30.731,30.731,0,0,1,10.982,1.9,28.035,28.035,0,0,1,8.568,5,22.165,22.165,0,0,1,5.52,7.188A19.112,19.112,0,0,1-54.913-59.8a15.706,15.706,0,0,1-2.012,8.338,21.678,21.678,0,0,1-4.312,5.232,24.827,24.827,0,0,1-6.325,3.68A26.07,26.07,0,0,1-59.857-38.3a20.959,20.959,0,0,1,2.875,2.7,19.773,19.773,0,0,1,2.472,3.507,20.433,20.433,0,0,1,1.783,4.37,19.2,19.2,0,0,1,.69,5.29,20.983,20.983,0,0,1-2.07,9.085,23.033,23.033,0,0,1-5.98,7.7,30.425,30.425,0,0,1-9.43,5.347,36.075,36.075,0,0,1-12.42,2.012A40.906,40.906,0,0,1-95.22-.23a44.937,44.937,0,0,1-9.488-4.37,35.031,35.031,0,0,1-7.7-6.325Zm93.725,8.05a13.6,13.6,0,0,0,6.325-1.61,16.333,16.333,0,0,0,5.52-4.83,26.182,26.182,0,0,0,3.91-8.108,38.81,38.81,0,0,0,1.5-11.327,38.81,38.81,0,0,0-1.5-11.327,26.182,26.182,0,0,0-3.91-8.107,16.333,16.333,0,0,0-5.52-4.83,13.6,13.6,0,0,0-6.325-1.61,13.6,13.6,0,0,0-6.325,1.61,16.333,16.333,0,0,0-5.52,4.83,26.182,26.182,0,0,0-3.91,8.107,38.81,38.81,0,0,0-1.5,11.327,38.81,38.81,0,0,0,1.5,11.327,26.182,26.182,0,0,0,3.91,8.108,16.333,16.333,0,0,0,5.52,4.83A13.6,13.6,0,0,0-7.187-14.375Zm0,16.1A30.707,30.707,0,0,1-20.355-1.207,33.051,33.051,0,0,1-31.337-9.545,41.021,41.021,0,0,1-38.87-22.77a51.293,51.293,0,0,1-2.818-17.48A51.293,51.293,0,0,1-38.87-57.73a41.021,41.021,0,0,1,7.532-13.225,33.051,33.051,0,0,1,10.982-8.337A30.707,30.707,0,0,1-7.187-82.225,30.707,30.707,0,0,1,5.98-79.292a33.051,33.051,0,0,1,10.983,8.337A41.021,41.021,0,0,1,24.5-57.73a51.293,51.293,0,0,1,2.817,17.48A51.293,51.293,0,0,1,24.5-22.77,41.021,41.021,0,0,1,16.963-9.545,33.051,33.051,0,0,1,5.98-1.207,30.707,30.707,0,0,1-7.187,1.725Zm80.5-16.1a13.6,13.6,0,0,0,6.325-1.61,16.333,16.333,0,0,0,5.52-4.83,26.182,26.182,0,0,0,3.91-8.108,38.81,38.81,0,0,0,1.5-11.327,38.81,38.81,0,0,0-1.5-11.327,26.182,26.182,0,0,0-3.91-8.107,16.333,16.333,0,0,0-5.52-4.83,13.6,13.6,0,0,0-6.325-1.61,13.6,13.6,0,0,0-6.325,1.61,16.333,16.333,0,0,0-5.52,4.83,26.182,26.182,0,0,0-3.91,8.107,38.81,38.81,0,0,0-1.5,11.327,38.81,38.81,0,0,0,1.5,11.327,26.182,26.182,0,0,0,3.91,8.108,16.333,16.333,0,0,0,5.52,4.83A13.6,13.6,0,0,0,73.313-14.375Zm0,16.1A30.707,30.707,0,0,1,60.145-1.207,33.051,33.051,0,0,1,49.162-9.545,41.021,41.021,0,0,1,41.63-22.77a51.293,51.293,0,0,1-2.818-17.48A51.293,51.293,0,0,1,41.63-57.73a41.021,41.021,0,0,1,7.532-13.225,33.051,33.051,0,0,1,10.982-8.337,30.707,30.707,0,0,1,13.168-2.933A30.707,30.707,0,0,1,86.48-79.292a33.051,33.051,0,0,1,10.983,8.337A41.021,41.021,0,0,1,105-57.73a51.293,51.293,0,0,1,2.817,17.48A51.293,51.293,0,0,1,105-22.77,41.021,41.021,0,0,1,97.463-9.545,33.051,33.051,0,0,1,86.48-1.207,30.707,30.707,0,0,1,73.313,1.725Z" transform="translate(101.186 93.112)"/><path class="b" d="M-16.437-17.5h1.875v7.75h9.75V-17.5h1.875V0H-4.812V-8h-9.75V0h-1.875ZM1.688-12h1.75v1.625a5.183,5.183,0,0,1,.975-.925,6.306,6.306,0,0,1,1.238-.65,4.746,4.746,0,0,1,1.787-.3h.5v1.75h-.75a3.741,3.741,0,0,0-1.425.275,3.807,3.807,0,0,0-1.2.775,3.557,3.557,0,0,0-.825,1.212,4.12,4.12,0,0,0-.3,1.613V0H1.688Zm8.75,8.875a4.463,4.463,0,0,0,.8.875,3.911,3.911,0,0,0,.988.613,3.247,3.247,0,0,0,1.337.262,2.911,2.911,0,0,0,1.975-.575,1.827,1.827,0,0,0,.65-1.425A1.319,1.319,0,0,0,15.7-4.45a4.12,4.12,0,0,0-1.2-.662q-.712-.262-1.562-.5a7.921,7.921,0,0,1-1.562-.612,3.672,3.672,0,0,1-1.2-1,2.608,2.608,0,0,1-.488-1.65,2.94,2.94,0,0,1,.288-1.262,3.278,3.278,0,0,1,.813-1.075,4.191,4.191,0,0,1,1.262-.75,4.474,4.474,0,0,1,1.637-.287,4.8,4.8,0,0,1,1.663.262,7.22,7.22,0,0,1,1.212.563,4.793,4.793,0,0,1,1,.8l-1.25,1.25a3.31,3.31,0,0,0-.65-.625,5.21,5.21,0,0,0-.837-.425,2.982,2.982,0,0,0-1.138-.2,2.359,2.359,0,0,0-1.637.55,1.6,1.6,0,0,0-.613,1.2,1.223,1.223,0,0,0,.488,1.025,4.277,4.277,0,0,0,1.2.625q.712.25,1.563.488a7.46,7.46,0,0,1,1.563.625,3.682,3.682,0,0,1,1.2,1.037,2.761,2.761,0,0,1,.487,1.7,3.384,3.384,0,0,1-.3,1.413,3.319,3.319,0,0,1-.863,1.15A4.225,4.225,0,0,1,15.4-.038,5.487,5.487,0,0,1,13.563.25a5.309,5.309,0,0,1-1.95-.325A6.2,6.2,0,0,1,10.238-.8a3.786,3.786,0,0,1-1.05-1.075Z" transform="translate(223.186 33.112)"/></g><path class="b" d="M-106.56-3a8.622,8.622,0,0,1-1.8,1.68,11.363,11.363,0,0,1-2.256,1.152A8.571,8.571,0,0,1-113.76.36a9.285,9.285,0,0,1-3.612-.7,9.179,9.179,0,0,1-2.892-1.884A8.666,8.666,0,0,1-122.184-5a8.4,8.4,0,0,1-.7-3.4,8.4,8.4,0,0,1,.7-3.4,8.666,8.666,0,0,1,1.92-2.784,9.179,9.179,0,0,1,2.892-1.884,9.285,9.285,0,0,1,3.612-.7,8.33,8.33,0,0,1,3.084.528,10.779,10.779,0,0,1,2.22,1.152,8.9,8.9,0,0,1,1.776,1.68l-2.4,2.4a6.692,6.692,0,0,0-1.224-1.2,6.969,6.969,0,0,0-1.464-.828,5,5,0,0,0-1.992-.372,5.323,5.323,0,0,0-2.112.42,5.4,5.4,0,0,0-1.716,1.152,5.4,5.4,0,0,0-1.152,1.716,5.323,5.323,0,0,0-.42,2.112,5.323,5.323,0,0,0,.42,2.112,5.4,5.4,0,0,0,1.152,1.716,5.4,5.4,0,0,0,1.716,1.152A5.323,5.323,0,0,0-113.76-3a5.31,5.31,0,0,0,2.064-.372,7.414,7.414,0,0,0,1.512-.828,5.813,5.813,0,0,0,1.224-1.2Zm4.92-13.8h3.6v9.84a4.533,4.533,0,0,0,.276,1.632A3.807,3.807,0,0,0-97-4.08a3.247,3.247,0,0,0,1.176.8A3.973,3.973,0,0,0-94.32-3a3.973,3.973,0,0,0,1.5-.276,3.247,3.247,0,0,0,1.176-.8,3.807,3.807,0,0,0,.768-1.248A4.533,4.533,0,0,0-90.6-6.96V-16.8H-87v9.84a7.915,7.915,0,0,1-.54,2.976,6.8,6.8,0,0,1-1.5,2.3,6.773,6.773,0,0,1-2.316,1.5A7.941,7.941,0,0,1-94.32.36,7.915,7.915,0,0,1-97.3-.18a6.8,6.8,0,0,1-2.3-1.5,6.8,6.8,0,0,1-1.5-2.3,7.915,7.915,0,0,1-.54-2.976Zm21.24,0h7.44a6.916,6.916,0,0,1,2.436.408,5.3,5.3,0,0,1,1.86,1.152,4.975,4.975,0,0,1,1.176,1.788,6.245,6.245,0,0,1,.408,2.292,5.715,5.715,0,0,1-.444,2.4,5.218,5.218,0,0,1-1,1.512A4.508,4.508,0,0,1-69.96-6.24L-66.48,0h-3.96l-3-5.52H-76.8V0h-3.6Zm7.32,7.92a2.225,2.225,0,0,0,1.644-.636A2.225,2.225,0,0,0-70.8-11.16a2.225,2.225,0,0,0-.636-1.644,2.225,2.225,0,0,0-1.644-.636H-76.8v4.56Zm12-7.92h7.44a6.916,6.916,0,0,1,2.436.408,5.3,5.3,0,0,1,1.86,1.152,4.975,4.975,0,0,1,1.176,1.788,6.245,6.245,0,0,1,.408,2.292,5.715,5.715,0,0,1-.444,2.4,5.218,5.218,0,0,1-1,1.512A4.507,4.507,0,0,1-50.64-6.24L-47.16,0h-3.96l-3-5.52h-3.36V0h-3.6Zm7.32,7.92a2.225,2.225,0,0,0,1.644-.636,2.225,2.225,0,0,0,.636-1.644,2.225,2.225,0,0,0-.636-1.644,2.225,2.225,0,0,0-1.644-.636h-3.72v4.56Zm12-7.92h12.48v3.36h-8.88v3.24h6.96v3.24h-6.96v3.6h9.12V0H-41.76Zm18.36,0h3.24L-12-6.36V-16.8h3.6V0h-3.24L-19.8-10.44V0h-3.6ZM1.44-13.44h-4.8V-16.8H9.84v3.36H5.04V0H1.44ZM21.6-16.8h3.24L30.6-9.6l5.76-7.2H39.6V0H36V-11.04L30.6-4.32l-5.4-6.72V0H21.6ZM48.96-8.4a5.323,5.323,0,0,0,.42,2.112,5.4,5.4,0,0,0,1.152,1.716A5.4,5.4,0,0,0,52.248-3.42,5.323,5.323,0,0,0,54.36-3a5.323,5.323,0,0,0,2.112-.42,5.4,5.4,0,0,0,1.716-1.152A5.4,5.4,0,0,0,59.34-6.288,5.323,5.323,0,0,0,59.76-8.4a5.323,5.323,0,0,0-.42-2.112,5.4,5.4,0,0,0-1.152-1.716,5.4,5.4,0,0,0-1.716-1.152,5.323,5.323,0,0,0-2.112-.42,5.323,5.323,0,0,0-2.112.42,5.4,5.4,0,0,0-1.716,1.152,5.4,5.4,0,0,0-1.152,1.716A5.323,5.323,0,0,0,48.96-8.4Zm-3.72,0a8.4,8.4,0,0,1,.7-3.4,8.666,8.666,0,0,1,1.92-2.784,9.179,9.179,0,0,1,2.892-1.884,9.285,9.285,0,0,1,3.612-.7,9.285,9.285,0,0,1,3.612.7,9.179,9.179,0,0,1,2.892,1.884,8.666,8.666,0,0,1,1.92,2.784,8.4,8.4,0,0,1,.7,3.4,8.4,8.4,0,0,1-.7,3.4,8.666,8.666,0,0,1-1.92,2.784A9.179,9.179,0,0,1,57.972-.336a9.285,9.285,0,0,1-3.612.7,9.285,9.285,0,0,1-3.612-.7A9.179,9.179,0,0,1,47.856-2.22,8.666,8.666,0,0,1,45.936-5,8.4,8.4,0,0,1,45.24-8.4Zm23.88-8.4h3.24L80.52-6.36V-16.8h3.6V0H80.88L72.72-10.44V0h-3.6Zm24.84,3.36h-4.8V-16.8h13.2v3.36h-4.8V0h-3.6ZM107.4-16.8H111v6.6h7.2v-6.6h3.6V0h-3.6V-6.84H111V0h-3.6ZM-65.76,21a8.622,8.622,0,0,1-1.8,1.68,11.363,11.363,0,0,1-2.256,1.152,8.571,8.571,0,0,1-3.144.528,9.285,9.285,0,0,1-3.612-.7,9.179,9.179,0,0,1-2.892-1.884A8.666,8.666,0,0,1-81.384,19a8.4,8.4,0,0,1-.7-3.4,8.4,8.4,0,0,1,.7-3.4,8.666,8.666,0,0,1,1.92-2.784,9.179,9.179,0,0,1,2.892-1.884,9.285,9.285,0,0,1,3.612-.7,8.33,8.33,0,0,1,3.084.528,10.779,10.779,0,0,1,2.22,1.152A8.9,8.9,0,0,1-65.88,10.2l-2.4,2.4A6.692,6.692,0,0,0-69.5,11.4a6.969,6.969,0,0,0-1.464-.828A5,5,0,0,0-72.96,10.2a5.323,5.323,0,0,0-2.112.42,5.4,5.4,0,0,0-1.716,1.152,5.4,5.4,0,0,0-1.152,1.716,5.323,5.323,0,0,0-.42,2.112,5.323,5.323,0,0,0,.42,2.112,5.4,5.4,0,0,0,1.152,1.716,5.4,5.4,0,0,0,1.716,1.152A5.323,5.323,0,0,0-72.96,21a5.31,5.31,0,0,0,2.064-.372,7.414,7.414,0,0,0,1.512-.828,5.813,5.813,0,0,0,1.224-1.2Zm13.56-4.08-1.992-5.52h-.1l-1.992,5.52ZM-56.28,7.2h4.08L-45.72,24h-3.84L-51,20.16h-6.48L-58.92,24h-3.84Zm15.24,0h7.08a6.836,6.836,0,0,1,2.448.42,5.585,5.585,0,0,1,1.9,1.176,5.239,5.239,0,0,1,1.224,1.788,5.784,5.784,0,0,1,.432,2.256,5.784,5.784,0,0,1-.432,2.256,5.239,5.239,0,0,1-1.224,1.788,5.585,5.585,0,0,1-1.9,1.176,6.836,6.836,0,0,1-2.448.42h-3.48V24h-3.6Zm6.96,7.92a2.4,2.4,0,0,0,1.74-.636,2.182,2.182,0,0,0,.66-1.644,2.182,2.182,0,0,0-.66-1.644,2.4,2.4,0,0,0-1.74-.636h-3.36v4.56Zm18.84,1.8-1.992-5.52h-.1l-1.992,5.52ZM-19.32,7.2h4.08L-8.76,24H-12.6l-1.44-3.84h-6.48L-21.96,24H-25.8Zm30,13.8a8.622,8.622,0,0,1-1.8,1.68,11.362,11.362,0,0,1-2.256,1.152,8.571,8.571,0,0,1-3.144.528,9.285,9.285,0,0,1-3.612-.7A9.179,9.179,0,0,1-3.024,21.78,8.666,8.666,0,0,1-4.944,19a8.633,8.633,0,0,1,0-6.792A8.666,8.666,0,0,1-3.024,9.42,9.179,9.179,0,0,1-.132,7.536a9.285,9.285,0,0,1,3.612-.7,8.33,8.33,0,0,1,3.084.528A10.78,10.78,0,0,1,8.784,8.52,8.9,8.9,0,0,1,10.56,10.2l-2.4,2.4a6.692,6.692,0,0,0-1.224-1.2,6.968,6.968,0,0,0-1.464-.828A5,5,0,0,0,3.48,10.2a5.323,5.323,0,0,0-2.112.42A5.356,5.356,0,0,0-1.5,13.488a5.52,5.52,0,0,0,0,4.224A5.356,5.356,0,0,0,1.368,20.58,5.323,5.323,0,0,0,3.48,21a5.31,5.31,0,0,0,2.064-.372A7.414,7.414,0,0,0,7.056,19.8,5.813,5.813,0,0,0,8.28,18.6ZM15.72,7.2h3.6V24h-3.6Zm13.44,3.36h-4.8V7.2h13.2v3.36h-4.8V24h-3.6ZM42.6,7.2h3.6V24H42.6Zm10.32,0H65.4v3.36H56.52V13.8h6.96v3.24H56.52v3.6h9.12V24H52.92ZM72,19.32a5.2,5.2,0,0,0,1.032.912,6.133,6.133,0,0,0,1.236.612,4.78,4.78,0,0,0,1.692.276,3.251,3.251,0,0,0,2.1-.552,1.715,1.715,0,0,0,.66-1.368,1.308,1.308,0,0,0-.624-1.14,7.091,7.091,0,0,0-1.56-.756q-.936-.336-2.016-.7A9.306,9.306,0,0,1,72.5,15.66a5.205,5.205,0,0,1-1.56-1.512,4.186,4.186,0,0,1-.624-2.388,4.4,4.4,0,0,1,.42-1.884A4.659,4.659,0,0,1,71.94,8.3a5.841,5.841,0,0,1,1.92-1.068,7.836,7.836,0,0,1,2.58-.4,7.7,7.7,0,0,1,2.46.36,8.546,8.546,0,0,1,1.764.792A7.2,7.2,0,0,1,82.08,9.12l-2.4,2.4a5.126,5.126,0,0,0-.84-.72,5.631,5.631,0,0,0-.984-.492,3.5,3.5,0,0,0-1.3-.228,3.062,3.062,0,0,0-1.944.48,1.5,1.5,0,0,0-.576,1.2,1.308,1.308,0,0,0,.624,1.14,7.091,7.091,0,0,0,1.56.756q.936.336,2.016.7a9.306,9.306,0,0,1,2.016.948,5.205,5.205,0,0,1,1.56,1.512A4.186,4.186,0,0,1,82.44,19.2a4.642,4.642,0,0,1-.432,1.968,4.791,4.791,0,0,1-1.26,1.644,6.316,6.316,0,0,1-2,1.128,7.889,7.889,0,0,1-2.664.42,8.929,8.929,0,0,1-2.844-.408,9.87,9.87,0,0,1-2.028-.912A6.636,6.636,0,0,1,69.6,21.72Z" transform="translate(611.563 543.092)"/></g></g><g transform="translate(23152 13431)"><path class="a" d="M10,0H297a10,10,0,0,1,10,10V192a40,40,0,0,1-40,40H10A10,10,0,0,1,0,222V10A10,10,0,0,1,10,0Z" transform="translate(-21755 -13004)"/><g transform="translate(-21703.318 -12958.303)"><g transform="translate(3.515 22.848)"><path class="b" d="M-40.68-79.1h17.515l-16.95,25.99,1.13-.226q.565-.113,1.243-.226a9.734,9.734,0,0,1,1.582-.113,23.973,23.973,0,0,1,10.113,2.2,28.434,28.434,0,0,1,8.475,5.932,28.027,28.027,0,0,1,5.819,8.757A27.191,27.191,0,0,1-9.605-25.99a26.589,26.589,0,0,1-2.2,10.792,26.175,26.175,0,0,1-6.215,8.757A30.48,30.48,0,0,1-27.515-.508a31.974,31.974,0,0,1-12.035,2.2,31.974,31.974,0,0,1-12.035-2.2,30.48,30.48,0,0,1-9.492-5.933A26.175,26.175,0,0,1-67.291-15.2,26.589,26.589,0,0,1-69.5-25.99,25.888,25.888,0,0,1-68.422-33.5,43.457,43.457,0,0,1-66.1-39.663a31.044,31.044,0,0,1,3.39-5.537Zm1.13,65.54a12.151,12.151,0,0,0,8.983-3.447A12.151,12.151,0,0,0-27.12-25.99a12.151,12.151,0,0,0-3.447-8.983A12.151,12.151,0,0,0-39.55-38.42a12.151,12.151,0,0,0-8.984,3.447A12.151,12.151,0,0,0-51.98-25.99a12.151,12.151,0,0,0,3.446,8.983A12.151,12.151,0,0,0-39.55-13.56Zm74.015-.565a13.363,13.363,0,0,0,6.215-1.582A16.049,16.049,0,0,0,46.1-20.453a25.727,25.727,0,0,0,3.842-7.967,38.135,38.135,0,0,0,1.469-11.13,38.135,38.135,0,0,0-1.469-11.131A25.727,25.727,0,0,0,46.1-58.647a16.049,16.049,0,0,0-5.424-4.746,13.363,13.363,0,0,0-6.215-1.582,13.363,13.363,0,0,0-6.215,1.582,16.049,16.049,0,0,0-5.424,4.746,25.727,25.727,0,0,0-3.842,7.966A38.135,38.135,0,0,0,17.515-39.55a38.135,38.135,0,0,0,1.469,11.13,25.727,25.727,0,0,0,3.842,7.967,16.049,16.049,0,0,0,5.424,4.746A13.363,13.363,0,0,0,34.465-14.125Zm0,15.82A30.173,30.173,0,0,1,21.527-1.186,32.476,32.476,0,0,1,10.735-9.379a40.308,40.308,0,0,1-7.4-13A50.4,50.4,0,0,1,.565-39.55,50.4,50.4,0,0,1,3.334-56.726a40.308,40.308,0,0,1,7.4-13,32.476,32.476,0,0,1,10.792-8.192,30.173,30.173,0,0,1,12.938-2.882A30.173,30.173,0,0,1,47.4-77.913a32.476,32.476,0,0,1,10.791,8.192,40.308,40.308,0,0,1,7.4,13A50.4,50.4,0,0,1,68.365-39.55,50.4,50.4,0,0,1,65.6-22.374a40.308,40.308,0,0,1-7.4,13A32.476,32.476,0,0,1,47.4-1.186,30.173,30.173,0,0,1,34.465,1.695Z" transform="translate(67.804 107.455)"/><path class="b" d="M-23.312-17.5h12v1.75H-21.437V-10h8.125v1.75h-8.125v6.5h10.375V0h-12.25Zm15.75,0h1.875V-6.875a5.707,5.707,0,0,0,.4,2.162,5.158,5.158,0,0,0,1.1,1.7A4.982,4.982,0,0,0-2.525-1.9a5.385,5.385,0,0,0,2.088.4A5.385,5.385,0,0,0,1.65-1.9,4.982,4.982,0,0,0,3.312-3.013a5.158,5.158,0,0,0,1.1-1.7,5.707,5.707,0,0,0,.4-2.162V-17.5H6.688V-6.875a7.111,7.111,0,0,1-.55,2.8A7.046,7.046,0,0,1,4.625-1.812,7.046,7.046,0,0,1,2.363-.3a7.111,7.111,0,0,1-2.8.55,7.111,7.111,0,0,1-2.8-.55A7.046,7.046,0,0,1-5.5-1.812,7.046,7.046,0,0,1-7.012-4.075a7.111,7.111,0,0,1-.55-2.8Zm19.25,0h7a5.707,5.707,0,0,1,2.163.4,5.158,5.158,0,0,1,1.7,1.1,4.982,4.982,0,0,1,1.112,1.663,5.385,5.385,0,0,1,.4,2.087,4.745,4.745,0,0,1-.575,2.462,6.115,6.115,0,0,1-1.25,1.538,5.944,5.944,0,0,1-1.8,1L24.563,0H22.438L18.563-7h-5V0H11.688Zm7,8.75a3.446,3.446,0,0,0,2.55-.95,3.446,3.446,0,0,0,.95-2.55,3.446,3.446,0,0,0-.95-2.55,3.446,3.446,0,0,0-2.55-.95H13.563v7Z" transform="translate(173.803 46.455)"/></g><path class="b" d="M-91.02-7.08l-1.992-5.52h-.1L-95.1-7.08ZM-95.1-16.8h4.08L-84.54,0h-3.84l-1.44-3.84H-96.3L-97.74,0h-3.84Zm16.92,3.36h-4.8V-16.8h13.2v3.36h-4.8V0h-3.6Zm20.16-3.36h3.6v6.6h7.2v-6.6h3.6V0h-3.6V-6.84h-7.2V0h-3.6Zm23.76,8.4a5.323,5.323,0,0,0,.42,2.112,5.4,5.4,0,0,0,1.152,1.716A5.4,5.4,0,0,0-30.972-3.42,5.323,5.323,0,0,0-28.86-3a5.323,5.323,0,0,0,2.112-.42,5.4,5.4,0,0,0,1.716-1.152A5.4,5.4,0,0,0-23.88-6.288,5.323,5.323,0,0,0-23.46-8.4a5.323,5.323,0,0,0-.42-2.112,5.4,5.4,0,0,0-1.152-1.716,5.4,5.4,0,0,0-1.716-1.152,5.323,5.323,0,0,0-2.112-.42,5.323,5.323,0,0,0-2.112.42,5.4,5.4,0,0,0-1.716,1.152,5.4,5.4,0,0,0-1.152,1.716A5.323,5.323,0,0,0-34.26-8.4Zm-3.72,0a8.4,8.4,0,0,1,.7-3.4,8.666,8.666,0,0,1,1.92-2.784,9.179,9.179,0,0,1,2.892-1.884,9.285,9.285,0,0,1,3.612-.7,9.285,9.285,0,0,1,3.612.7,9.179,9.179,0,0,1,2.892,1.884,8.666,8.666,0,0,1,1.92,2.784,8.4,8.4,0,0,1,.7,3.4,8.4,8.4,0,0,1-.7,3.4,8.666,8.666,0,0,1-1.92,2.784A9.179,9.179,0,0,1-25.248-.336a9.285,9.285,0,0,1-3.612.7,9.285,9.285,0,0,1-3.612-.7A9.179,9.179,0,0,1-35.364-2.22,8.666,8.666,0,0,1-37.284-5,8.4,8.4,0,0,1-37.98-8.4Zm23.76-8.4h3.6v9.84a4.533,4.533,0,0,0,.276,1.632A3.807,3.807,0,0,0-9.576-4.08a3.247,3.247,0,0,0,1.176.8A3.973,3.973,0,0,0-6.9-3a3.973,3.973,0,0,0,1.5-.276,3.247,3.247,0,0,0,1.176-.8,3.807,3.807,0,0,0,.768-1.248A4.533,4.533,0,0,0-3.18-6.96V-16.8H.42v9.84A7.915,7.915,0,0,1-.12-3.984a6.8,6.8,0,0,1-1.5,2.3A6.773,6.773,0,0,1-3.936-.18,7.941,7.941,0,0,1-6.9.36,7.915,7.915,0,0,1-9.876-.18a6.8,6.8,0,0,1-2.3-1.5,6.8,6.8,0,0,1-1.5-2.3,7.915,7.915,0,0,1-.54-2.976Zm21.24,0h7.44a6.916,6.916,0,0,1,2.436.408,5.3,5.3,0,0,1,1.86,1.152,4.976,4.976,0,0,1,1.176,1.788,6.245,6.245,0,0,1,.408,2.292,5.715,5.715,0,0,1-.444,2.4,5.218,5.218,0,0,1-1,1.512A4.507,4.507,0,0,1,17.46-6.24L20.94,0H16.98l-3-5.52H10.62V0H7.02Zm7.32,7.92a2.225,2.225,0,0,0,1.644-.636,2.225,2.225,0,0,0,.636-1.644,2.225,2.225,0,0,0-.636-1.644,2.225,2.225,0,0,0-1.644-.636H10.62v4.56ZM33.78-16.8h7.44a6.916,6.916,0,0,1,2.436.408,5.3,5.3,0,0,1,1.86,1.152,4.975,4.975,0,0,1,1.176,1.788A6.245,6.245,0,0,1,47.1-11.16a5.715,5.715,0,0,1-.444,2.4,5.218,5.218,0,0,1-1,1.512A4.507,4.507,0,0,1,44.22-6.24L47.7,0H43.74l-3-5.52H37.38V0h-3.6ZM41.1-8.88a2.225,2.225,0,0,0,1.644-.636,2.225,2.225,0,0,0,.636-1.644,2.225,2.225,0,0,0-.636-1.644A2.225,2.225,0,0,0,41.1-13.44H37.38v4.56Zm20.52,1.8L59.628-12.6h-.1L57.54-7.08ZM57.54-16.8h4.08L68.1,0H64.26L62.82-3.84H56.34L54.9,0H51.06Zm16.92,3.36h-4.8V-16.8h13.2v3.36h-4.8V0h-3.6ZM87.9-16.8h12.48v3.36H91.5v3.24h6.96v3.24H91.5v3.6h9.12V0H87.9Z" transform="translate(102.319 23.303)"/></g></g></g></svg>