<svg id="Vrstva_1" data-name="Vrstva 1" xmlns="http://www.w3.org/2000/svg" xmlns:xlink="http://www.w3.org/1999/xlink" viewBox="0 0 619 391"><defs><style>.cls-1{fill:url(#Nepojmenovaný_přechod);}.cls-2{isolation:isolate;}.cls-3{fill:#fff;}.cls-4{fill:url(#Nepojmenovaný_přechod_2);}</style><linearGradient id="Nepojmenovaný_přechod" x1="12.95" y1="615.93" x2="11.95" y2="614.93" gradientTransform="matrix(349, 0, 0, -232, -4176, 142893.44)" gradientUnits="userSpaceOnUse"><stop offset="0" stop-color="#c52fef"/><stop offset="0.6" stop-color="#6991f0"/><stop offset="1" stop-color="#24d2ee"/></linearGradient><linearGradient id="Nepojmenovaný_přechod_2" x1="12.94" y1="615.94" x2="11.94" y2="614.94" gradientTransform="matrix(307, 0, 0, -232, -3360, 143052.44)" xlink:href="#Nepojmenovaný_přechod"/></defs><g id="Group_562" data-name="Group 562"><g id="Group_551" data-name="Group 551"><path id="Rectangle_1312" data-name="Rectangle 1312" class="cls-1" d="M10,0H339a10,10,0,0,1,10,10V192a40,40,0,0,1-40,40H10A10,10,0,0,1,0,222V10A10,10,0,0,1,10,0Z" transform="translate(0 0)"/><g id="Group_551-2" data-name="Group 551-2"><g id="Group_306" data-name="Group 306"><g id="_100" data-name=" 100" class="cls-2"><g class="cls-2"><path class="cls-3" d="M83.33,126.35H69.53V115.42a21.29,21.29,0,0,0,8-2.35,23.89,23.89,0,0,0,5.12-3.74,19.77,19.77,0,0,0,3.56-4.83h14.38V185H83.33Z" transform="translate(0 0)"/><path class="cls-3" d="M151.18,186.72A30.65,30.65,0,0,1,138,183.79a33,33,0,0,1-11-8.33,41.07,41.07,0,0,1-7.54-13.23,51.24,51.24,0,0,1-2.81-17.48,51.24,51.24,0,0,1,2.81-17.48A40.92,40.92,0,0,1,127,114.05a32.85,32.85,0,0,1,11-8.34,31,31,0,0,1,26.33,0,33,33,0,0,1,11,8.34,41.08,41.08,0,0,1,7.53,13.22,55.59,55.59,0,0,1,0,35,41.24,41.24,0,0,1-7.53,13.23,33.08,33.08,0,0,1-11,8.33A30.6,30.6,0,0,1,151.18,186.72Zm0-16.09A13.53,13.53,0,0,0,157.5,169a16.26,16.26,0,0,0,5.52-4.83,26.12,26.12,0,0,0,3.91-8.1,43.54,43.54,0,0,0,0-22.66,26.23,26.23,0,0,0-3.91-8.1,16.26,16.26,0,0,0-5.52-4.83,13.23,13.23,0,0,0-12.65,0,16.26,16.26,0,0,0-5.52,4.83,26.23,26.23,0,0,0-3.91,8.1,43.82,43.82,0,0,0,0,22.66,26.12,26.12,0,0,0,3.91,8.1,16.26,16.26,0,0,0,5.52,4.83A13.54,13.54,0,0,0,151.18,170.63Z" transform="translate(0 0)"/><path class="cls-3" d="M231.68,186.72a30.65,30.65,0,0,1-13.17-2.93,33,33,0,0,1-11-8.33A41.07,41.07,0,0,1,200,162.23a51.24,51.24,0,0,1-2.81-17.48A51.24,51.24,0,0,1,200,127.27a40.92,40.92,0,0,1,7.54-13.22,32.85,32.85,0,0,1,11-8.34,31,31,0,0,1,26.33,0,33,33,0,0,1,11,8.34,41.08,41.08,0,0,1,7.53,13.22,55.59,55.59,0,0,1,0,35,41.24,41.24,0,0,1-7.53,13.23,33.08,33.08,0,0,1-11,8.33A30.6,30.6,0,0,1,231.68,186.72Zm0-16.09A13.53,13.53,0,0,0,238,169a16.26,16.26,0,0,0,5.52-4.83,26.12,26.12,0,0,0,3.91-8.1,43.54,43.54,0,0,0,0-22.66,26.23,26.23,0,0,0-3.91-8.1,16.26,16.26,0,0,0-5.52-4.83,13.23,13.23,0,0,0-12.65,0,16.26,16.26,0,0,0-5.52,4.83,26.23,26.23,0,0,0-3.91,8.1,43.82,43.82,0,0,0,0,22.66,26.12,26.12,0,0,0,3.91,8.1,16.26,16.26,0,0,0,5.52,4.83A13.54,13.54,0,0,0,231.68,170.63Z" transform="translate(0 0)"/></g></g><g id="Hrs" class="cls-2"><g class="cls-2"><path class="cls-3" d="M274.56,107.5h1.88v7.75h9.75V107.5h1.87V125h-1.87v-8h-9.75v8h-1.88Z" transform="translate(0 0)"/><path class="cls-3" d="M292.69,113h1.75v1.63a4.78,4.78,0,0,1,1-.93,6.78,6.78,0,0,1,1.24-.65,4.75,4.75,0,0,1,1.79-.3h.5v1.75h-.75a3.65,3.65,0,0,0-1.43.28,3.79,3.79,0,0,0-1.2.77,3.55,3.55,0,0,0-.82,1.21,4.18,4.18,0,0,0-.3,1.62V125h-1.75Z" transform="translate(0 0)"/><path class="cls-3" d="M301.44,121.88a4.43,4.43,0,0,0,.8.87,3.73,3.73,0,0,0,1,.61,3.21,3.21,0,0,0,1.34.27,2.94,2.94,0,0,0,2-.58,1.83,1.83,0,0,0,.65-1.42,1.34,1.34,0,0,0-.49-1.08,4.05,4.05,0,0,0-1.2-.66c-.48-.18-1-.34-1.56-.5a8.14,8.14,0,0,1-1.57-.61,3.87,3.87,0,0,1-1.2-1,2.65,2.65,0,0,1-.48-1.65,3,3,0,0,1,.28-1.27,3.4,3.4,0,0,1,.82-1.07,4.13,4.13,0,0,1,1.26-.75,4.52,4.52,0,0,1,1.64-.29,4.94,4.94,0,0,1,1.66.26,7.65,7.65,0,0,1,1.21.57,4.45,4.45,0,0,1,1,.8l-1.25,1.25a3,3,0,0,0-.65-.63,4.69,4.69,0,0,0-.84-.42,2.82,2.82,0,0,0-1.13-.2,2.38,2.38,0,0,0-1.64.54,1.61,1.61,0,0,0-.61,1.21,1.23,1.23,0,0,0,.48,1,4.52,4.52,0,0,0,1.2.63c.48.16,1,.32,1.57.48a7.71,7.71,0,0,1,1.56.63,3.83,3.83,0,0,1,1.2,1,2.82,2.82,0,0,1,.49,1.71,3.32,3.32,0,0,1-1.17,2.56,4.22,4.22,0,0,1-1.37.77,5.51,5.51,0,0,1-1.84.29,5.24,5.24,0,0,1-1.95-.33,5.64,5.64,0,0,1-1.37-.72,3.68,3.68,0,0,1-1.05-1.07Z" transform="translate(0 0)"/></g></g></g><g id="Current_month_capacities" data-name="Current month capacities" class="cls-2"><g class="cls-2"><path class="cls-3" d="M56.44,57a9.05,9.05,0,0,1-1.8,1.68,11,11,0,0,1-2.26,1.15,8.57,8.57,0,0,1-3.14.53,9.31,9.31,0,0,1-6.5-2.58A8.55,8.55,0,0,1,40.82,55a8.61,8.61,0,0,1,0-6.8,8.55,8.55,0,0,1,1.92-2.78,9.31,9.31,0,0,1,6.5-2.58,8.31,8.31,0,0,1,3.08.53,10.4,10.4,0,0,1,2.22,1.15,9.21,9.21,0,0,1,1.78,1.68l-2.4,2.4a6.6,6.6,0,0,0-1.22-1.2,7.19,7.19,0,0,0-1.47-.83,4.94,4.94,0,0,0-2-.37,5.3,5.3,0,0,0-2.11.42,5.31,5.31,0,0,0-2.87,2.87,5.51,5.51,0,0,0,0,4.22,5.31,5.31,0,0,0,2.87,2.87,5.7,5.7,0,0,0,4.17.05,7.68,7.68,0,0,0,1.52-.83A5.79,5.79,0,0,0,54,54.6Z" transform="translate(0 0)"/><path class="cls-3" d="M61.36,43.2H65V53a4.39,4.39,0,0,0,.28,1.63A3.85,3.85,0,0,0,66,55.92a3.21,3.21,0,0,0,1.18.8,4.16,4.16,0,0,0,3,0,3.21,3.21,0,0,0,1.18-.8,3.85,3.85,0,0,0,.76-1.25A4.39,4.39,0,0,0,72.4,53V43.2H76V53a7.94,7.94,0,0,1-.54,3,6.84,6.84,0,0,1-1.5,2.3,6.73,6.73,0,0,1-2.32,1.5,8.44,8.44,0,0,1-5.94,0A6.66,6.66,0,0,1,61.9,56a7.94,7.94,0,0,1-.54-3Z" transform="translate(0 0)"/><path class="cls-3" d="M82.6,43.2H90a7,7,0,0,1,2.44.41,5.35,5.35,0,0,1,1.86,1.15,5,5,0,0,1,1.17,1.79,6.26,6.26,0,0,1,.41,2.29,5.81,5.81,0,0,1-.44,2.4,5.28,5.28,0,0,1-1,1.51,4.64,4.64,0,0,1-1.44,1L96.52,60h-4l-3-5.52H86.2V60H82.6Zm7.32,7.92a2.28,2.28,0,1,0,0-4.56H86.2v4.56Z" transform="translate(0 0)"/><path class="cls-3" d="M101.92,43.2h7.44a7,7,0,0,1,2.44.41,5.35,5.35,0,0,1,1.86,1.15,5,5,0,0,1,1.17,1.79,6.26,6.26,0,0,1,.41,2.29,5.81,5.81,0,0,1-.44,2.4,5.28,5.28,0,0,1-1,1.51,4.64,4.64,0,0,1-1.44,1L115.84,60h-4l-3-5.52h-3.36V60h-3.6Zm7.32,7.92a2.28,2.28,0,1,0,0-4.56h-3.72v4.56Z" transform="translate(0 0)"/><path class="cls-3" d="M121.24,43.2h12.48v3.36h-8.88V49.8h7V53h-7v3.6H134V60H121.24Z" transform="translate(0 0)"/><path class="cls-3" d="M139.6,43.2h3.24L151,53.64V43.2h3.6V60h-3.24L143.2,49.56V60h-3.6Z" transform="translate(0 0)"/><path class="cls-3" d="M164.44,46.56h-4.8V43.2h13.2v3.36H168V60h-3.6Z" transform="translate(0 0)"/><path class="cls-3" d="M184.6,43.2h3.24l5.76,7.2,5.76-7.2h3.24V60H199V49l-5.4,6.72L188.2,49V60h-3.6Z" transform="translate(0 0)"/><path class="cls-3" d="M208.24,51.6a8.35,8.35,0,0,1,.7-3.4,8.67,8.67,0,0,1,1.91-2.78,9.44,9.44,0,0,1,13,0,8.55,8.55,0,0,1,1.92,2.78,8.61,8.61,0,0,1,0,6.8,8.55,8.55,0,0,1-1.92,2.78,9.45,9.45,0,0,1-13,0A8.67,8.67,0,0,1,208.94,55,8.35,8.35,0,0,1,208.24,51.6Zm3.72,0a5.3,5.3,0,0,0,.42,2.11,5.31,5.31,0,0,0,2.87,2.87,5.51,5.51,0,0,0,4.22,0,5.31,5.31,0,0,0,2.87-2.87,5.51,5.51,0,0,0,0-4.22,5.37,5.37,0,0,0-5-3.29,5.3,5.3,0,0,0-2.11.42,5.31,5.31,0,0,0-2.87,2.87A5.3,5.3,0,0,0,212,51.6Z" transform="translate(0 0)"/><path class="cls-3" d="M232.12,43.2h3.24l8.16,10.44V43.2h3.6V60h-3.24l-8.16-10.44V60h-3.6Z" transform="translate(0 0)"/><path class="cls-3" d="M257,46.56h-4.8V43.2h13.2v3.36h-4.8V60H257Z" transform="translate(0 0)"/><path class="cls-3" d="M270.4,43.2H274v6.6h7.2V43.2h3.6V60h-3.6V53.16H274V60h-3.6Z" transform="translate(0 0)"/></g><g class="cls-2"><path class="cls-3" d="M97.24,81a9.05,9.05,0,0,1-1.8,1.68,11,11,0,0,1-2.26,1.15,8.57,8.57,0,0,1-3.14.53,9.31,9.31,0,0,1-6.5-2.58A8.55,8.55,0,0,1,81.62,79a8.61,8.61,0,0,1,0-6.8,8.55,8.55,0,0,1,1.92-2.78A9.31,9.31,0,0,1,90,66.84a8.31,8.31,0,0,1,3.08.53,10.4,10.4,0,0,1,2.22,1.15,9.21,9.21,0,0,1,1.78,1.68l-2.4,2.4a6.6,6.6,0,0,0-1.22-1.2A7.19,7.19,0,0,0,92,70.57a4.94,4.94,0,0,0-2-.37,5.3,5.3,0,0,0-2.11.42,5.31,5.31,0,0,0-2.87,2.87,5.51,5.51,0,0,0,0,4.22,5.31,5.31,0,0,0,2.87,2.87,5.7,5.7,0,0,0,4.17,0,7.68,7.68,0,0,0,1.52-.83,5.79,5.79,0,0,0,1.22-1.2Z" transform="translate(0 0)"/><path class="cls-3" d="M106.72,67.2h4.08L117.28,84h-3.84L112,80.16h-6.48L104.08,84h-3.84Zm4.08,9.72-2-5.52h-.1l-2,5.52Z" transform="translate(0 0)"/><path class="cls-3" d="M122,67.2H129a6.85,6.85,0,0,1,2.45.42,5.46,5.46,0,0,1,1.89,1.18,5.26,5.26,0,0,1,1.23,1.78,6.15,6.15,0,0,1,0,4.52,5.26,5.26,0,0,1-1.23,1.78,5.46,5.46,0,0,1-1.89,1.18,6.85,6.85,0,0,1-2.45.42h-3.48V84H122Zm7,7.92a2.38,2.38,0,0,0,1.74-.64,2.37,2.37,0,0,0,0-3.28,2.38,2.38,0,0,0-1.74-.64h-3.36v4.56Z" transform="translate(0 0)"/><path class="cls-3" d="M143.68,67.2h4.08L154.24,84H150.4L149,80.16h-6.48L141,84H137.2Zm4.08,9.72-2-5.52h-.1l-2,5.52Z" transform="translate(0 0)"/><path class="cls-3" d="M173.68,81a9.05,9.05,0,0,1-1.8,1.68,11,11,0,0,1-2.26,1.15,8.57,8.57,0,0,1-3.14.53,9.31,9.31,0,0,1-6.5-2.58A8.55,8.55,0,0,1,158.06,79a8.61,8.61,0,0,1,0-6.8A8.55,8.55,0,0,1,160,69.42a9.31,9.31,0,0,1,6.5-2.58,8.31,8.31,0,0,1,3.08.53,10.4,10.4,0,0,1,2.22,1.15,9.21,9.21,0,0,1,1.78,1.68l-2.4,2.4a6.6,6.6,0,0,0-1.22-1.2,7.19,7.19,0,0,0-1.47-.83,4.94,4.94,0,0,0-2-.37,5.3,5.3,0,0,0-2.11.42,5.31,5.31,0,0,0-2.87,2.87,5.51,5.51,0,0,0,0,4.22,5.31,5.31,0,0,0,2.87,2.87,5.7,5.7,0,0,0,4.17,0,7.68,7.68,0,0,0,1.52-.83,5.79,5.79,0,0,0,1.22-1.2Z" transform="translate(0 0)"/><path class="cls-3" d="M178.72,67.2h3.6V84h-3.6Z" transform="translate(0 0)"/><path class="cls-3" d="M192.16,70.56h-4.8V67.2h13.2v3.36h-4.8V84h-3.6Z" transform="translate(0 0)"/><path class="cls-3" d="M205.6,67.2h3.6V84h-3.6Z" transform="translate(0 0)"/><path class="cls-3" d="M215.92,67.2H228.4v3.36h-8.88V73.8h7V77h-7v3.6h9.12V84H215.92Z" transform="translate(0 0)"/><path class="cls-3" d="M235,79.32a5,5,0,0,0,1,.91,5.73,5.73,0,0,0,1.24.61,4.61,4.61,0,0,0,1.69.28,3.24,3.24,0,0,0,2.1-.55,1.73,1.73,0,0,0,.66-1.37,1.3,1.3,0,0,0-.63-1.14,7.09,7.09,0,0,0-1.56-.76l-2-.69a9.58,9.58,0,0,1-2-1,5.34,5.34,0,0,1-1.56-1.51,4.24,4.24,0,0,1-.62-2.39,4.37,4.37,0,0,1,.42-1.88,4.71,4.71,0,0,1,1.2-1.58,5.9,5.9,0,0,1,1.92-1.06,8.55,8.55,0,0,1,5,0,8.36,8.36,0,0,1,1.76.79,7.06,7.06,0,0,1,1.42,1.13l-2.4,2.4a5.71,5.71,0,0,0-.84-.72,5.07,5.07,0,0,0-1-.49,3.49,3.49,0,0,0-1.29-.23,3.1,3.1,0,0,0-1.95.48,1.51,1.51,0,0,0-.57,1.2,1.32,1.32,0,0,0,.62,1.14,7.56,7.56,0,0,0,1.56.76l2,.69a9.27,9.27,0,0,1,2,1,5.11,5.11,0,0,1,1.56,1.51,4.16,4.16,0,0,1,.63,2.39,4.79,4.79,0,0,1-.43,2,4.85,4.85,0,0,1-1.26,1.64,6.41,6.41,0,0,1-2,1.13,7.86,7.86,0,0,1-2.66.42,9,9,0,0,1-2.85-.41,9.57,9.57,0,0,1-2-.91,6.43,6.43,0,0,1-1.61-1.32Z" transform="translate(0 0)"/></g></g></g></g><g id="Group_552" data-name="Group 552"><path id="Rectangle_1313" data-name="Rectangle 1313" class="cls-4" d="M322,159H609a10,10,0,0,1,10,10V351a40,40,0,0,1-40,40H322a10,10,0,0,1-10-10V169A10,10,0,0,1,322,159Z" transform="translate(0 0)"/><g id="Group_552-2" data-name="Group 552-2"><g id="Group_305" data-name="Group 305"><g id="_70" data-name=" 70" class="cls-2"><g class="cls-2"><path class="cls-3" d="M405.9,271.72H369.74V255.9H424v14.69L392.91,335H375.39Z" transform="translate(0 0)"/><path class="cls-3" d="M463.53,336.7a30.14,30.14,0,0,1-12.93-2.89,32.47,32.47,0,0,1-10.8-8.19,40.36,40.36,0,0,1-7.4-13,54.66,54.66,0,0,1,0-34.36,40.36,40.36,0,0,1,7.4-13,32.47,32.47,0,0,1,10.8-8.19,30.49,30.49,0,0,1,25.87,0,32.43,32.43,0,0,1,10.79,8.19,40.37,40.37,0,0,1,7.41,13,54.85,54.85,0,0,1,0,34.36,40.37,40.37,0,0,1-7.41,13,32.43,32.43,0,0,1-10.79,8.19A30.18,30.18,0,0,1,463.53,336.7Zm0-15.82a13.35,13.35,0,0,0,6.22-1.59,16,16,0,0,0,5.42-4.74,25.61,25.61,0,0,0,3.84-8,42.87,42.87,0,0,0,0-22.26,25.61,25.61,0,0,0-3.84-8,16.09,16.09,0,0,0-5.42-4.74,13,13,0,0,0-12.43,0,16.09,16.09,0,0,0-5.42,4.74,25.62,25.62,0,0,0-3.85,8,42.87,42.87,0,0,0,0,22.26,25.62,25.62,0,0,0,3.85,8,16,16,0,0,0,5.42,4.74A13.28,13.28,0,0,0,463.53,320.88Z" transform="translate(0 0)"/></g></g><g id="EUR" class="cls-2"><g class="cls-2"><path class="cls-3" d="M517.69,256.5h12v1.75H519.56V264h8.13v1.75h-8.13v6.5h10.38V274H517.69Z" transform="translate(0 0)"/><path class="cls-3" d="M533.44,256.5h1.87v10.63a5.85,5.85,0,0,0,.4,2.16,5,5,0,0,0,2.76,2.81,5.66,5.66,0,0,0,4.18,0,5,5,0,0,0,2.76-2.81,5.65,5.65,0,0,0,.4-2.16V256.5h1.88v10.63a7.16,7.16,0,0,1-.55,2.79,7,7,0,0,1-1.52,2.27,7.2,7.2,0,0,1-10.12,0,7.14,7.14,0,0,1-2.06-5.06Z" transform="translate(0 0)"/><path class="cls-3" d="M552.69,256.5h7a5.65,5.65,0,0,1,2.16.4,5,5,0,0,1,2.81,2.76,5.33,5.33,0,0,1,.4,2.09,4.76,4.76,0,0,1-.57,2.46,6.25,6.25,0,0,1-1.25,1.54,6.11,6.11,0,0,1-1.8,1l4.12,7.25h-2.12l-3.88-7h-5v7h-1.87Zm7,8.75a3.5,3.5,0,1,0,0-7h-5.13v7Z" transform="translate(0 0)"/></g></g></g><g id="At_hour_rate" data-name="At hour rate" class="cls-2"><g class="cls-2"><path class="cls-3" d="M370.9,211.2H375l6.48,16.8h-3.84l-1.44-3.84H369.7L368.26,228h-3.84Zm4.08,9.72-2-5.52h-.1l-2,5.52Z" transform="translate(0 0)"/><path class="cls-3" d="M387.82,214.56H383V211.2h13.2v3.36h-4.8V228h-3.6Z" transform="translate(0 0)"/><path class="cls-3" d="M408,211.2h3.6v6.6h7.2v-6.6h3.6V228h-3.6v-6.84h-7.2V228H408Z" transform="translate(0 0)"/><path class="cls-3" d="M428,219.6a8.35,8.35,0,0,1,.7-3.4,8.55,8.55,0,0,1,1.92-2.78,9.43,9.43,0,0,1,13,0,8.55,8.55,0,0,1,1.92,2.78,8.61,8.61,0,0,1,0,6.8,8.55,8.55,0,0,1-1.92,2.78,9.43,9.43,0,0,1-13,0,8.55,8.55,0,0,1-1.92-2.78A8.35,8.35,0,0,1,428,219.6Zm3.72,0a5.3,5.3,0,0,0,.42,2.11,5.31,5.31,0,0,0,2.87,2.87,5.51,5.51,0,0,0,4.22,0,5.31,5.31,0,0,0,2.87-2.87,5.51,5.51,0,0,0,0-4.22,5.31,5.31,0,0,0-2.87-2.87,5.51,5.51,0,0,0-4.22,0,5.31,5.31,0,0,0-2.87,2.87A5.3,5.3,0,0,0,431.74,219.6Z" transform="translate(0 0)"/><path class="cls-3" d="M451.78,211.2h3.6V221a4.39,4.39,0,0,0,.28,1.63,3.85,3.85,0,0,0,.76,1.25,3.21,3.21,0,0,0,1.18.8,4.16,4.16,0,0,0,3,0,3.21,3.21,0,0,0,1.18-.8,3.85,3.85,0,0,0,.76-1.25,4.39,4.39,0,0,0,.28-1.63V211.2h3.6V221a7.94,7.94,0,0,1-.54,3,6.84,6.84,0,0,1-1.5,2.3,6.73,6.73,0,0,1-2.32,1.5,8.44,8.44,0,0,1-5.94,0,6.66,6.66,0,0,1-3.8-3.8,7.94,7.94,0,0,1-.54-3Z" transform="translate(0 0)"/><path class="cls-3" d="M473,211.2h7.44a7,7,0,0,1,2.44.41,5.35,5.35,0,0,1,1.86,1.15,5,5,0,0,1,1.17,1.79,6.26,6.26,0,0,1,.41,2.29,5.81,5.81,0,0,1-.44,2.4,5.28,5.28,0,0,1-1,1.51,4.64,4.64,0,0,1-1.44,1l3.48,6.24h-4l-3-5.52h-3.36V228H473Zm7.32,7.92a2.28,2.28,0,1,0,0-4.56h-3.72v4.56Z" transform="translate(0 0)"/><path class="cls-3" d="M499.78,211.2h7.44a7,7,0,0,1,2.44.41,5.35,5.35,0,0,1,1.86,1.15,5,5,0,0,1,1.17,1.79,6.26,6.26,0,0,1,.41,2.29,5.81,5.81,0,0,1-.44,2.4,5.28,5.28,0,0,1-1,1.51,4.64,4.64,0,0,1-1.44,1L513.7,228h-4l-3-5.52h-3.36V228h-3.6Zm7.32,7.92a2.28,2.28,0,1,0,0-4.56h-3.72v4.56Z" transform="translate(0 0)"/><path class="cls-3" d="M523.54,211.2h4.08L534.1,228h-3.84l-1.44-3.84h-6.48L520.9,228h-3.84Zm4.08,9.72-2-5.52h-.1l-2,5.52Z" transform="translate(0 0)"/><path class="cls-3" d="M540.46,214.56h-4.8V211.2h13.2v3.36h-4.8V228h-3.6Z" transform="translate(0 0)"/><path class="cls-3" d="M553.9,211.2h12.48v3.36H557.5v3.24h7V221h-7v3.6h9.12V228H553.9Z" transform="translate(0 0)"/></g></g></g></g></g></svg>