<svg id="Vrstva_1" data-name="Vrstva 1" xmlns="http://www.w3.org/2000/svg" viewBox="0 0 98.1 46.97"><defs><style>.cls-1{fill:#ee4854;}</style></defs><g id="hotjar-seeklogo.com"><path id="Path_127" data-name="Path 127" d="M6,18.49a11.67,11.67,0,0,1,5.63-1.19c3.77.13,5.84,2,5.92,5.79.1,3.93.07,7.83.05,11.75,0,1.6-.42,2-2,2H13.46c-1.4,0-1.83-.42-1.86-1.83V24.46c0-1.63-.77-2.3-2.41-2.23a6.25,6.25,0,0,0-.86.08c-2.15.44-2.28.6-2.28,2.8v9.37c0,2-.34,2.34-2.32,2.34H1.55c-1,0-1.48-.48-1.55-1.55V10.51C0,8.7.39,8.32,2.17,8.32H4.1c1.5,0,2,.42,2,1.93,0,2.27,0,4.53,0,6.79A14,14,0,0,0,6,18.49Z" transform="translate(0 0)"/><path id="Path_128" data-name="Path 128" d="M38.25,27.66c-.13,1.05-.21,2.38-.48,3.69a6.86,6.86,0,0,1-5.64,5.74A13.62,13.62,0,0,1,26.07,37a6.59,6.59,0,0,1-5.15-4.88,17.29,17.29,0,0,1,0-9.62c1-3.3,3.49-5.08,7.19-5.2a17.12,17.12,0,0,1,4,.24c3.49.7,5.47,3.07,5.92,6.93C38.12,25.46,38.15,26.4,38.25,27.66Zm-6.09.08c-.07-1.07-.1-1.81-.17-2.53a7,7,0,0,0-.23-1.12,2.41,2.41,0,0,0-2.57-2,2.34,2.34,0,0,0-2.49,1.93,13.45,13.45,0,0,0,0,6.61,2.34,2.34,0,0,0,2.57,1.9,2.31,2.31,0,0,0,2.41-1.86,29.43,29.43,0,0,0,.48-3Z" transform="translate(0 0)"/><path id="Path_129" data-name="Path 129" d="M76.85,24.74c.26-2-.18-2.64-2.13-2.55a39.33,39.33,0,0,0-4.71.7c-1.32.24-2.29-.1-2.47-1.12-.3-1.69-.18-3.13,1.17-3.54a18.27,18.27,0,0,1,9.7-.48c2.93.7,4.35,2.63,4.35,5.79V34.71c0,.85,0,1.72-1,2a2.79,2.79,0,0,1-3.13-.86l-.31-.44a8.93,8.93,0,0,1-6,1.93,6.13,6.13,0,0,1-6.15-6.09,6.24,6.24,0,0,1,.73-2.93c1-2.05,2.9-2.7,4.89-3C73.46,25.09,75.16,24.93,76.85,24.74ZM76.94,28c-1.15.17-2.17.27-3.15.48a2.09,2.09,0,0,0-1.82,2A2.21,2.21,0,0,0,73.28,33c1,.38,3,0,3.49-.65a.77.77,0,0,0,.14-.44c0-1.26,0-2.53,0-3.93h0Z" transform="translate(0 0)"/><path id="Path_130" data-name="Path 130" d="M42.39,18v-2.5a1.53,1.53,0,0,1,1.15-1.66,31,31,0,0,1,3-.84,1.4,1.4,0,0,1,1.76.89,1.22,1.22,0,0,1,.06.6c0,1.08,0,2.15,0,3.34h2.86c1.4,0,1.88.49,1.93,1.93.08,2.94-.08,3.1-3,3.1H48.49a5.46,5.46,0,0,0-.09.79v6.2c0,1.93.58,2.51,2.45,2.65C52.5,32.6,53,33,53,34.3c0,2.14-.38,2.86-2.1,3a16.32,16.32,0,0,1-4.07-.21,5.09,5.09,0,0,1-4.4-5.33c-.08-2.58,0-5.16,0-7.72V22.85H40.65a1.46,1.46,0,0,1-1.56-1.32V21.4c-.23-2,.12-2.5,2-3Z" transform="translate(0 0)"/><path id="Path_131" data-name="Path 131" d="M63.37,30c0,3.34.06,6.69,0,10a7,7,0,0,1-7,7,6.8,6.8,0,0,1-1.1-.09c-1.34-.17-1.82-.7-1.84-2.09V43.54c.06-1.17.42-1.57,1.58-1.79,1.78-.33,2.37-1,2.37-2.87v-19c0-1.62.41-2.05,2-2.1h2.2c1.3.06,1.78.53,1.8,1.84V29.92Z" transform="translate(0 0)"/><path id="Path_132" data-name="Path 132" d="M90.33,19.14a9.73,9.73,0,0,1,5.4-1.83c1.93,0,2.38.4,2.37,2.31v.86c0,1.24-.51,1.68-1.71,1.8a31.86,31.86,0,0,0-3.38.6c-.75.16-1,.61-1,1.44.06,3.49,0,7,0,10.42,0,1.7-.37,2.06-2.09,2.1H87.41a1.31,1.31,0,0,1-1.4-1.2,2.09,2.09,0,0,1,0-.25v-16A1.29,1.29,0,0,1,87.21,18h.06C88.47,17.74,89.74,17.55,90.33,19.14Z" transform="translate(0 0)"/><path id="Path_133" data-name="Path 133" class="cls-1" d="M62.72,14.38c1.1-3.92.7-5.9-1.21-6.28.29,1.33.62,2.7-.78,3.62-.73.48-1.31.3-2.61-.7A5.55,5.55,0,0,0,58,14.79c-1.86-.32-3.33-1.1-4-2.9a4.27,4.27,0,0,1,1-4.77A12.29,12.29,0,0,1,56.4,5.87c2.1-1.57,2.5-3.1,1.4-5.46A2.77,2.77,0,0,1,57.68,0a13.94,13.94,0,0,1,6.4,2.71c4.08,3.34,3.59,9.34-.92,11.54A1.39,1.39,0,0,0,62.72,14.38Z" transform="translate(0 0)"/></g></svg>