<svg id="Vrstva_1" data-name="Vrstva 1" xmlns="http://www.w3.org/2000/svg" viewBox="0 0 35.43 50"><defs><style>.cls-1{fill:#e44d26;}.cls-2{fill:#f16529;}.cls-3{fill:#ebebeb;}.cls-4{fill:#fff;}</style></defs><g id="HTML5_logo_and_wordmark" data-name="HTML5 logo and wordmark"><path id="Path_101" data-name="Path 101" d="M3.3,0H5.55V2.23H7.62V0H9.86V6.74H7.62V4.49h-2V6.74H3.3m9.53-4.49h-2V0h6.22V2.25h-2V6.74H12.83M18.06,0h2.35l1.45,2.37L23.3,0h2.35V6.74H23.41V3.4L21.84,5.82,20.26,3.4V6.74h-2.2M26.77,0H29V4.51H32.2V6.74H26.77" transform="translate(0 0)"/><path id="Path_102" data-name="Path 102" class="cls-1" d="M3.22,46,0,9.82H35.43L32.21,46,17.69,50" transform="translate(0 0)"/><path id="Path_103" data-name="Path 103" class="cls-2" d="M17.72,46.92V12.79H32.2L29.43,43.65" transform="translate(0 0)"/><path id="Path_104" data-name="Path 104" class="cls-3" d="M6.58,17.22H17.71v4.43H11.44l.41,4.54h5.86v4.43H7.79M8,32.84h4.45l.32,3.55,5,1.33v4.63l-9.1-2.54" transform="translate(0 0)"/><path id="Path_105" data-name="Path 105" class="cls-4" d="M28.81,17.22H17.69v4.43h10.7M28,26.19H17.69v4.44h5.47l-.51,5.76-5,1.33v4.61l9.09-2.52" transform="translate(0 0)"/></g></svg>