<svg id="Vrstva_1" data-name="Vrstva 1" xmlns="http://www.w3.org/2000/svg" viewBox="0 0 116.26 28.48"><defs><style>.cls-1{fill:#131b28;}.cls-2{fill:#0868ac;}</style></defs><g id="jquery"><path id="Path_260" data-name="Path 260" class="cls-1" d="M49.72,10.25h0L49,12.89ZM53.54,16h0Zm-.21,3.94h0l-4.91,0Zm1-3.94h0Zm-.6,3.6.86-3.26-.86,3.26Zm18.1-15-1.6,7.5Zm-4.1,0-1.21,5.6Z" transform="translate(0 0)"/><path id="Path_261" data-name="Path 261" class="cls-1" d="M71.58,4.21H68.17a.45.45,0,0,0-.41.34l-1.21,5.6-1.21,5.6a.46.46,0,0,1-.42.34H62.51c-2.39,0-2.12-1.66-1.63-3.92l0-.07.05-.28v-.06l.11-.58.12-.62c0-.19.09-.46.12-.63l.55-2.69.55-2.69a.27.27,0,0,0-.19-.33H58.64a.46.46,0,0,0-.42.34l-.75,3.57-.75,3.57h0l-.07.34c-.87,4-.64,7.73,4.07,7.84h7.53a.44.44,0,0,0,.42-.33L70.26,12l1.6-7.5a.27.27,0,0,0-.21-.32Zm13.6,11.92a.27.27,0,0,1,.29.25s0,.06,0,.08l-.33,1.62M84.8,19.7l.33-1.62L84.8,19.7Zm-.42.34h0c-1,0-4,0-6.28,0,2.76,0,6.28,0,6.28,0Zm-8.32-6c0-.18.2-.48.39-.48H76c-.19,1.93,0,.49,0,.49Z" transform="translate(0 0)"/><path id="Path_262" data-name="Path 262" class="cls-1" d="M78.41,20.07Zm6.78-3.95a.28.28,0,0,1,.28.26.19.19,0,0,1,0,.08l-.33,1.62-.06.26m-5,1.73Zm-.84,0Zm-.26,0Zm-.26,0Zm.47,0Zm.87,0h0Zm4.79-.37.28-1.35L84.8,19.7Zm-6,.37Zm-.51,0Zm.26,0Zm-49.87-6,.53-2.35-.61,2.69-.58,2.73.51-2.4C28.61,14.57,28.68,14.27,28.73,14.08Zm6.33-9.91H31.32a.46.46,0,0,0-.42.34l-.36,1.56-.35,1.57a.27.27,0,0,0,.18.33h3.86a.45.45,0,0,0,.41-.34L35,6.08l.34-1.57h0a.27.27,0,0,0-.19-.33Zm-.81,5.21h0l-1.1,5.09,1.1-5.08ZM23.37,26.22l3.09,0-3.09,0ZM29.78,9.38l-.53,2.35Z" transform="translate(0 0)"/><path id="Path_263" data-name="Path 263" class="cls-1" d="M34,9.05H30.21a.45.45,0,0,0-.42.34l-.53,2.34-.53,2.35-.15.68-.51,2.4-.51,2.4q-.07.33-.18.66c-.11.33-.7,2.1-1.89,2.07h-.15l-1,0h0a.47.47,0,0,0-.42.33l-.39,1.65-.39,1.64a.27.27,0,0,0,.18.33h.08l3.09,0c3,0,4.52-1.64,5.52-6.36l1.17-5.41,1.1-5.08a.26.26,0,0,0-.17-.34ZM87.59,19.88a.28.28,0,0,1-.28-.26.25.25,0,0,1,0-.08l2.84-13.3m1.38,13.3,1.15-5.68Z" transform="translate(0 0)"/><path id="Path_264" data-name="Path 264" class="cls-1" d="M87.36,19.71a1.46,1.46,0,0,1,0-.51l1.35-6.31-1.42,6.65a.27.27,0,0,0,.19.33h.42c-.19,0-.55-.08-.57-.17Zm4,.09a1.59,1.59,0,0,1-.53.08h.34a.46.46,0,0,0,.42-.34l.06-.34C91.57,19.39,91.42,19.76,91.31,19.8Zm.8-3.1.51-2.5h0Zm11.2-9.57.16.65a.27.27,0,0,1-.18.33h-.09M91.6,19.2l.51-2.5ZM103.15,6.47l.16.66ZM92.61,14.2c0-.19.1-.49.14-.67L93.3,11l-.61,2.87ZM90.2,6c0,.18-.08.41-.12.56l-1.34,6.31,1.42-6.65Z" transform="translate(0 0)"/><path id="Path_265" data-name="Path 265" class="cls-1" d="M103.46,7.78l-.15-.65-.16-.66-.07-.33c-.31-1.19-1.21-1.88-3.16-1.88h-9a.43.43,0,0,0-.41.34h0l-.14.66L90.2,6l0,.22L88.74,12.9l-1.35,6.3a1.46,1.46,0,0,0,0,.51c0,.09.39.17.58.17h2.84a1.89,1.89,0,0,0,.53-.08,1.25,1.25,0,0,0,.3-.6l.5-2.5.51-2.5h0l.06-.33L93.3,11l.54-2.53a.46.46,0,0,1,.41-.34h9a.27.27,0,0,0,.28-.24A.16.16,0,0,0,103.46,7.78Z" transform="translate(0 0)"/><path id="Path_266" data-name="Path 266" class="cls-1" d="M115,1.94h-3.55a.71.71,0,0,0-.54.28l-6.34,9.28c-.1.16-.23.13-.27-.05l-.46-2a.47.47,0,0,0-.43-.34H99.33a.24.24,0,0,0-.26.22.37.37,0,0,0,0,.11l1.83,6.39a1.68,1.68,0,0,1,0,.67l-.8,3.09a.25.25,0,0,0,.16.32.16.16,0,0,0,.1,0h4a.47.47,0,0,0,.43-.33l.8-3.09a1.91,1.91,0,0,1,.29-.61L116.2,2.2c.12-.15.06-.27-.13-.27H115Zm-32.35,8h0a.41.41,0,0,1-.4.35H77.08a.22.22,0,0,1-.25-.19.22.22,0,0,1,0-.08h0v0l0-.09a3.24,3.24,0,0,1,3.39-2.17c2.12,0,2.53,1,2.39,2.21ZM81.13,4c-6.63,0-8.2,4-9.08,8.08s-.8,8,6,8H80l4.36,0a.46.46,0,0,0,.41-.34l.28-1.36,0-.26.33-1.62a.27.27,0,0,0-.19-.33H79c-2.45,0-3.18-.65-2.91-2.56H86a.39.39,0,0,0,.35-.26s0-.05,0-.08h0C87.81,7.7,87.39,4,81.12,4h0ZM49.81,9.92l-.09.33h0L49,12.89l-.74,2.63a.47.47,0,0,1-.44.33H43.85c-3,0-3.71-2.33-3-5.78S43,4.36,46,4.13c4-.3,4.82,2.53,3.85,5.79Zm2.7,5.73a44.26,44.26,0,0,0,2.28-7.11C55.36,5.05,53.62,0,46.88,0S37.26,4.83,36.15,10.07s.35,9.92,7,9.88l5.26,0h4.91a.47.47,0,0,0,.43-.34l.86-3.26a.26.26,0,0,0-.16-.33H52.72a.2.2,0,0,1-.23-.18v-.06a.24.24,0,0,1,0-.08h0Z" transform="translate(0 0)"/><path id="Path_267" data-name="Path 267" class="cls-1" d="M85.69,12.64a.22.22,0,0,1-.23.22.22.22,0,0,1-.22-.22.23.23,0,1,1,.45,0Z" transform="translate(0 0)"/><path id="Path_268" data-name="Path 268" class="cls-2" d="M1.33,6.77c-1.85,2.66-1.62,6.13-.21,9l.1.2a.83.83,0,0,0,.07.13.25.25,0,0,0,0,.07c0,.05,0,.09.07.13s.09.16.14.23l.07.13c0,.08.1.17.16.25a.61.61,0,0,0,.07.1,3.71,3.71,0,0,0,.23.32h0l0,.05.21.28.07.1.27.32.27.31h0c.18.2.38.4.57.59L3.6,19l.3.27.05.05.27.22.11.09.23.18.12.09.25.18.09.07h0l.24.17.11.07.38.23.1.06.29.16.16.08.21.11,0,0,.09,0,.39.19.38.15.1,0,.4.15.4.13.1,0,.41.11c9,1.64,11.55-5.37,11.55-5.37-2.18,2.84-6.06,3.59-9.73,2.76l-.41-.12L9.76,19,9.7,19l-.34-.13-.1,0-.38-.16-.08,0-.4-.19-.25-.13L8,18.26l-.3-.16L7.59,18l-.38-.23-.1-.07-.27-.18-.09-.06-.26-.19-.11-.08L6,17l-.29-.24,0,0-.3-.27-.08-.09-.22-.21L5,16l-.27-.28h0l-.27-.31-.07-.09-.2-.24L4.14,15l-.23-.3A9.44,9.44,0,0,1,2.77,4.94" transform="translate(0 0)"/><path id="Path_269" data-name="Path 269" class="cls-2" d="M7.07,4.53a6.44,6.44,0,0,0-.22,6.54,8.08,8.08,0,0,0,.59,1,5.2,5.2,0,0,0,.69.86l.3.31.08.08c.1.1.2.2.31.29h0l.36.3.08.06.37.28h0l.18.12.08.05.27.17,0,0,.25.14.09.05.17.09h0l.36.16.08,0,.3.12.12,0,.27.1.12,0,.39.12c6.91,1.14,8.51-4.18,8.51-4.18a6.57,6.57,0,0,1-7.2,2.29l-.51-.15-.4-.14-.29-.12-.08,0L12.06,13l-.18-.09-.1-.06a1.71,1.71,0,0,1-.23-.13l-.06,0-.27-.17-.09,0L11,12.36l-.37-.28L10.5,12A8.37,8.37,0,0,1,7.67,8a6.27,6.27,0,0,1,.49-5" transform="translate(0 0)"/><path id="Path_270" data-name="Path 270" class="cls-2" d="M11.9,2.86a4,4,0,0,0-.31,3.88,5.44,5.44,0,0,0,3.14,2.94l.17.06.07,0a1.17,1.17,0,0,0,.25.07c3.82.74,4.85-1.95,5.13-2.35-.91,1.3-2.43,1.62-4.3,1.16a2.44,2.44,0,0,1-.46-.14,5.06,5.06,0,0,1-1.48-.8C12.44,6.44,11.4,4,12.49,2M54.88,25.47,53.78,28H52.57l.1-2.27L51.77,28H50.6l0-2.5.13-.61h.84l-.16,2.48.92-2.48h1.16l-.08,2.51.92-2.51H55Zm1.92.75c.1-.49.07-.58-.18-.58h-.38L56,26.78,55.62,28h-.71l.58-2.72.08-.4h.65l.09.19a1.6,1.6,0,0,1,.74-.22c.78,0,.72.58.55,1.39Zm2.3-1.75c-.31,0-.51-.09-.43-.48a.56.56,0,0,1,.63-.47h0c.31,0,.51.09.43.47a.55.55,0,0,1-.62.48ZM58.77,28h-.7l.14-1.22.24-1.13L58,25.52l.14-.66h1.33L58.77,28Zm3-2.46-.87.11-.26,1.19c-.06.33-.06.42.23.42h.58l-.12.62a3.32,3.32,0,0,1-.76.16c-.9,0-.9-.5-.74-1.23l.25-1.17-.49-.11.14-.66h.52l.29-.79h.69l-.17.79H62l-.14.67Zm1.83,0a.66.66,0,0,0-.71.6l1.17-.1c.06-.26,0-.5-.45-.5Zm-.83,1.16c-.05.38.1.51.59.51h1.22l-.12.58a5.61,5.61,0,0,1-1.29.21c-1.37,0-1.38-.77-1.21-1.6s.49-1.61,1.81-1.61,1.34.77,1,1.91ZM67.65,28H67l.13-1.22.5-2.32-.49-.12.15-.66h1.34Zm2.53-2.42a.67.67,0,0,0-.71.6l1.18-.1c0-.26,0-.5-.47-.5Zm-.82,1.16c0,.38.09.51.58.51h1.23l-.12.58a5.79,5.79,0,0,1-1.29.21c-1.37,0-1.39-.77-1.21-1.6s.49-1.61,1.81-1.61,1.34.77,1,1.91ZM74.6,25.6H73.47c-.52,0-.58.16-.61.32l0,.16,1.65.12a3.73,3.73,0,0,1-.06.82,1.41,1.41,0,0,1-1.53,1,6.8,6.8,0,0,1-1.2-.17l.13-.6H73c.5,0,.57-.14.6-.28l0-.2L72,26.66a2.75,2.75,0,0,1,0-.81,1.43,1.43,0,0,1,1.55-1,7.08,7.08,0,0,1,1.2.17Zm3.08,0H76.54c-.52,0-.58.16-.61.32l0,.16,1.65.12a4.47,4.47,0,0,1-.07.82A1.4,1.4,0,0,1,76,28a6.8,6.8,0,0,1-1.2-.17l.13-.6H76c.5,0,.57-.14.6-.28l0-.2L75,26.66a2.45,2.45,0,0,1,0-.81,1.43,1.43,0,0,1,1.55-1,6.94,6.94,0,0,1,1.2.17Zm1,2.88H78l0-.46c-.22,0-.34-.18-.28-.44a.55.55,0,0,1,.62-.48h0c.3,0,.51.09.43.48Zm4.08-2.85c-.46,0-.62.27-.72.78s-.08.8.38.8H83l.35-1.58Zm1,1.95-.09.4H83l-.09-.2A3.1,3.1,0,0,1,82,28c-1,0-1-.8-.84-1.61s.55-1.6,1.52-1.6a2.61,2.61,0,0,1,.83.17l.39-1.32h.7l-.84,3.92Zm2.53-2c-.6,0-.79.33-.9.82s-.05.83.54.83.79-.32.9-.83.07-.82-.54-.82ZM85.78,28c-1.26,0-1.36-.79-1.19-1.6a1.75,1.75,0,0,1,1.87-1.6c1.26,0,1.37.78,1.2,1.6A1.78,1.78,0,0,1,85.77,28ZM92.93,28l.13-1.21.07-.34c.1-.46.16-.79-.32-.79h-.37a3.39,3.39,0,0,1-.09.78L92,28h-.71l.14-1.21.06-.34c.1-.46.16-.8-.32-.8h-.3L90.39,28h-.82l.67-3.12h.64l.1.19a2,2,0,0,1,.78-.23.58.58,0,0,1,.54.27,2.35,2.35,0,0,1,.9-.27c1,0,1,.79.77,1.6L93.64,28Zm3.24-2.38c-.6,0-.78.33-.89.82s0,.83.53.83.8-.32.9-.83.08-.82-.54-.82ZM95.65,28c-1.26,0-1.36-.79-1.19-1.6a1.76,1.76,0,0,1,1.88-1.6c1.25,0,1.37.78,1.19,1.6A1.77,1.77,0,0,1,95.65,28Zm4-1.81c.11-.49.08-.58-.17-.58H99.1l-.25,1.14L98.48,28h-.71l.58-2.72.08-.4h.65l.08.19a1.63,1.63,0,0,1,.74-.22c.78,0,.72.58.55,1.39Zm2.74-.66a.66.66,0,0,0-.71.6l1.18-.1c0-.26,0-.5-.47-.5Zm-.83,1.16c0,.38.1.51.58.51h1.23l-.12.58A5.61,5.61,0,0,1,102,28c-1.37,0-1.38-.77-1.21-1.6s.49-1.61,1.81-1.61,1.34.77,1,1.91ZM104.27,28c-.32,0-.51-.09-.43-.47a.55.55,0,0,1,.63-.47c.3,0,.5.09.43.47a.57.57,0,0,1-.63.47Z" transform="translate(0 0)"/></g></svg>