<svg id="Vrstva_1" data-name="Vrstva 1" xmlns="http://www.w3.org/2000/svg" xmlns:xlink="http://www.w3.org/1999/xlink" viewBox="0 0 792 792"><defs><style>.cls-1{fill:none;}.cls-2{fill:#202124;stroke:#3d3e43;stroke-linecap:round;stroke-linejoin:round;stroke-width:2px;}.cls-3{fill:url(#Nepojmenovaný_přechod);}.cls-4{fill:url(#Nepojmenovaný_přechod_2);}.cls-5{clip-path:url(#clip-path);}.cls-6{fill:url(#Nepojmenovaný_přechod_3);}.cls-7{fill:#fff;}</style><linearGradient id="Nepojmenovaný_přechod" x1="-22.98" y1="670.14" x2="-22.98" y2="669.14" gradientTransform="matrix(7.68, 0, 0, -7.68, 594.39, 5548.28)" gradientUnits="userSpaceOnUse"><stop offset="0" stop-color="#c52fef"/><stop offset="0.6" stop-color="#6991f0"/><stop offset="1" stop-color="#24d2ee"/></linearGradient><linearGradient id="Nepojmenovaný_přechod_2" x1="-22.98" y1="670.14" x2="-22.98" y2="669.14" gradientTransform="matrix(7.68, 0, 0, -7.68, 611.71, 5558.15)" xlink:href="#Nepojmenovaný_přechod"/><clipPath id="clip-path" transform="translate(119.25 40.26)"><path class="cls-1" d="M55.61,535.46A6.81,6.81,0,0,1,54.42,534c-2.62-4.83-9.15-8.31-15.1-9.63v0c-3.77,3.77-8.54,2.82-13,2.54-2-.13-1.84-2.16-1.69-3.74.23-2.46.57-4.91.74-7.37.33-4.63-.86-8.55-5.2-11.05-2.95-1.7-3.3-3.61-1.39-6.81,5.14-8.6,8.66-17.73,6.48-28.13-.36-1.73-.54-3.74,1.06-5.22.28-.33.55-.63.83-.9-1.82-2.3-2.35-5.57-2.89-8.23a4.25,4.25,0,0,0-1.62-2.2c-.06-.23-.11-.46-.16-.69-1.84-4.13-1.62-4.76,2.57-5.51A8.68,8.68,0,0,0,30,445c1.9-3.77,4.56-4.74,8.3-2.4a22.29,22.29,0,0,0,3.87,1.54c1.41.93,3,.52,4.51.45,12.81-.54,25.63.1,38.41.32a71.54,71.54,0,0,1,19.35,2.89c0-.72.1-1.66.15-2.44a9.63,9.63,0,0,1,.66-3c.23-.58,1.75-2.68,1.61-3.65,1.78-7.08,1-14.48,3-21.6.82-2.95-.1-6.44-.48-9.66-.26-2.22-2.3-2.69-4.06-3.34-3.79-1.42-6.4-4-6.82-8.11s-3.11-5.9-6.4-6.31c-6.4-.81-12-4.18-18.33-5.17-5.33-.84-3.1-6.11-4.06-9.18-.73-2.34,3.06-2.79,5.38-2.82a27.69,27.69,0,0,0,7.36-.9c1.13-.33,3.09-.56,3.57,0,3.38,4.24,8.27,2.22,12.38,3.26,4.41,1.12,6.56-.91,6-5.46a12.76,12.76,0,0,0-2.26-6.05c-1-1.39-2-3,.09-4.37,1.83-1.19,3.34-1,4.84.81,2.28,2.76,5.5,3.93,8.92,4.63s6-.16,7-3.64c.87-3,2.78-4.11,5.74-4.46,9.73-1.16,10-1.54,11.23-11.08.52-4.15,2.34-5.6,7.22-5.53L150,338a1.46,1.46,0,0,1,0-.9c3.95-2.58,12.07-8.41,12.85-13.69.54-3.58,4.66-5.83,5.74-9.73.47-1.7,2.22-.75,3.3.38a3.57,3.57,0,0,0,4.25.81c1.72-.74,1.21-2.2,1.08-3.59-.2-2.22.53-4,2.94-4.53h0c3.61-1.9,7.48-2,11.41-1.61.28.38,2.34-.22,4.36-.82a19.48,19.48,0,0,1,3.83-.94l0-.08c1.86-1.74,3.79-.94,5.59,0,4.49,2.36,8.18.36,11.5-2.31,2-1.57,2.21-4,.78-6.33-.83-1.32-1.93-2.59-1.89-4.17.05-1.83-1.19-4.85,1.51-5.05,2.14-.15,5.52-1.19,6.78,2.41,1.12,3.21,3.47,4.57,6.86,4.26,2.2-.19,3.53.49,4.6,2.83,2,4.33,6,5,10.09,2.06,2.39-1.7,4.63-3.63,7.08-5.24,3.2-2.12,7.65-1.47,9.78,1.21,4.57-.06,7.11,2,8.29,5.46a4.34,4.34,0,0,1,2.43-1.68,6.45,6.45,0,0,1,5-2.92,27.79,27.79,0,0,0,14.56-5.31c4.91-3.58,11-4.87,17-5.74,2-.3,3.29.06,4.16,2.41,1.79,4.79,4.91,5.79,9.56,3.51,1.25-.61,2.27-1.63,3.83-1.09,8.36,2.86,17,2.77,25.56,2.68,1.94,0,3.87,0,5.8,0-.3-.26-.62-.5-.9-.79-2.17-.84-1.17-2.5-1-3.95.48-5.14-1.21-7.48-6.28-7.4-3.32.05-5.34-2.14-8-3.15-3.92-1.49-4.08-1.87-3.31-5.83.37-1.93,0-4,0-6-.53-1.48,0-2.21,1.13-2.6a6.78,6.78,0,0,1-2.75-.84c-1.52-3.32-1.78-6.48,1-9.36a4.86,4.86,0,0,0,1.6-2.78c.43-4.6,3.51-7,7.24-8.82,2.65-1.7,5.35-4.67,7.72.33,2.7,4.64,4.81,9.9,11.79,9.25,4.63-.43,6.25-2.08,6-6.86-.13-2.42-1.49-4.84.09-7.23a10.28,10.28,0,0,1,5.85-2.73c-1.9,0-3.11-1.1-4-2.89-.92-1.11-2.2-1-3.43-.94-3.85.22-5.64-2.27-6.61-5.36-1.87-5.94.64-10.05,8.14-11.72,9-2,18.17-3.68,27.47-1.27,3,.77,6,1.43,9.11.86,2.46-.43,2.8.65,1.4,2.54a31.92,31.92,0,0,1-2.12,3.05c-4.26,4.51-3.7,9.77-1.6,14.7,1.34,3.13.92,4.86-1.7,6.5-5.51,1.69-10.88,2.06-15.56-2.09-2.9-2.59-6.09-4.16-10-3.46-.1,0-.2,0-.3,0a9.71,9.71,0,0,1,5.77,1.67c5.75,3.95,11.61,5.95,18.42,5.68a4.25,4.25,0,0,1,1.86,1.1,12.19,12.19,0,0,1,3.58,5.6l0,0c-.82,5.24,3.6,8.58,4.74,13.11a10.83,10.83,0,0,1-2.93,5.27,15.73,15.73,0,0,0,1.9-1.43c.76-.68,2.05,0,2.89.75,1.59,1,3.23,1.88,5.22,1.46.3-.06.79-.27.9-.14,2.9,3.15,6.54,3.12,10.2,3.1,2.55,0,5.11-.05,7.43,1,2.52,1.17,3.75,2.77,3.34,5.38-1.91,12,6.45,18.06,14.1,24.49,1.83,1.53,5.13,2.55,3.82,5.43s-4.21,3.75-7.56,2.78c-5.17-1.51-6.19-.41-4.82,4.86.41,1.61.88,3.22,1.34,4.82,1-.15,2.09-.26,3.32-.33,1.18.6,2.53,1,3.53,0,3.88-3.75,8.7-2.59,13.17-3.06,5.21-.56,7.37,1.8,7.39,7.55,0,8,1.22,9.59,8.49,11.26,1.56.35,3.06.6,3.9,2.28.15,2.69,2,4.82,2,7.64,0,2.05,1.64,2.61,3.32,2.59a8.41,8.41,0,0,1,4.92,1c2.55,3.49,6,2.58,8.81,1.23,1.93-.92,3.24-1.34,4.33.45,3.56,5.86,9.12,6.74,14.82,7.4a19.34,19.34,0,0,1,2.73.52c8.94,2.32,9.66,3.72,7,13.2a8.89,8.89,0,0,0,.16,5.4c1.29,3.92-.14,6.65-3.47,5.69-5.69-1.64-8.54,2.33-12,5.56-.79.53-2,.87-2.29,1.61-2.31,7-8.69,7.14-13.62,9.23-6.25,2.64-13.44,2.61-18.8,7.85a1.56,1.56,0,0,1-1.29.44c-4.6-1.42-9.19-.86-13.78-.3a42.4,42.4,0,0,1-10.19.45c-1.48-.17-2.75-.45-3.44-2h0c1.4-1.7,1-3.39,0-5.08l-3.71-1a5.89,5.89,0,0,0-.91-.35c-3.64,2.48-6.12,6.07-8.21,10s-6.15,5.72-8.61,9.14c-2.9,2.15-6.5,2-9.79,2.87a4.33,4.33,0,0,1,.3.41h0a4.41,4.41,0,0,1,0,4.69c-3.28,2-8.29,1.47-9.25,6.94a5.79,5.79,0,0,0-1.39,4.53c.19,5-1.45,4.52-3.55,3.16l.28,1.05c-.91,1.07-1.81,2.14-2.72,3.2-7.28,6.89-7.75,8.64-4.35,18-6.29-.3-12.55-.54-16.16,6.57l-1,2.83c-2.54,4.47-6.5,3-9.67,2.19a52,52,0,0,0-11.23-1.63l.22.43a25.67,25.67,0,0,1,9.84,1.8c1.2.52,3.13.1,3.28,1.83.13,1.38-1.67,1.47-2.63,2.1a9.06,9.06,0,0,0-1.83,1.38c-.89,1.42-1.83,1.47-3.45.77-5.55-2.39-7.74-.81-8,5.06-.17,3.48-2.38,3.32-4.56,3.16a15.17,15.17,0,0,0-1.65-.06,29.58,29.58,0,0,0-3.1-2.72c-1.64-1.08-3.18-.64-4.63.64-1.68,1.5-1.3,3.07-.19,4.52,2.15,2.81,4.49,5.48,6.68,8.26,1.38,1.76,2.05,3.6-.4,5.07-1.61,1-2.9,2-1.56,4s3.13,2.48,5.22,1.28c2.26-1.3,4.37-1.43,6.34.5.67,1.62,2.38,3.06.91,5.06-1.75,2.37-4.08,2.45-6.62,1.63l0,0c-4.77-1.44-6.33-.41-5.56,4.09.35,2.06-1.06,2.25-2,3-1.34,2.12.39,3.83.77,5.72.15.72.76,1.47.07,2.13a1.7,1.7,0,0,1-2.17.16,22.37,22.37,0,0,0-7.1-3.18,4.63,4.63,0,0,1-3.22-4.24,11.68,11.68,0,0,0-2.32-6.85c-1.35-1.89-.44-3.26,2-3.26a32.5,32.5,0,0,1,5.58.15c1.47.26,2.91.13,3.5-1.47s-.66-2.67-1.76-3.47c-2.76-2-5.76-2.89-9.16-1.56-4.52,1.77-4.65,1.67-5.91-3-1.61-4.1-1.11-5.06,3.06-5.07,1,0,2,0,2.95,0a34,34,0,0,0,9.44-.66c-1.92-1.08-4-1-6-.93a25,25,0,0,1-2.74,0c-1.08.06-2.17,0-3.26,0a4.51,4.51,0,0,0-3.07.74,4.67,4.67,0,0,1-2.88.78l-3.54-3a14.44,14.44,0,0,1,1.16-2.78l-.33,0c-2-2.75-4.18-5.38-5.9-8.29-2.78-4.7-2.14-9.52.59-14,1.1-1.81,2-3.48,1.28-5.61-1.36-1.05-3.49-1.39-3.43-3.72-2-.18-3.27-1.76-5.08-2.26-.84-.66-1.85-1.23-1.49-2.38-.48-.18,1.6-.75-.17-.74-.35,0-.73.24-1.18.28a2.51,2.51,0,0,1-1.54-.73,4.28,4.28,0,0,1-.47-3.79c-2,2.35-3.93,1.09-6-1.66a11.28,11.28,0,0,0-2.57-1.94,4.25,4.25,0,0,1-.7-.43c1.49,2.48.51,3.21-2.17,2.58-2.84-.87-5.64-1.72-7.06-4.8a3.45,3.45,0,0,0-2.13-1.64c-8.4-1.89-12.12-8.82-14.78-15.55-2.09-5.29-5-6.52-9.74-6.23-2.62-2.26-1.22-3.8,1.13-4.59l1.07-.35-1.39.18a3.57,3.57,0,0,1-3.47-1.66v0h0c-2.49-.07-6.32-.43-9.08-.57a11.28,11.28,0,0,1-.68,1.5c-1.54,1.1-3.64,1.77-3.71,4a3,3,0,0,1,.28,2.2c-.24.88-.76,2.22-1.24,3.46a1.52,1.52,0,0,1,0,.21,5.34,5.34,0,0,1-.31,1.19c-.51,1.17-1.53,2.28-.31,3.61,2.65,6.56,8.06,10,14.23,12.52,2.83,1.78,3.36,4.8,4.17,7.67.19,3.4,1.94,6,4.11,8.49a7.81,7.81,0,0,1,.75,1.06,14,14,0,0,0,9.86,6.14,8.74,8.74,0,0,1,6.43,4c2.43,3.63,6.76,4.62,10.37,6.6,1.48.81,3,1.5,4.55,2.26.8.39,1.57.87,2.33,1.34a13.42,13.42,0,0,1,1.52,1.4,8.7,8.7,0,0,1,1.87,2c.69,1.07,1.17,2.3.29,3.36-1.11,1.33-2.12-.17-3.18-.42l0,0-.05,0h0c-2.44-2-5-3.45-8.26-1.84l.07,0c-3.47,1.23-6,3.07-4.58,7.32,1.73,2.11,4.48,4,5,6.37.59,3-3.62,3.67-5.11,5.9a25,25,0,0,0-1.74,3.7c-.94.86-.87,2.22-1.59,3.21s-1.1,2-2.45,1.34-.85-1.68-.56-2.77a17,17,0,0,1,1.55-3.77,14.75,14.75,0,0,0,0-9.22,10.27,10.27,0,0,1-1.67-2.74C285.9,487,280,484.42,275.2,481c-3.49-2.5-7.31-4.51-10.21-7.78-10.71-2-15.92-12-24.61-16.91-.53-.3-1-.66-1.57-1-2.34-1.39-3.87-3.58-5.51-5.65a17.91,17.91,0,0,1-2.25-4.53c-1.9-6.83-6.5-10.89-13.19-12.67-4-1.07-7.64-.33-10.21,3.27-1.1,1.53-2.23,2.93-4.26,3.17h-.61l-.37.44c-.59,1.66-2.25,1.6-3.51,2.2-3.51.82-6.81,1.72-8.2,5.8-.83,2.46-3.22,2.29-5.11,1.42-2.39-1.1-4.94-1.7-7.3-2.85a38.31,38.31,0,0,0-11.38-2c-9.15-.1-13,4.12-12.1,13.09a8.27,8.27,0,0,1-4.56,1.59c.71.06,1.42.1,2.14.1,2.18,0,3.83,1.23,2.49,3.91-.3.33-.59.68-.89,1-5.78,4.52-11.6,9-19.18,10a6.74,6.74,0,0,0-6,4.93c-1,3-3.4,5.07-6.07,6.75-4.52,4-5.58,9.22-4.42,14.82.76,3.67.2,6.47-3.16,8.36-2.44,1.37-3.12,3.82-3.7,6.2a7.12,7.12,0,0,1-5.5,5.7,11.07,11.07,0,0,0-6.82,5.22c-1.82,2.83-4.37,3.39-7.79,3.82a49.81,49.81,0,0,1-6.8.23c-5.28-.06-10.58-.12-15.22,3.59-.83.67-2,.56-3.19.44a12.77,12.77,0,0,0-1.38-.08c-1.6,0-3.08.12-4,1.74-.75,1.3-1.53,1.8-2.31,1.8A4.56,4.56,0,0,1,55.61,535.46Zm280-75.51a4.49,4.49,0,0,1,.1.64c.24-.27.5-.53.76-.79Zm-36.95-39.64c.2,0,.4,0,.61,0-.4-.07-.79-.11-1.19-.14l.58.17Zm-22.09-5h0Zm-6.3-107a25.76,25.76,0,0,0,.66-4.1,25.94,25.94,0,0,0-.66,4.1Zm-206,41.4h0a10.6,10.6,0,0,0,2.86-3.83l4.6-4.55c1.83-.58,2.67-2.18,3.67-3.61,1.8-1.24,3.85-1.11,5.81-.82a6.94,6.94,0,0,0,4.06-.23c1.75-.79,4.81-1.11,4.4-3.29-.33-1.73-1.72-1.33-3.08-.93a6.45,6.45,0,0,1-1.68.35A21,21,0,0,1,77.39,331c-1.87-.8-3.92-1.19-5.56-2.5l.08.05c-1.09-1.19-2.25-.59-3.37-.09-1.35.59-2.58.46-3.09-1s.81-1.81,1.76-2.31c2.59-1.37,5.54-2.16,7.41-4.65,1.34-2,1.2-3.75-1-5.07-1.88-1.13-3-2.62-2.45-4.95A3.94,3.94,0,0,1,72.38,309c.8-1.86,1.9-3.06,4.22-2.55a37.08,37.08,0,0,0,5,.5c4,.29,5.52-1.11,5.79-5.22a63.57,63.57,0,0,1,.76-6.87c.35-2-.55-3.23-2.52-3.7-4.51-2.63-4.56-2.78-2.41-7.31.54-1.12,1.23-2.35,0-3.33s-2.36-.23-3.39.48c-3.4,2.35-7.1,3.69-11.25,3-3.29-.51-4.72-2.14-2.35-5.32,4.31-4.38,1.64-9.7,2-14.62h0c-3.14-.63-1.51,2.84-3.07,3.57l-1.65,3.68c-3,2.07-4.85,1.37-5.33-2.25-.3-2.19-1.24-4.17-.62-6.66.7-2.76-3-2.4-4.18-4.08l.07.08c-1.33-2.09-.4-3.85.85-5.55.6-.63,1.21-1.26,1.81-1.9,1.44-1.43-.13-2.84,0-4.26a4.29,4.29,0,0,1,.43-2.06c1.13-5.4,6.05-9,6.69-14.79.44-4,3.34-5.34,7.54-4.8,3.69.47,7.39.83,11-.77,2.34.32,2.28,1.69,1.49,3.39-1.29,2.77-3.6,4.61-5.93,6.41-1.3,1-3.33,1.68-2.27,3.91,1,2,2.9,2.21,4.8,1.66,5-1.44,10.15-1,15.26-.83,3.2.09,4.72,1.36,3.44,4.68-2,5.29-3.06,11.11-7.86,14.95A10.86,10.86,0,0,0,85.93,264c-1.44,3.11,1.2,2.37,2.63,2.79a11.63,11.63,0,0,1,6,0c5.45,2.86,10.7,5.68,11.09,13.06a7.73,7.73,0,0,0,5.19,6.63c5.6,2.24,7.6,7,8.43,12.37.35,2.22.76,4.28,2.34,5.87,1.1,1.1,1.18,2.15,1.06,3.69-.36,4.77,2.66,6.48,7,4.18,3-1.33,5.37.41,7.59,1.85s2.23,3.83.82,6a12.86,12.86,0,0,1-3.62,3.43l-2.05,1.79c-1.73,1.49-3.59,2.87-4.46,5.11-.65,1.67-1.15,3.27,1.12,4.15.39,0,.78,0,1.19,0a9.07,9.07,0,0,1,4.94.91c-5.08,3.64-10,5.79-15.53,6.36-3.72.38-7.43.54-11,1.74-.58.2-1.34.53-1.79.32-5.2-2.46-10.13-1.13-15,.2a33.08,33.08,0,0,1-9,1.58,2.72,2.72,0,0,0-2.43,1.16c-1,1-.6,3.43-3,2.93a1.82,1.82,0,0,1-1.79-.85c-2.06-1.82-4.27-.7-6.44-.34l-2.93,1.94a2.15,2.15,0,0,1-1.09.39c-.52,0-.83-.45-.85-1.42Zm-52-20.31c-4.74-3.16-4.8-5.42-.08-8.33,4.06-2.5,4.67-7.37,7.32-10.9,1.59-2.1-2-3.59-3.72-5S11,302.47,14,299.48c1.3-1.54.24-2.89-.4-4.22-1.07-2.23-.42-3.61,2-2.7,5.12,2,9.13-.71,13.42-2.48l1.88-.93c1.93-.36,1.84,1.74,2.89,2.39l.07,0c-1.33-1.62-.09-3.48,1.17-4.74,1.78-1.78,2.45-4.28,4.28-6l4.14-1.71c7.22-3,7.22-3,12.2,2.42,4.78,5.18,4.52,6.95-1.51,10.37-2.35,1.76-4.4,1.89-6.25.95a13.39,13.39,0,0,1,1.73,2.79,47,47,0,0,1,2.81,20.11c-.32,4.92-1.85,6.45-6.74,6a12.61,12.61,0,0,0-10.19,3.3c-4,3.56-9,5.34-14.34,6.17a13.76,13.76,0,0,1-2.22.18,11.82,11.82,0,0,1-6.67-2Zm32.69-39.06-.12-.14a4,4,0,0,0-.41-.14c.19.09.36.18.53.28Zm221-17.29c-2.31-.53-2.55-2.24-2.32-4.32.28-2.63.42-5.31-2.19-7.13a1.18,1.18,0,0,1-.53-1.22c1.86-5.4-1.63-8.62-4.74-12.07-.79-.88-1.11-2.2-1.88-3.18a20.16,20.16,0,0,1-4.13-10.11,8.52,8.52,0,0,0-2.75-5.67c-2.07-3.07-4.34-6.07-2.89-10.14a2.71,2.71,0,0,1,.62-.6,3.06,3.06,0,0,1-1.65-1.7c-1.07-2.82-3.7-4.34-4.9-7-1.29-2.93-2.64-1.56-3.55.55-.76,3.82-3.08,5.72-7,5.61l-1.19.44c-3.66,2.17-6.15,5.58-9,8.58a34.25,34.25,0,0,1-8.44,5.7,11.94,11.94,0,0,1-11.59.06c-4.37-2.26-9.41-3.13-13.22-6.57-2.29-2.07-3.55-3.47-.16-6.1,2.18-1.69,5.19-4.44,2.4-8.18a7,7,0,0,1,3.08-9.4c1-.53,2.5-.41,2.63-2.05-.55-3.23-2.42-2.27-4-1.08-4.32,3.31-8.14,1.41-12-.86.12-2.93,2.52-5.81.2-8.84-.19-.24.26-1.19.63-1.6,3.68-4.14,3.53-8.16-.18-12.19-1.25-1.35-.88-2.84-.16-4.32.84-1.71,2.23-1.93,3.92-1.67,2.47.4,5.48,1.38,3.94-3.24-.16-.45.28-1.58.56-1.62,4.57-.66,7.27-6,12.56-4.93a19.16,19.16,0,0,0,5.07.32c1.59-.1,2.12-1.12,1.3-2.62-.75-1.1-3-1-2.74-2.72s2.06-1.45,3.45-1.56c1.73-.14,3.16-1.22,4.77-1.75,2.63-1.7,6.76-1.43,7.38-5.82.1-.7,1.3-.54,2,0,3.45,2.5,4.49-.35,5.82-2.61a41.19,41.19,0,0,1,15-14.82,5.21,5.21,0,0,1,3.58-.33,11.66,11.66,0,0,0,1.86.15c2.33-.1,3.58-1,2-3.55-3.27-5.36-2.78-6.44,3.41-8.12,1.3-.35,2.84,0,3.85-1.27-.73-4.4,1.14-8.59,1-13-.11-3.42,1.35-5.26,5-4.85,3.52.38,5.44-.78,4.47-4.76-.49-2,.63-3.56,2-4.91,3.78-3.69,6.57-8.13,9.72-12.29,2.39-3.16,3.87-6.7,6.1-9.83a4.55,4.55,0,0,1,2-.62l1,.26c2.48-4.22,5.24-5.16,9.48-3.33a2.56,2.56,0,0,0,1.81,0,7.08,7.08,0,0,0,.9-.74,62.47,62.47,0,0,1,2.25-7.32,6.42,6.42,0,0,1,.85-3.08,8.33,8.33,0,0,1,1.07-1.67,6.43,6.43,0,0,1,.93-1,4.91,4.91,0,0,1,3-1,3.79,3.79,0,0,1,1.33.3c1.05.37,2.11.74,2.55-1,.53-2.1.48-4.33-1.46-6-1.64-1.4-4.56-2.36-2.37-5.38,2.07-2.82,4.72-3.3,7.71-1.42a2.76,2.76,0,0,0,3.05.25,12.13,12.13,0,0,1,1-.75c1.14-1,2-2.41,3.43-3.06,1.72-.77,2.7-1.9,2.4-4-.43-3,1.43-4.24,4-4.56s3.77,1,3.75,3.49a3.45,3.45,0,0,0,.13.91c.19.64.73,1.44,1.18,1.25,2-.82,3.37.32,4.75,1.46s2.79,2.32,4.8,1.42c.44-.94.32-2.06.93-2.95.65-1.32.76-3.05,2.58-3.5a17.57,17.57,0,0,0,4.69.31,23.51,23.51,0,0,1,3.25.06c-.27-3.42.81-5.16,4.45-3.52a6.12,6.12,0,0,0,2.91.29c1.48-.08,3-.16,4.1,1.25s2.28,2.08,4,1.49c1.93-.69,1.53-2.46,1.55-3.9A8.74,8.74,0,0,1,376,9.74a4.38,4.38,0,0,1,3.16.26c2.15.92,3.61.53,4.05-1.95.5-2.79,2.24-3.37,4.75-2.88a12.4,12.4,0,0,0,3.22,0c1.28-.09,2.85-1.56,3.75.07s-.59,3.17-1.56,4.51c-1.09,1.5-3,2.21-3.88,3.9a11.38,11.38,0,0,1-.7,1.1c-.92,1.29-1.82,2.73-.25,4,1.23,1,2.64.31,3.85-.39a12,12,0,0,0,4.12-4.19,7.86,7.86,0,0,1,.77-1.05,34.5,34.5,0,0,1,3.89-3.85c2.88-2.28,4.41-1.76,4.67,1.87.28,4.06,1.94,3.94,4.59,2a10,10,0,0,0,3.92-7.45,5.24,5.24,0,0,1,6.5-4.79c2.32.44,3.82,1.6,2.59,4.17s-.38,4.85-.15,7.24c.12,1.28,1.08,1.26,1.83.18,1-1.25,1.18-2.87,2-4.21,2-3.39,5.37-4.33,8.6-2.14,1.44,1,2.84,2.09,4.61,1.83,4.74-.68,7.89,2.26,11.18,4.77,2.48,1.89,2.17,3.19-.75,4.67-2,1-4.53,1.24-6,3.27-2.23,1.75-4.75.83-7.93.65,2.12,1.81,4.19,3,4.66,5.38,1.84,2,3.95,4.07,0,6.08l-2.79.95c-1.89.76-3.31.53-3.76-1.78a4.79,4.79,0,0,0-.28-.91c.4,1.29.1,2.88-.71,5.3-1.5,4.43-6.48,6.34-7.41,11.56s-.06,9.16,5,11.11a18.77,18.77,0,0,1,6.27,3.85c4.76,4.49,4.83,5.55.17,10-1.12,1.07-2.4,2-3.57,3-2.88,2.5-3.47,5.16-1.15,8.54,3.16,4.6,6,9.44,8.91,14.19,1.21,2,1.61,3.52-1.38,4.56s-3.34,3.67-2.24,6.54c.7,1.84,2.6,3.71-.28,5.62-1.14.75-.19,2.15.88,2.53,3,1.08,3.38,2.79,2.33,5.68-.73,2,1.17,3.25,2.73,4.38,3.9,2.82,3.84,3.83-.21,6.1-4.33,2.42-4.38,3.85-.09,6.67s8.86,5,12.09,9.28c2.81,3.7,2,6.66-1.1,9.31s-7,4.17-9,7.23c-6.52,10.08-18.54,14-25.42,23.42a5.15,5.15,0,0,1-4.52,1.94c-10.75.1-20.68,3.9-30.81,6.7-8.89,2.46-16.84,1-24.65-3.67-2.7-1.61-6-2.33-8.93-3.7-3.43-1.59-3.65-3.6-2.22-6.57.88-1.81,1.6-3.7,2.32-5.59a7.56,7.56,0,0,0,.67-4.54c-1.4-5.47-2.85-10.93-4.28-16.39-.31-5.17,3-10.13,7.89-10.62s4.53-4.71,6.15-7.55c5.67-2.73,10.24-7.24,16-9.88a8.1,8.1,0,0,0,3.61-4.15c.92-2.13,1.82-4.26,2.77-6.38.71-1.6,1.53-3.29,3.67-2.86,3.72.75,3.68-1.58,3.67-4.1,0-4.71-1.33-8.4-6.39-10.11-2.26-.76-4.75-1.49-6.5-3.42a18.2,18.2,0,0,1-1.31-2.32c.4,1.66-.75,2.36-3.69,2.75a23,23,0,0,1-7.36.17c-2.14-.39-4.33-.13-5.8,1.89a3.19,3.19,0,0,1-1.18,1.41c-5.84,2.6-7.06,8.77-10.33,13.34-1.29,1.79-.55,3.62.49,5.21,1.9,2.88,1.15,5.17-1.13,7.43a45.59,45.59,0,0,1-12.15,8.49c-4.47,2.18-8.3,5.44-12.92,7.35-1.68.69-2.44,2.31-3.32,3.77-1.66,2.53-4.72,3.59-6.45,6.05a6.31,6.31,0,0,1-.73,1c-1.12,1.12-2.61,1.88-3.29,3.42a6.61,6.61,0,0,1-.69,1c-.89,5.32-3.09,10.2-4.78,15.26-1.44,4.32,1.29,9,1.53,13.61a4.15,4.15,0,0,0,.67,1c3.66,1,7.29,2.09,10.29,4.6a17.2,17.2,0,0,1,4.24,4.31c1.16,2.2,1.77,4.4,0,6.6-1.07,1.18-2.29,2.21-3.27,3.47-1.59,6.49-6.29,9.76-12.2,11.77-3.2,1.15-4.18,3.58-4.66,6.8-.92,6.08-.4,12.39-3.21,18.21a5.19,5.19,0,0,0,1.21,6.36c2.15,2.06,1.34,4.31-1.57,4.26-2.75,0-3.88,1.25-5,3.21-1.28,2.25-3.16,2.83-5.53,1.82-.42-.16-.84-.34-1.24-.53a5.86,5.86,0,0,0-5.14.42c-3,2.28-6.81,3.74-6.6,8.66.08,1.68-3.78,3.43-6.62,3.43a5.14,5.14,0,0,1-1.18-.13ZM420.88,20.85l-.3-.14.3.14ZM350.19,231.32c-1.57,0-1.77-1.09-1.55-2.19.78-3.77,3.39-5.24,7.05-5.35a2.82,2.82,0,0,0,1,.06c.84,0,1.69-.08,1.79,1.32s-6.66,6.16-8.28,6.16Zm2.72-12.68c.12-.85,1-1,1.8-1.11.8.09,1.73.36,1.5,1.24-.14.51-1.14.95-1.83,1.11a1.27,1.27,0,0,1-.34,0,1.07,1.07,0,0,1-1.14-1,1.15,1.15,0,0,1,0-.26Zm-314.38-40c-2-1.19-4.13-2.11-6.17-3.23-3.49-1.94-7-3.2-11.06-1.58a2,2,0,0,1-2.7-.8c3.29-2.39,3.52-5.3,1-8.46a5.22,5.22,0,0,0-1.46-1.05c-4.47-1.88-4.67-2.47-2.06-6.35a14.5,14.5,0,0,0,.89-2.07,10.22,10.22,0,0,1,1.88-2.85c.2-.2.4-.38.61-.57-1.28-4.12-6.54-6.43-11.06-4.48-3.2,1.38-4.07,1.49-7.37.93,3.05-5.73,3.05-5.73,9.33-4.6,2.36.43,4.05.05,3.77-2.95-.09-.88-1.1-2.23.89-2.4,1.57,2.79,6.27,2.36,6.58,6.43v0c-.64,2-1.22,4,.9,5.62,0,.15,0,.31,0,.46,2.24,1.68,4.4,3.11,6.82,0,.63-.81,1.63-.72,2.66-.62,1.3.12,2.64.24,3.26-1.54a1,1,0,0,0,0-.25s0,.08.17-.17c.84-1.82-1.8-4.25.45-5.44s2.44,2.67,4.5,2.79l1.69-.1c2.73-4.91,2.75-4.95,8.6-3.09a2.86,2.86,0,0,0,3-.39c.91-.77,2.07-1.29,3-.57,2.09,1.66,4.1,1.08,6.12.49a11.12,11.12,0,0,1,3.13-.6,2.17,2.17,0,0,0,2.24-2c.36-4.88,2.82-2.69,4.84-1.39,1.33.86,2.68,2,4.22,1.6,4.12-1,5.93.24,6.46,4.58.34,2.82,2.43,4.82,5.64,5.41s5.21,2.62,4.85,6.24a10.69,10.69,0,0,1-6,6.76c-.42.19-1,.32-1.21.67-2.67,5.48-8.29,5.18-13,6.7a6.5,6.5,0,0,0-4.32,1.4,7.87,7.87,0,0,1-2.85,1.53C61.4,174,56.34,175.51,51.68,179a9.61,9.61,0,0,1-5.84,1.9,14.48,14.48,0,0,1-7.31-2.21Zm-3.3-30.34ZM362,139.85Z"/></clipPath><linearGradient id="Nepojmenovaný_přechod_3" x1="-26.25" y1="689.5" x2="-26.65" y2="688.99" gradientTransform="matrix(792, 0, 0, -792, 21354.63, 546267.96)" xlink:href="#Nepojmenovaný_přechod"/></defs><g id="mapa"><g id="map"><path id="Path_670" data-name="Path 670" class="cls-2" d="M386.68,376.47c2.31-3.12,3.95-6.15.95-8.65a18.67,18.67,0,0,1-.68-3.05c-.25-3.77,2-5.76,6.05-5.66,3.43.08,7-.22,10.46-.35,5.53-1.3,7.52,3.42,11.78,4.3a13,13,0,0,1,4.55,5.9c.38,2.27,1.67,3.05,2,5.36.77,5.09.92,3.12,6.62,2.4,4.37-.54,7,7.06,7.08,11.49,0,2-.72,4.12-.42,6.08a12.25,12.25,0,0,0-.43,5c1.71,8.43-5.95,14.72-10,21.79-1.15,2-3.25,1.78-4.63.8-1.8-1.27-4.26-1.81-5.34-3.9-3.17-3-8.4-2.53-12.31-4.49-5.2-2.62-8.64-6.12-9.34-12-.06-4.8-1.47-9.29,1.61-14.64a3.44,3.44,0,0,0-.95-4.77,3.54,3.54,0,0,0-1.64-.57C389,381,387.79,378.79,386.68,376.47Z" transform="translate(119.25 40.26)"/><path id="Path_671" data-name="Path 671" class="cls-2" d="M369.57,471.46l-1.42-2.82h0c0-1.76-.79-2.77-2.44-2.94h0c-3.81-8.3-9.23-12.23-18-8.67-3,1.22-6.45,1.17-9.7,1.7-6.4,5.39-7.21,10.86-2.73,18.49.85,2.89,3.64,3.66,5.27,5.7,6,3.18,11.15,1.37,15.94-2.93,1.79-1.52,4-2.12,6-3.2A16.08,16.08,0,0,0,369.57,471.46Z" transform="translate(119.25 40.26)"/><path id="Path_672" data-name="Path 672" class="cls-2" d="M359.31,444.34l0,0c-1.27-1.4-.7-3.81-1.1-9.72a26.47,26.47,0,0,0-.34-2.82l.08-.15a7.71,7.71,0,0,0-.05-1.52c-.58-4.32-5.14-4.4-8.56-5.7-1.42-1.15-3.58-.62-4.94-1.91a3.13,3.13,0,0,1-.88-3.19c.86-2.78-1-3.88-3.27-4.67-2.9-3.34-3.37-8.16-7.39-10.82q-9.93-4.79-18.58,1.87a8.16,8.16,0,0,1-.84.26c-1,4.46,4.22,5.77,5.23,9.22.39,2.07.77,4.14,1.16,6.21l-1,2,0,0c2,4.16,1.06,8.46.68,12.74.07,2.41-1.79,4-2.91,5.87L315.3,444c2.51,3.79,5.86,6.91,9,10.19,4.31,1,7.76,3.5,11.12,6.09l20.48-3.56c2.25-.48,1.7-2.38,2.15-3.77a5.72,5.72,0,0,1,1.57-3.19C361.5,447.64,361.25,445.86,359.31,444.34Zm-36.23,1.26a2,2,0,0,1-.37-.63C322.86,445.22,323,445.43,323.08,445.6Z" transform="translate(119.25 40.26)"/><path id="Path_673" data-name="Path 673" class="cls-2" d="M323.51,427a4.34,4.34,0,0,0-.7-1.37c-2.7-1.48-5.32-3.1-8.41-3.67h-.29a50.18,50.18,0,0,0-15.44-1.35q-.42-.11-.84-.24c-.45-.22-.9-.43-1.36-.63-3.06-.23-5.87,1.25-8.89,1.25l-.41,0c-3.49.9-3.93,2.73-1.61,5.37.94,1.06,2,2,2.93,3.1q.35.57.72,1.14c.35.49.68,1,1,1.52.78,2.48,2.66,4.18,5.19,5.42h0c.87,1.9,2.9,3.12,3.15,5.37,2.44.54,3.4,3.07,5.48,4.08a11.89,11.89,0,0,1,2.57,1.94c2.47,3.27,4.78,4.46,7.13-.06,1.73-2.42,3.29-5,5.81-6.75.3-.21.44-.82.5-.5,2.4.1,3-1.7,3.56-3.47A53.56,53.56,0,0,0,323.51,427Z" transform="translate(119.25 40.26)"/><path id="Path_674" data-name="Path 674" class="cls-2" d="M360.66,366.23c-1.47-.19-3.12.41-4.28-1.19l-2.14-.1h0c-2.75-3.4-6.46-2-9.82-2.41-3.54-.44-11.11-5.23-14.75-5-5.85.4-7.69,3.4-13.6,2.62-3.94.58-6.09,3.52-7.7,7.17l-2,1.3c-.31.32-.62.63-.92,1-1,1.12-2.31,1.3-3.54,1.74a6.44,6.44,0,0,0-1.26.7c-2,1.56-4.78.5-6.6,2.56-1.42,2.28-.81,4.55,0,6.82,2.94,7.8,12,13.23,21.85,11.55,3.86-3.46,4.71-8.8,9.72-9.34,4.22-.45,9,.73,11.74-2.75a10.89,10.89,0,0,0,.62-1.23c1.79.37,3.45-1.82,3.45-1.82l11,2.65c0,.08,0,.15,0,.22,4.09,3.08,4-4.08,5-6C358.22,371.71,361.16,369.78,360.66,366.23Z" transform="translate(119.25 40.26)"/><path id="Path_675" data-name="Path 675" class="cls-2" d="M295.07,365.18c2.91,2.67,7.58-1.27,10.14,2.7,0,3.72.31,6,0,9.83,1.13,5.34-.8,6-4.08,7.67-.61,3-.74,6.1-2.46,8.76l-4.83,5.25a5.5,5.5,0,0,1-5.24,3.84c-4.91.38-9.25,2.47-13.81,3.93a26.08,26.08,0,0,1-11.14-.86,43.59,43.59,0,0,1-5.93-.56c-1.56-.47-3.14-.83-4.73-1.15-4.59-1-11.6,3.18-13.5-2.9-4.27-2.5-7.08-5.48-11.15-3.16-2.32,1.32-4.5,2.78-7.19,3.18A8.81,8.81,0,0,1,215,398c-.46-2.18-2.82-2.95-3.62-4.88a2,2,0,0,1,.72-2.33l4.9-2.63,7.57,2.16c3.06.83,4-2.4,6.12-4.35a28.72,28.72,0,0,1,16.5.68c2.44.89,6.15.13,5.37-3-2.29-9,5.42-10.75,9.83-14.94.7-.65,1.25-1.67,2.49-1.08,6.25.2,13.05,2.56,16.3-6.17.92-2.49,4.44-.81,6.88-.33C290.93,361.72,292.52,364.22,295.07,365.18Z" transform="translate(119.25 40.26)"/><path id="Path_676" data-name="Path 676" class="cls-2" d="M294.34,397.46c-1.47-1.3-2.88-.17-4.38,0-6.23.59-11.66,4.49-18.07,4.2-2.39-.49-4.77-1.06-7.18-1.45-1.07-.18-2.18,0-3.26-.25-1.42-.45-5.79.58-6.94,1.56-.07.31-.14.62-.2.93,0,0-1.49,2,1.06.71-1.9,4.12-.24,6.55-.55,10.78,2.76.09,7.17.53,9.93.61h0v0a3.58,3.58,0,0,0,3.47,1.66c3-.39,6.08-.9,9-.5s4.15-.59,5.54-2.43l1.1-2.1h0c2.56-.27,3-2.19,3.3-4.23,1.27-3.09,4.51-3.72,6.88-5.42C294.17,399.87,294.22,399.11,294.34,397.46Z" transform="translate(119.25 40.26)"/><path id="Path_677" data-name="Path 677" class="cls-2" d="M198.82,345.35c-2.47-2-3.9-5.43-7.43-5.78a29.32,29.32,0,0,1-8.85-5.64c-2.75-2.54-10.63-2.74-13.9-.19-2.56,2-.55,2.82-3.44,4.33h0c-4.42.93-8.63-.68-12.94-1.18l-6.73,4c.53,5.73,3.54,8.32,8.75,8.13a4.18,4.18,0,0,0,.91-.35c1.44,2.32,3.76,3.09,6.13,3.77h0l5.51,3.89c.25,1.89,1.77,3.15,2.1,5,2.27,4.82,5.29,1.7,8.09.88,3.45-.37,2.52,3.63,4.23,5s4.21,1.54,5.65,3.26c3.77,4.49,6.18,3,8.06-1.79a27.73,27.73,0,0,1,2.07-5.65C202.39,357.72,202.53,351.76,198.82,345.35Z" transform="translate(119.25 40.26)"/><path id="Path_678" data-name="Path 678" class="cls-2" d="M234.7,401a3.31,3.31,0,0,0,.36-2.69h0c0-1.36-1-2-2.25-2.43a5.38,5.38,0,0,0-1.13-.05h0a3,3,0,0,0-.83.2,3.36,3.36,0,0,1-.63.06,7.82,7.82,0,0,1-2.73-1.26c.06-1.35-.52-2.61-.57-3.94a6.12,6.12,0,0,0-2.53-4.49c-6.6-4.3-13.22-2.57-19.84-.08-1.14.08-2.36-.11-3.17,1-2.26,1.17-5,1.65-6.3,4.22l-6.78,7.12a6.11,6.11,0,0,0-.49.52l0,0h0a3.23,3.23,0,0,0-.77,2.47c.25,2.33.81,3.34,2.06,4.3,1,.8,4-.67,4.95.29h0c-.05,1.77,1.54,2.69,2.13,4.14v1.86a6.56,6.56,0,0,0,3.53,1.64,6.25,6.25,0,0,0,4.26-1.05c1.5-1.05,4.91-2,5.9-2.75s2.87,3.8,2.87,3.8,3.68-3.21,4.53-2.56a2.62,2.62,0,0,0,3.14-.2,12.7,12.7,0,0,0,1.7-2c.46-.84,1.4-2.48,1.4-2.48l10.39-3.21a2.5,2.5,0,0,1,1.22-1.24C236.08,401.6,234.7,401,234.7,401Z" transform="translate(119.25 40.26)"/><path id="Path_679" data-name="Path 679" class="cls-2" d="M381.63,126.13c.92-2.13,1.82-4.26,2.77-6.38.71-1.6,1.53-3.29,3.68-2.86,3.71.75,3.68-1.58,3.66-4.1,0-4.71-1.33-8.4-6.38-10.11-2.26-.76-4.76-1.5-6.5-3.42-1.23-1.76-1.83-3.86-3.33-5.52s-5.44-6.06-3.16-7.46c3-1.82,1.79-2,.35-4.43-3.45-5.93-2-11.81-2.56-18.3-.35-3.93-.88-4.59-4.55-6.08s-4.61-3.41-8.19-4.9a12,12,0,0,1-4-2.27c-1.38-1.35-12.5-5.8-10.88-8s1.37-5.05,3.38-3.15c1.17,1.11,3.79-4.21,5.48-4.2,5.26,1,20.35,12.66,25.94,10.64,2.69-1,5.89.61,8.38,2,2.79,1.5,4.27,1.2,5.28-1.65s1.58-5.1,4.54-5.06c2.8-.82,1.06-5.84,1.05-7.7,0-6.31,7.57-8.44,13.87-8.89,1.85-.13,2.68-.94,4-2.63,2.69-2.25,6.39-1.3,8.83,1.3,2.08,2.2,4.86,3.22,7.4,4.66,4.41,2.5,4.93,4,3.24,9-1.49,4.43-6.48,6.34-7.41,11.56s-.06,9.16,5,11.11a18.69,18.69,0,0,1,6.26,3.86c4.76,4.48,4.83,5.54.17,10-1.12,1.07-2.4,2-3.57,3-2.88,2.5-3.46,5.15-1.14,8.54,3.15,4.6,6,9.43,8.9,14.19,1.21,2,1.61,3.51-1.38,4.55s-3.34,3.67-2.24,6.54c.71,1.85,2.61,3.71-.28,5.62-1.14.75-.2,2.15.88,2.54,3,1.07,3.38,2.78,2.33,5.67-.73,2,1.16,3.25,2.73,4.38,3.9,2.83,3.84,3.84-.21,6.1-4.34,2.42-4.38,3.85-.09,6.67s8.86,5,12.1,9.28c2.81,3.7,2,6.66-1.11,9.31s-7,4.17-9,7.24c-6.52,10.07-18.54,13.94-25.42,23.42a5.19,5.19,0,0,1-4.52,1.93c-10.75.1-20.68,3.9-30.81,6.71-8.89,2.46-16.84,1-24.65-3.67-2.7-1.61-6-2.34-8.93-3.71-3.43-1.59-3.65-3.6-2.22-6.57.88-1.81,1.6-3.71,2.31-5.59a7.5,7.5,0,0,0,.68-4.54c-1.4-5.47-2.85-10.93-4.28-16.39-.31-5.17,3.06-10.13,7.89-10.62s4.53-4.71,6.15-7.55h0c5.69-2.73,10.26-7.25,16-9.9A8.12,8.12,0,0,0,381.63,126.13Z" transform="translate(119.25 40.26)"/><path id="Path_680" data-name="Path 680" class="cls-2" d="M139.45,458.09s-3.81-3.34-4-3.42-6.06-2.72-6.3-2.72-7.38-1.47-7.38-1.47l-8.48.52a46.25,46.25,0,0,0,2.26,4.22c.39.39,5.44,6.84,5.75,6.84a17.05,17.05,0,0,0,7.62.23,73.47,73.47,0,0,0,7.07-2.25A30.1,30.1,0,0,0,139.45,458.09Z" transform="translate(119.25 40.26)"/><path id="Path_681" data-name="Path 681" class="cls-2" d="M247.41,229.7c-2.06-3.07-4.34-6.08-2.89-10.14.8-1.1,2.32-1.22,3.15-2.28,2.07-3.61.87-8,2.73-11.66.77-1.53,1.13-3.08,2.95-3.88,5.12-2.24,6.32-5.17,3.84-10.51-1.46-3.13-1.33-5.28,1.81-6.93,2.9-1.8,2.49-4.11,1-6.58-.31-.3-.6-.62-.88-.95-2.49-2.19-5.33-4.21-4.46-8.22a8.84,8.84,0,0,1,.22-1.25c.62-1.8.87-3.57-.42-5.23a9.46,9.46,0,0,1-.9-6.64,14.39,14.39,0,0,0-.52-7.64,6.8,6.8,0,0,1,0-2.77A20,20,0,0,1,256,138.6c3.19-3.31,6.29-6.81,11.63-5.82,2.17.62,4.2,1.05,5.58-1.52s.29-4-1.58-5.55c-2.6-2.08-1.66-4.37-.15-6.52,2.68-3.8,5.07-7.71,5.89-12.4a15.58,15.58,0,0,0,.4-5.4c-.05-3.57,1.45-5.76,5.12-6.21,2.84,0,4.69-1.28,5.23-4.21a14.94,14.94,0,0,1,3.68-7.42c4.42-4.69,5.53-10.81,7.9-16.36,1.8-4.2,4.66-6.44,9.17-6.54,2.52,0,5,0,6.58-2.54,1.4-2.4-.77-6.46,2.33-7.57s7-.35,10.54.27a22.84,22.84,0,0,1,3.46,1.37c3.57,1.3,5.18.34,5.67-3.54.23-1.86.35-3.71,1.42-5.33,2.77-3.16,5.44-1.65,8.06.22,4.06,2.91,7.45,6.85,12.54,8.19,4,2.13,8.8,2.75,11.88,6.53a6.36,6.36,0,0,1,.64,3.59,37.53,37.53,0,0,0,4.48,19.93c1,1.9,1.3,4,0,5.74-1.92,2.55-1.58,4.64,0,7.18,2.09,3.36,1.4,4.47-2.62,5a23,23,0,0,1-7.36.17c-2.14-.38-4.33-.13-5.8,1.89a3.19,3.19,0,0,1-1.18,1.41c-5.84,2.61-7.06,8.77-10.33,13.34-1.29,1.8-.55,3.62.5,5.21,1.9,2.88,1.14,5.17-1.14,7.44a45.4,45.4,0,0,1-12.15,8.48c-4.47,2.19-8.3,5.44-12.92,7.35-1.67.69-2.44,2.31-3.32,3.77-1.66,2.53-4.72,3.59-6.44,6.05a5.55,5.55,0,0,1-.74,1c-1.11,1.12-2.61,1.88-3.28,3.42a7.28,7.28,0,0,1-.7,1c-.88,5.32-3.09,10.2-4.77,15.25-1.45,4.33,1.29,9,1.52,13.62a4.28,4.28,0,0,0,.67,1c3.66,1,7.29,2.1,10.29,4.6a17.4,17.4,0,0,1,4.25,4.31c1.16,2.2,1.76,4.4,0,6.6-1.07,1.18-2.3,2.21-3.28,3.47-1.59,6.5-6.28,9.77-12.2,11.77-3.2,1.15-4.17,3.58-4.66,6.8-.92,6.08-.39,12.4-3.2,18.21a5.19,5.19,0,0,0,1.2,6.35c2.15,2.06,1.34,4.32-1.57,4.26-2.75-.05-3.88,1.25-5,3.22-1.27,2.24-3.16,2.82-5.54,1.81-.41-.16-.82-.34-1.23-.52a5.82,5.82,0,0,0-5.14.41c-3,2.28-6.8,3.74-6.6,8.66.09,1.94-5,4-7.81,3.31-2.31-.54-2.55-2.24-2.32-4.32.28-2.63.42-5.32-2.18-7.13a1.19,1.19,0,0,1-.54-1.22c1.86-5.4-1.63-8.62-4.74-12.08-.79-.87-1.11-2.2-1.88-3.17a20.38,20.38,0,0,1-4.13-10.11A8.5,8.5,0,0,0,247.41,229.7Z" transform="translate(119.25 40.26)"/><path id="Path_682" data-name="Path 682" class="cls-2" d="M22.6,453.62c-.06-.23-.12-.47-.16-.7-1.84-4.13-1.62-4.76,2.57-5.51a8.63,8.63,0,0,0,4.93-2.15c1.91-3.77,4.57-4.74,8.3-2.4a22.71,22.71,0,0,0,3.88,1.54c1.42.93,3,.52,4.51.45,12.81-.54,25.63.1,38.41.32,9.4.17,29,5.56,37.77,9.94,2.93,1.47,1.74,2.27,4,1.8,4-.84,8.07,2,12.05.6,4.58,0,9,1.6,13.57,1.56,2.17,0,3.82,1.23,2.48,3.91l-.88,1c-5.78,4.51-11.6,8.95-19.19,10a6.74,6.74,0,0,0-6,4.94c-1,3-3.41,5.06-6.07,6.74-4.53,4-5.59,9.22-4.43,14.83.77,3.67.2,6.47-3.15,8.35-2.45,1.38-3.13,3.82-3.7,6.2a7.16,7.16,0,0,1-5.5,5.7A11.06,11.06,0,0,0,99.2,526c-1.81,2.83-4.37,3.39-7.79,3.82-7.35.93-15.37-1.51-22,3.82-1.17.94-3,.34-4.58.36s-3.08.12-4,1.74c-1.66,2.87-3.44,1.88-5.19.07a6.81,6.81,0,0,1-1.19-1.43c-2.93-5.39-10.72-9.11-17.14-10-1.77-2.44-.92-4.69,1.23-6,3.56-2.11,3.49-4.2.93-6.95-.88-.94-1.43-2.52-.46-3.4,3-2.68,2-5.3.5-8.19a3.25,3.25,0,0,1,.43-3.53c1.89-2.23,5.55-5.23,5.63-7.84.11-2.1,1.62-4.2,0-6.28-1.7-3.75-.3-6.46,2.71-8.84,1.3-1,4.14-1.72,2.89-4s-3.1-4.26-6.23-4c-1.09.09-2.12,2.72-3.18,2.87-3.71.55-7-.75-10.56-1.61-5.32-1.28-6.1-6.74-6.9-10.77A4.24,4.24,0,0,0,22.6,453.62Z" transform="translate(119.25 40.26)"/><path id="Path_683" data-name="Path 683" class="cls-2" d="M176.56,196.9c.12-2.93,2.52-5.8.2-8.83-.19-.25.26-1.19.63-1.61,3.68-4.13,3.53-8.16-.18-12.18-1.25-1.36-.88-2.84-.16-4.33.84-1.71,2.23-1.93,3.92-1.66,2.47.39,5.48,1.38,3.93-3.24-.15-.45.29-1.58.57-1.62,4.57-.67,7.27-6,12.56-4.94a18.77,18.77,0,0,0,5.07.32c1.59-.1,2.12-1.12,1.3-2.62-.75-1.1-3-1-2.74-2.71s2.06-1.46,3.45-1.57c1.73-.14,3.16-1.22,4.77-1.75,2.63-1.7,6.76-1.43,7.38-5.82.1-.7,1.3-.54,2,0,3.45,2.5,4.49-.35,5.82-2.61a41.09,41.09,0,0,1,15-14.81c1.77-1,3.63-.11,5.44-.19,2.32-.1,3.58-1,2-3.55-3.27-5.36-2.78-6.44,3.4-8.11,1.3-.36,2.85,0,3.86-1.27-.73-4.4,1.14-8.6,1-13-.11-3.42,1.35-5.26,5-4.85,3.52.38,5.44-.78,4.47-4.76-.49-2,.63-3.56,2-4.92,3.78-3.68,6.57-8.12,9.72-12.28,2.4-3.16,3.87-6.7,6.1-9.83a4.49,4.49,0,0,1,2-.61c3.3.77,6.4,2.71,10.11,1,1.1-.52,2.86.7,3.82,2-1.52,5-1.47,10.43-5.46,14.51-2.28,2.33-3.53,5.44-5.24,8.19-.72,3.56-2.61,5.73-6.49,5.94a5.75,5.75,0,0,0-3.32,1.47,8.21,8.21,0,0,0-.72,1.12c.7,8.82-3.05,16.13-7.79,23.11-1.15,2-.64,3.47,1.44,4.45s3.37,2.39,2.7,4.68-2.23,4-5.05,3.65a7.5,7.5,0,0,1-1.21-.41,5.9,5.9,0,0,0-4.8.12,17.49,17.49,0,0,0-6.79,5.35,16.58,16.58,0,0,0-2.15,3.86c-1.93,3.23-.62,6.33.36,9.45-.7,4-1.71,7.87.89,11.63.83,1.21,0,2.71-.57,4-.41,1.84-1.14,3.67-.05,5.53a12.21,12.21,0,0,0,.84,1.06c1.45,1.38,3.48,2.16,4.32,4.13,1.19,2.79.77,5.14-2.05,6.75-2.17,1.24-2.86,2.85-1,4.86,2.05,2.21,1.59,4.9,1.59,7.5s-1.21,4.36-3.82,4.28c-3.21-.09-3.58,1.92-4.36,4.27-1.32,4-.39,8.37-2.46,12.16a2.54,2.54,0,0,1-4.38-.91c-1.08-2.83-3.71-4.35-4.9-7-1.29-2.93-2.65-1.57-3.55.54-.77,3.83-3.08,5.72-7,5.62l-1.2.43c-3.65,2.18-6.15,5.58-9,8.58a34.48,34.48,0,0,1-8.44,5.71,12,12,0,0,1-11.59.06c-4.37-2.27-9.41-3.14-13.22-6.58-2.29-2.06-3.55-3.46-.16-6.1,2.18-1.69,5.19-4.43,2.4-8.18a7,7,0,0,1,3.08-9.4h0c1-.53,2.5-.41,2.62-2-.54-3.23-2.42-2.27-4-1.08C184.23,201.07,180.41,199.18,176.56,196.9Z" transform="translate(119.25 40.26)"/><path id="Path_684" data-name="Path 684" class="cls-2" d="M273.17,297a6.51,6.51,0,0,1,4.95-2.92,27.74,27.74,0,0,0,14.57-5.31c4.9-3.57,11-4.87,17-5.74,2-.3,3.29.06,4.16,2.41,1.79,4.79,4.91,5.79,9.56,3.51,1.25-.61,2.27-1.63,3.83-1.09,10.35,3.55,21.08,2.56,31.72,2.66,3.35.51,6.91.64,8.4,4.57a16.36,16.36,0,0,0,2.69,10.35c2.53,4.09,1.7,6.39-2.73,10.11-2.2,1.6-3.73,3.24-1.51,6.09,1.29,1.64,1.1,3.85,1,5.86a13.1,13.1,0,0,0,1.54,7.18,25.51,25.51,0,0,1,2.7,6.31c.58,2.28-.33,4.17-1.56,6a10.32,10.32,0,0,1-2.36,2.82c-5,4.14-10.57,7.9-10.07,15.6-1.9,1.19-3.68.15-5.49-.29-1.87-.95-7.7-3.2-7.7-3.2l-9.68,1.3s-4.06-4.24-6.13-4.27c-5.11-.08-6.1,3.33-11.09,1.73-2.05-1.75-2.7-5.06-6-5.41-3.48.23-5.7-1.44-6.95-4.59l-1-.67a6.27,6.27,0,0,0-5.41.38c-2.65,1.31-4.82.51-6.34-1.79a14.18,14.18,0,0,0-7.58-5.54c-1.84-.65-3.58-1.43-4.65-3.2-1.7-5.46-4.45-10.59-5.12-16.37-1.32-3.35-1.15-7.23-4-10.1-1.11-1.12-.23-3,.26-4.42a13.9,13.9,0,0,0,.29-8.15C270,298.58,271.39,297.64,273.17,297Z" transform="translate(119.25 40.26)"/><path id="Path_685" data-name="Path 685" class="cls-2" d="M67.17,346.24l4.6-4.55c1.84-.59,2.67-2.18,3.68-3.61,1.8-1.24,3.85-1.12,5.81-.82a7,7,0,0,0,4.06-.23c1.75-.8,4.8-1.11,4.4-3.29-.47-2.49-3.13-.57-4.77-.58a21.06,21.06,0,0,1-7.56-1.82c-1.87-.8-3.92-1.19-5.56-2.5l.09,0c-1.1-1.18-2.26-.58-3.38-.09-1.35.6-2.58.46-3.08-1s.81-1.81,1.75-2.31c2.59-1.37,5.54-2.16,7.42-4.65,1.33-2,1.2-3.75-1-5.07-1.88-1.13-3-2.62-2.44-4.95a3.91,3.91,0,0,1,1.18-1.57c.8-1.86,1.9-3.07,4.23-2.56a34,34,0,0,0,5,.5c4,.3,5.52-1.11,5.78-5.21a66.19,66.19,0,0,1,.76-6.87c.36-2-.54-3.23-2.51-3.7-4.52-2.63-4.57-2.78-2.41-7.31.53-1.12,1.23-2.36,0-3.34s-2.36-.22-3.39.49c-3.39,2.35-7.1,3.69-11.24,3-3.3-.52-4.73-2.15-2.36-5.32,4.31-4.38,1.64-9.7,2-14.62h0c-3.15-.64-1.51,2.84-3.07,3.56l-1.66,3.69c-3,2.07-4.84,1.37-5.33-2.25-.3-2.19-1.24-4.18-.61-6.66.69-2.76-3-2.4-4.18-4.08l.06.08c-1.33-2.1-.39-3.85.85-5.55l1.82-1.9c1.44-1.44-.13-2.84-.05-4.27a4.21,4.21,0,0,1,.44-2.06c1.13-5.4,6-9,6.68-14.78.44-4,3.35-5.34,7.54-4.81,3.69.47,7.39.82,11-.77,2.35.32,2.28,1.69,1.5,3.39-1.3,2.77-3.6,4.61-5.94,6.41-1.29,1-3.33,1.68-2.27,3.9,1,2.06,2.9,2.21,4.81,1.66,5-1.44,10.14-1,15.25-.83,3.2.09,4.72,1.37,3.45,4.68-2,5.29-3.06,11.11-7.86,15a11,11,0,0,0-4.67,5.51c-1.44,3.12,1.21,2.38,2.63,2.79a11.78,11.78,0,0,1,6,0c5.44,2.85,10.7,5.68,11.08,13.06a7.74,7.74,0,0,0,5.2,6.63c5.6,2.24,7.6,7,8.43,12.36.35,2.23.75,4.29,2.34,5.88,1.09,1.1,1.18,2.14,1.06,3.68-.37,4.78,2.66,6.48,7,4.18,3-1.33,5.37.42,7.59,1.85s2.23,3.83.82,6a13.18,13.18,0,0,1-3.63,3.43l-2,1.79c-1.74,1.49-3.6,2.86-4.47,5.11-.65,1.66-1.14,3.27,1.12,4.14,1.67.06,3.39-.45,6.13.89-5.08,3.64-10,5.78-15.53,6.35-3.71.38-7.43.55-11,1.75-.58.19-1.34.53-1.79.31-8.36-3.94-16,1.88-24,1.79a2.69,2.69,0,0,0-2.42,1.16c-1,1-.61,3.43-3,2.93a1.82,1.82,0,0,1-1.79-.85c-2.06-1.83-4.27-.7-6.45-.34l-2.92,1.94c-1.2.71-1.92.5-1.95-1h0A10.68,10.68,0,0,0,67.17,346.24Z" transform="translate(119.25 40.26)"/><path id="Path_686" data-name="Path 686" class="cls-2" d="M415.73,263.43c1.59,1,3.23,1.88,5.22,1.47.3-.07.78-.27.89-.15,4.93,5.37,12,1.52,17.63,4.12,2.52,1.17,3.76,2.77,3.35,5.38-1.92,12,6.44,18.06,14.1,24.49,1.83,1.53,5.13,2.54,3.82,5.43s-4.21,3.75-7.56,2.78c-5.17-1.51-6.19-.41-4.82,4.86.58,2.25,1.24,4.47,1.87,6.71,1.34,5.57-3.34,4.13-5.94,5.12-1.74.31-3.68,1-4.35,2.44-3.28,6.9-9.35,5.39-14.59,4.51-4.9-.81-9.8-1-14.7-1.52-4.74-.5-9.65-1.13-14-2.72-7.06-2.59-14.1-1.57-21.18-1.83a6.84,6.84,0,0,0-4.23,1.72c-4.85,3.54-4.85,3.53-7-1.91-.39-.67-.44-1.62-1-2.08-3.55-3-2.11-5.21,1-7.25,4.76-3.05,5.32-5.46,2.25-10.32-1.9-3-3.6-5.95-.33-9.13,6.36.44,12-1.71,17.3-4.93,3-.51,3-3.07,3.49-5.24a7.72,7.72,0,0,1,3.57-4.1,12.53,12.53,0,0,0,7.06-10.87c.66-1.05,1.46-2.24,2.57-2.52,4.5-1.12,9.05-1.93,12.7-5.2C413.59,262,414.88,262.65,415.73,263.43Z" transform="translate(119.25 40.26)"/><path id="Path_687" data-name="Path 687" class="cls-2" d="M298.55,66.57c-2.4-.57-4.81-2.56-7.09.47a1.41,1.41,0,0,1-2,.32,1.43,1.43,0,0,1-.57-.93c-.49-1.89-2-1.65-3.33-1.73,2.61-5,5.45-6.18,10-4.23a2.48,2.48,0,0,0,1.8,0,5.32,5.32,0,0,0,.9-.73,60.28,60.28,0,0,1,2.26-7.33,6.52,6.52,0,0,1,.84-3.08,8.93,8.93,0,0,1,1.07-1.67,7,7,0,0,1,.93-.95,5,5,0,0,1,3-1c1.33,0,3.25,1.8,3.88-.69.53-2.09.48-4.32-1.46-6-1.64-1.4-4.56-2.36-2.36-5.37,2.06-2.83,4.71-3.3,7.71-1.42a2.74,2.74,0,0,0,3,.25c.33-.27.67-.52,1-.76,1.14-1,2-2.4,3.43-3.06,1.72-.76,2.7-1.9,2.4-3.95-.43-3,1.43-4.24,4-4.56s3.77,1,3.75,3.49a3.45,3.45,0,0,0,.13.91c.19.63.72,1.43,1.18,1.25,4-1.65,5.57,4.67,9.55,2.88.45-.95.33-2.07.93-3,.66-1.31.76-3,2.58-3.5,2.63.66,5.32.09,7.94.38-.27-3.42.82-5.17,4.45-3.53,2.24,1,5.09-.82,7,1.55,1,1.31,2.29,2.08,4,1.48,1.93-.68,1.52-2.46,1.54-3.9A8.72,8.72,0,0,1,376,10.05a4.4,4.4,0,0,1,3.15.25c2.15.93,3.61.54,4.06-2,.5-2.78,2.23-3.37,4.74-2.88a12.47,12.47,0,0,0,3.23,0c1.27-.1,2.85-1.57,3.75.07s-.59,3.16-1.57,4.51c-1.08,1.5-3,2.21-3.87,3.9-.22.38-.45.74-.7,1.1-.93,1.3-1.83,2.72-.25,4,1.22,1,2.64.31,3.84-.39a12.18,12.18,0,0,0,4.13-4.19,9.77,9.77,0,0,1,.76-1.06,36.36,36.36,0,0,1,3.9-3.85c2.88-2.27,4.41-1.75,4.66,1.88.29,4.06,1.94,3.94,4.59,2A10,10,0,0,0,414.37,6,5.2,5.2,0,0,1,419.83,1a4.59,4.59,0,0,1,1,.16c2.32.44,3.82,1.6,2.59,4.16s-.38,4.85-.16,7.24c.12,1.28,1.09,1.26,1.84.18,1-1.26,1.18-2.87,2-4.21,2-3.38,5.37-4.33,8.59-2.14,1.45,1,2.84,2.09,4.62,1.83,4.74-.68,7.89,2.26,11.18,4.77,2.47,1.89,2.17,3.19-.75,4.67-2,1-4.53,1.24-6,3.27-2.24,1.75-4.75.83-7.94.64,2.12,1.81,4.19,3,4.67,5.39,1.84,2,3.95,4.06,0,6.08l-2.79,1c-1.89.75-3.32.53-3.76-1.78-.39-2-1.83-3.14-3.5-4-3.41-1.75-6.91-3.29-9.52-6.3-1.47-1.69-3.33-1.16-5.05-.19a21.42,21.42,0,0,1-6.3,2.74c-1.58.19-3.21,0-4.74.56-3,1.36-4.82,4.15-7.36,6.07-1.29,1-1.15,2.64-.87,4.24.41,2.44.61,4.91-1.82,6.62-2.52.07-3.76,1.46-4.42,3.84-.78,2.81-1.8,3.87-5.31,2.17a16.28,16.28,0,0,0-11.42-1.39,17.07,17.07,0,0,1-17.32-5.2c-4.16-4.57-5.28-4.81-10.45-1.13-2,1.42-4.21.77-6.23,1.47l-.59.36a5.3,5.3,0,0,0-1.15.78,17.48,17.48,0,0,0-1.77,5.68c-.68,3.1-2.57,4.8-5.67,3.08-3.86-2.13-8.15-1.15-12.15-2.17-2.6-.67-3.42,1.29-3.4,3.64,0,2.64,0,5.34-2.92,6.71-2.39,1.06-5.05.17-7.47,1C302.73,62.23,301,64.77,298.55,66.57Z" transform="translate(119.25 40.26)"/><path id="Path_688" data-name="Path 688" class="cls-2" d="M40.34,145.79l1.69-.1c2.73-4.91,2.75-4.95,8.59-3.08a2.9,2.9,0,0,0,3-.4c.91-.77,2.07-1.28,3-.56,3.17,2.52,6.18-.14,9.25-.11a2.17,2.17,0,0,0,2.24-2c.36-4.88,2.82-2.68,4.83-1.39,1.34.86,2.69,2,4.23,1.61,4.12-1,5.93.24,6.45,4.58.34,2.82,2.44,4.82,5.64,5.41s5.22,2.62,4.86,6.24a10.69,10.69,0,0,1-6,6.76c-.43.19-1,.32-1.21.67-2.67,5.48-8.29,5.18-13,6.7a6.5,6.5,0,0,0-4.32,1.4A8,8,0,0,1,66.78,173c-5.37,1.26-10.43,2.79-15.09,6.25-3.86,2.86-8.85,2.26-13.16-.32-2-1.19-4.13-2.11-6.16-3.23-3.5-1.94-7-3.2-11.07-1.58a2,2,0,0,1-2.7-.8c3.29-2.39,3.52-5.31,1-8.46a5.31,5.31,0,0,0-1.46-1.06c-4.47-1.87-4.66-2.46-2.05-6.34a14.45,14.45,0,0,0,.88-2.07,10,10,0,0,1,1.89-2.85c1-.95,2-1.9,3.5-1.65,2.29,1.72,4.49,3.29,7,.11,1.44-1.85,4.81,1,5.92-2.16,0-.62-.07.09.17-.42.84-1.83-1.79-4.25.46-5.44S38.28,145.68,40.34,145.79Z" transform="translate(119.25 40.26)"/><path id="Path_689" data-name="Path 689" class="cls-2" d="M355,239.34c2.71,4.64,4.81,9.91,11.8,9.25,4.63-.43,6.24-2.08,6-6.86-.13-2.41-1.49-4.84.08-7.23a9.87,9.87,0,0,1,12.39-1.1c5.76,3.94,11.61,5.95,18.42,5.67a4.2,4.2,0,0,1,1.86,1.1,12.24,12.24,0,0,1,3.59,5.61l0,0c-.81,5.23,3.6,8.58,4.74,13.11-.89,4.26-5,8.15-8.89,7.89-3-.2-5.06,1.9-7.72,2.36a8,8,0,0,1-5.7-2.73c-3.73-3.85-9.18-4.16-13.42-6.9-1.24-.8-2.7.11-4.05.39a33.65,33.65,0,0,1-8.27,0,13.63,13.63,0,0,0-5.11-.69,19.13,19.13,0,0,1-3.7-.31,14.43,14.43,0,0,0-9.25.14c-3.36,1.07-6.63,3-10.28,1-1.51-3.31-1.78-6.48,1-9.36a4.89,4.89,0,0,0,1.6-2.77c.43-4.6,3.5-7,7.24-8.83C350,237.31,352.66,234.34,355,239.34Z" transform="translate(119.25 40.26)"/><path id="Path_690" data-name="Path 690" class="cls-2" d="M357.71,289.73c-2.17-.83-1.17-2.5-1-4,.48-5.14-1.21-7.48-6.28-7.4-3.32.06-5.35-2.14-8-3.15-3.92-1.49-4.08-1.86-3.31-5.83.37-1.93,0-4,0-6-.64-1.79.31-2.5,1.89-2.81,2.69-.53,5.09-1.92,7.71-2.66a53.47,53.47,0,0,1,5.37-.11c1.56-.14,3,.53,4.56.52,1.75.61,3.58.3,5.36.47,3.6.74,7.23.39,10.85.29,5,.1,9.35,2.44,13.56,4.73a55.05,55.05,0,0,1,8.28,5.94c1.9,5.45-.88,8.84-5.23,11.32-2.94,1.66-4.78,3.81-4.78,7.28a4,4,0,0,1-2.38,2.55,34.26,34.26,0,0,0-7.71,3.72c-3.53,2.55-8,1-11.47-.36A20.77,20.77,0,0,1,357.71,289.73Z" transform="translate(119.25 40.26)"/><path id="Path_691" data-name="Path 691" class="cls-2" d="M39.31,524.73c-3.76,3.77-8.53,2.82-13,2.53-2-.12-1.85-2.15-1.7-3.73.24-2.46.57-4.91.75-7.37.33-4.63-.86-8.55-5.2-11-2.95-1.7-3.3-3.61-1.39-6.81,5.13-8.6,8.66-17.73,6.48-28.13-.36-1.73-.54-3.74,1.05-5.22,1.95-2.27,3.44-3.34,6.27-.42,2.64,2.72,6.69,1.63,10.11.74,3.62-.93,7.19.43,8.7,3.73.74,1.61-.15,2.55-1.3,3.53-5.95,5.07-5.94,5.09-3.37,11.67-.55,2.63-1.87,5.08-1.86,7.87,0,1.75-1.3,2.61-2.68,3.33a2.22,2.22,0,0,0-1.36,2.76c.75,2.16,3.46,3.12,3.52,5.71-.36,1.2-1.58,1.8-2,2.92-.15.37-.32.73-.49,1.09-.84,2.37,1,3.76,2,5.42a2.17,2.17,0,0,1-.51,3,2.29,2.29,0,0,1-.29.18C39.75,518.38,39.27,521.42,39.31,524.73Z" transform="translate(119.25 40.26)"/><path id="Path_692" data-name="Path 692" class="cls-2" d="M29,290.38l1.87-.92c1.94-.36,1.84,1.73,2.9,2.38,1.86,1.15,3.4,4,6.15,1.46.9-1.52,1.76-3.07,3.81-3.21a11.21,11.21,0,0,1,5.87,5.9,47.32,47.32,0,0,1,2.81,20.11c-.32,4.93-1.86,6.45-6.74,6a12.61,12.61,0,0,0-10.19,3.3c-4,3.56-9,5.34-14.35,6.17a12.17,12.17,0,0,1-8.9-1.84c-4.74-3.16-4.8-5.41-.08-8.32,4.06-2.51,4.67-7.38,7.32-10.9,1.59-2.1-2-3.59-3.72-5S11,302.78,14,299.79c1.3-1.54.24-2.89-.4-4.22-1.07-2.23-.42-3.61,2-2.7C20.71,294.84,24.73,292.16,29,290.38Z" transform="translate(119.25 40.26)"/><path id="Path_693" data-name="Path 693" class="cls-2" d="M39.3,281.17l4.14-1.71c7.22-3,7.22-3,12.2,2.41,4.78,5.18,4.53,6.95-1.51,10.37-3.72,2.8-6.69,1.5-9.31-1.7-3.12-1.26-3.42,1.52-4.53,3.16-2.77,2-4.76,0-6.33-1.66s-.24-3.6,1.06-4.9C36.8,285.37,37.48,282.87,39.3,281.17Z" transform="translate(119.25 40.26)"/><path id="Path_694" data-name="Path 694" class="cls-2" d="M206,368.32c-3.33-1.43-6.92-1.48-10.27-2.64-2.93-.73-5.34-3.14-8.61-2.75a11.15,11.15,0,0,1-9.9-3.57c-3-1.32-5.45-4.12-9.24-3a1.17,1.17,0,0,1-1.16-.62c-1.7-4.15-6.37-5.07-9-8.25s-7.24-3.82-9.53-7.43c-5.78-.32-7.84,1-8.41,5.49-1.2,9.55-1.5,9.92-11.22,11.08-3,.35-4.87,1.44-5.74,4.46-1,3.49-3.65,4.33-7,3.65s-6.64-1.88-8.92-4.64c-1.5-1.82-3-2-4.85-.8-2.14,1.38-1.1,3-.08,4.37a12.67,12.67,0,0,1,2.25,6.05c.57,4.54-1.58,6.57-6,5.45-4.11-1-9,1-12.37-3.25-.48-.61-2.44-.38-3.57-.05a27.36,27.36,0,0,1-7.37.9c-2.32,0-6.11.49-5.38,2.82,1,3.07-1.26,8.34,4.07,9.18,6.33,1,11.92,4.37,18.32,5.17,3.29.41,6,2.24,6.4,6.31s3,6.7,6.83,8.11c1.75.65,3.8,1.12,4,3.34.37,3.22,1.3,6.71.48,9.66-2,7.11-1.2,14.52-3,21.6.14,1-1.38,3.07-1.61,3.65a9.63,9.63,0,0,0-.66,3c-.08,1.4-.32,3.34.07,3.57,4.62,2.68,14,3.26,17.74,3.2a9.91,9.91,0,0,1,3.36.59h0a9.88,9.88,0,0,0,1.32.15c2.64-.05,4.41,1.89,6.58,2.91a23.83,23.83,0,0,0,7.94,1.84c4.43.28,8.95,2.62,13.27-.51-.95-9,2.94-13.19,12.1-13.09a38,38,0,0,1,11.38,2c2.35,1.14,4.91,1.74,7.29,2.84,1.9.87,4.28,1,5.12-1.42,1.38-4.07,4.69-5,8.2-5.79,1.26-.6,2.92-.54,3.51-2.2l.89-1.06c1.18-4-2.7-3-4.27-4.26-1.73-.84-1.84-2.36-1.67-4a3.76,3.76,0,0,0-.73-3.05c-2.13-2.29-2.63-4.26.33-6.38,1.74-1.25,1.45-3.22.81-5s-.23-3.7-.71-5.49c-.66-2.48-1.68-4.66-4.71-5-3.6-.39-4.2-1.47-2-4.21,2.53-3.1,4.71-7.06,7.79-9,4.58-2.93,5.94-6.68,6.57-11.36a16.16,16.16,0,0,1,2.76-7.28C209.33,371.09,209,369.61,206,368.32Z" transform="translate(119.25 40.26)"/><path id="Path_695" data-name="Path 695" class="cls-2" d="M324,460.13c-2.87.78-4.34-1.52-6.58-2.14-.83-.65-1.84-1.23-1.49-2.38-.47-.18,1.6-.75-.16-.74-.36,0-.74.25-1.19.28a2.51,2.51,0,0,1-1.54-.73,4.34,4.34,0,0,1-.42-3.94c1.42-2.78,2.55-5.75,6.24-7.12,6.25,1.15,8.61,5.2,10.27,9.77-.16,1.67-2,2.56-2.65,4C325.71,458.15,325.28,459.38,324,460.13Z" transform="translate(119.25 40.26)"/><path id="Path_696" data-name="Path 696" class="cls-2" d="M337,475.15a4.87,4.87,0,0,1-1.18-2.88,13.77,13.77,0,0,1-.78-5.8c.16-2.37,1.43-4.7.27-7.12-5.31-5.58-8.58-6.1-12.28-2a4.38,4.38,0,0,0-.5,2.81c-.1,2.39,2.07,2.72,3.43,3.78.68,2.12-.18,3.79-1.28,5.6-2.72,4.51-3.37,9.33-.58,14,1.72,2.91,3.91,5.53,5.9,8.28,1.78,0,2.54-.67,2.07-2.11,2.57-1.7,3.84-4.42,5.3-7C339.2,480.16,339.56,477.6,337,475.15Z" transform="translate(119.25 40.26)"/><path id="Path_697" data-name="Path 697" class="cls-2" d="M15,138.5c1.57,2.78,6.28,2.35,6.59,6.42v0c-.65,2-1.22,4,.9,5.62,0,.3,0,.61,0,.91-1.41-.1-1.83,1.28-2.78,1.86-.43-4.93-6.34-8-11.33-5.81C5.17,148.9,4.3,149,1,148.45c3.05-5.74,3.06-5.74,9.34-4.6,2.36.42,4,0,3.76-2.95C14,140,13,138.66,15,138.5Z" transform="translate(119.25 40.26)"/><path id="Path_698" data-name="Path 698" class="cls-2" d="M301.13,449.18c-2.84-.87-5.64-1.72-7.06-4.8a3.45,3.45,0,0,0-2.13-1.64c-8.4-1.89-12.12-8.82-14.78-15.55-2.1-5.29-5-6.52-9.74-6.23-2.62-2.26-1.22-3.8,1.13-4.59s4.7-1.54,7.15-.88c2.22.6,3.47-.36,4.41-2.15s3.33-2.82,4.27-4.87a17.48,17.48,0,0,1,8-6.62,3.51,3.51,0,0,1,1.33,0c3,1.41,5.39,3.77,8.13,5.58,3.52,3.53,7.83,3.17,12.21,2.48a3.39,3.39,0,0,1,2,.44c1.66,3.46,4.53,6.15,6.22,9.6a4.44,4.44,0,0,1,.06,2.7c-.73,1.79-2.11,1.47-3.45,1a14.39,14.39,0,0,0-4.42-1.13,5,5,0,0,1-1.31-.46c-3.87-1.5-8-.15-11.9-1-4-1.5-7.79,0-11.63.64a7.52,7.52,0,0,1-1.32.26c-3.17.12-3.41,1.68-1.65,3.78a20.75,20.75,0,0,1,4,6.1c2.42,4.33,6.86,6.93,9.48,11.09.94,1.24,2.24,2.18,3.06,3.49C304.85,449.06,303.87,449.82,301.13,449.18Z" transform="translate(119.25 40.26)"/><path id="Path_699" data-name="Path 699" class="cls-2" d="M405.42,237.24c-5.51,1.69-10.88,2.06-15.56-2.09-2.91-2.59-6.1-4.16-10.05-3.46-2.53.45-4-.7-5.05-2.81-.93-1.11-2.21-1-3.44-.94-3.85.23-5.64-2.27-6.61-5.35-1.87-6,.64-10.06,8.14-11.73,9-2,18.17-3.68,27.47-1.27,3,.77,6,1.43,9.11.87,2.46-.44,2.8.64,1.4,2.53a30.71,30.71,0,0,1-2.12,3c-4.27,4.51-3.7,9.77-1.6,14.71C408.45,233.87,408,235.6,405.42,237.24Z" transform="translate(119.25 40.26)"/><path id="Path_700" data-name="Path 700" class="cls-2" d="M355.7,224.09c1,.3,2.65-.61,2.78,1.38.09,1.26-6.67,6.17-8.28,6.15s-1.78-1.08-1.55-2.19C349.42,225.66,352,224.19,355.7,224.09Z" transform="translate(119.25 40.26)"/><path id="Path_701" data-name="Path 701" class="cls-2" d="M354.72,217.83c.8.09,1.73.37,1.5,1.24-.14.51-1.15,1-1.83,1.11a1.12,1.12,0,0,1-1.43-.69,1.23,1.23,0,0,1,0-.54C353,218.09,353.93,217.92,354.72,217.83Z" transform="translate(119.25 40.26)"/><path id="Path_702" data-name="Path 702" class="cls-2" d="M337.4,480.81l1.11-1.76c5.17-1.79,10.31-3.61,15.33-5.82,2.38-1,4.49-2.82,7.23-3,5.95,0,11.95-.75,17.67,1.7,1.2.52,3.13.1,3.28,1.83.12,1.38-1.67,1.47-2.63,2.1a8.79,8.79,0,0,0-1.83,1.38c-.9,1.42-1.83,1.47-3.45.77-5.55-2.39-7.75-.81-8,5.06-.22,4.38-3.68,3-6.22,3.1a27.68,27.68,0,0,0-3.1-2.72c-1.64-1.08-3.18-.64-4.62.64-1.68,1.5-1.3,3.07-.19,4.52,2.15,2.81,4.49,5.48,6.68,8.26,1.38,1.76,2.05,3.6-.4,5.07-1.61,1-2.9,2-1.56,4s3.12,2.48,5.22,1.28c2.26-1.3,4.37-1.43,6.34.5.67,1.62,2.38,3.06.91,5.06-1.75,2.37-4.08,2.45-6.62,1.63v0c-4.77-1.44-6.32-.41-5.55,4.09.35,2.06-1.06,2.25-2,3.05-1.34,2.12.39,3.83.77,5.72.15.72.76,1.47.07,2.14a1.72,1.72,0,0,1-2.17.15,22.59,22.59,0,0,0-7.1-3.18,4.63,4.63,0,0,1-3.22-4.24,11.82,11.82,0,0,0-2.32-6.85c-1.35-1.89-.44-3.26,2-3.26a32.39,32.39,0,0,1,5.57.15c1.48.26,2.92.13,3.5-1.47s-.65-2.67-1.75-3.47c-2.76-2-5.76-2.89-9.16-1.56-4.52,1.77-4.65,1.67-5.91-3-1.61-4.1-1.11-5.06,3.06-5.07s8.27.45,12.39-.62c-2.78-1.57-5.83-.7-8.74-.93-1.09.06-2.17,0-3.26,0-2.24-.48-3.75,1.86-5.95,1.53l-3.54-3C330.7,489.32,335.55,486,337.4,480.81Z" transform="translate(119.25 40.26)"/><path id="Path_703" data-name="Path 703" class="cls-2" d="M199,308.65a2.46,2.46,0,0,0,1.29.05,2.2,2.2,0,0,0,.84-1,3.46,3.46,0,0,0-1.15-4c-.63-.53-7.9,2.44-8.45,1.7-3.94-.41-7.8-.29-11.41,1.61h0c-2.41.58-3.14,2.31-2.94,4.53.12,1.39.63,2.85-1.08,3.59a3.59,3.59,0,0,1-4.25-.81c-1.09-1.13-2.84-2.09-3.3-.38-1.09,3.9-5.2,6.15-5.74,9.72-.79,5.29-8.9,11.11-12.86,13.7-.92,3.25,7.57,2.9,9.14,2.57,3.44-.71,6.32-.48,8.56-3.71a2.2,2.2,0,0,0,.15-.72c4.91.2,7.12,3.75,10.81,6.3.5,2.07,5.83,6.33,8.31,5.66.32-.35-3.11-7.36-3-7.82.44-1.73.13-3.59.83-5.28.28-1.06.34-2.15.58-3.21.62-1.4,2.06-1.64,3.22-2.3,3.44-2,6.49-4.24,5.65-8.5-.5-1,6.77-9.25,6-10" transform="translate(119.25 40.26)"/><path id="Path_704" data-name="Path 704" class="cls-2" d="M418.51,429.81a5.87,5.87,0,0,0-1.39,4.54c.24,6.12-2.28,4-5,2.15-6.62-4.51-18.83-3.95-24.43,1-1.23,2.42-3.4,2.6-5.61,2.58-6.63-.09-13.25.27-19.88-.86-4.09-.7-7.36-2.79-8.79-6.31-1.83-4.52-4.88-5.93-8.87-6.54-2.91-.21-5.2-1.2-5-4.89.11-2-1.07-2.9-2.4-3.8-1.69-1.55-2.15-3.73-2.71-5.86-1.08-3.58,1-5.86,3-8.2a7.62,7.62,0,0,1,1.49-1.4c3.41-2.52,5.05-6.5,6.84-10.14,1.6-3.25,3.16-6.06,6.34-7.85a10,10,0,0,0,3.88-4.7,4.62,4.62,0,0,1,.93-1.18c4-2.21,7.93-.59,11.88.17a29.61,29.61,0,0,0,20,.34,9.57,9.57,0,0,1,1.28-.53c3.23-.91,5.28-5,9.27-3.87,5.16,6.87,9.44,14.36,13.77,21.81,1.33,2.3,1.2,5,.4,7.59a50.3,50.3,0,0,0,0,6.38,19.15,19.15,0,0,0,2.51,6.16c1.82,2,3.84,1.19,5.83.43,2.26-.86,4.41-1.23,6,1.33l0,0a4.43,4.43,0,0,1,0,4.7C424.49,424.9,419.47,424.35,418.51,429.81Z" transform="translate(119.25 40.26)"/><path id="Path_705" data-name="Path 705" class="cls-2" d="M413,435.34l.84,3.22-2.72,3.2c-7.27,6.88-7.75,8.64-4.35,18-6.28-.3-12.55-.55-16.16,6.57l-1.05,2.83c-2.54,4.46-6.5,3-9.67,2.19a49.31,49.31,0,0,0-14.71-1.6,8.38,8.38,0,0,1-8.26-4.71c-1.42-2.55-3.62-4.33-5.11-6.8a7.52,7.52,0,0,1-.52-4.19c.47-1.84.45-4.24,1.81-5.29,3.35-2.6,1.8-5.33.66-8.18a16,16,0,0,0-.84-1.89c-.81-1.68-2-3.54-.62-5.31s3.19-.71,4.59.45c1.79,1.47,3.88,1,5.83,1.44,6.09,1.42,12.35.54,18.46,1.8a7.51,7.51,0,0,0,6.18-1.75l1.25-.9.94-.09c8-5,15.79-3.89,23.45,1.05Z" transform="translate(119.25 40.26)"/><path id="Path_706" data-name="Path 706" class="cls-2" d="M258.8,347.07c.22-.22.45-.43.66-.66,5.48-4.35,11.86-6.48,18.69-7.44.71-3.86-3-6.51-2.79-10.25a2.39,2.39,0,0,1-.06-.84c-1-1.45.13-3.27-.82-4.73-1.9-6.51-6.35-12.63-3-19.94.17-.38,0-.92-.05-1.39-.61-5.34-3.15-8.67-9-8.6-2.13-2.68-6.59-3.33-9.78-1.22-2.45,1.62-4.69,3.54-7.08,5.25-4.07,2.9-8.11,2.27-10.09-2.06-1.07-2.34-2.4-3-4.61-2.83-3.38.31-5.73-1.05-6.86-4.26-1.25-3.6-4.63-2.56-6.77-2.4-2.7.2-1.46,3.21-1.51,5-.05,1.58,1.06,2.85,1.89,4.17,1.43,2.29,1.18,4.76-.79,6.34-3.32,2.66-7,4.66-11.5,2.31-1.8-.94-3.72-1.75-5.58,0-.61,2.51-1.75,9.06-6.52,11.16-2.39.8-2.63,2.23-1.21,4.15,1.18,1.45,1.14,2.83.59,4.69-1.18,3.94-4.54,5-7.52,6.65-.1,2.43-.84,4.76-1.18,7.15-.8,4.7,1.22,8.94,2.23,13.35.66.73,1.15.73,1.55.43a39.56,39.56,0,0,0-1.62,4.25,5.43,5.43,0,0,0-.1,1.33,3.18,3.18,0,0,0,1.7,2.73c2.51,3.72,5.63,7.08,10.45,7.42a19.67,19.67,0,0,1,6.52,1.36c1.57.68,3.48,2.12,1.61,3.8-3.1,2.77-3.58,6.72-5.48,10,0,1.48,0,3,0,4.43,1.31,1.12,2.73,2.54,4.52,1.82,6-2.44,11.55-.49,17.14,1.45a16.6,16.6,0,0,0,10.29,0c2.39-.36,4.64.86,7,.61a14,14,0,0,0,3.4-1.13c3.34-1.74,6.77-2.89,10.62-1.95,1.64.4,3.7-.06,3.65-1.8-.15-5,4-7,6.42-10.13,1.8-2.06,2.08-4.16.19-6.32s-4.84-3.38-6.8-5.63c-3.07-3.53-4.23-8.1-4.93-12.31C251.84,348.35,256.86,349,258.8,347.07Z" transform="translate(119.25 40.26)"/><path id="Path_707" data-name="Path 707" class="cls-2" d="M309,348.21c1,3,2.33,5.5,6.15,4.88a19.75,19.75,0,0,1,2.8,1.08c3.1,1.71,3.22,4.11.64,6.54-2.21,2.08-4.18,4.42-6.26,6.64-2.45,4.06-7.37,2.95-10.72,5.15a16.3,16.3,0,0,1-7.45-.11c-2-.89-3.51-2.57-5.53-3.5-4.46-2-6.34-1.64-9.34,2.23-2.3,3-6.48,3.62-10,1.46-1.57-1-2.76-2.48-4.48-3.27a11.57,11.57,0,0,0-3.63-2.73c-7.65-3.11-7.77-11-10.75-17-.84-1.7.64-2.88,2.27-3.25,2.11-.49,4.08-1.74,6.37-1.37,4.35-.47,7.23-3.95,11.21-5.39,5.29-1.92,10.18-2.31,15.23.19,3.77,2.33,8.17,3.69,10.41,8.24.94,1.9,3.58,2.59,5.79,1S306.5,347.76,309,348.21Z" transform="translate(119.25 40.26)"/><g id="Group_537" data-name="Group 537"><path id="Path_708" data-name="Path 708" class="cls-2" d="M307,486.53l0,0h0Z" transform="translate(119.25 40.26)"/><path id="Path_709" data-name="Path 709" class="cls-2" d="M309.86,483.56a8.7,8.7,0,0,0-1.87-2,12.71,12.71,0,0,0-1.53-1.4c-.76-.47-1.52-.95-2.32-1.34-1.52-.76-3.07-1.45-4.55-2.26-3.6-2-7.94-3-10.38-6.6a8.73,8.73,0,0,0-6.42-4,14,14,0,0,1-9.86-6.13,7.33,7.33,0,0,0-.75-1.07c-2.17-2.45-3.93-5.09-4.12-8.48-.8-2.88-1.33-5.9-4.16-7.67-6.17-2.56-11.58-6-14.24-12.53-1.21-1.32-.19-2.44.32-3.61a5.4,5.4,0,0,0,.31-1.18c0-.07,0-.15,0-.22.49-1.24,1-2.58,1.24-3.45a2.92,2.92,0,0,0-.28-2.2c.07-2.25,2.17-2.92,3.72-4,2.32-4.22,1.29-8.68.93-13.1-1.36-2.5-4.94-2.35-6.06-5.12-3.2-2.54-6.57-2-9.82-.27-2,1.06-4,2.13-6.4,1.91a2.45,2.45,0,0,0-1.93.85c0,.25,0,.5,0,.76,1.22,1.18,1.24,1.7-.38,1.24-4.22.2-7.07,4.43-11.61,3.92-1-.11-1.64,1.24-2.22,2.19-2.33,3.85-2.35,3.84-5.19.36s-4.1-3.52-6.33-.1a6.6,6.6,0,0,1-6.58,3.29,9.59,9.59,0,0,0-4.1.63c-1.47,1-2.23,2.33-1.31,3.91,1.63,2.84.38,4.59-1.9,6.12-1.2.81-1.83,2.31-.81,3.1,2.91,2.25,2.19,5.33,2.44,8.22a5,5,0,0,0,1.51,1.41c2.63.35,5.17.75,6.19,3.81.26.78,1.28.68,2.05.67,2-.25,3.17-1.64,4.26-3.18,2.57-3.6,6.18-4.34,10.2-3.26,6.7,1.77,11.3,5.84,13.2,12.67a17.68,17.68,0,0,0,2.25,4.52c1.64,2.08,3.17,4.27,5.51,5.66.54.31,1,.66,1.57,1,8.69,4.94,13.9,14.92,24.6,16.9,2.9,3.28,6.73,5.28,10.22,7.79,4.75,3.4,10.7,6,12.28,12.64a10.41,10.41,0,0,0,1.68,2.74,14.75,14.75,0,0,1,0,9.22,16.54,16.54,0,0,0-1.55,3.77c-.29,1.09-.71,2.13.55,2.77s1.83-.49,2.45-1.34.66-2.35,1.6-3.21a26,26,0,0,1,1.73-3.7c1.5-2.23,5.71-2.91,5.12-5.9-.47-2.36-3.22-4.26-4.95-6.37-1.37-4.25,1.11-6.09,4.57-7.32l-.06,0c3.26-1.61,5.82-.12,8.27,1.85,1.06.24,2.07,1.75,3.18.42C311,485.87,310.55,484.63,309.86,483.56Z" transform="translate(119.25 40.26)"/></g><g id="Group_538" data-name="Group 538"><path id="Path_710" data-name="Path 710" class="cls-2" d="M537.37,368.37c2.7-9.48,2-10.87-7-13.2a19.34,19.34,0,0,0-2.73-.52c-5.7-.66-11.26-1.54-14.82-7.4-1.09-1.78-2.4-1.37-4.33-.44-2.81,1.34-6.26,2.25-8.81-1.23a8.35,8.35,0,0,0-4.92-1c-1.68,0-3.33-.54-3.33-2.59,0-2.81-1.82-4.95-2-7.63-.85-1.69-2.35-1.93-3.9-2.29-7.27-1.66-8.46-3.3-8.49-11.26,0-5.75-2.19-8.1-7.39-7.55-4.47.48-9.29-.69-13.18,3.06-1,1-2.35.58-3.53,0-8.87.47-11.72,2.93-13.93,12-4.75-.06-9.53.12-14.13-1.57a9.38,9.38,0,0,0-1.23-.61c-4.86-1.77-10-.4-14.93-1.67-.44-.15-.89-.3-1.34-.41-3.38-1.36-7.11-.62-10.47-2-6.77-4.56-14.27-3.09-21.59-3-1.78,0-3.1,1.36-4.25,2.77s-2.88,1.94-3.85,3.53h0c-1.49,1-1.95,2.31-.83,4,5.25,7.84,5.05,9.67-1.36,16-4.85,4.8-11.2,8.71-9.39,17.71,0,.2-.36.5-.56.75-3.62,1.14-5.26,4.39-5.16,7.84.1,4,3.31,6,6.58,7.27a37.51,37.51,0,0,1,12.55,1.6c1.41.65,2.9.39,4.36.49,3.36,1.22,6.73,3.06,10.13.1,1.86-.34,3.78.2,5.61-.5a14.19,14.19,0,0,0,6.07-4.84c6.1-3.55,12.18-7,18.63-.75a9.85,9.85,0,0,0,4.22,2c2.93.87,4.75,2.86,5.94,5.82a40.13,40.13,0,0,0,8.59,13.58c1.93,3.34-1.94,5.5-4.38,12.86a23.26,23.26,0,0,1-4.44,6.78c.27,1.22.84,2.74,2.18,2.18,3.65-1.5,7.89-.88,11.21-3.35,2.46-3.43,6.53-5.29,8.61-9.15s4.57-7.48,8.21-10a6.63,6.63,0,0,1,.91.36l3.71,1c1.05,1.69,1.41,3.38,0,5.07h0c.7,1.59,2,1.87,3.44,2,8,.91,16-2.63,24-.16a1.58,1.58,0,0,0,1.29-.43c5.37-5.24,12.56-5.21,18.8-7.86,4.93-2.09,11.31-2.23,13.62-9.22.24-.74,1.5-1.08,2.29-1.61,3.42-3.23,6.28-7.21,12-5.57,3.34,1,4.76-1.76,3.47-5.69A8.92,8.92,0,0,1,537.37,368.37Z" transform="translate(119.25 40.26)"/><path id="Path_711" data-name="Path 711" class="cls-2" d="M423.83,416.09h0v0Z" transform="translate(119.25 40.26)"/></g><path id="Path_712" data-name="Path 712" class="cls-2" d="M358.05,381c-.24.55-.34,1.43-.74,1.6-7.12,3.12-10.25,9.57-13.4,16a19.24,19.24,0,0,1-8.23,8.56c-.92.6-2,1.37-3,1-5.88-2.28-11.15,1.11-16.71,1.65l-4.5,1.12c-3.61-.33-7.62.8-10.32-2.84-1.77-2.82-4.63-4.16-7.44-5.57-1.94-2.3-3.63-4.63-1-7.54-1.09-3-.21-5.61,1.55-8.05a8,8,0,0,0,4-1.84c1.45-1.19,6-4.72,7.71-4.05,3.75,1.43,5.1,5.33,9.21,3.64,1.74-4.29,5.79-5,9.5-5.36A14.35,14.35,0,0,0,334,375c2.59-2.59,11.66,2.5,11.66,2.5s2.07-3.65,5.73-1.38C352.65,376.79,356.82,380.33,358.05,381Z" transform="translate(119.25 40.26)"/><circle id="Ellipse_94" data-name="Ellipse 94" class="cls-3" cx="417.84" cy="404.12" r="3.84"/><circle id="Ellipse_95" data-name="Ellipse 95" class="cls-4" cx="435.16" cy="413.99" r="3.84"/></g><g class="cls-5"><g id="Mask_Group_8" data-name="Mask Group 8"><circle id="Ellipse_96" data-name="Ellipse 96" class="cls-6" cx="396" cy="396" r="396"/></g></g><g id="logo"><path id="Path_740" data-name="Path 740" class="cls-7" d="M245.67,347.25v26.12a12.38,12.38,0,0,0,6.19,10.72L278,399.17V393l-23.42-13.52a7,7,0,0,1-3.5-6.06V347.25a7,7,0,0,1,3.5-6.06l18-10.41v20.86l-.9-.54a10.13,10.13,0,0,0-15.35,8.69v.43a11.46,11.46,0,0,0,5.66,9.87l16,9.33v-58l-26.11,15.08A12.39,12.39,0,0,0,245.67,347.25ZM272.59,370l-7.88-4.6a6.09,6.09,0,0,1-3-5.22v-.43a4.74,4.74,0,0,1,4.72-4.76,4.69,4.69,0,0,1,2.48.69l3.67,2.2Z" transform="translate(119.25 40.26)"/><path id="Path_741" data-name="Path 741" class="cls-7" d="M309.47,336.53l-26.11-15.08v6.22l23.42,13.52a7,7,0,0,1,3.5,6.06v26.12a7,7,0,0,1-3.5,6.06l-18,10.42V357.92l3.68-2.2a4.74,4.74,0,0,1,6.52,1.63,4.65,4.65,0,0,1,.68,2.44v17.58l3.56-2.05a3.68,3.68,0,0,0,1.83-3.17V359.73a10.14,10.14,0,0,0-15.36-8.63l-.9.54V337l-5.39-3.11v65.28l26.12-15.08a12.4,12.4,0,0,0,6.19-10.72V347.25A12.42,12.42,0,0,0,309.47,336.53Z" transform="translate(119.25 40.26)"/></g></g></svg>