<svg id="Vrstva_1" data-name="Vrstva 1" xmlns="http://www.w3.org/2000/svg" viewBox="0 0 120 120"><defs><style>.cls-1{fill:#001e36;}.cls-2{fill:#31a8ff;}</style></defs><g id="ps"><rect id="Rectangle_1321" data-name="Rectangle 1321" class="cls-1" width="120" height="120" rx="10"/><g id="Outlined_Mnemonics_Logos" data-name="Outlined Mnemonics Logos"><g id="Ps-2"><path id="Path_723" data-name="Path 723" class="cls-2" d="M24,85.24V33.81q0-.57.48-.57c.86,0,1.64,0,2.83,0l3.82-.08L35.48,33c1.53,0,3,0,4.54,0a30.26,30.26,0,0,1,10.3,1.53,17.79,17.79,0,0,1,6.73,4.11,15.87,15.87,0,0,1,3.66,5.67,19.09,19.09,0,0,1,1.13,6.48,17.9,17.9,0,0,1-3,10.63,16.88,16.88,0,0,1-8,6.08,32,32,0,0,1-11.27,1.68c-1.18,0-2,0-2.5,0s-1.21,0-2.17,0V85.16a.65.65,0,0,1-.55.73.54.54,0,0,1-.18,0H24.56C24.19,85.89,24,85.67,24,85.24ZM34.87,42.9V59.68c.7,0,1.34.08,1.93.08h2.66a19.05,19.05,0,0,0,5.75-.92,8.67,8.67,0,0,0,4.11-2.66A7.75,7.75,0,0,0,50.89,51a8.13,8.13,0,0,0-1.17-4.43,7.47,7.47,0,0,0-3.5-2.85,14.92,14.92,0,0,0-5.87-1c-1.29,0-2.43,0-3.43,0s-1.67.07-2.05.12Z" transform="translate(0 0)"/><path id="Path_724" data-name="Path 724" class="cls-2" d="M93,56.63a18.52,18.52,0,0,0-4.78-1.69,25.8,25.8,0,0,0-5.6-.65,10.6,10.6,0,0,0-3,.37,2.73,2.73,0,0,0-1.57,1,2.57,2.57,0,0,0-.4,1.37,2.25,2.25,0,0,0,.48,1.29,5.6,5.6,0,0,0,1.69,1.33,32.68,32.68,0,0,0,3.55,1.65A34.71,34.71,0,0,1,91,65a11.64,11.64,0,0,1,4,4.15,11.05,11.05,0,0,1,1.17,5.15,11.61,11.61,0,0,1-1.94,6.64,12.77,12.77,0,0,1-5.59,4.47A22.65,22.65,0,0,1,79.52,87a33.06,33.06,0,0,1-6.8-.65,21.38,21.38,0,0,1-5.11-1.61,1,1,0,0,1-.56-1v-8.7a.46.46,0,0,1,.2-.44.39.39,0,0,1,.44,0,21.71,21.71,0,0,0,6.2,2.46,25.82,25.82,0,0,0,5.88.76,9,9,0,0,0,4.14-.72,2.29,2.29,0,0,0,1.33-2.1,2.65,2.65,0,0,0-1.21-2,19.75,19.75,0,0,0-4.91-2.33A29.34,29.34,0,0,1,72,67.09a12.15,12.15,0,0,1-3.78-4.22,11,11,0,0,1-1.17-5.11,11.5,11.5,0,0,1,1.69-6A12.24,12.24,0,0,1,74,47.13a19.75,19.75,0,0,1,8.86-1.77,39.1,39.1,0,0,1,6.2.44A16.21,16.21,0,0,1,93.34,47a.73.73,0,0,1,.48.44,2.08,2.08,0,0,1,.09.6v8.13a.57.57,0,0,1-.25.49.83.83,0,0,1-.69,0Z" transform="translate(0 0)"/></g></g></g></svg>