<svg id="Vrstva_1" data-name="Vrstva 1" xmlns="http://www.w3.org/2000/svg" viewBox="0 0 64.45 48.29"><defs><style>.cls-1{fill:#cd6799;}</style></defs><path id="Sass_Logo_Color" data-name="Sass Logo Color" class="cls-1" d="M55.5,27.78a13.42,13.42,0,0,0-5.84,1.36,12.35,12.35,0,0,1-1.31-3,8.32,8.32,0,0,1-.12-2.54A21.39,21.39,0,0,1,49,20.83c0-.12-.14-.67-1.44-.69s-2.41.25-2.54.59a13.06,13.06,0,0,0-.54,1.92c-.23,1.18-2.59,5.38-3.95,7.58A8.33,8.33,0,0,1,39.64,28a7.75,7.75,0,0,1-.12-2.54,23.82,23.82,0,0,1,.76-2.75c0-.11-.14-.67-1.43-.68s-2.42.25-2.55.59-.27,1.14-.54,1.92-3.41,7.79-4.23,9.61c-.43.93-.79,1.67-1.05,2.17h0l-.05.1-.35.67h0c-.18.32-.37.61-.46.61a3.88,3.88,0,0,1,0-2c.47-2.43,1.59-6.22,1.58-6.35s.21-.73-.73-1.08a1.17,1.17,0,0,0-1.33.23c-.08,0-.14.2-.14.2s1-4.26-2-4.26c-1.86,0-4.42,2-5.7,3.87L17,30.71,15,31.85l-.14-.15c-3.6-3.86-10.26-6.57-10-11.74.1-1.89.75-6.83,12.8-12.83,9.91-4.89,17.8-3.54,19.16-.53,2,4.28-4.22,12.24-14.47,13.4-3.91.43-5.95-1.07-6.47-1.64s-.63-.62-.83-.51-.11.71,0,1a6,6,0,0,0,3.7,2.9c1.89.62,6.47,1,12-1.19,6.2-2.4,11.05-9.07,9.63-14.66S29.52-1.63,20.6,1.53c-5.29,1.89-11,4.85-15.17,8.71C.52,14.84-.26,18.83.06,20.5c1.14,5.93,9.33,9.79,12.6,12.65l-.44.25c-1.64.81-7.88,4.07-9.43,7.52C1,44.83,3.07,47.63,4.42,48a10.06,10.06,0,0,0,10.84-4.39,10.9,10.9,0,0,0,1-10l-.05-.07,1.28-.75c.84-.5,1.66-1,2.37-1.33A15.62,15.62,0,0,0,19,35.73c-.18,2.21.73,5.09,1.92,6.22a2.1,2.1,0,0,0,1.56.5c1.38,0,2-1.15,2.7-2.52.85-1.67,1.62-3.61,1.62-3.61s-1,5.25,1.63,5.25c.94,0,1.9-1.22,2.32-1.85h0a.46.46,0,0,0,.07-.11l.16-.25v0c.37-.66,1.22-2.16,2.48-4.64,1.62-3.2,3.19-7.2,3.19-7.2a21.35,21.35,0,0,0,.62,2.6,25.3,25.3,0,0,0,1.34,3c-.37.53-.61.83-.61.83h0c-.31.4-.64.83-1,1.26A37,37,0,0,0,34,39a1,1,0,0,0,.28,1.39,2.62,2.62,0,0,0,1.58.26,7.24,7.24,0,0,0,2.37-.55,7.6,7.6,0,0,0,2-1.07,4.53,4.53,0,0,0,1.95-4,8,8,0,0,0-.74-2.84c.12-.17.22-.33.34-.49a54.55,54.55,0,0,0,3.53-6.1A21.85,21.85,0,0,0,46,28.2a18,18,0,0,0,1.14,2.59,11.2,11.2,0,0,0-3.44,4.44c-.74,2.14-.16,3.1.93,3.33a3.2,3.2,0,0,0,1.72-.36,7.74,7.74,0,0,0,2.18-1.11,4.91,4.91,0,0,0,2.4-4,7.65,7.65,0,0,0-.54-2.36A12.33,12.33,0,0,1,56.59,30c5.6.65,6.71,4.15,6.5,5.62a3.71,3.71,0,0,1-1.78,2.52c-.39.25-.52.33-.48.51s.23.24.56.2a4.38,4.38,0,0,0,3-3.9C64.62,31.53,61.33,27.75,55.5,27.78ZM12.27,42.36c-1.86,2-4.45,2.79-5.57,2.14S6,40.81,8.26,38.67a29,29,0,0,1,4.37-3.26l1.15-.69.13-.07h0l.28-.18A8,8,0,0,1,12.27,42.36Zm13.54-9.21c-.65,1.58-2,5.62-2.83,5.39s-1.14-3.25-.14-6.27a14.17,14.17,0,0,1,2.2-4c1-1.13,2.13-1.51,2.4-1.05S26.21,32.16,25.81,33.15ZM37,38.5c-.27.14-.53.23-.65.16s.12-.23.12-.23,1.4-1.51,1.95-2.19c.32-.4.7-.87,1.1-1.4V35c0,1.8-1.74,3-2.52,3.51Zm8.62-2c-.21-.14-.17-.62.5-2.09A8,8,0,0,1,48,32a3.32,3.32,0,0,1,.19,1.08A3.57,3.57,0,0,1,45.6,36.53Z" transform="translate(0 0)"/></svg>