<svg id="Vrstva_1" data-name="Vrstva 1" xmlns="http://www.w3.org/2000/svg" viewBox="0 0 120 120"><defs><style>.cls-1{fill:#fff;}.cls-2{fill:#ea6c00;}.cls-2,.cls-3,.cls-4,.cls-5{fill-rule:evenodd;}.cls-3{fill:#fdad00;}.cls-4{fill:#fdd231;}.cls-5{fill:#feeeb7;}</style></defs><g id="sketch"><rect id="Rectangle_1323" data-name="Rectangle 1323" class="cls-1" width="120" height="120" rx="10"/><g id="sketch-2"><path id="Path_732" data-name="Path 732" class="cls-2" d="M36.2,49.81,60,96.39,20,49.81Z" transform="translate(0 0)"/><path id="Path_733" data-name="Path 733" class="cls-2" d="M83.8,49.81,60,96.39l40-46.58Z" transform="translate(0 0)"/><path id="Path_734" data-name="Path 734" class="cls-3" d="M36.2,49.81H83.79L60,96.39Z" transform="translate(0 0)"/><path id="Path_735" data-name="Path 735" class="cls-4" d="M60,24,37.45,26.38,36.2,49.81Z" transform="translate(0 0)"/><path id="Path_736" data-name="Path 736" class="cls-4" d="M60,24l22.55,2.38,1.25,23.43Z" transform="translate(0 0)"/><path id="Path_737" data-name="Path 737" class="cls-3" d="M100,49.81,82.55,26.38,83.8,49.81Z" transform="translate(0 0)"/><path id="Path_738" data-name="Path 738" class="cls-3" d="M20,49.81,37.45,26.38,36.2,49.81Z" transform="translate(0 0)"/><path id="Path_739" data-name="Path 739" class="cls-5" d="M60,24,36.2,49.81H83.79Z" transform="translate(0 0)"/></g></g></svg>