<svg id="Vrstva_1" data-name="Vrstva 1" xmlns="http://www.w3.org/2000/svg" viewBox="0 0 2495.32 308"><defs><style>.cls-1{fill:#06b6d4;}</style></defs><path d="M775.71,129.79h-45v86.7c0,23.12,15.25,22.75,45,21.31v35c-60.22,7.24-84.18-9.39-84.18-56.35v-86.7H658.15V92.19h33.38V43.68l39.19-11.54V92.19h45Zm171.53-37.6h39.19V272.84H947.24v-26C933.45,266,912,277.55,883.72,277.55c-49.33,0-90.32-41.56-90.32-95,0-53.82,41-95,90.32-95,28.3,0,49.73,11.55,63.52,30.33ZM889.9,240.33c32.66,0,57.34-24.21,57.34-57.81S922.56,124.7,889.9,124.7s-57.32,24.21-57.32,57.82S857.23,240.33,889.9,240.33ZM1051.73,65.11a25.29,25.29,0,0,1-25-24.93,25.59,25.59,0,0,1,1.93-9.54,25.05,25.05,0,0,1,23.12-15.38,25.07,25.07,0,0,1,17.69,7.3,26.06,26.06,0,0,1,5.43,8.08,24.93,24.93,0,0,1-23.12,34.47Zm-19.6,207.73V92.19h39.19V272.84Zm84.56,0V9.11h39.18V272.84ZM1410.21,92.19h41.37l-57,180.65h-38.47L1318.42,151.1l-38.09,121.74h-38.47l-57-180.65h41.37l35.19,124.65,38.09-124.65h37.38l37.72,124.65Zm90-27.08a25.26,25.26,0,0,1-25-24.93,25,25,0,0,1,1.9-9.54,26.06,26.06,0,0,1,5.43-8.08,25.06,25.06,0,0,1,40.81,8.08,24.46,24.46,0,0,1,1.93,9.54A25.29,25.29,0,0,1,1500.19,65.11Zm-19.6,207.73V92.19h39.19V272.84Zm249.66-110.92V272.84h-39.18V165.92c0-27.49-16-41.93-40.66-41.93-25.77,0-46.08,15.19-46.08,52v96.81h-39.19V92.19h39.19v23.12c12-18.78,31.57-27.8,56.25-27.8,40.63,0,69.67,27.46,69.67,74.41ZM1916,19.94h39.19v252.9H1916v-26c-13.79,19.15-35.19,30.73-63.49,30.73-49.36,0-90.35-41.56-90.35-95,0-53.82,41-95,90.35-95,28.3,0,49.7,11.55,63.49,30.33ZM1858.7,240.33c32.63,0,57.31-24.21,57.31-57.81s-24.68-57.82-57.31-57.82-57.35,24.21-57.35,57.82S1826,240.33,1858.7,240.33Zm132.07-57.81c0-53.82,41-95,95.78-95,35.57,0,66.39,18.41,80.9,46.62l-33.73,19.5c-8-17-25.77-27.83-47.55-27.83-31.91,0-56.22,24.21-56.22,56.72s24.31,56.72,56.22,56.72c21.78,0,39.56-11.2,48.27-27.8l33.76,19.12c-15.26,28.55-46.08,47-81.65,47C2031.76,277.55,1990.77,236,1990.77,182.52Zm339.6,39.37c0,36.13-31.57,55.66-70.76,55.66-36.28,0-62.4-16.29-74-42.28l33.72-19.53c5.84,16.29,20.34,26,40.28,26,17.44,0,30.86-5.77,30.86-20.21,0-32.17-97.59-14.11-97.59-78.78,0-34,29.39-55.26,66.39-55.26,29.73,0,54.41,13.73,67.11,37.57l-33,18.44c-6.52-14.11-19.22-20.59-34.1-20.59-14.17,0-26.49,6.11-26.49,19.12,0,32.88,97.59,13,97.59,79.84Zm167.29,0c0,36.13-31.57,55.66-70.76,55.66-36.28,0-62.43-16.29-74-42.28l33.75-19.53c5.81,16.29,20.31,26,40.28,26,17.41,0,30.83-5.77,30.83-20.21,0-32.17-97.59-14.11-97.59-78.78,0-34,29.38-55.26,66.39-55.26,29.76,0,54.44,13.73,67.14,37.57l-33,18.44c-6.52-14.11-19.22-20.59-34.1-20.59-14.14,0-26.49,6.11-26.49,19.12,0,32.88,97.62,13,97.62,79.84Z" transform="translate(-2.34 0)"/><path class="cls-1" d="M260.14,0Q157,0,131.22,102.68q38.7-51.35,90.26-38.53c19.6,4.89,33.6,19.06,49.14,34.75,25.27,25.52,54.54,55.1,118.43,55.1q103.11,0,128.89-102.68-38.66,51.34-90.23,38.5C408.12,85,394.08,70.76,378.57,55.1,353.3,29.55,324,0,260.14,0ZM131.22,154Q28.13,154,2.34,256.68,41,205.33,92.57,218.18c19.62,4.86,33.63,19.06,49.14,34.72C167,278.45,196.24,308,260.14,308q103.14,0,128.91-102.68-38.7,51.35-90.22,38.53c-19.63-4.89-33.64-19.06-49.17-34.75C224.38,183.58,195.12,154,131.22,154Z" transform="translate(-2.34 0)"/></svg>