<svg id="Vrstva_1" data-name="Vrstva 1" xmlns="http://www.w3.org/2000/svg" viewBox="0 0 50 50"><defs><style>.cls-1{fill:#32373c;}</style></defs><g id="W_Mark" data-name="W Mark"><path id="Path_106" data-name="Path 106" class="cls-1" d="M25,1.5a23.49,23.49,0,1,1-9.15,1.85A23.4,23.4,0,0,1,25,1.5M25,0A25,25,0,1,0,50,25h0A25,25,0,0,0,25,0Z" transform="translate(0 0)"/><path id="Path_107" data-name="Path 107" class="cls-1" d="M4.44,25A20.56,20.56,0,0,0,16,43.5L6.22,16.63A20.5,20.5,0,0,0,4.44,25Zm34.44-1a10.78,10.78,0,0,0-1.7-5.67c-1-1.69-2-3.13-2-4.82a3.57,3.57,0,0,1,3.46-3.65l.26,0A20.58,20.58,0,0,0,7.82,13.71l1.33,0c2.15,0,5.48-.26,5.48-.26a.85.85,0,0,1,.13,1.69s-1.12.13-2.36.2l7.49,22.27,4.5-13.49-3.2-8.78c-1.11-.06-2.16-.2-2.16-.2a.85.85,0,0,1,.13-1.69s3.4.26,5.42.26,5.48-.26,5.48-.26a.85.85,0,0,1,.13,1.69s-1.11.13-2.35.2l7.43,22.1,2.12-6.72A23.52,23.52,0,0,0,38.88,24ZM25.36,26.8,19.19,44.72a20.6,20.6,0,0,0,12.64-.33,1.51,1.51,0,0,1-.15-.28ZM43,15.14a14.86,14.86,0,0,1,.14,2.11,19.25,19.25,0,0,1-1.56,7.37L35.34,42.77A20.56,20.56,0,0,0,43,15.14Z" transform="translate(0 0)"/></g></svg>