<svg id="ux" xmlns="http://www.w3.org/2000/svg" viewBox="0 0 120 120"><defs><style>.cls-1{fill:#470137;}.cls-2{fill:#ff61f6;}</style></defs><g id="Surfaces"><g id="UI_UX_Surface" data-name="UI UX Surface"><g id="Outline_no_shadow" data-name="Outline no shadow"><rect id="Rectangle_1320" data-name="Rectangle 1320" class="cls-1" width="120" height="120" rx="10"/></g></g></g><g id="Outlined_Mnemonics_Logos" data-name="Outlined Mnemonics Logos"><g id="Xd"><path id="Path_725" data-name="Path 725" class="cls-2" d="M63.92,37,49.18,60.7,65,86.4A.84.84,0,0,1,65,87c-.06.19-.24.3-.56.36H53.22a1.77,1.77,0,0,1-1.66-.8c-1.06-2.06-2.12-4-3.18-6S46.2,76.46,45,74.35s-2.37-4.26-3.53-6.43h-.08c-1.06,2.12-2.16,4.23-3.29,6.35s-2.26,4.21-3.37,6.3-2.25,4-3.41,6.07a1.13,1.13,0,0,1-1.11.71H19.36a.32.32,0,0,1-.35-.29v0a.78.78,0,0,1,.12-.56l15.3-25L19.53,36.89c-.16-.21-.19-.38-.08-.52a.59.59,0,0,1,.47-.2H31.1a1.76,1.76,0,0,1,.72.12,1.41,1.41,0,0,1,.47.44c1,2.11,2,3.62,3.17,5.74s2.34,4.2,3.53,6.26,2.29,4.15,3.29,6.26h.08c1.06-2.16,2.13-4.28,3.21-6.34s2.19-4.13,3.33-6.22,2.23-3.56,3.29-5.62a1.23,1.23,0,0,1,.32-.52,1.13,1.13,0,0,1,.63-.12H63.53a.46.46,0,0,1,.55.33.44.44,0,0,1-.15.47Z" transform="translate(0 0)"/><path id="Path_726" data-name="Path 726" class="cls-2" d="M85.88,88.3a24.63,24.63,0,0,1-10.59-2.22,16.89,16.89,0,0,1-7.42-6.7,21.48,21.48,0,0,1-2.7-11.22,20.79,20.79,0,0,1,2.7-10.39,19.84,19.84,0,0,1,7.86-7.61,25.25,25.25,0,0,1,12.44-2.85c.27,0,.62,0,1,0s1.32.06,1.9.11v-14A1.27,1.27,0,0,1,92.19,32h7.67a1.43,1.43,0,0,1,1.43,1.43V78.62q0,1.35.12,2.94c.08,1,.15,2,.2,2.85a.82.82,0,0,1-.47.79,36.08,36.08,0,0,1-7.65,2.38,43.2,43.2,0,0,1-7.61.72Zm5.05-9.83V56.82a9.81,9.81,0,0,0-1.52-.24c-.54,0-1.09-.08-1.63-.08a12.27,12.27,0,0,0-5.55,1.27,10.2,10.2,0,0,0-5.79,9.91,13.89,13.89,0,0,0,.84,5.07,9.38,9.38,0,0,0,2.22,3.49,8.55,8.55,0,0,0,3.32,2,13.18,13.18,0,0,0,4.09.63c.74,0,1.43,0,2.06-.08a10,10,0,0,0,2-.32Z" transform="translate(0 0)"/></g></g></svg>