<?xml version="1.0" standalone="no"?>
<!DOCTYPE svg PUBLIC "-//W3C//DTD SVG 20010904//EN"
 "http://www.w3.org/TR/2001/REC-SVG-20010904/DTD/svg10.dtd">
<svg version="1.0" xmlns="http://www.w3.org/2000/svg"
 width="512.000000pt" height="512.000000pt" viewBox="0 0 512.000000 512.000000"
 preserveAspectRatio="xMidYMid meet">
<metadata>
Created by potrace 1.14, written by Peter Selinger 2001-2017
</metadata>
<g transform="translate(0.000000,512.000000) scale(0.100000,-0.100000)"
fill="#000000" stroke="none">
<path d="M2256 4915 c-71 -41 -131 -75 -134 -75 -3 0 -13 -6 -21 -14 -9 -7
-43 -28 -76 -46 -62 -34 -789 -454 -1139 -658 -133 -77 -220 -135 -261 -174
-109 -101 -188 -235 -232 -393 -15 -54 -17 -153 -18 -967 -2 -981 -2 -984 52
-1123 14 -38 43 -97 62 -130 42 -70 166 -200 231 -240 58 -37 1662 -965 1667
-965 2 0 2 88 1 196 l-3 196 -50 27 c-27 14 -93 52 -145 82 -52 31 -111 65
-130 76 -19 11 -132 76 -250 145 -118 69 -235 136 -260 150 -154 86 -612 355
-650 381 -84 59 -138 133 -172 235 -17 51 -18 113 -17 946 0 999 -4 935 75
1056 44 68 97 113 199 171 33 19 68 39 77 44 9 6 34 20 55 31 21 12 153 88
293 169 140 81 279 160 307 176 29 16 82 47 119 69 36 22 67 40 69 40 1 0 34
18 71 40 38 22 71 40 74 40 3 0 5 -290 5 -645 0 -355 -1 -645 -2 -645 -1 0
-37 18 -80 40 -254 130 -545 87 -743 -110 -129 -130 -190 -289 -185 -487 6
-229 108 -428 290 -563 40 -30 429 -263 595 -357 19 -11 128 -75 242 -143 114
-67 210 -122 215 -121 8 1 12 3621 3 3621 -3 0 -63 -34 -134 -75z m-494 -2039
c21 -8 95 -48 166 -90 l128 -76 -1 -369 c0 -203 -3 -372 -7 -376 -3 -3 -120
60 -259 142 -276 161 -328 203 -375 300 -35 74 -43 212 -17 290 23 67 113 156
179 177 61 18 137 19 186 2z"/>
<path d="M2729 4958 c-1 -40 -1 -304 0 -335 1 -17 31 -39 146 -105 80 -45 160
-91 178 -102 18 -10 192 -111 387 -224 868 -501 839 -483 902 -581 16 -25 38
-75 48 -110 19 -61 20 -92 17 -955 -1 -490 -6 -902 -10 -916 -12 -44 -66 -144
-91 -171 -53 -57 -123 -103 -421 -274 -170 -97 -322 -186 -337 -196 -15 -11
-29 -19 -31 -19 -3 0 -56 -30 -118 -66 -63 -37 -134 -78 -159 -92 -25 -13 -49
-28 -55 -32 -5 -4 -35 -21 -65 -38 l-55 -31 0 999 c0 549 2 1000 5 1002 12 9
228 137 260 154 54 28 181 26 241 -4 63 -31 117 -86 147 -152 l26 -55 0 -582
0 -583 41 24 c22 13 77 45 123 71 92 54 147 110 162 166 11 38 15 866 5 924
-38 224 -158 391 -348 485 -191 93 -399 88 -590 -15 -36 -19 -66 -35 -69 -35
-2 0 -3 203 -3 451 0 248 -2 454 -5 458 -5 8 -317 191 -326 191 -2 0 -4 -918
-4 -2040 0 -1122 2 -2040 5 -2040 2 0 127 71 277 159 235 136 772 447 1252
724 183 106 255 165 338 276 43 59 97 176 120 259 21 76 21 93 23 986 1 500
-2 930 -7 955 -5 25 -10 55 -12 66 -16 79 -77 210 -135 288 -92 124 -163 174
-581 410 -19 10 -55 31 -80 46 -25 14 -57 33 -71 41 -60 34 -315 182 -329 191
-8 5 -40 23 -70 40 -30 18 -152 88 -270 157 -118 68 -235 136 -260 150 -25 14
-78 45 -118 69 -41 24 -76 43 -78 43 -2 0 -4 -15 -5 -32z"/>
</g>
</svg>
