<?xml version="1.0" encoding="UTF-8"?> <svg xmlns="http://www.w3.org/2000/svg" width="70.001" height="37.534" viewBox="0 0 70.001 37.534"><g id="emco" transform="translate(-5.788 -5.65)"><path id="Subtraction_5" data-name="Subtraction 5" d="M33.59,37.535A70.133,70.133,0,0,1,18.8,36.117,35.188,35.188,0,0,1,8.342,32.229c-5.4-3.2-8.283-7.7-8.342-12.992a13.608,13.608,0,0,1,2.053-7.373A18.728,18.728,0,0,1,8.426,5.8,36.5,36.5,0,0,1,19.211,1.643,72.021,72.021,0,0,1,34.51,0c.318,0,.6,0,.854,0,10.3,0,19.066,1.87,25.359,5.409A20.574,20.574,0,0,1,67.574,11.3,12.571,12.571,0,0,1,70,18.543c.055,5.358-2.939,9.951-8.658,13.283a38.474,38.474,0,0,1-10.988,4.065,76.742,76.742,0,0,1-15.471,1.635C34.492,37.532,34.057,37.535,33.59,37.535ZM57.754,13.842a8.036,8.036,0,0,0-3.039.592A5.724,5.724,0,0,0,52.611,16a5.55,5.55,0,0,0-1.125,2.2,9.736,9.736,0,0,0-.33,2.519,8.181,8.181,0,0,0,.25,2.083,4.26,4.26,0,0,0,.875,1.72,4.106,4.106,0,0,0,1.652,1.145,6.851,6.851,0,0,0,2.385.426c.07,0,.145,0,.221,0,.059,0,.115,0,.174,0a7.889,7.889,0,0,0,2.326-.352,6.1,6.1,0,0,0,1.814-.92,5.315,5.315,0,0,0,1.24-1.336,7.229,7.229,0,0,0,.775-1.543,8.03,8.03,0,0,0,.389-1.594,10.758,10.758,0,0,0,.1-1.476,5.17,5.17,0,0,0-1.252-3.7h.006a5.5,5.5,0,0,0-4.119-1.317C57.93,13.842,57.852,13.842,57.754,13.842Zm-11.7,0a6.986,6.986,0,0,0-2.191.356,5.566,5.566,0,0,0-1.7.929,4.766,4.766,0,0,0-1.129,1.317,8.2,8.2,0,0,0-.67,1.5,6.478,6.478,0,0,0-.332,1.475c-.049.476-.086.9-.086,1.279a6.017,6.017,0,0,0,.5,2.6,4.847,4.847,0,0,0,1.24,1.656,4.389,4.389,0,0,0,1.676.853,6.54,6.54,0,0,0,1.793.254h.053a5.034,5.034,0,0,0,1.359-.187,8.3,8.3,0,0,0,1.115-.412,4.663,4.663,0,0,0,.838-.565,2.72,2.72,0,0,0,.537-.655c.033-.068.068-.135.105-.2l.006-.007,0-.007c.053-.1.107-.2.156-.311a4.41,4.41,0,0,0,.178-.556,1.907,1.907,0,0,0,.078-.416c0-.423-.176-.638-.527-.638a.862.862,0,0,0-.465.168c-.125.092-.266.179-.43.278l-.041.025-.137.084a5.05,5.05,0,0,1-.859.384,3.422,3.422,0,0,1-1.061.168h-.082c-.062.006-.123.009-.189.009a2.026,2.026,0,0,1-1.445-.607,3.382,3.382,0,0,1-.506-2.126c0-.291.02-.642.057-1.072a5.158,5.158,0,0,1,.271-1.251,2.94,2.94,0,0,1,.639-1.044,1.516,1.516,0,0,1,1.043-.419l.086,0a.68.68,0,0,1,.08,0,.974.974,0,0,1,.51.15.922.922,0,0,1,.3.432,2.527,2.527,0,0,1,.135.685c.018.252.027.546.027.925,0,.132.041.216.121.244a1.3,1.3,0,0,0,.391.061c.025,0,.053,0,.078,0,.068,0,.139.006.217.006a3.759,3.759,0,0,0,1.971-.552,1.921,1.921,0,0,0,.771-1.7,2.8,2.8,0,0,0-.264-1.207,2.621,2.621,0,0,0-.795-.986v0a4.1,4.1,0,0,0-1.33-.67,6.6,6.6,0,0,0-1.795-.251l-.135,0ZM11.494,25.851h5.242a1.39,1.39,0,0,0,1.73-1.432l.1-1.27a.261.261,0,0,0-.111-.225.507.507,0,0,0-.254-.076h-5.02l.256-3.194h1.99a1.775,1.775,0,0,0,.232.016,1.72,1.72,0,0,0,1.119-.413,1.873,1.873,0,0,0,.379-1.039l.1-1.27a.243.243,0,0,0-.115-.234.429.429,0,0,0-.234-.068H13.648l.227-3.026h3.148a1.654,1.654,0,0,0,.221.014,1.752,1.752,0,0,0,1.131-.412,1.764,1.764,0,0,0,.379-1.043l.086-1.27a.22.22,0,0,0-.109-.211.476.476,0,0,0-.256-.066h-8.02c-.246,0-.369.107-.369.32,0,.164-.012.558-.066,1.351l-.012.157-.016.2c-.041.571-.088,1.219-.16,1.938-.062.681-.117,1.386-.174,2.131l0,.03c-.01.116-.02.234-.029.353-.006.089-.014.179-.02.269l-.025.33c-.082,1.029-.143,1.795-.2,2.481s-.105,1.3-.146,1.848l-.01.146-.029.378c-.045.547-.066,1.039-.066,1.465a1.689,1.689,0,0,0,.545,1.351,2.776,2.776,0,0,0,1.572.485C11.332,25.862,11.414,25.858,11.494,25.851Zm22.029-9.111a.945.945,0,0,1,.8.439,1.928,1.928,0,0,1,.242.985c0,.1-.01.3-.027.537l-.014.131c-.01.1-.021.2-.031.31l-.01.1c-.012.13-.025.265-.041.407-.037.4-.078.8-.119,1.2-.029.273-.055.532-.07.751l-.014.145c-.012.116-.021.231-.033.346-.031.332-.059.693-.08,1.105l-.008.148,0,.013c-.018.27-.029.483-.029.639a3.067,3.067,0,0,0,.105.81,1.261,1.261,0,0,0,.346.59,1.638,1.638,0,0,0,.7.363,4.348,4.348,0,0,0,1.078.135h.842a2.216,2.216,0,0,0,.316-.02.3.3,0,0,0,.172-.087.317.317,0,0,0,.072-.186c.014-.055.02-.125.031-.215l0-.031c0-.03.008-.062.014-.1v-.022c.051-.77.109-1.538.178-2.284s.15-1.558.205-2.313c.025-.328.053-.648.07-.892l.021-.264c.025-.323.049-.635.072-.934.043-.555.063-1.089.063-1.633a3.313,3.313,0,0,0-.281-1.465,2.159,2.159,0,0,0-.781-.981h0a3.013,3.013,0,0,0-1.125-.479,6.521,6.521,0,0,0-1.355-.144c-.051,0-.1,0-.164,0a4.185,4.185,0,0,0-1.963.492,4.4,4.4,0,0,0-1.547,1.719,2.722,2.722,0,0,0-.459-1.059,2.464,2.464,0,0,0-.771-.675,3.682,3.682,0,0,0-1.025-.369,6.492,6.492,0,0,0-1.187-.11h-.088a4.614,4.614,0,0,0-1.895.413,3.608,3.608,0,0,0-1.5,1.571,2.546,2.546,0,0,0-.135-.666,1.242,1.242,0,0,0-.387-.556,2.159,2.159,0,0,0-.709-.383,3.54,3.54,0,0,0-1.035-.154H21.01c-.209,0-.322.021-.369.066s-.092.207-.115.556q-.076,1.012-.146,1.889c-.02.28-.043.55-.061.809l-.045.549c-.02.247-.037.482-.055.705-.025.32-.051.623-.072.9-.057.693-.1,1.261-.143,1.733-.062.634-.1,1.152-.125,1.53l-.01.1c-.027.388-.039.678-.039.915a3.569,3.569,0,0,0,.105.861,1.363,1.363,0,0,0,.355.633,1.715,1.715,0,0,0,.713.393,3.983,3.983,0,0,0,1.063.145h.916a.44.44,0,0,0,.064,0,.6.6,0,0,0,.318-.09.533.533,0,0,0,.125-.35c.023-.433.068-.938.139-1.547.053-.54.105-1.17.158-1.873a18.043,18.043,0,0,1,.244-2.011A8.871,8.871,0,0,1,24.48,18.3a3.19,3.19,0,0,1,.729-1.149,1.406,1.406,0,0,1,1.016-.431h.033a1.041,1.041,0,0,1,.123-.008.937.937,0,0,1,.8.438,2.006,2.006,0,0,1,.238.987c0,.235-.025.606-.076,1.168-.021.232-.045.472-.07.725l-.021.247c-.02.19-.037.386-.059.582L27.178,21l-.031.363-.027.3c-.031.366-.062.711-.1,1.059-.049.485-.072.908-.072,1.259a2.956,2.956,0,0,0,.1.811,1.407,1.407,0,0,0,.359.589,1.657,1.657,0,0,0,.705.368,4.469,4.469,0,0,0,1.074.132l.105,0h.736a2.236,2.236,0,0,0,.32-.02.263.263,0,0,0,.168-.081.47.47,0,0,0,.086-.187c0-.026.006-.057.012-.09l0-.041c.01-.067.02-.147.031-.238.051-.845.109-1.548.16-2.141.041-.48.078-.979.113-1.522a15.714,15.714,0,0,1,.244-1.911,7.191,7.191,0,0,1,.479-1.522,2.88,2.88,0,0,1,.734-1.006,1.527,1.527,0,0,1,1-.369h.02A1.074,1.074,0,0,1,33.523,16.739ZM56.8,23.21a1.565,1.565,0,0,1-1.281-.669,3.558,3.558,0,0,1-.479-2.078,9.008,9.008,0,0,1,.082-1.1,4.238,4.238,0,0,1,.34-1.239,2.745,2.745,0,0,1,.77-1.011,2.078,2.078,0,0,1,1.256-.417,1.037,1.037,0,0,1,.123,0,1.55,1.55,0,0,1,.178-.011,1.608,1.608,0,0,1,1.27.623,2.891,2.891,0,0,1,.422,1.681c-.02.424-.055.821-.111,1.217h.006A5.3,5.3,0,0,1,58.99,21.6a3.3,3.3,0,0,1-.8,1.141,1.881,1.881,0,0,1-1.244.47h-.057C56.861,23.209,56.834,23.21,56.8,23.21Z" transform="translate(5.789 5.649)"></path></g></svg> 