<svg id="Vrstva_1" data-name="Vrstva 1" xmlns="http://www.w3.org/2000/svg" viewBox="0 0 130.01 21.16"><defs><style>.cls-1{fill-rule:evenodd;}</style></defs><g id="expo"><g id="Group_284" data-name="Group 284"><path id="Path_286" data-name="Path 286" d="M.05,17V11.39h22.3V17Z" transform="translate(0 0)"/><path id="Path_287" data-name="Path 287" class="cls-1" d="M7.11,4.06a4.07,4.07,0,1,1,4.06,4.07h0A4.06,4.06,0,0,1,7.11,4.07Z" transform="translate(0 0)"/><path id="Path_288" data-name="Path 288" class="cls-1" d="M1.52,0A4,4,0,0,0,0,.3V7.83A4.06,4.06,0,1,0,3,.3,3.91,3.91,0,0,0,1.52,0Z" transform="translate(0 0)"/><path id="Path_289" data-name="Path 289" class="cls-1" d="M20.82,0a4,4,0,0,1,1.52.3V7.83a4,4,0,0,1-1.52.3A4.06,4.06,0,1,1,20.64,0h.18Z" transform="translate(0 0)"/></g><path id="Path_292" data-name="Path 292" class="cls-1" d="M28.62,16.65V.21h10.9V2.68h-7.7V7h6.37V9.49H31.82v4.7h7.9v2.46ZM57.51,6.13A5.45,5.45,0,0,1,60.8,4.7c3.31,0,4.48,2.68,4.48,5.59,0,3.73-1.31,6.62-4.79,6.62a7.17,7.17,0,0,1-3-.75v5H54.22V4.9h3.07L57.38,6Zm2.35,8.31c1.46,0,2-1.57,2-4.15,0-1.5-.46-3.13-1.92-3.13a4.69,4.69,0,0,0-2.4,1.1v5.5a4.92,4.92,0,0,0,2.33.68ZM83.14,0V5.75l.15.1A5.37,5.37,0,0,1,86.43,4.7c3.52,0,4.7,2.7,4.7,5.66,0,4.27-1.92,6.55-5.71,6.55a13,13,0,0,1-5.54-1.27V0Zm2.28,7.16A4.6,4.6,0,0,0,83.14,8v6a4.88,4.88,0,0,0,2.09.44c2,0,2.47-1.72,2.47-4,0-1.11-.2-3.22-2.27-3.22Zm28,9.49V9.47c0-1.22-.16-2.17-1.64-2.17a5.42,5.42,0,0,0-2.73,1v8.31h-3.28V4.91h3.1l0,1.15.09.07a7.12,7.12,0,0,1,4.14-1.43c2.7,0,3.56,1.22,3.56,4.09v7.86Zm-10.54-2.28h1.55l.16,2a8.46,8.46,0,0,1-2.86.56c-1,0-1.72-.35-1.86-1.43h0a6,6,0,0,1-4.11,1.43A3.21,3.21,0,0,1,92.18,14a3.11,3.11,0,0,1,0-.53c0-2.42,1.83-3.7,4.27-3.9l3.2-.07c0-1.83-.47-2.37-2.2-2.37a10.34,10.34,0,0,0-3.52.73l-.73-2.3a15.16,15.16,0,0,1,5.08-.88c2.86,0,4.6,1.1,4.6,4.16Zm-5.61-2.72c-1.08.07-1.67.58-1.67,1.6s.59,1.41,1.65,1.41a4.35,4.35,0,0,0,2.39-1v-2.2ZM78.4,10.77c0,3.8-2,6.15-6,6.15-3.87,0-5.75-2.2-5.75-6.1,0-3.57,2-6.1,5.9-6.1S78.44,7,78.44,10.78Zm-3.42,0c0-1.69-.5-3.63-2.47-3.63S70,8.94,70,10.79c0,2.05.47,3.65,2.47,3.65S75,12.82,75,10.8Zm43.92,5.86V0h3.29V9.86h.44L126,4.91h3.59l-4.31,5.42,4.7,6.32h-4l-3.47-5.14h-.39v5.14Zm-69.66,0L46.89,12.4l-2.4,4.25H40.83L45,10.43,41.19,4.91H45l2.06,3.76,2.07-3.76h3.64l-3.64,5.57,4.18,6.17Z" transform="translate(0 0)"/></g></svg>