<svg id="Layer_1" data-name="Layer 1" xmlns="http://www.w3.org/2000/svg" viewBox="0 0 198.29 54.33"><defs><style>.cls-1{fill-rule:evenodd;}</style></defs><path class="cls-1" d="M69.26,21.43h4.11L69.26,11.35V.91h9.15l16,38.74H79.27L76.1,30.93H69.26Zm-4.1,0h4.1v9.5H61.92l-3.17,8.72H42.69L60.55.91h8.71V11.35Z"/><path class="cls-1" d="M39.09,1.7l.94,12c-3.67-2.3-23.33-6.4-24.77,6.84-.86,6.41,4.11,11.38,12,9.58V26.9H23.54V16.82H41.33v22.9C12.53,45.26-1.59,35.47.14,18.26,2-.1,22.61-2.33,39.09,1.7Z"/><path class="cls-1" d="M173.16,30.36c4.46-.07,8.85-3.24,8.85-9.29s-4.32-9.79-8.85-9.94V.19h.07c17.06,0,25.06,10.08,25.06,20.09,0,10.29-8.36,20.88-24.41,20.88a2.48,2.48,0,0,1-.72-.07Zm-8.79-11.52c0,.65-.07,1.29-.07,1.87,0,6.55,4.25,9.65,8.64,9.65h.22V41.09h-.87c-16,0-24.12-10.37-24.12-20.6,0-10.08,7.92-20.3,25-20.3V11.13h-.29C169.2,11.13,165.53,13.44,164.37,18.84Z"/><path class="cls-1" d="M165.24,54.33v-.79c1.65,0,2.59-1.15,2.59-3s-.94-3-2.59-3h0V46.7h0a3.53,3.53,0,0,1,3.53,3.82,3.48,3.48,0,0,1-3.53,3.81Zm0-8.2v-1.3h1l-1,1.3Zm10.22,4.1v.86h2.23v.65a2.33,2.33,0,0,1-2.37,1.8c-1.44,0-2.38-1.15-2.38-2.95s.94-3.1,2.52-3.1A2,2,0,0,1,177.62,49h.94a2.75,2.75,0,0,0-3-2.31c-2.23,0-3.6,1.51-3.6,3.89a3.88,3.88,0,0,0,1,2.74,2.83,2.83,0,0,0,2.38,1,2.58,2.58,0,0,0,2.37-1.08l.36,1h.58v-4Zm7.71-3.38h-.94v7.41h.94V46.85Zm4.68.79h4.46v-.79h-5.4v7.41h5.54V53.4h-4.6V50.81h4V50h-4Zm-22.61-2.81v1.3h-.51l.51-1.3Zm0,1.87v.79c-1.66,0-2.67,1.16-2.67,3s1,3,2.67,3v.79c-2.16,0-3.53-1.51-3.53-3.81a3.48,3.48,0,0,1,3.53-3.82Zm-17.79,7.63v-.79c1.59,0,2.6-1.15,2.6-3s-1-3-2.6-3V46.7A3.53,3.53,0,0,1,151,50.52a3.48,3.48,0,0,1-3.53,3.81Zm7.92-7.48h-.93v7.41h4.89V53.4h-4Zm-7.92-.15v.79c-1.72,0-2.66,1.16-2.66,3s.94,3,2.66,3v.79a3.46,3.46,0,0,1-3.6-3.81c0-2.31,1.37-3.82,3.6-3.82ZM60.26,52v-.72h1.23l-1.16-3.46-.07.07v-1h.58l2.66,7.41h-1L61.7,52Zm12.1-3a2.74,2.74,0,0,0-3-2.23c-2.09,0-3.39,1.51-3.39,3.89s1.3,3.74,3.31,3.74a3,3,0,0,0,3.17-2.88h-.86a2.19,2.19,0,0,1-2.31,2.09c-1.51,0-2.37-1.08-2.37-2.95s.86-3.1,2.45-3.1a1.9,1.9,0,0,1,2,1.44Zm-3.31-2.8h.79l.86-1.3H70l-.57.86-.51-.86h-.72l.87,1.3Zm7.84.72h-1v7.41h.93v-6l3.82,6h1.08V46.85h-1v5.9l-3.82-5.9Zm9.51.79h4.39v-.79h-5.4v7.41h5.54V53.4H86.4V50.81h4V50h-4V47.64Zm1.65-2.81-.43,1.3h.51l.93-1.3Zm13.47,2.81h2.37v-.79H98.21v.79h2.37v6.62h.94V47.64Zm6.19,0h4.39v-.79h-5.4v7.41h5.47V53.4h-4.46V50.81h4V50h-4V47.64Zm13.68,1.29a2.74,2.74,0,0,0-3-2.23c-2.09,0-3.39,1.51-3.39,3.89s1.3,3.74,3.39,3.74a2.84,2.84,0,0,0,3.09-2.88h-.93a2.06,2.06,0,0,1-2.16,2.09c-1.59,0-2.45-1.08-2.45-2.95s.86-3.1,2.45-3.1a1.85,1.85,0,0,1,2,1.44Zm4.46-2.08h-.93v7.41h.93V50.73h4v3.53h.93V46.85h-.93v3.09h-4V46.85Zm9.72,0h-1.08v7.41h1v-6l3.89,6h.94V46.85h-.87v5.9Zm-75.31,0v1l-1.15,3.39h1.15V52H58.82l-.72,2.3H57l2.74-7.41ZM40.75,51.09V50.3a2.53,2.53,0,0,0,1.15-.14,1.15,1.15,0,0,0,.79-1.23c0-.57-.28-1.15-.72-1.15a3.2,3.2,0,0,0-1.08-.14h-.14v-.79H41c1.08,0,1.37.07,1.8.36a2,2,0,0,1,.79,1.65,1.86,1.86,0,0,1-1.37,1.87c.79.22,1,.65,1.08,1.8s.15,1.3.43,1.73H42.69a2.93,2.93,0,0,1-.21-1.15c-.07-1.22-.22-1.51-.58-1.8a2.17,2.17,0,0,0-1.15-.22Zm7.49-4.24H47v7.41h1v-5.9l2.23,5.9h.8l2.3-5.9v5.9h.94V46.85H53.06L50.69,53Zm-7.49,0v.79h-2V50.3h2v.79h-2v3.17H37.8V46.85Zm-9.94,7.48v-.79c1.59,0,2.6-1.15,2.6-3s-1-3-2.52-3h-.08V46.7h.08a3.57,3.57,0,0,1,3.52,3.82A3.53,3.53,0,0,1,30.81,54.33ZM6.19,46.85H5.33v7.41h.86V46.85Zm24.62-.15v.79c-1.72,0-2.66,1.16-2.66,3s1,3,2.66,3v.79a3.5,3.5,0,0,1-3.6-3.81,3.54,3.54,0,0,1,3.6-3.82Zm-19.87.15h-1v7.41h.87v-6l4,6h1V46.85h-.94v5.9l-3.89-5.9Zm9.43.79h4.18v-.79h-5v7.41h.86V50.73h3.46v-.79H20.37Z"/><polygon class="cls-1" points="95.97 0.84 116.42 0.84 120.24 23.52 124.99 0.84 145.22 0.84 145.22 39.57 132.12 39.57 132.12 15.38 126.65 39.57 113.76 39.57 108.36 14.95 108.36 39.57 95.97 39.57 95.97 0.84"/></svg>