<svg id="Vrstva_1" data-name="Vrstva 1" xmlns="http://www.w3.org/2000/svg" viewBox="0 0 160 27.67"><g id="gs"><path id="Path_256" data-name="Path 256" d="M42.61,11.07H40.13l-.74,0-.14,0a.14.14,0,0,1-.11-.11.69.69,0,0,1,0-.2.58.58,0,0,0-.1-.32.83.83,0,0,0-.37-.35,1.89,1.89,0,0,0-.55-.23l-.14,0a1.6,1.6,0,0,0-.54-.07,3.62,3.62,0,0,1-.57,0h-.25l-.46,0a2.51,2.51,0,0,0-1.28.35.67.67,0,0,0-.14.09.19.19,0,0,0-.08.07l-.23.43a.3.3,0,0,0,0,.35.71.71,0,0,0,.32.22l.33.1.39.09.31,0c.15,0,.29,0,.43,0l.28,0a4,4,0,0,0,.76.11l.29,0,.22.05a4.33,4.33,0,0,0,1,.15,2,2,0,0,1,.48.07l.48.1.25,0,.37,0a2.4,2.4,0,0,1,.53.12,2.59,2.59,0,0,0,.62.1h.2a.92.92,0,0,1,.36.07,3.59,3.59,0,0,0,.47.12,1.36,1.36,0,0,1,.4.14l.16.06.11,0,.61.3a1.71,1.71,0,0,1,.47.37,3.83,3.83,0,0,0,.29.28,1.94,1.94,0,0,1,.31.44.51.51,0,0,1,.07.15,1.76,1.76,0,0,0,.16.4,1,1,0,0,1,.08.45v.77a1.28,1.28,0,0,1-.11.58,1.18,1.18,0,0,0-.1.42.67.67,0,0,1-.07.24c-.07.14-.13.28-.19.42a3.42,3.42,0,0,1-.21.43,6.27,6.27,0,0,1-.5.73l0,0a3.2,3.2,0,0,1-.9.82l-.3.22-.34.2a7.29,7.29,0,0,1-.74.37l-.1,0a.77.77,0,0,1-.35.12.48.48,0,0,0-.21.07,1.72,1.72,0,0,1-.43.16l-.38.11a1.27,1.27,0,0,1-.42.09,1.38,1.38,0,0,0-.45.08,1,1,0,0,1-.25.06c-.31.05-.62.08-.93.14a2.65,2.65,0,0,0-.48.07h-.05a2.39,2.39,0,0,0-.6.05H37c-.62,0-1.23,0-1.85,0h-2a3.33,3.33,0,0,1-.63,0h-.2l-.28,0c-.33-.05-.65-.13-1-.15a1.64,1.64,0,0,1-.44-.09,2.5,2.5,0,0,0-.53-.11.4.4,0,0,1-.22-.06,1.9,1.9,0,0,0-.4-.14.79.79,0,0,1-.34-.14l-.1,0a2.47,2.47,0,0,1-.7-.37l-.1-.06a2.79,2.79,0,0,1-.68-.6,1.86,1.86,0,0,1-.46-.82.38.38,0,0,0-.06-.13l-.07,0a.06.06,0,0,0-.06.05.47.47,0,0,0,0,.17,2,2,0,0,1-.11.64,2.91,2.91,0,0,0-.13.64,1.65,1.65,0,0,1-.13.53.55.55,0,0,1-.08.15.21.21,0,0,1-.19.1c-.5,0-1,0-1.51,0h-.4a.25.25,0,0,1-.26-.19c-.05-.15-.11-.3-.17-.45a.92.92,0,0,1-.05-.28s0-.1,0-.14a.12.12,0,0,0-.14-.09l0,0c-.12.08-.23.17-.34.26a1.51,1.51,0,0,1-.35.2l-.14.09a2.23,2.23,0,0,1-.64.31l-.05,0a2.47,2.47,0,0,1-.59.22l-.24.1A.77.77,0,0,1,21,21a2.52,2.52,0,0,0-.61.11,2.25,2.25,0,0,1-.68.11l-.2,0q-.3,0-.6.06a.68.68,0,0,0-.2,0,2.28,2.28,0,0,1-.45,0h-2a1.55,1.55,0,0,1-.37,0l-.76-.11a0,0,0,0,0-.05,0,3,3,0,0,1-.9-.16,1.12,1.12,0,0,0-.31-.05,1.3,1.3,0,0,1-.39-.09l-.3-.1a2.12,2.12,0,0,1-.31-.14,1,1,0,0,0-.32-.12l-.1,0a8.72,8.72,0,0,1-1-.6,3.24,3.24,0,0,1-.8-.81c-.12-.17-.23-.34-.34-.53l-.3-.61a.59.59,0,0,1-.05-.19,7.18,7.18,0,0,1-.2-.92,2.21,2.21,0,0,0-.05-.51.36.36,0,0,1,0-.11,5,5,0,0,1,0-.77,1.94,1.94,0,0,0,0-.48,1.77,1.77,0,0,1,0-.51c.05-.19.1-.39.14-.58a2.7,2.7,0,0,0,0-.28.81.81,0,0,1,.08-.34c0-.07,0-.16.08-.24l.19-.56s0,0,0-.06a2.65,2.65,0,0,1,.12-.37c0-.12.11-.23.15-.34a2,2,0,0,1,.11-.26.35.35,0,0,0,0-.08,10.19,10.19,0,0,1,.52-.91,6.47,6.47,0,0,1,1-1.22L12.49,9a5.81,5.81,0,0,1,.77-.64,9.39,9.39,0,0,1,1.18-.7L15,7.4a2,2,0,0,0,.39-.19.55.55,0,0,1,.18-.06A.8.8,0,0,0,15.87,7a.89.89,0,0,1,.38-.12,1.38,1.38,0,0,0,.41-.11.92.92,0,0,1,.39-.09,1.06,1.06,0,0,0,.31,0L18,6.55a2.88,2.88,0,0,1,.59-.07l.29,0a3.19,3.19,0,0,1,.54,0h.4a1.49,1.49,0,0,0,.42,0,.65.65,0,0,1,.34,0,1,1,0,0,0,.34,0h.63a4,4,0,0,1,.6,0,1.06,1.06,0,0,0,.25,0l.52,0a.52.52,0,0,1,.17,0c.23.08.48.09.72.16a1.32,1.32,0,0,0,.34,0,1.11,1.11,0,0,1,.44.08,1.61,1.61,0,0,0,.36.1,1.36,1.36,0,0,1,.4.14.82.82,0,0,0,.3.1.79.79,0,0,1,.27.1l.07,0a5.34,5.34,0,0,1,1,.59l.11.09A3.2,3.2,0,0,1,28,9.09l.08.15a.64.64,0,0,1,.1.24,1.42,1.42,0,0,0,.11.35.6.6,0,0,1,.07.3v.34a.29.29,0,0,0,.05.13.09.09,0,0,0,.12,0l0,0a.11.11,0,0,0,0-.07,1.11,1.11,0,0,0,0-.17.57.57,0,0,1,.07-.22,1.42,1.42,0,0,0,.08-.18,3,3,0,0,1,.47-.78,6.22,6.22,0,0,1,.7-.75,4.79,4.79,0,0,1,1-.7c.24-.13.5-.23.74-.36s.33-.1.48-.18l.08,0A1.71,1.71,0,0,0,32.59,7a1.76,1.76,0,0,1,.5-.13,2,2,0,0,0,.53-.13,1.09,1.09,0,0,1,.44-.06,4,4,0,0,0,.77-.09,1.63,1.63,0,0,1,.31,0,1,1,0,0,0,.34,0,.76.76,0,0,1,.33,0,4.42,4.42,0,0,0,.63,0h1.71c.24,0,.48,0,.72,0h.34a1.36,1.36,0,0,1,.4,0,1.74,1.74,0,0,0,.45.06h.09c.22,0,.45,0,.67.09l.29,0a1.54,1.54,0,0,1,.64.11c.32.07.65.15,1,.24a.76.76,0,0,0,.16.06,2.78,2.78,0,0,1,.6.19.71.71,0,0,1,.18.08,6.17,6.17,0,0,1,.74.43l0,0a3.66,3.66,0,0,1,.92,1,1.24,1.24,0,0,1,.1.2l.12.26a.76.76,0,0,1,.08.33c0,.14,0,.28,0,.43a3.25,3.25,0,0,1,0,.54.75.75,0,0,1-.1.38.17.17,0,0,1-.16.1C44.42,11,43.41,11.08,42.61,11.07ZM24.18,12.83H25c.92,0,1.84,0,2.76,0h.06A.19.19,0,0,1,28,13a.38.38,0,0,1,0,.15c0,.09,0,.18,0,.28a3.22,3.22,0,0,1-.15.75,1.23,1.23,0,0,0-.07.42,1.86,1.86,0,0,1-.06.34,5.08,5.08,0,0,0-.19.86,1.82,1.82,0,0,1-.14.52,1.09,1.09,0,0,0,0,.17.16.16,0,0,0,.11.17l.17,0H33.5c.17,0,.22,0,.23.21l0,.37a.31.31,0,0,0,.06.13,1.07,1.07,0,0,0,.26.26,2.68,2.68,0,0,0,.67.24,2.61,2.61,0,0,0,.48.05h1.34a1.76,1.76,0,0,0,.46-.06l.19-.05a1.89,1.89,0,0,0,.55-.23,1,1,0,0,0,.4-.38.84.84,0,0,0,.15-.57v-.08a.41.41,0,0,0-.13-.28,1,1,0,0,0-.66-.31c-.2,0-.39-.05-.59-.09a2.77,2.77,0,0,0-.76-.08,3.22,3.22,0,0,1-.62-.11,2.8,2.8,0,0,0-.81-.13,2,2,0,0,1-.48-.07,3.23,3.23,0,0,0-.93-.15,2.6,2.6,0,0,1-.56-.06l-.73-.15a3.58,3.58,0,0,1-.73-.11h-.06l-.14,0a1.07,1.07,0,0,0-.31-.06.88.88,0,0,1-.35-.1l-.4-.16-.18-.08-.25-.13a2.61,2.61,0,0,1-1-1s0,0,0-.06l-.17-.36a.77.77,0,0,1-.08-.27,3.07,3.07,0,0,1,0-.68.9.9,0,0,0,0-.23.19.19,0,0,0-.16-.14h-.2l-.65,0H22.51a.21.21,0,0,1-.22-.18.59.59,0,0,1,0-.14.86.86,0,0,0-.1-.41.76.76,0,0,1-.06-.16.94.94,0,0,0-.36-.43,1.45,1.45,0,0,0-.26-.17.53.53,0,0,0-.29-.1,1.14,1.14,0,0,1-.33-.08,1.4,1.4,0,0,0-.28-.06c-.13,0-.26,0-.4-.06a1.83,1.83,0,0,0-.7,0c-.16,0-.32,0-.48.07l-.48.11-.14,0a.7.7,0,0,0-.19.06l-.33.15-.26.13a3.4,3.4,0,0,0-.75.61,3.3,3.3,0,0,0-.6.79,2,2,0,0,1-.14.25.47.47,0,0,0-.05.1,3.52,3.52,0,0,1-.17.39,1.06,1.06,0,0,0-.09.25,3.1,3.1,0,0,1-.13.4.55.55,0,0,0-.07.28,3.57,3.57,0,0,1-.11.64,1.52,1.52,0,0,0-.06.42c0,.2,0,.4,0,.6a2.07,2.07,0,0,0,0,.35c0,.2.1.4.16.6a.14.14,0,0,0,0,.06,3.6,3.6,0,0,0,.39.62,1.8,1.8,0,0,0,.21.19,6.44,6.44,0,0,0,.66.4.24.24,0,0,0,.13.05,2.48,2.48,0,0,1,.39.1,2.19,2.19,0,0,0,.67.11c.33,0,.65,0,1,0a2.42,2.42,0,0,0,.76-.12l.28-.07a.83.83,0,0,0,.34-.13,3.4,3.4,0,0,0,.86-.55,2.28,2.28,0,0,1,.22-.22,2.19,2.19,0,0,0,.29-.39.24.24,0,0,0,0-.08A.14.14,0,0,0,21.7,16h-.12a1.57,1.57,0,0,1-.53.06h-1l-.17,0a.18.18,0,0,1-.11-.21.08.08,0,0,1,0-.05,1,1,0,0,0,.12-.53,1.25,1.25,0,0,1,.11-.5,1.59,1.59,0,0,0,.11-.5,2.2,2.2,0,0,1,.12-.61,1.52,1.52,0,0,0,.1-.47.69.69,0,0,1,0-.2.17.17,0,0,1,.14-.13h3.66Z" transform="translate(0 0)"/><path id="Path_257" data-name="Path 257" d="M18.16.65a2,2,0,0,0,.65-.07l.45-.1a1.77,1.77,0,0,1,.51,0,6.77,6.77,0,0,0,1.1-.15A6.77,6.77,0,0,1,22.06.23a1.28,1.28,0,0,0,.34,0,1.25,1.25,0,0,1,.54-.06.9.9,0,0,0,.28,0,1.73,1.73,0,0,1,.45,0,2.19,2.19,0,0,0,.57,0,1.3,1.3,0,0,1,.34,0h7.54a.82.82,0,0,1,.31,0,2.19,2.19,0,0,0,.51,0,.73.73,0,0,1,.41.06.37.37,0,0,0,.23,0,1.46,1.46,0,0,1,.51,0,2.22,2.22,0,0,0,.37,0h.34a1.56,1.56,0,0,1,.48,0h.17l.28,0a4,4,0,0,0,.9.11,2.84,2.84,0,0,1,.82.1L37.7.6a3.91,3.91,0,0,0,.76.07A1.08,1.08,0,0,1,39,.8a1,1,0,0,0,.25.06,1.77,1.77,0,0,0,.23,0A1.76,1.76,0,0,1,40,.93l.16,0a1.5,1.5,0,0,0,.59.1.9.9,0,0,1,.36.08,1.14,1.14,0,0,0,.44.11,1.7,1.7,0,0,1,.66.17,1,1,0,0,0,.41.09.66.66,0,0,1,.34.06,2.08,2.08,0,0,0,.6.18.92.92,0,0,1,.32.1.57.57,0,0,0,.22.07,1.06,1.06,0,0,1,.43.12.9.9,0,0,0,.22.06,1.56,1.56,0,0,1,.56.2.44.44,0,0,0,.25.06.53.53,0,0,1,.3.09.63.63,0,0,0,.27.1,1.28,1.28,0,0,1,.37.14l.1,0a2,2,0,0,1,.41.13,2.28,2.28,0,0,0,.36.15,1.28,1.28,0,0,1,.27.11.62.62,0,0,0,.26.09.49.49,0,0,1,.21.08,1.26,1.26,0,0,0,.26.13l.33.15.08,0a2.48,2.48,0,0,1,.44.2,2.49,2.49,0,0,0,.43.22c.21.08.39.2.59.29s.33.18.51.25.34.18.5.28l.45.26.21.13.27.17.07,0c.28.2.58.37.85.58s.28.2.42.29a3.58,3.58,0,0,1,.66.5,3.31,3.31,0,0,0,.58.47,2,2,0,0,1,.28.23l.73.72c.2.2.38.4.57.61s.11.15.17.23a3.09,3.09,0,0,0,.33.39.28.28,0,0,1,.08.11.14.14,0,0,1,0,.14.12.12,0,0,1-.1,0,.43.43,0,0,1-.16,0l-.15-.09a1,1,0,0,0-.17-.1,1.75,1.75,0,0,1-.44-.2l-.29-.11-.29-.13-.16,0A.36.36,0,0,1,54.94,9a.45.45,0,0,0-.27-.1.5.5,0,0,1-.23-.09,1,1,0,0,0-.29-.12,1,1,0,0,1-.37-.16.38.38,0,0,0-.21-.07.53.53,0,0,1-.3-.09A1,1,0,0,0,53,8.24a2,2,0,0,1-.46-.17.42.42,0,0,0-.16,0A1.32,1.32,0,0,1,52,7.9a.74.74,0,0,0-.21-.07,1.55,1.55,0,0,1-.51-.18A.5.5,0,0,0,51,7.57a.66.66,0,0,1-.33-.09,1.21,1.21,0,0,0-.32-.11l-.28-.06-.13,0a.78.78,0,0,0-.41-.12.64.64,0,0,1-.27-.07,1.6,1.6,0,0,0-.6-.18.9.9,0,0,1-.33-.09l-.77-.17a2.17,2.17,0,0,0-.66-.19,1.63,1.63,0,0,1-.3-.07,1.27,1.27,0,0,0-.47-.09,1.07,1.07,0,0,1-.52-.14A.86.86,0,0,0,45.13,6a1.28,1.28,0,0,1-.58-.11,1.39,1.39,0,0,0-.53-.1,1.35,1.35,0,0,1-.56-.1,1.29,1.29,0,0,0-.61-.13,1.41,1.41,0,0,1-.45-.07,2.05,2.05,0,0,0-.7-.11,1.37,1.37,0,0,1-.53-.08,6,6,0,0,0-.61-.14.87.87,0,0,0-.23,0,2,2,0,0,1-.73-.09A2.72,2.72,0,0,0,38.7,5c-.23,0-.45,0-.68,0H38q-.33-.09-.66-.15a1.26,1.26,0,0,0-.43,0,7.38,7.38,0,0,1-1,0h-.06c-.22,0-.45-.06-.68-.08a1.71,1.71,0,0,0-.51,0H34a2,2,0,0,1-.54,0l-.22,0H33a1.2,1.2,0,0,1-.53-.07.54.54,0,0,0-.25,0l-.37,0a2,2,0,0,1-.49,0,1.68,1.68,0,0,0-.45,0H25.09a1.4,1.4,0,0,0-.5.06.58.58,0,0,1-.23,0h-.6a1,1,0,0,0-.34,0,1.12,1.12,0,0,1-.45,0H22.8a.67.67,0,0,0-.28,0,1.31,1.31,0,0,1-.39,0H21a1.94,1.94,0,0,1-.48,0,.7.7,0,0,0-.25.05l-.2,0a4.4,4.4,0,0,0-.51,0H19a1.24,1.24,0,0,0-.33,0l-.28.06-.53.1a5.74,5.74,0,0,1-.71,0,2.69,2.69,0,0,0-.7.1,2.22,2.22,0,0,1-.76.11h-.14a4,4,0,0,0-.7.15,1.33,1.33,0,0,1-.48.07,2.09,2.09,0,0,0-.43,0,1.32,1.32,0,0,0-.33.08,1,1,0,0,1-.44.08,1.3,1.3,0,0,0-.64.14.75.75,0,0,1-.33.07h-.26a.86.86,0,0,0-.41.1,1.07,1.07,0,0,1-.52.14,1.3,1.3,0,0,0-.58.14.84.84,0,0,1-.38.08.83.83,0,0,0-.47.1.67.67,0,0,1-.19,0L9,6.51a1.19,1.19,0,0,0-.32.1.86.86,0,0,1-.39.09.8.8,0,0,0-.4.11.69.69,0,0,1-.3.09l-.2,0A.62.62,0,0,0,7.14,7a1,1,0,0,1-.44.13.61.61,0,0,0-.3.08,1,1,0,0,1-.24.09,1.84,1.84,0,0,0-.51.19l-.13,0H5.35a.31.31,0,0,0-.19.06,1.06,1.06,0,0,1-.45.19.62.62,0,0,0-.26.09A.89.89,0,0,1,4.07,8a.48.48,0,0,0-.21.07l-.19.08a5.32,5.32,0,0,0-.5.21L3,8.42a.52.52,0,0,0-.26.1.7.7,0,0,1-.36.14.33.33,0,0,0-.19.08.71.71,0,0,1-.31.13.2.2,0,0,0-.11,0c-.2.14-.46.19-.66.33L1,9.28a.4.4,0,0,0-.21.09L.6,9.46a.89.89,0,0,0-.38.23h0a.12.12,0,0,1-.13,0,.11.11,0,0,1,0-.12.18.18,0,0,1,0-.1C.22,9.24.4,9,.56,8.78A6.18,6.18,0,0,1,1.22,8c.38-.39.76-.78,1.17-1.14a1.59,1.59,0,0,1,.24-.2,5,5,0,0,0,.5-.42,2.59,2.59,0,0,1,.53-.39,2,2,0,0,0,.3-.2l.33-.23.24-.15A3.36,3.36,0,0,1,5,5l.12-.07.54-.32c.14-.08.29-.15.43-.24.3-.17.61-.3.91-.46A7.84,7.84,0,0,1,8,3.43l.16-.07a.88.88,0,0,1,.4-.15l.08,0A1.3,1.3,0,0,1,9,3,1,1,0,0,0,9.16,3a1.76,1.76,0,0,1,.47-.18l.13,0a1.31,1.31,0,0,1,.43-.16,1,1,0,0,0,.32-.12.6.6,0,0,1,.27-.07.53.53,0,0,0,.27-.08,1.72,1.72,0,0,1,.54-.18A.38.38,0,0,0,11.8,2,.53.53,0,0,1,12.07,2a1.19,1.19,0,0,0,.41-.11.81.81,0,0,1,.22-.07,3,3,0,0,0,.71-.21.43.43,0,0,1,.25-.05,1.44,1.44,0,0,0,.5-.1c.34-.08.68-.16,1-.26a1.27,1.27,0,0,1,.28-.06,1.56,1.56,0,0,1,.31,0A1.09,1.09,0,0,0,16.16,1a1.4,1.4,0,0,1,.61-.14C17.23.78,17.7.71,18.16.65Z" transform="translate(0 0)"/><path id="Path_258" data-name="Path 258" d="M35.05,27.45H34.8a1.24,1.24,0,0,0-.43,0,1,1,0,0,1-.34,0,1.09,1.09,0,0,0-.4,0,1.29,1.29,0,0,1-.48,0,1.62,1.62,0,0,0-.31,0,2.89,2.89,0,0,1-.65.05H24.82l-.37,0a1.08,1.08,0,0,0-.4,0,1,1,0,0,1-.48-.06.78.78,0,0,0-.34,0,.79.79,0,0,1-.34,0,1,1,0,0,0-.25,0h-.57a1.78,1.78,0,0,1-.46,0h-.14a.92.92,0,0,1-.28,0,.87.87,0,0,0-.28-.05l-.2,0a1.51,1.51,0,0,0-.37,0,2,2,0,0,1-.48-.05l-.81-.14a.9.9,0,0,0-.23,0A2.34,2.34,0,0,1,18,26.9a1.54,1.54,0,0,0-.56-.1,1.27,1.27,0,0,1-.47-.09,2.55,2.55,0,0,0-.73-.14.78.78,0,0,1-.33-.07,1.78,1.78,0,0,0-.33-.09l-.39-.07a1.71,1.71,0,0,1-.3-.09,1.43,1.43,0,0,0-.42-.1,1,1,0,0,1-.44-.1,1.59,1.59,0,0,0-.33-.1,1.86,1.86,0,0,1-.57-.16,1.07,1.07,0,0,0-.36-.1.65.65,0,0,1-.19,0,1.12,1.12,0,0,0-.35-.12,1.62,1.62,0,0,1-.48-.17.43.43,0,0,0-.22-.06.71.71,0,0,1-.32-.1,1.22,1.22,0,0,0-.24-.1,1.84,1.84,0,0,1-.51-.19.83.83,0,0,0-.21-.06,1.17,1.17,0,0,1-.33-.11c-.13-.07-.28-.11-.42-.17A2.17,2.17,0,0,0,9,24.4a.19.19,0,0,1-.08,0,2.18,2.18,0,0,0-.47-.21c-.1,0-.18-.1-.28-.15a2,2,0,0,1-.26-.1c-.2-.1-.39-.21-.59-.3s-.45-.23-.68-.34a7.75,7.75,0,0,1-.81-.42c-.43-.26-.86-.49-1.28-.76L4.44,22A4.2,4.2,0,0,0,4,21.66c-.19-.12-.36-.25-.54-.39s-.62-.47-.91-.72a1.29,1.29,0,0,0-.17-.16l-.62-.51A4.52,4.52,0,0,1,.83,19l-.07-.09-.61-.69a.64.64,0,0,1-.1-.13c-.06-.09,0-.16.08-.2a.69.69,0,0,1,.15.07,1.76,1.76,0,0,0,.51.26l0,0a1.86,1.86,0,0,0,.5.22l.47.2a2.34,2.34,0,0,0,.5.19,3.12,3.12,0,0,0,.66.26.31.31,0,0,1,.13.06.63.63,0,0,0,.3.1.48.48,0,0,1,.21.07,1.27,1.27,0,0,0,.32.13,1.93,1.93,0,0,1,.46.16l.11,0a1,1,0,0,1,.37.12,1.17,1.17,0,0,0,.24.09,1.91,1.91,0,0,1,.57.19.84.84,0,0,0,.27.08,1.07,1.07,0,0,1,.36.1,3.1,3.1,0,0,0,.52.15.7.7,0,0,1,.19.06.86.86,0,0,0,.38.1,1,1,0,0,1,.33.09,1.21,1.21,0,0,0,.32.11,2.43,2.43,0,0,1,.6.17.89.89,0,0,0,.28.07,1.44,1.44,0,0,1,.5.1.79.79,0,0,0,.22.06,5.71,5.71,0,0,1,.71.19.94.94,0,0,0,.28.06,1.81,1.81,0,0,1,.56.12,2.34,2.34,0,0,0,.38.09l.37.05a1.39,1.39,0,0,1,.44.13.85.85,0,0,0,.39.08H13a1.07,1.07,0,0,1,.39.07,1.18,1.18,0,0,0,.5.11,2.29,2.29,0,0,1,.58.11,2.22,2.22,0,0,0,.76.11,1.42,1.42,0,0,1,.42.06,3.67,3.67,0,0,0,1,.17,2.21,2.21,0,0,1,.62.09l.55.12a.91.91,0,0,0,.23,0,5.77,5.77,0,0,1,1,.09l.4.06h.06a4.08,4.08,0,0,0,.85.08,1.55,1.55,0,0,1,.31,0l.54.06a6.83,6.83,0,0,0,1.28.09c.24,0,.48,0,.71,0a1.15,1.15,0,0,1,.26,0,1.57,1.57,0,0,0,.53.05h.15a.74.74,0,0,1,.33,0,.83.83,0,0,0,.31,0h.43a3.27,3.27,0,0,1,.54,0,2.31,2.31,0,0,0,.37,0h5.68a2,2,0,0,0,.54-.05.44.44,0,0,1,.2,0h.63a1.08,1.08,0,0,0,.36-.05.83.83,0,0,1,.31,0H34a1.24,1.24,0,0,0,.43,0,2,2,0,0,1,.48-.05h1a3.75,3.75,0,0,0,.82-.09h.23l.23,0,1.18-.12.15,0a2.72,2.72,0,0,0,.56-.09,2.88,2.88,0,0,1,.59-.06,4.22,4.22,0,0,0,1.22-.16,1.86,1.86,0,0,1,.48-.06l.48,0a.43.43,0,0,0,.16-.05,2.29,2.29,0,0,1,.73-.13,2.1,2.1,0,0,0,.56-.08,2.17,2.17,0,0,1,.62-.1A2,2,0,0,0,44.2,22l.32-.1a1,1,0,0,1,.43-.06,1.14,1.14,0,0,0,.41-.07,3,3,0,0,1,.84-.2,1.11,1.11,0,0,0,.3-.08,1.31,1.31,0,0,1,.52-.11.67.67,0,0,0,.31-.07,1.14,1.14,0,0,1,.33-.08,2.68,2.68,0,0,0,.63-.18,1,1,0,0,1,.41-.1.55.55,0,0,0,.28-.07,2,2,0,0,1,.54-.17,1.4,1.4,0,0,0,.35-.1.66.66,0,0,1,.33-.09.72.72,0,0,0,.25-.07l.24-.08a1.72,1.72,0,0,0,.54-.18.67.67,0,0,1,.24-.07.75.75,0,0,0,.3-.09,1.12,1.12,0,0,1,.35-.12l.38-.13.16-.07a7,7,0,0,0,.77-.27,1.79,1.79,0,0,0,.32-.13.62.62,0,0,1,.19-.07,1,1,0,0,0,.29-.11l.24-.1a2.83,2.83,0,0,0,.36-.16l.08,0c.22-.08.44-.17.65-.27l.13,0a.85.85,0,0,1,.37-.15,2.55,2.55,0,0,0,.33-.17.76.76,0,0,0,.26-.18l.06-.05a.15.15,0,0,1,.18,0,.14.14,0,0,1,0,.16.83.83,0,0,1-.08.12,9.19,9.19,0,0,0-.58.81,1.41,1.41,0,0,1-.14.18c-.43.47-.85.92-1.32,1.35a7.1,7.1,0,0,1-.95.77l-.27.22a2.06,2.06,0,0,1-.41.3.94.94,0,0,0-.23.16,2.63,2.63,0,0,1-.4.28c-.28.16-.54.33-.8.49s-.39.22-.58.32-.44.23-.64.37l0,0-.24.09-.22.13a6.46,6.46,0,0,0-.6.27c-.2.1-.4.18-.6.27a1.4,1.4,0,0,1-.4.16.38.38,0,0,0-.13.06,2,2,0,0,1-.5.21.35.35,0,0,0-.13.05.64.64,0,0,1-.26.1.76.76,0,0,0-.3.1.5.5,0,0,1-.23.09,2.05,2.05,0,0,0-.49.18.39.39,0,0,1-.21.06.79.79,0,0,0-.35.1,1.76,1.76,0,0,1-.44.15,1.12,1.12,0,0,0-.35.12.54.54,0,0,1-.22.05,1,1,0,0,0-.38.11l-.24.08-.34.07c-.22.07-.45.13-.68.18a1,1,0,0,0-.36.07,3.75,3.75,0,0,1-.8.2,1.27,1.27,0,0,0-.28.06,1.71,1.71,0,0,1-.5.1,1.43,1.43,0,0,0-.5.09,2.24,2.24,0,0,1-.73.13l-.14,0-.67.15a1.32,1.32,0,0,1-.39.06h-.31l-.34,0-.56.11a2.38,2.38,0,0,1-.46,0l-.37,0-.28,0-.28,0-.28,0h-.15A3.26,3.26,0,0,1,35.05,27.45Z" transform="translate(0 0)"/><path id="Path_259" data-name="Path 259" d="M115.32,14.71H118a.22.22,0,0,1,.26.13,1.23,1.23,0,0,1,0,.19.37.37,0,0,0,.1.23l.12.12a.7.7,0,0,0,.4.2,3.31,3.31,0,0,0,.77.09.92.92,0,0,1,.28.05.78.78,0,0,0,.5,0,1.47,1.47,0,0,1,.42-.06,5.74,5.74,0,0,0,.71-.09.52.52,0,0,0,.16-.06,2.41,2.41,0,0,0,.54-.41.45.45,0,0,0,.08-.46.44.44,0,0,0-.08-.11,1,1,0,0,0-.59-.27,7.65,7.65,0,0,1-1.16-.14c-.17,0-.36,0-.54,0h-.17a3.18,3.18,0,0,1-.62-.07l-.34-.07a4.78,4.78,0,0,0-.76-.09,4.24,4.24,0,0,1-.87-.12,3.57,3.57,0,0,0-.8-.09,3.43,3.43,0,0,1-.56-.05l-.17-.05-.57-.16a2.65,2.65,0,0,1-1.12-.6,2.7,2.7,0,0,1-.43-.53,1,1,0,0,1-.12-.32c0-.12,0-.25,0-.37a2.92,2.92,0,0,1,.08-.88,1.21,1.21,0,0,1,.11-.32l.06-.13a2,2,0,0,1,.26-.53l0,0a2.84,2.84,0,0,1,1-1l.2-.12a2.42,2.42,0,0,1,.55-.29,1.23,1.23,0,0,0,.26-.12,1.48,1.48,0,0,1,.35-.13h0a3.92,3.92,0,0,1,.74-.22,2.79,2.79,0,0,0,.47-.14,1.42,1.42,0,0,1,.42-.07c.15,0,.3,0,.45,0a.51.51,0,0,0,.17,0,1.54,1.54,0,0,1,.31,0l.2,0a3.63,3.63,0,0,1,.93-.09h2.43c.44,0,.87,0,1.31,0a2.52,2.52,0,0,1,.48,0,5.7,5.7,0,0,0,1.16.17,1.5,1.5,0,0,1,.59.1,1.64,1.64,0,0,0,.38.1,1,1,0,0,1,.23.05,6,6,0,0,1,1.25.54l.4.28a2.93,2.93,0,0,1,.51.65.3.3,0,0,1,0,.1c0,.06,0,.13,0,.19a1.49,1.49,0,0,1,.09.59.19.19,0,0,0,0,.08.22.22,0,0,0,.2.2h1.66a.48.48,0,0,1,.17,0,.2.2,0,0,1,.18.15.5.5,0,0,1,0,.12,3.84,3.84,0,0,0,.15.81,3.84,3.84,0,0,1,.09.68c0,.19,0,.38,0,.57a.61.61,0,0,0,0,.11l.12.59,0,.28a3.87,3.87,0,0,0,.11.76,4.89,4.89,0,0,1,.09.53.89.89,0,0,1,0,.23v.2a.12.12,0,0,0,.09.1.09.09,0,0,0,.1-.05l.06-.1.09-.2a7.29,7.29,0,0,1,.42-.78,1.09,1.09,0,0,0,.08-.15,1.75,1.75,0,0,1,.2-.35,4.39,4.39,0,0,0,.27-.47l.37-.67.5-1,0-.07c.23-.34.4-.71.6-1.07a.42.42,0,0,1,.43-.26h.52c.33,0,.66,0,1,0h.08a.23.23,0,0,1,.18.13.24.24,0,0,1,0,.08c0,.24.09.47.13.7a2.69,2.69,0,0,1,0,.4,4.9,4.9,0,0,0,0,.77c0,.05,0,.09,0,.14a5.38,5.38,0,0,1,.14,1.13,6.17,6.17,0,0,0,.14,1,1.7,1.7,0,0,1,0,.22c0,.14,0,.27,0,.4a.2.2,0,0,0,0,.11s0,0,.06,0a.09.09,0,0,0,.1,0,.18.18,0,0,0,.05-.07,3.52,3.52,0,0,1,.28-.59c.13-.25.28-.5.42-.74l.21-.34.56-1,.18-.33c.22-.4.43-.8.68-1.19.08-.2.22-.37.32-.57a.49.49,0,0,1,.14-.18.39.39,0,0,1,.26-.09c.4,0,.8,0,1.2,0l.37,0h.17a.11.11,0,0,1,.09.13.77.77,0,0,1-.15.36,1.69,1.69,0,0,0-.23.36c-.2.36-.41.71-.63,1.06l-.3.51c-.07.13-.16.26-.24.39s-.1.18-.16.27l-.64,1.08-.17.3-.7,1.17-.6,1c-.13.23-.28.45-.43.67a.3.3,0,0,1-.25.12h-1.85a.22.22,0,0,1-.22-.19.69.69,0,0,1,0-.2,2.22,2.22,0,0,0-.07-.57c0-.29-.1-.58-.13-.87a2.64,2.64,0,0,1,0-.28,3.07,3.07,0,0,0-.1-.74,3,3,0,0,1-.13-.78,2.82,2.82,0,0,0-.08-.65c0-.11,0-.21-.05-.31a.44.44,0,0,0-.07-.19.11.11,0,0,0-.15,0l0,0,0,.05a3,3,0,0,1-.27.57l-.57,1c-.11.19-.22.38-.34.56s-.35.61-.52.92l-.15.27,0,.07a3.51,3.51,0,0,1-.33.6l-.18.33a1.4,1.4,0,0,1-.26.34.27.27,0,0,1-.18.07H130.5a.33.33,0,0,1-.28-.26,1.64,1.64,0,0,1,0-.22l0-.43a.94.94,0,0,0-.07-.3,1,1,0,0,1-.08-.33l-.06-.51a1.52,1.52,0,0,0-.1-.48,1.42,1.42,0,0,1-.08-.42c0-.12,0-.24,0-.37a1.24,1.24,0,0,0-.1-.5,1.24,1.24,0,0,1-.09-.38c0-.2,0-.4-.07-.6a1.55,1.55,0,0,0-.06-.31,2.29,2.29,0,0,1-.07-.36l-.09-.68a1.83,1.83,0,0,0-.06-.25,3.71,3.71,0,0,1-.12-.65.51.51,0,0,0,0-.17.1.1,0,0,0-.13-.06h0c-.08.05-.14.14-.25.14a2.62,2.62,0,0,1-.28,0h-4.91l-.14,0a.24.24,0,0,1-.18-.13,1.09,1.09,0,0,1,0-.17.84.84,0,0,0-.5-.51c-.13,0-.25-.09-.38-.12l-.23,0-1.11,0-.82,0a1.06,1.06,0,0,0-.36.09l-.24.1a1.06,1.06,0,0,0-.45.33.27.27,0,0,0-.06.1.17.17,0,0,0,0,.17.3.3,0,0,0,.24.22c.2.06.41.1.61.14l.14,0a2.42,2.42,0,0,0,.71.08l.37,0h.14l.53.09a5,5,0,0,0,1.08.12l.2,0,.93.16a2.6,2.6,0,0,0,.4,0,2.92,2.92,0,0,1,.51,0l.93.15a2.47,2.47,0,0,1,.66.17.88.88,0,0,0,.28.06.8.8,0,0,1,.3.09,1.77,1.77,0,0,0,.31.15,1.44,1.44,0,0,1,.49.29,3.8,3.8,0,0,1,.55.58,1,1,0,0,1,.13.25l0,.11a1.51,1.51,0,0,1,.1.7,1.15,1.15,0,0,1,0,.31.75.75,0,0,0,0,.16,2.27,2.27,0,0,1-.25.76,2.54,2.54,0,0,1-.36.58,5.51,5.51,0,0,1-.67.7,3.61,3.61,0,0,1-.81.52l0,0c-.22.14-.47.21-.7.33a.86.86,0,0,1-.3.09.62.62,0,0,0-.27.09,1.43,1.43,0,0,1-.27.09l-.61.16a1.52,1.52,0,0,1-.42.06,3.26,3.26,0,0,0-.76.12l-.28,0a6.91,6.91,0,0,1-1.2.07,1.08,1.08,0,0,0-.31,0,2.94,2.94,0,0,1-.51,0H118a2.52,2.52,0,0,1-.48,0,1.61,1.61,0,0,0-.37,0H117a5.84,5.84,0,0,1-1.44-.16,1.41,1.41,0,0,0-.45-.07,1.34,1.34,0,0,1-.39-.07l-.33-.1a1.4,1.4,0,0,1-.48-.18l-.1,0a1.92,1.92,0,0,1-.46-.21c-.08,0-.14-.1-.22-.14a1.91,1.91,0,0,1-.62-.58l-.06-.1-.15-.31a.73.73,0,0,1-.09-.41,5.63,5.63,0,0,0,0-.71.88.88,0,0,1,0-.17.19.19,0,0,1,.17-.17,1.06,1.06,0,0,1,.25,0h2.64Z" transform="translate(0 0)"/><path id="Path_260" data-name="Path 260" d="M73.41,12.05h2.75a5.43,5.43,0,0,0,.57,0,.69.69,0,0,1,.2,0,.16.16,0,0,1,.12.17c0,.17,0,.34-.08.51a.68.68,0,0,1-.08.24,2,2,0,0,0-.15.58,1.05,1.05,0,0,1,0,.19,2.51,2.51,0,0,0-.14.52,1.89,1.89,0,0,1,0,.23,2.75,2.75,0,0,0-.14.49,3.13,3.13,0,0,1-.16.52.66.66,0,0,0-.06.27,1,1,0,0,1-.1.45,2.82,2.82,0,0,0-.15.57,2.42,2.42,0,0,1-.1.36,1.26,1.26,0,0,0-.1.38,1.42,1.42,0,0,1,0,.22.24.24,0,0,1-.14.14.58.58,0,0,1-.26,0H73.67l-.2,0a.16.16,0,0,1-.12-.11.35.35,0,0,1,0-.11,2,2,0,0,0-.22-.52L73,17.08a.11.11,0,0,0-.13,0l-.1.06a.79.79,0,0,1-.15.12c-.16.09-.33.17-.49.24s-.22.05-.33.1l-.29.12a2.38,2.38,0,0,0-.38.11,2.15,2.15,0,0,1-.61.13,2.42,2.42,0,0,0-.45.1,2.94,2.94,0,0,1-.78.11H69a1.81,1.81,0,0,0-.4,0,2.71,2.71,0,0,1-.4,0H66a3.29,3.29,0,0,1-.54-.05,1.33,1.33,0,0,0-.28,0h-.29a3.66,3.66,0,0,1-.87-.13,2.35,2.35,0,0,0-.59-.1.59.59,0,0,1-.19-.05c-.1,0-.2-.06-.3-.09a2.69,2.69,0,0,1-.62-.22,2.07,2.07,0,0,1-.62-.29,4.1,4.1,0,0,1-.77-.54,3.09,3.09,0,0,1-.37-.43,3.14,3.14,0,0,1-.4-.66.88.88,0,0,1-.1-.35.59.59,0,0,0,0-.14,2.44,2.44,0,0,1-.09-.54,1.33,1.33,0,0,0-.05-.19.45.45,0,0,1,0-.28,1.33,1.33,0,0,0,.08-.45c0-.09,0-.18,0-.28l.06-.28a2.78,2.78,0,0,1,.16-.63,5.4,5.4,0,0,1,.25-.67,1.89,1.89,0,0,1,.25-.54c.21-.37.46-.72.7-1.07a1.63,1.63,0,0,1,.17-.2s.11-.1.16-.16a3.86,3.86,0,0,1,.66-.55l.4-.28a1.94,1.94,0,0,1,.24-.15c.2-.13.41-.24.61-.36a.38.38,0,0,1,.13-.06,1.28,1.28,0,0,0,.34-.14,2.13,2.13,0,0,1,.35-.14l.18-.08A.73.73,0,0,1,65,8a1,1,0,0,0,.38-.13.92.92,0,0,1,.27-.08,3.49,3.49,0,0,0,.8-.21.68.68,0,0,1,.28,0,3.58,3.58,0,0,0,.8-.1l.11,0a4.83,4.83,0,0,1,1.08-.11h2.82l.66,0h.06c.2,0,.41.06.61.11a3.63,3.63,0,0,0,.65.09h.14a1.28,1.28,0,0,1,.48.09,2.48,2.48,0,0,0,.55.15,1.19,1.19,0,0,1,.32.1l.14,0a3.16,3.16,0,0,1,.6.25,2.61,2.61,0,0,1,.75.46,3.84,3.84,0,0,1,.58.63,1,1,0,0,1,.18.32c0,.09.07.18.11.26a1.1,1.1,0,0,1,.1.47c0,.23,0,.46,0,.69,0,0,0,.06,0,.08a.17.17,0,0,1-.14.13H71.89a.16.16,0,0,1-.13-.11.65.65,0,0,0,0-.13,1.83,1.83,0,0,0-.08-.25,1,1,0,0,0-.32-.4l-.09-.07a.58.58,0,0,0-.28-.12l-.28-.07a2.9,2.9,0,0,0-1.1-.15h-.45a1,1,0,0,0-.34,0l-.22,0a1.43,1.43,0,0,0-.42.09.65.65,0,0,1-.2,0,.81.81,0,0,0-.45.15l-.13.07a3.11,3.11,0,0,0-.63.38l-.21.15a1.08,1.08,0,0,0-.31.33c-.09.13-.18.27-.28.4a1.11,1.11,0,0,0-.2.37.36.36,0,0,1-.08.15,1.81,1.81,0,0,0-.17.46c0,.1,0,.2-.07.3a3,3,0,0,0-.11.67,1.18,1.18,0,0,0,.15.74,1.62,1.62,0,0,0,.66.8l.3.17.14,0,.46.13a1.76,1.76,0,0,0,.5.09c.55,0,1.09,0,1.63,0a1.12,1.12,0,0,0,.44-.09,1.43,1.43,0,0,1,.5-.14l.13-.05.3-.16.54-.38a.34.34,0,0,0,.12-.12.29.29,0,0,0,0-.13.09.09,0,0,0-.08-.11H71l-.34,0h-1c-.18,0-.26-.1-.23-.27a1.61,1.61,0,0,1,.1-.36,2.2,2.2,0,0,0,.13-.52A1.14,1.14,0,0,1,69.7,13a2.1,2.1,0,0,0,.15-.61,1.33,1.33,0,0,1,.05-.19.24.24,0,0,1,.17-.14.83.83,0,0,1,.22,0h3.12Z" transform="translate(0 0)"/><path id="Path_261" data-name="Path 261" d="M148.34,18h-.92a.19.19,0,0,1-.18-.19,1,1,0,0,0,0-.17.12.12,0,0,0-.13-.12l-.06,0-.07.05a1.17,1.17,0,0,1-.27.15l-.37.14a.86.86,0,0,1-.23.05,1.54,1.54,0,0,0-.56.1h-.05a7.37,7.37,0,0,1-.93.11h-.72a2.28,2.28,0,0,1-.73-.12l-.39-.1a.69.69,0,0,1-.31-.12l-.36-.23a1.24,1.24,0,0,1-.48-.72,1,1,0,0,0,0-.17,1.3,1.3,0,0,1,0-.78c0-.08,0-.17.05-.25l.06-.25a2.76,2.76,0,0,1,.36-.65,3,3,0,0,1,.66-.62,3,3,0,0,1,.64-.32,3.17,3.17,0,0,0,.4-.14.51.51,0,0,1,.25-.06,3.06,3.06,0,0,0,.73-.1l.14,0,.31,0a1.27,1.27,0,0,1,.34,0,4.35,4.35,0,0,0,.51,0,6.26,6.26,0,0,0,.74-.1,4.47,4.47,0,0,1,.82-.08,1.06,1.06,0,0,0,.42-.09l.36-.16a.52.52,0,0,0,.19-.2.77.77,0,0,0,.07-.16.6.6,0,0,0,0-.52.52.52,0,0,0-.17-.19,1.53,1.53,0,0,0-.46-.23,4.41,4.41,0,0,0-.73-.09h-.74a2.59,2.59,0,0,0-.92.17,1.42,1.42,0,0,0-.53.34,1.52,1.52,0,0,0-.38.52l0,0a.19.19,0,0,1-.18.11h-1.51a.91.91,0,0,1-.23,0,.1.1,0,0,1-.07-.12h0a4.52,4.52,0,0,1,.93-1.39l.13-.11a5.52,5.52,0,0,1,.66-.4l.44-.19a1,1,0,0,1,.25-.07l.75-.17a3.36,3.36,0,0,1,.71-.08h1.31a4.06,4.06,0,0,1,.77.1l.39.07a3.31,3.31,0,0,1,.68.2,4.39,4.39,0,0,1,.47.27,1.09,1.09,0,0,1,.25.23.69.69,0,0,1,.17.3c0,.11.07.21.11.32a.85.85,0,0,1,0,.5,1.91,1.91,0,0,1-.11.41.81.81,0,0,0-.06.31,1.49,1.49,0,0,1-.09.59,4.91,4.91,0,0,0-.17.78,1.55,1.55,0,0,1-.08.36,2.59,2.59,0,0,0-.09.42,3.6,3.6,0,0,1-.12.64.87.87,0,0,0,0,.22,4.55,4.55,0,0,1-.17.75,2.22,2.22,0,0,0-.11.56,1.63,1.63,0,0,1-.09.48s0,.09-.05.13a.3.3,0,0,1-.32.19l-.82,0Zm-3.44-1.14H145a4.45,4.45,0,0,0,.9-.15l.09,0a1.34,1.34,0,0,0,.64-.2l.13-.06.1-.05a2.72,2.72,0,0,0,.61-.46c.07-.09.15-.17.23-.26a1.06,1.06,0,0,0,.24-.41.5.5,0,0,1,.05-.13,2.38,2.38,0,0,0,.16-.7v0a.16.16,0,0,0-.14-.12l-.08,0-.16.07a.68.68,0,0,1-.35.1h-.26a2,2,0,0,0-.42,0,6.82,6.82,0,0,1-1.27.18,1.65,1.65,0,0,0-.31,0,1.19,1.19,0,0,0-.36.09,1.25,1.25,0,0,1-.43.12.44.44,0,0,0-.16.06,1.34,1.34,0,0,0-.48.55c0,.06-.05.1-.07.16a.56.56,0,0,0,0,.57,1.49,1.49,0,0,0,.15.2l.15.13a2.06,2.06,0,0,0,.9.25Z" transform="translate(0 0)"/><path id="Path_262" data-name="Path 262" d="M89.28,14.68H86a.18.18,0,0,0-.14.13.43.43,0,0,0,0,0v.49a.7.7,0,0,0,.08.27c.07.1.12.22.19.31a1.47,1.47,0,0,0,.68.55l.26.11a.89.89,0,0,0,.39.09h.88a1.34,1.34,0,0,0,.45-.09,2.08,2.08,0,0,1,.32-.12,2,2,0,0,0,.51-.26l.24-.2.37-.35a.41.41,0,0,1,.24-.08h1.2a2.57,2.57,0,0,0,.48,0h.12a.14.14,0,0,1,.11.17v0l0,.07a5.7,5.7,0,0,1-1.25,1.25c-.18.12-.36.24-.55.35a8.84,8.84,0,0,1-.83.38,3.41,3.41,0,0,1-.55.14c-.18,0-.35.08-.53.12a3.08,3.08,0,0,1-.68.08h-.65a2.86,2.86,0,0,1-.77-.1L86.13,18a2.66,2.66,0,0,1-.39-.07l-.37-.15a2.84,2.84,0,0,1-.7-.44,4.54,4.54,0,0,1-.38-.38.8.8,0,0,1-.15-.21L84,16.4a1,1,0,0,1,0-.16,2.22,2.22,0,0,0-.1-.39,1.87,1.87,0,0,1-.07-.22,1.18,1.18,0,0,1,0-.2,2.63,2.63,0,0,1,.11-1.15,1.34,1.34,0,0,0,.1-.45.73.73,0,0,1,.07-.24,9.37,9.37,0,0,1,.4-.85,1.72,1.72,0,0,1,.31-.48L85,11.9a3.12,3.12,0,0,1,.45-.44l.14-.11a2.8,2.8,0,0,1,.53-.37l.53-.29a2.3,2.3,0,0,1,.34-.12c.11,0,.2-.11.31-.14s.47-.09.7-.15a1.55,1.55,0,0,1,.56-.11h1.17a2.2,2.2,0,0,1,.67.12l.3.08a1.8,1.8,0,0,1,.51.17.38.38,0,0,0,.13.06,2.24,2.24,0,0,1,.7.44,2.61,2.61,0,0,1,.42.46,1.91,1.91,0,0,1,.29.59c.06.18.12.36.17.54a1.24,1.24,0,0,1,0,.43v.51a1.88,1.88,0,0,1-.1.67,2.13,2.13,0,0,1-.11.33.18.18,0,0,1-.17.12H89.28Zm-.74-1.28h2.28a.25.25,0,0,0,.11,0,.13.13,0,0,0,.07-.14l0-.11a2.38,2.38,0,0,1-.15-.52.42.42,0,0,0,0-.1,1.35,1.35,0,0,0-.54-.57L90,11.77a1,1,0,0,0-.37-.14,2.85,2.85,0,0,0-.77-.05h-.06a1.31,1.31,0,0,0-.48.05l-.19,0a4.12,4.12,0,0,0-.69.27h0l-.4.27a2.38,2.38,0,0,0-.52.53l-.31.44,0,.06a.13.13,0,0,0,.11.14h2.28Z" transform="translate(0 0)"/><path id="Path_263" data-name="Path 263" d="M98.92,14.69l-3.11,0-.26,0a.18.18,0,0,0-.16.18,1.5,1.5,0,0,0,.08.47c0,.11.07.22.11.33a1.2,1.2,0,0,0,.11.23,1.25,1.25,0,0,0,.54.48l.42.2a1,1,0,0,0,.41.09H98a.73.73,0,0,0,.38-.08,1.66,1.66,0,0,1,.43-.14.42.42,0,0,0,.2-.1,2.54,2.54,0,0,1,.34-.23,1.29,1.29,0,0,0,.44-.4.34.34,0,0,1,.31-.15h1.8a.09.09,0,0,1,.09.11,0,0,0,0,1,0,0,.81.81,0,0,1-.1.18,5.49,5.49,0,0,1-2.14,1.74l-.14.05-.26.1-.29.13c-.1,0-.21,0-.31,0l-.28.08a.77.77,0,0,1-.3.06.32.32,0,0,0-.14,0,2,2,0,0,1-.54,0h-.69a1.08,1.08,0,0,1-.36,0l-.2,0a1.3,1.3,0,0,1-.34-.08,1.28,1.28,0,0,0-.39-.07.43.43,0,0,1-.22-.06c-.23-.11-.46-.22-.68-.35a2.85,2.85,0,0,1-.66-.59,3.71,3.71,0,0,1-.23-.32,1,1,0,0,1-.12-.23,2.49,2.49,0,0,1-.11-.29.43.43,0,0,1,0-.19c0-.18,0-.35,0-.51a2.62,2.62,0,0,1,0-.74,2.81,2.81,0,0,0,0-.29.63.63,0,0,1,.06-.33,1.93,1.93,0,0,0,.16-.46.3.3,0,0,1,0-.16c.11-.19.17-.4.29-.59a3.28,3.28,0,0,1,.2-.31,5.48,5.48,0,0,1,.35-.49,3.72,3.72,0,0,1,.77-.71,1.7,1.7,0,0,0,.14-.1,4,4,0,0,1,.71-.43l.2-.1.07,0c.28-.06.53-.21.82-.25l.56-.13a2.33,2.33,0,0,1,.59-.08h.85a2.72,2.72,0,0,1,.63.08l.58.14a1,1,0,0,1,.29.1,1,1,0,0,0,.21.09.85.85,0,0,1,.3.15l.4.28a1.07,1.07,0,0,1,.19.18l.28.36a1.17,1.17,0,0,1,.15.27l.17.36a.84.84,0,0,1,0,.17,4.15,4.15,0,0,1,.07.7c0,.1,0,.21,0,.32a8.72,8.72,0,0,1-.06,1l0,.11a.23.23,0,0,1-.18.17H98.9Zm-.78-1.29h2.14l.17,0a.18.18,0,0,0,.13-.17,1.24,1.24,0,0,0-.14-.63.64.64,0,0,1-.1-.18,1.21,1.21,0,0,0-.47-.48l-.33-.18a.92.92,0,0,0-.29-.11,2.57,2.57,0,0,0-.68-.06h-.11a1.66,1.66,0,0,0-.54.06l-.16,0a3.64,3.64,0,0,0-.72.26,2.61,2.61,0,0,0-.8.68.69.69,0,0,1-.11.13l-.33.43a.14.14,0,0,0,0,.2h0a.25.25,0,0,0,.17,0h2.11Z" transform="translate(0 0)"/><path id="Path_264" data-name="Path 264" d="M105.18,10.47l.58,0h.2a.18.18,0,0,1,.15.15.26.26,0,0,1,0,.17c0,.06-.06.11-.08.18a.53.53,0,0,0,0,.33.1.1,0,0,0,.12.07h0l.12-.08a1.69,1.69,0,0,1,.57-.42l.32-.18.16-.05a1,1,0,0,0,.3-.11.75.75,0,0,1,.3-.09l.45-.08a1.11,1.11,0,0,0,.25-.05,2.17,2.17,0,0,1,.76,0,.45.45,0,0,1,.2,0,3.54,3.54,0,0,0,.45.08l.34.05a1,1,0,0,1,.29.1,4,4,0,0,1,.5.27,1.14,1.14,0,0,1,.49.61l.07.15a.87.87,0,0,1,.11.44v.4a1.35,1.35,0,0,1-.11.59l0,.07a.79.79,0,0,0-.07.37,1.5,1.5,0,0,1-.08.47,5.88,5.88,0,0,0-.16.7,2.82,2.82,0,0,1-.07.31,3.12,3.12,0,0,0-.11.53A2.15,2.15,0,0,1,111,16a1.34,1.34,0,0,0-.09.45,1.43,1.43,0,0,1-.09.41,1.63,1.63,0,0,0-.13.61s0,.08,0,.12a.3.3,0,0,1-.22.24l-.22,0H109l-.2,0a.22.22,0,0,1-.16-.24.65.65,0,0,1,0-.13,1.61,1.61,0,0,0,.1-.36,2.57,2.57,0,0,1,.14-.61,1.16,1.16,0,0,0,.08-.45.85.85,0,0,1,.09-.44,1.46,1.46,0,0,0,.11-.41,3.22,3.22,0,0,1,.14-.7,3,3,0,0,0,.1-.5,1.51,1.51,0,0,1,.07-.37c0-.1.06-.2.08-.3s0-.21,0-.31a1.09,1.09,0,0,0-.28-.81.69.69,0,0,0-.13-.11l-.17-.11a.58.58,0,0,0-.31-.11l-.49-.05a.81.81,0,0,0-.31,0,2,2,0,0,1-.48.06.6.6,0,0,0-.35.1l-.21.1a2.48,2.48,0,0,0-.63.37,2,2,0,0,0-.46.51l-.21.34a.5.5,0,0,0,0,.13,2.43,2.43,0,0,1-.13.38,1.24,1.24,0,0,0-.09.39,4.36,4.36,0,0,1-.17.78,1.59,1.59,0,0,0-.06.3,1.44,1.44,0,0,1-.1.5,2.86,2.86,0,0,0-.07.28l-.09.48a2.68,2.68,0,0,1-.07.27,2.2,2.2,0,0,0-.12.62.71.71,0,0,1,0,.14.35.35,0,0,1-.29.28h-1.54l-.17,0a.14.14,0,0,1-.09-.13.53.53,0,0,1,0-.17,1.06,1.06,0,0,0,.12-.43,2.11,2.11,0,0,1,.1-.5,2.41,2.41,0,0,0,.12-.65,1.34,1.34,0,0,1,.1-.44,2.13,2.13,0,0,0,.11-.5,1.89,1.89,0,0,1,.14-.58.67.67,0,0,0,.06-.28,3.32,3.32,0,0,1,.13-.7c.06-.21.11-.42.15-.64a1.89,1.89,0,0,1,.1-.41,1.23,1.23,0,0,0,.07-.42.87.87,0,0,1,.09-.45A1.63,1.63,0,0,0,104,11a1,1,0,0,1,0-.17.75.75,0,0,1,0-.16.26.26,0,0,1,.21-.17h.2A5.3,5.3,0,0,1,105.18,10.47Z" transform="translate(0 0)"/><path id="Path_265" data-name="Path 265" d="M157.93,17.87h-.83a.17.17,0,0,1-.15-.15,1,1,0,0,1,0-.17,4,4,0,0,1,.16-.75,1.63,1.63,0,0,0,.07-.3,3.16,3.16,0,0,1,.18-.75,1.12,1.12,0,0,0,0-.31,1.39,1.39,0,0,1,.1-.53,2.82,2.82,0,0,0,.14-.64,2.47,2.47,0,0,1,.11-.47,1.12,1.12,0,0,0,.08-.45c0-.25,0-.51,0-.77a.34.34,0,0,0-.11-.25,2.17,2.17,0,0,0-.44-.36.52.52,0,0,0-.21-.07l-.57-.06a.9.9,0,0,0-.4,0,1.1,1.1,0,0,1-.31,0,1,1,0,0,0-.49.13.76.76,0,0,1-.18.09,2.47,2.47,0,0,0-.94.72,2.68,2.68,0,0,0-.36.58,1.71,1.71,0,0,0-.13.44l-.09.39c0,.14-.07.3-.09.44a2.68,2.68,0,0,1-.13.56,2.33,2.33,0,0,0,0,.28,2.18,2.18,0,0,1-.18.71.8.8,0,0,0-.08.37,2,2,0,0,1-.09.59l-.15.49c-.05.16-.09.18-.27.19h-1.51a.2.2,0,0,1-.17-.2,0,0,0,0,1,0,0,3.84,3.84,0,0,1,.15-.81.94.94,0,0,0,.07-.3,3.51,3.51,0,0,1,.2-.85.67.67,0,0,0,.05-.31,1.28,1.28,0,0,1,.09-.48,3.45,3.45,0,0,0,.18-.77,1.89,1.89,0,0,1,.05-.23,2.69,2.69,0,0,0,.13-.64,3.33,3.33,0,0,1,.11-.53,2.78,2.78,0,0,0,.11-.5,2.36,2.36,0,0,1,.11-.44,1.15,1.15,0,0,0,.08-.41,2,2,0,0,1,.09-.5l.1-.3a.17.17,0,0,1,.16-.11.2.2,0,0,1,.11,0,4,4,0,0,0,.6,0h.38a2.26,2.26,0,0,0,.45,0h.09a.16.16,0,0,1,.15.11.35.35,0,0,1,0,.3,2,2,0,0,1-.11.26.35.35,0,0,0,0,.14s.05.09.1.08a1.07,1.07,0,0,0,.27-.16,4.41,4.41,0,0,1,.64-.42,1.11,1.11,0,0,1,.39-.16.64.64,0,0,0,.19-.08,1.19,1.19,0,0,1,.49-.13,3.44,3.44,0,0,0,.64-.12,1,1,0,0,1,.29,0h.22a.84.84,0,0,1,.39.06.71.71,0,0,0,.2,0l.42.05a.88.88,0,0,1,.36.1l.31.14a1.61,1.61,0,0,1,.83.87.45.45,0,0,1,0,.16,1.77,1.77,0,0,1,0,.23v.71a2,2,0,0,1-.11.73,2.4,2.4,0,0,0-.13.59,1,1,0,0,1-.08.33,1.13,1.13,0,0,0-.1.44,1.5,1.5,0,0,1-.05.37c-.08.29-.14.59-.2.89a3.6,3.6,0,0,1-.12.44,1.16,1.16,0,0,0-.07.42,1,1,0,0,1-.08.41,2,2,0,0,0-.13.41.19.19,0,0,1,0,.08c0,.15-.1.19-.24.19h-.74Z" transform="translate(0 0)"/><path id="Path_266" data-name="Path 266" d="M80.83,10.67a.43.43,0,0,1-.07.25,1.23,1.23,0,0,0-.12.5.11.11,0,0,0,0,.08.09.09,0,0,0,.11.08h0l.09-.08a.64.64,0,0,0,.1-.13,2.65,2.65,0,0,1,.66-.54,6,6,0,0,1,.72-.35,2.18,2.18,0,0,1,.44-.11,2.44,2.44,0,0,0,.55-.12.25.25,0,0,1,.12,0,2.29,2.29,0,0,1,.73.09l.11,0a.19.19,0,0,1,.1.16.13.13,0,0,1,0,.06c0,.17-.05.34-.07.51a1.35,1.35,0,0,1-.09.33,1.8,1.8,0,0,0-.13.61.19.19,0,0,1,0,.08.22.22,0,0,1-.24.19h0a.47.47,0,0,1-.16,0,1.63,1.63,0,0,0-.58-.13H83a2.27,2.27,0,0,0-1.06.16l-.11,0a2.13,2.13,0,0,0-1,.58,2.36,2.36,0,0,0-.61.88,1.11,1.11,0,0,1-.07.16.8.8,0,0,0-.11.4,1.62,1.62,0,0,1-.11.53.89.89,0,0,0-.07.28,5.08,5.08,0,0,1-.2.94,1,1,0,0,0-.06.34,1.86,1.86,0,0,1-.09.47,2.17,2.17,0,0,0-.13.56.78.78,0,0,1,0,.14.33.33,0,0,1-.33.29h-1.4l-.17,0a.2.2,0,0,1-.17-.23.43.43,0,0,1,0-.05.3.3,0,0,1,0-.08,1.26,1.26,0,0,0,.1-.38,3.62,3.62,0,0,1,.14-.73c.05-.17.07-.35.11-.53l.06-.28a2,2,0,0,0,.13-.64,1.15,1.15,0,0,1,.07-.36,2.35,2.35,0,0,0,.14-.52,3.42,3.42,0,0,1,.16-.72,1.34,1.34,0,0,0,.06-.4,1.8,1.8,0,0,1,.08-.39,1.06,1.06,0,0,0,.09-.36,3.11,3.11,0,0,1,.08-.44,2.07,2.07,0,0,1,.1-.33,1,1,0,0,0,.06-.33,1.27,1.27,0,0,1,0-.2,1.18,1.18,0,0,1,0-.2.28.28,0,0,1,.27-.22h1.48a.25.25,0,0,1,.3.17Z" transform="translate(0 0)"/><path id="Path_267" data-name="Path 267" d="M93.4,20.54h.28a.21.21,0,0,1,.24.16l0,.05a.08.08,0,0,0,.1,0l.12-.07a.87.87,0,0,1,.11-.09.21.21,0,0,1,.1-.06l.38-.12.2,0h.28a.76.76,0,0,1,.63.28l.17.22a.12.12,0,0,0,.16,0l.06-.06.07-.09a.7.7,0,0,1,.41-.23l.22-.07.28-.05a1.26,1.26,0,0,1,.61.08l.06,0a.78.78,0,0,1,.54.5,1.24,1.24,0,0,1,0,.87,4.13,4.13,0,0,0-.13.61,2.33,2.33,0,0,1-.05.28,3.24,3.24,0,0,0-.12.62,2.85,2.85,0,0,1-.12.58,2,2,0,0,0-.08.33l0,.2a.23.23,0,0,1-.22.15h-.06a3.25,3.25,0,0,0-.54,0H97a.16.16,0,0,1-.16-.18v0a4.27,4.27,0,0,1,.12-.7,4.15,4.15,0,0,0,.15-.7,3.15,3.15,0,0,1,.13-.61,2.22,2.22,0,0,0,.07-.68.19.19,0,0,0,0-.08.31.31,0,0,0-.3-.29h-.11a.59.59,0,0,0-.58.34c0,.08-.08.17-.13.25a1.15,1.15,0,0,0-.2.64,1.08,1.08,0,0,1-.07.31,4.63,4.63,0,0,0-.17.84c0,.25-.13.5-.18.75a.23.23,0,0,1-.19.15H95.3a3.25,3.25,0,0,0-.54,0l-.17,0a.19.19,0,0,1-.12-.17.88.88,0,0,1,0-.17c0-.19.08-.38.13-.56a3.6,3.6,0,0,0,.12-.64c0-.14.05-.29.08-.42s.07-.28.1-.42a1.94,1.94,0,0,0,0-.48.71.71,0,0,0,0-.2.26.26,0,0,0-.18-.17.74.74,0,0,0-.44,0l-.06,0a1.07,1.07,0,0,0-.32.35c-.07.12-.13.25-.2.38a.77.77,0,0,0-.08.27,2.66,2.66,0,0,1-.12.56,1.69,1.69,0,0,0-.08.5,4.25,4.25,0,0,1-.18.86.11.11,0,0,1,0,.08.26.26,0,0,1-.32.2h-.58a.19.19,0,0,1-.2-.19v0a1.33,1.33,0,0,1,.07-.48,3,3,0,0,0,.14-.67,2.42,2.42,0,0,1,.13-.58,1.22,1.22,0,0,0,.08-.5,1.27,1.27,0,0,1,.09-.47,1.75,1.75,0,0,0,.14-.67,1.81,1.81,0,0,1,0-.23.39.39,0,0,1,0-.14.17.17,0,0,1,.14-.12l.17,0Z" transform="translate(0 0)"/><path id="Path_268" data-name="Path 268" d="M73.3,22.1v.52a1,1,0,0,1-.1.47.84.84,0,0,0-.07.24.7.7,0,0,1-.12.28,2.9,2.9,0,0,1-.35.49,1.39,1.39,0,0,1-.5.37l-.15.08-.15.07a1.86,1.86,0,0,1-1.07,0,.75.75,0,0,1-.2-.1l-.33-.23-.08,0a.06.06,0,0,0-.07,0s0,.05,0,.08v.23a1.7,1.7,0,0,1-.1.59,1.17,1.17,0,0,0-.12.52.35.35,0,0,1,0,.11.22.22,0,0,1-.21.17h-.11A1.93,1.93,0,0,0,69,26a.47.47,0,0,1-.17,0,.16.16,0,0,1-.14-.2h0a5.48,5.48,0,0,0,.1-.56,2.21,2.21,0,0,1,0-.25c.07-.23.1-.46.15-.7a2.74,2.74,0,0,1,.09-.39,2.19,2.19,0,0,0,.11-.67,1,1,0,0,1,.06-.34,3.06,3.06,0,0,0,.18-.86,1.42,1.42,0,0,1,0-.2,4.18,4.18,0,0,0,.19-.92,1.42,1.42,0,0,1,0-.2.18.18,0,0,1,.18-.15h.69a.75.75,0,0,1,.24.08.15.15,0,0,0,.16,0l.4-.15a1.13,1.13,0,0,1,.36-.06H72a1,1,0,0,1,.39.05l0,0a1.05,1.05,0,0,1,.69.51,1,1,0,0,0,.1.17.6.6,0,0,1,.13.43v.51Zm-1.06.12c0-.08,0-.2,0-.31a.89.89,0,0,0-.35-.5l0,0a.68.68,0,0,0-.42-.05.71.71,0,0,0-.52.32l-.12.19-.12.22a1,1,0,0,0-.14.43.91.91,0,0,1,0,.23,1.6,1.6,0,0,0,0,.65.21.21,0,0,0,0,.1,1.42,1.42,0,0,0,.35.29l.11,0h.25a.36.36,0,0,0,.22-.07,1.48,1.48,0,0,0,.62-.79.69.69,0,0,1,0-.13,1.5,1.5,0,0,0,.1-.59Z" transform="translate(0 0)"/><path id="Path_269" data-name="Path 269" d="M78.32,24.63h-.23l-.14,0a.18.18,0,0,1-.14-.19,1,1,0,0,0,0-.25,3.12,3.12,0,0,1,.15-.75,2.36,2.36,0,0,0,.08-.45,3.24,3.24,0,0,1,.12-.62,1.43,1.43,0,0,0,.09-.41.87.87,0,0,0,0-.32A.32.32,0,0,0,78,21.4a1.19,1.19,0,0,0-.42,0,.42.42,0,0,0-.28.14l-.23.25A.37.37,0,0,0,77,22a1.69,1.69,0,0,1-.1.27,1.48,1.48,0,0,0-.12.41,4.3,4.3,0,0,1-.16.81,2.2,2.2,0,0,0-.06.37,3,3,0,0,1-.1.5.24.24,0,0,1,0,.08.34.34,0,0,1-.35.25l-.57,0h-.08a.18.18,0,0,1-.16-.17.76.76,0,0,1,0-.15.61.61,0,0,1,0-.13,2.16,2.16,0,0,0,.17-.75,3.58,3.58,0,0,1,.09-.45,2.4,2.4,0,0,0,.12-.58,1.65,1.65,0,0,1,.1-.5,5,5,0,0,0,.13-.65c0-.16.07-.33.12-.5a2.59,2.59,0,0,0,.1-.61.93.93,0,0,1,.06-.37,2.47,2.47,0,0,0,.11-.47,1.33,1.33,0,0,1,0-.19.17.17,0,0,1,.17-.13h0a2.4,2.4,0,0,0,.6,0c.2,0,.29.07.27.26a5.6,5.6,0,0,1-.24,1.15c0,.05,0,.11,0,.16v.09a.12.12,0,0,0,.14.09h0l.06-.05a.6.6,0,0,1,.25-.13.33.33,0,0,0,.14,0,1.37,1.37,0,0,1,.45-.07,1.39,1.39,0,0,1,.67.1.75.75,0,0,1,.43.39,1.8,1.8,0,0,1,.08.21l.06.23a.55.55,0,0,1,0,.22c-.07.35-.14.69-.2,1a1,1,0,0,1,0,.14,3.71,3.71,0,0,0-.11.58,2.77,2.77,0,0,1-.1.5c0,.14-.06.28-.1.42l0,.17a.27.27,0,0,1-.29.22h-.31Z" transform="translate(0 0)"/><path id="Path_270" data-name="Path 270" d="M115,22.9h-.4c-.28,0-.55,0-.83,0a.19.19,0,0,0-.22.17v.06a.63.63,0,0,0,.1.27,1.62,1.62,0,0,0,.31.33.42.42,0,0,0,.24.09h.11a.54.54,0,0,0,.45-.15l.33-.32a.36.36,0,0,1,.28-.11,3,3,0,0,0,.6,0h0a.18.18,0,0,1,.17.19.41.41,0,0,1,0,.19,2.59,2.59,0,0,1-.6.76.47.47,0,0,1-.09.06,1.82,1.82,0,0,1-.75.26l-.22,0a1.25,1.25,0,0,1-.51,0l-.28,0a.63.63,0,0,1-.27-.1l-.12-.07a1,1,0,0,1-.43-.37,2.43,2.43,0,0,1-.3-.52.7.7,0,0,1,0-.25v-.91a.54.54,0,0,1,0-.22c0-.11.08-.21.12-.32a1.82,1.82,0,0,1,.37-.7,2.16,2.16,0,0,1,.66-.58l.16-.07.21-.06a.78.78,0,0,1,.37-.06h.37a.91.91,0,0,1,.33,0,.78.78,0,0,0,.25.07.55.55,0,0,1,.31.14l.18.13a1.48,1.48,0,0,1,.26.3,1.32,1.32,0,0,1,.25.69,2.43,2.43,0,0,1,0,.85.74.74,0,0,1,0,.14.17.17,0,0,1-.17.12h-.09C115.71,22.88,115.36,22.89,115,22.9Zm-.56-.83h.71a.22.22,0,0,0,.18-.19.49.49,0,0,0-.21-.44.72.72,0,0,0-.65-.09l-.17.05-.19.11-.27.25-.05.08a.17.17,0,0,0,.09.21h.56Z" transform="translate(0 0)"/><path id="Path_271" data-name="Path 271" d="M84.56,24.64h-.34a.47.47,0,0,1-.26-.11l0,0a.21.21,0,0,0-.29-.07.23.23,0,0,0-.07.07.51.51,0,0,1-.3.15l-.37.06a.32.32,0,0,1-.14,0,3.54,3.54,0,0,1-.45-.08l-.21-.08a1.25,1.25,0,0,0-.12-.08.9.9,0,0,1-.4-.5,1.34,1.34,0,0,1,0-.84,1.38,1.38,0,0,1,.32-.5.87.87,0,0,1,.28-.19.2.2,0,0,0,.08,0,1.37,1.37,0,0,1,.65-.2,1.34,1.34,0,0,0,.39-.07h.09l.62-.07c.2,0,.47-.24.4-.48a.31.31,0,0,0,0-.1.66.66,0,0,0-.58-.31.32.32,0,0,0-.16,0,.93.93,0,0,0-.46.37,1,1,0,0,1-.08.11.34.34,0,0,1-.3.14H82.3a.6.6,0,0,1-.19-.06.2.2,0,0,1-.07-.18c.06-.15.11-.3.18-.45a1.33,1.33,0,0,1,.5-.5.57.57,0,0,1,.29-.11l.22-.05a1,1,0,0,1,.42-.06h.51a.92.92,0,0,1,.37.05,1.27,1.27,0,0,0,.28.06.52.52,0,0,1,.23.1l.17.15a.79.79,0,0,1,.26.53,1.7,1.7,0,0,1,0,.45c0,.14,0,.29,0,.43a1.34,1.34,0,0,1-.1.44,1.34,1.34,0,0,0-.1.44,1.89,1.89,0,0,1-.12.67,1.32,1.32,0,0,0-.08.65c0,.14,0,.24-.23.25ZM84.13,23a.13.13,0,0,0,0-.06.15.15,0,0,0-.18-.13h0l-.1,0a.94.94,0,0,1-.36.08h-.17c-.36,0-.37.06-.58.33,0,0,0,0,0,0a.74.74,0,0,0,0,.14.39.39,0,0,0,.16.34.85.85,0,0,0,.34.14h.09a.81.81,0,0,0,.59-.3c.09-.12.17-.25.25-.38a.4.4,0,0,0,0-.24Z" transform="translate(0 0)"/><path id="Path_272" data-name="Path 272" d="M140.86,20.42H141a1.07,1.07,0,0,1,.53.07l.16,0a.81.81,0,0,1,.63.4l.09.14a.55.55,0,0,1,.07.24,1.8,1.8,0,0,1,0,.52c0,.12-.06.24-.08.36s-.06.3-.08.45a1.8,1.8,0,0,1-.08.39,3,3,0,0,0-.15.72,2.36,2.36,0,0,1,0,.28.56.56,0,0,0,0,.34v0a.2.2,0,0,1-.15.23h-.64a.34.34,0,0,1-.27-.13l0-.05c-.07-.12-.15-.09-.24,0l-.1.07a.69.69,0,0,1-.41.17l-.17,0a1.43,1.43,0,0,1-.65,0,1.29,1.29,0,0,1-.64-.41.62.62,0,0,1-.12-.19l-.06-.16a.7.7,0,0,1,0-.53l.06-.25a.76.76,0,0,1,.17-.32,1.74,1.74,0,0,1,.42-.34,1.24,1.24,0,0,1,.7-.22l.14,0c.31-.06.62-.1.93-.13a.64.64,0,0,0,.47-.34.24.24,0,0,0,0-.29,2.25,2.25,0,0,0-.36-.24.32.32,0,0,0-.14,0,.7.7,0,0,0-.46.12l-.13.1a.8.8,0,0,0-.15.17l-.06.13a.25.25,0,0,1-.16.11l-.17,0h-.54a.19.19,0,0,1-.17-.17.56.56,0,0,1,.08-.38,1.91,1.91,0,0,1,.6-.63.52.52,0,0,1,.27-.1l.25-.07a1.23,1.23,0,0,1,.39-.06h.25Zm-1.21,2.94v.17a.32.32,0,0,0,.19.27.94.94,0,0,0,.47.06.78.78,0,0,0,.49-.27l.06-.06a.49.49,0,0,0,.11-.2,1.66,1.66,0,0,1,.14-.37.08.08,0,0,0,0-.05.11.11,0,0,0-.07-.14H141a2.6,2.6,0,0,1-.78.13.51.51,0,0,0-.53.46Z" transform="translate(0 0)"/><path id="Path_273" data-name="Path 273" d="M104.44,21.64v.2a1.7,1.7,0,0,1-.1.59,1.44,1.44,0,0,0-.1.5,1.87,1.87,0,0,1-.15.66,1.68,1.68,0,0,0-.08.59v.26a.21.21,0,0,1-.21.2h-.63a.27.27,0,0,1-.22-.1l-.11-.14a.12.12,0,0,0-.15,0,.69.69,0,0,0-.13.11.51.51,0,0,1-.23.12,3.55,3.55,0,0,1-.47.09,1.6,1.6,0,0,1-.75-.15c-.09,0-.16-.1-.25-.15h0a1,1,0,0,1-.31-.63c0-.15,0-.3,0-.45a.64.64,0,0,1,.1-.33,2.11,2.11,0,0,1,.3-.37,1.1,1.1,0,0,1,.25-.19l.13-.07a.61.61,0,0,1,.35-.11.71.71,0,0,0,.2,0c.31-.06.63-.09.95-.15a2.66,2.66,0,0,1,.28,0,.29.29,0,0,0,.25-.21.85.85,0,0,0,0-.23.28.28,0,0,0-.11-.22,1.23,1.23,0,0,0-.31-.19.45.45,0,0,0-.36,0,1,1,0,0,0-.49.42.36.36,0,0,1-.4.2,2.28,2.28,0,0,0-.37,0,.59.59,0,0,1-.23,0,.17.17,0,0,1-.1-.23h0c0-.05,0-.09.07-.13a2,2,0,0,0,.11-.26.65.65,0,0,1,.17-.26,1.5,1.5,0,0,1,.46-.33.11.11,0,0,1,.08,0,1.91,1.91,0,0,0,.41-.11.85.85,0,0,1,.23,0h.57a1.49,1.49,0,0,1,.36,0l.31.07a.43.43,0,0,1,.23.1,3.64,3.64,0,0,1,.34.34.43.43,0,0,1,.08.24v.43Zm-2.23,2.23h.12l.16,0a.69.69,0,0,0,.42-.36c0-.1.11-.2.17-.3a.35.35,0,0,0,.06-.24l0-.11a.15.15,0,0,0-.15-.07l0,0a1.17,1.17,0,0,1-.55.13l-.23,0a.34.34,0,0,0-.21.08c-.09.08-.17.17-.26.26a.24.24,0,0,0,0,.22.27.27,0,0,0,.06.12.67.67,0,0,0,.53.29Z" transform="translate(0 0)"/><path id="Path_274" data-name="Path 274" d="M119.69,20.53h.4a.14.14,0,0,1,.13.13.75.75,0,0,1,0,.15,3,3,0,0,1-.1.32,1.67,1.67,0,0,0-.12.62,1.23,1.23,0,0,1-.07.42,1.89,1.89,0,0,0-.11.47,2.43,2.43,0,0,1-.1.59.29.29,0,0,0,0,.22.83.83,0,0,0,.08.12.46.46,0,0,0,.63.14h0l.18-.1a.77.77,0,0,0,.18-.18,1.88,1.88,0,0,0,.16-.23.52.52,0,0,0,.1-.27,1.83,1.83,0,0,1,.12-.46,1.38,1.38,0,0,0,.09-.39,2.32,2.32,0,0,1,.15-.73,1.62,1.62,0,0,0,.07-.44c0-.08,0-.16,0-.23a.15.15,0,0,1,.11-.12h.94a.12.12,0,0,1,.13.12.13.13,0,0,1,0,.06,1.61,1.61,0,0,0-.1.53,1.75,1.75,0,0,1-.12.55,1.16,1.16,0,0,0-.07.37,2.44,2.44,0,0,1-.15.75,1.1,1.1,0,0,0-.07.36,2.94,2.94,0,0,1-.17.78,1,1,0,0,0-.07.3.32.32,0,0,1,0,.14.17.17,0,0,1-.11.12l-.14,0h-.57a.25.25,0,0,1-.23-.15l-.07-.16a.08.08,0,0,0-.1,0,1,1,0,0,0-.2.15.84.84,0,0,1-.44.2,1.94,1.94,0,0,1-.76,0,.92.92,0,0,1-.49-.27,1,1,0,0,1-.3-.69,1.92,1.92,0,0,1,.1-.75,2.23,2.23,0,0,0,.14-.67,1.58,1.58,0,0,1,.09-.42,2.13,2.13,0,0,0,.12-.61,5.07,5.07,0,0,1,.09-.54l0-.08a.17.17,0,0,1,.13-.1h.47Z" transform="translate(0 0)"/><path id="Path_275" data-name="Path 275" d="M150.24,20.42h0a2.11,2.11,0,0,1,.87.12l.1,0a1.29,1.29,0,0,1,.52.59.58.58,0,0,1,0,.5.23.23,0,0,1-.24.1h-.34a.48.48,0,0,1-.17,0,.27.27,0,0,1-.27-.18.74.74,0,0,0-.29-.34.43.43,0,0,0-.44,0,2.19,2.19,0,0,0-.3.16.25.25,0,0,0,0,.34l.06.05,0,0c.22.09.44.17.67.24l.27.1.26.12a.87.87,0,0,1,.32.22l.15.18a.64.64,0,0,1,.15.44c0,.15,0,.29,0,.43a.46.46,0,0,1-.06.28,1.67,1.67,0,0,1-.34.45.78.78,0,0,1-.33.21.76.76,0,0,0-.18.09,1.19,1.19,0,0,1-.41.11,1.55,1.55,0,0,0-.31,0,.88.88,0,0,1-.28,0l-.48-.06a.7.7,0,0,1-.35-.12l0,0a1.39,1.39,0,0,1-.59-.56.77.77,0,0,1-.09-.63.23.23,0,0,1,.25-.12,1.25,1.25,0,0,0,.43,0h.14a.18.18,0,0,1,.18.12,1.34,1.34,0,0,1,.07.18.38.38,0,0,0,.24.27.76.76,0,0,1,.16.06.74.74,0,0,0,.73-.1.38.38,0,0,0,.15-.45.22.22,0,0,0-.11-.12L150,23l-.24-.08-.27-.08a1,1,0,0,0-.37-.13.38.38,0,0,1-.18-.09l-.27-.26a.69.69,0,0,1-.17-.41,2,2,0,0,1,0-.54.64.64,0,0,1,.14-.34,1.2,1.2,0,0,1,.36-.35l.12-.09a.44.44,0,0,1,.23-.1,1,1,0,0,0,.25-.06,1.12,1.12,0,0,1,.36,0h.27Z" transform="translate(0 0)"/><path id="Path_276" data-name="Path 276" d="M106.62,22.88v-.32a1.52,1.52,0,0,1,.1-.47,1.17,1.17,0,0,0,.09-.24,2,2,0,0,1,.73-1.06l.21-.15a2.45,2.45,0,0,1,.54-.18.74.74,0,0,1,.33-.05h.23a1.32,1.32,0,0,1,.59.08l.08,0a.51.51,0,0,1,.32.1,1.32,1.32,0,0,1,.45.43.83.83,0,0,0,.08.12,1.05,1.05,0,0,1,.15.6.2.2,0,0,1-.18.22h0a2.58,2.58,0,0,0-.68,0,.19.19,0,0,1-.18-.13l-.06-.19a.48.48,0,0,0-.27-.27l-.08,0a.66.66,0,0,0-.78.18,1.51,1.51,0,0,0-.21.23.7.7,0,0,0-.15.34c0,.12-.07.23-.1.35a1.75,1.75,0,0,0-.06.6.61.61,0,0,0,0,.11,1.73,1.73,0,0,0,.2.41.45.45,0,0,0,.35.21.58.58,0,0,0,.41-.07,1.23,1.23,0,0,0,.31-.29,2.83,2.83,0,0,0,.2-.28.21.21,0,0,1,.2-.09,2.36,2.36,0,0,0,.65,0h.06a.16.16,0,0,1,.14.12.24.24,0,0,1,0,.22c-.12.2-.25.41-.38.6a2.09,2.09,0,0,1-1,.64l-.22,0-.23,0a1.08,1.08,0,0,1-.31,0l-.31-.05a1,1,0,0,1-.43-.14l0,0a1.22,1.22,0,0,1-.62-.7l0-.1a1.08,1.08,0,0,1-.11-.61,1.34,1.34,0,0,0,0-.2Z" transform="translate(0 0)"/><path id="Path_277" data-name="Path 277" d="M132.78,22.89v-.23a1.46,1.46,0,0,1,.11-.55.78.78,0,0,0,.05-.14,2.63,2.63,0,0,1,.25-.6.83.83,0,0,1,.13-.18l.32-.33a1.72,1.72,0,0,1,.35-.25.55.55,0,0,1,.18-.06,1.07,1.07,0,0,0,.27-.09.68.68,0,0,1,.28,0h.4a1.07,1.07,0,0,1,.4,0,.83.83,0,0,0,.27.07.37.37,0,0,1,.23.1,2,2,0,0,1,.54.58,1,1,0,0,1,.12.58.18.18,0,0,1-.16.17.34.34,0,0,1-.14,0,2.68,2.68,0,0,0-.49,0,.21.21,0,0,1-.11,0,.19.19,0,0,1-.18-.13.75.75,0,0,1,0-.16.43.43,0,0,0-.24-.27.81.81,0,0,0-.74,0l0,0a1.31,1.31,0,0,0-.46.67,4.05,4.05,0,0,1-.12.47l0,.14a1,1,0,0,0,.33,1,.45.45,0,0,0,.31.12.66.66,0,0,0,.44-.17,2.79,2.79,0,0,0,.28-.32c.18-.24.16-.25.47-.24a2.68,2.68,0,0,0,.49,0c.21,0,.26.14.21.29a.31.31,0,0,1-.05.1l-.18.32a1.63,1.63,0,0,1-.71.69,1.4,1.4,0,0,0-.17.09l-.22.07-.59.09a.47.47,0,0,1-.17,0l-.42-.06a.77.77,0,0,1-.3-.11,2.35,2.35,0,0,1-.47-.36,1.21,1.21,0,0,1-.24-.39c0-.05,0-.11,0-.16a1.21,1.21,0,0,1-.09-.53v-.2Z" transform="translate(0 0)"/><path id="Path_278" data-name="Path 278" d="M126.09,24.65h-.28a.82.82,0,0,1-.58-.21l-.13-.11A.43.43,0,0,1,125,24a3.48,3.48,0,0,1,.12-1,2.66,2.66,0,0,0,.12-.56,2.27,2.27,0,0,1,.16-.72.47.47,0,0,0,0-.33.17.17,0,0,0-.18-.11l-.17,0a.21.21,0,0,1-.11,0,.17.17,0,0,1-.13-.1.41.41,0,0,1,0-.11,1.82,1.82,0,0,1,.1-.45.19.19,0,0,1,.14-.12h.43a.19.19,0,0,0,.18-.16.19.19,0,0,0,0-.08,3.06,3.06,0,0,1,.15-.73l.06-.21a.14.14,0,0,1,.13-.1.06.06,0,0,1,.06,0,3.53,3.53,0,0,0,.65,0c.16,0,.24,0,.23.21a2.1,2.1,0,0,1-.14.66c0,.07,0,.13-.07.19a.19.19,0,0,0,.12.23h.2a.88.88,0,0,1,.23,0c.14,0,.18.08.16.21a2.8,2.8,0,0,0-.06.28.19.19,0,0,1,0,.08.24.24,0,0,1-.23.21h-.4a.23.23,0,0,0-.22.2v0a2,2,0,0,1-.13.64,1.42,1.42,0,0,0-.08.5.91.91,0,0,1,0,.17.7.7,0,0,1-.11.38l0,.1a.14.14,0,0,0,0,.14.46.46,0,0,0,.2.19.31.31,0,0,0,.13,0h.2a.18.18,0,0,1,.17.17.68.68,0,0,1,0,.14,1,1,0,0,0-.1.38s0,.06,0,.08a.2.2,0,0,1-.18.16h-.42Z" transform="translate(0 0)"/><path id="Path_279" data-name="Path 279" d="M145,24.63h-.41a.17.17,0,0,1-.13-.14,1,1,0,0,1,0-.17,2,2,0,0,1,.09-.35,4.89,4.89,0,0,0,.14-.64,5,5,0,0,1,.14-.67,1.51,1.51,0,0,0,.06-.37,3.16,3.16,0,0,1,.1-.5,5.75,5.75,0,0,0,.15-.72,1.19,1.19,0,0,1,.09-.36,1.15,1.15,0,0,0,.08-.41,1.41,1.41,0,0,1,.12-.64,1.55,1.55,0,0,0,.08-.36l0-.2a.19.19,0,0,1,.17-.14h.11a2,2,0,0,0,.54,0h.09a.19.19,0,0,1,.19.18v0a3.11,3.11,0,0,1-.09.6c-.06.23-.11.48-.15.72a5.32,5.32,0,0,1-.16.69,1.41,1.41,0,0,0-.07.45,1.27,1.27,0,0,1-.06.39,5.19,5.19,0,0,0-.19.87,2,2,0,0,1-.09.33,1,1,0,0,0-.07.36,2.13,2.13,0,0,1-.1.56,3.18,3.18,0,0,0-.09.33.29.29,0,0,1-.28.2A1.6,1.6,0,0,0,145,24.63Z" transform="translate(0 0)"/><path id="Path_280" data-name="Path 280" d="M88.76,20.54h.35a.19.19,0,0,1,.16.1.75.75,0,0,0,.07.12.11.11,0,0,0,.15,0l.05,0a.63.63,0,0,1,.38-.23,1.16,1.16,0,0,1,.41-.09,1.26,1.26,0,0,0,.28-.05.2.2,0,0,1,.18.12.53.53,0,0,1,0,.25,3.49,3.49,0,0,1-.2.72l0,.07a.13.13,0,0,1-.12.06l-.17,0a.89.89,0,0,0-.82.22,1.82,1.82,0,0,0-.29.38.44.44,0,0,0-.06.16,1.42,1.42,0,0,1-.11.35,1.53,1.53,0,0,0-.11.47c0,.12,0,.23,0,.34a.74.74,0,0,1-.08.3,1.58,1.58,0,0,0-.09.42,1,1,0,0,1,0,.25.23.23,0,0,1-.17.18l-.2,0h-.49a.38.38,0,0,1-.21-.05.14.14,0,0,1-.08-.19,2,2,0,0,0,.13-.58l.09-.42a4.54,4.54,0,0,0,.09-.51,2.42,2.42,0,0,1,.14-.7A1.33,1.33,0,0,0,88,22c0-.1,0-.21,0-.31a1.53,1.53,0,0,1,.11-.47,1.39,1.39,0,0,0,.1-.53.11.11,0,0,1,0-.08.17.17,0,0,1,.06-.06,1.76,1.76,0,0,1,.46,0Z" transform="translate(0 0)"/><path id="Path_281" data-name="Path 281" d="M130.27,20.54a1.4,1.4,0,0,1,.5,0,.14.14,0,0,1,.1.13v0a5.59,5.59,0,0,1-.08.59,1.26,1.26,0,0,1-.1.33,1.63,1.63,0,0,0-.09.45,1.68,1.68,0,0,1-.12.66,1.19,1.19,0,0,0-.09.36l0,.29a1.17,1.17,0,0,1-.08.36,1.61,1.61,0,0,0-.1.53,1.22,1.22,0,0,1,0,.17.21.21,0,0,1-.16.17l-.2,0h-.52a.59.59,0,0,1-.22-.05.14.14,0,0,1-.07-.17,1.87,1.87,0,0,0,.15-.66,1.53,1.53,0,0,1,.11-.47,1.15,1.15,0,0,0,.07-.36,2.55,2.55,0,0,1,.14-.73.67.67,0,0,0,.05-.19,2.85,2.85,0,0,0,0-.29,2.1,2.1,0,0,1,.13-.55.85.85,0,0,0,.08-.42v-.08a.15.15,0,0,1,.14-.15h0Z" transform="translate(0 0)"/><path id="Path_282" data-name="Path 282" d="M130.69,19H131a.2.2,0,0,1,.19.21v0a.2.2,0,0,1,0,.11,1.44,1.44,0,0,0-.13.4.78.78,0,0,1-.05.14.19.19,0,0,1-.2.12h-.05c-.23,0-.46,0-.68,0a.15.15,0,0,1-.13-.13.34.34,0,0,1,0-.14c0-.15.05-.3.08-.45a.08.08,0,0,1,0,0,.3.3,0,0,1,.26-.2h.39Z" transform="translate(0 0)"/></g></svg>