<svg id="Vrstva_1" data-name="Vrstva 1" xmlns="http://www.w3.org/2000/svg" viewBox="0 0 83.15 15.92"><path d="M44.69,15.48l.06.16v.16l-.26.07h-.24a1,1,0,0,1-.41-.08.86.86,0,0,1-.29-.21.92.92,0,0,1-.18-.32,1.34,1.34,0,0,1-.06-.4,1.4,1.4,0,0,1,.06-.41.92.92,0,0,1,.18-.32.86.86,0,0,1,.29-.21,1.1,1.1,0,0,1,.4-.08h.24a1.09,1.09,0,0,1,.24.07.43.43,0,0,1,0,.16l-.06.16h-.35a.48.48,0,0,0-.4.17.84.84,0,0,0-.14.51c0,.45.19.67.57.67h.18Z"/><path d="M46.08,13.88h.76a.82.82,0,0,1,.26.1.54.54,0,0,1,.15.22.63.63,0,0,1,.07.3.61.61,0,0,1,0,.19,1,1,0,0,1-.07.15l-.09.11-.09.07h0l.48.83H47l-.51-.91h.16l.11-.08a.31.31,0,0,0,.09-.11.36.36,0,0,0-.06-.41.44.44,0,0,0-.25-.08h-.11v1.66H46Z"/><path d="M48.72,13.88h1.12a.49.49,0,0,1,0,.17.49.49,0,0,1,0,.17h-.72v.43h.57a.49.49,0,0,1,0,.17.49.49,0,0,1,0,.17h-.57v.52h.74a.49.49,0,0,1,0,.17.49.49,0,0,1,0,.17H48.72Z"/><path d="M51.61,13.88h.45l.62,2h-.42l-.11-.39H51.5l-.11.39H51ZM52,15.12l-.23-.83-.24.83Z"/><path d="M54.06,14.2h-.49a.49.49,0,0,1,0-.17.49.49,0,0,1,0-.17H55V14a.49.49,0,0,1,0,.17h-.49V15.8h-.4Z"/><path d="M56.25,13.88h.4v2h-.4Z"/><path d="M58,13.88h.33l.76,1.25V13.88h.35v2h-.33l-.77-1.25v1.25H58Z"/><path d="M61.86,14.83h.4v1a1.09,1.09,0,0,1-.3.07h-.27a1.2,1.2,0,0,1-.42-.08.9.9,0,0,1-.3-.21.92.92,0,0,1-.18-.32,1.34,1.34,0,0,1-.06-.4,1.4,1.4,0,0,1,.06-.41.92.92,0,0,1,.18-.32.86.86,0,0,1,.29-.21,1.1,1.1,0,0,1,.4-.08h.24a1.09,1.09,0,0,1,.24.07.43.43,0,0,1,0,.16l-.09.1H61.7a.48.48,0,0,0-.4.17.84.84,0,0,0-.14.51.81.81,0,0,0,.14.5.49.49,0,0,0,.41.17h.15Z"/><path d="M66.47,15.48l.06.16v.16l-.26.07H66a1,1,0,0,1-.41-.08.86.86,0,0,1-.29-.21.92.92,0,0,1-.18-.32,1.34,1.34,0,0,1-.06-.4,1.4,1.4,0,0,1,.06-.41.92.92,0,0,1,.18-.32.86.86,0,0,1,.29-.21,1.1,1.1,0,0,1,.4-.08h.24a1.09,1.09,0,0,1,.24.07.43.43,0,0,1,0,.16l-.06.16H66a.48.48,0,0,0-.4.17.84.84,0,0,0-.14.51c0,.45.19.67.57.67h.15Z"/><path d="M68.56,15.88a1,1,0,0,1-.38-.08.71.71,0,0,1-.27-.21.94.94,0,0,1-.15-.32,1.67,1.67,0,0,1,0-.81.94.94,0,0,1,.15-.32.71.71,0,0,1,.27-.21,1,1,0,0,1,.77,0,.71.71,0,0,1,.27.21.94.94,0,0,1,.15.32,1.67,1.67,0,0,1,0,.81.94.94,0,0,1-.15.32.71.71,0,0,1-.27.21A.88.88,0,0,1,68.56,15.88Zm0-.33c.28,0,.42-.23.42-.68a1,1,0,0,0-.1-.51.35.35,0,0,0-.32-.17c-.29,0-.43.23-.43.68S68.27,15.55,68.56,15.55Z"/><path d="M70.78,13.88h.42L71.65,15l.47-1.13h.39l.09,2h-.38V14.54l-.4.93h-.31l-.37-.94v1.35h-.35Z"/><path d="M73.94,13.88h1.12a.49.49,0,0,1,0,.17.49.49,0,0,1,0,.17h-.72v.46h.57a.49.49,0,0,1,0,.17.49.49,0,0,1,0,.17h-.57v.82h-.4Z"/><path d="M77.11,15.88a1,1,0,0,1-.38-.08.71.71,0,0,1-.27-.21.94.94,0,0,1-.15-.32,1.67,1.67,0,0,1,0-.81.94.94,0,0,1,.15-.32.71.71,0,0,1,.27-.21,1,1,0,0,1,.77,0,.71.71,0,0,1,.27.21.94.94,0,0,1,.15.32,1.67,1.67,0,0,1,0,.81.94.94,0,0,1-.15.32.71.71,0,0,1-.27.21A.88.88,0,0,1,77.11,15.88Zm0-.33c.28,0,.42-.23.42-.68a1,1,0,0,0-.1-.51.35.35,0,0,0-.32-.17c-.29,0-.43.23-.43.68S76.82,15.55,77.11,15.55Z"/><path d="M79.25,13.88H80a.82.82,0,0,1,.26.1.58.58,0,0,1,.19.19.63.63,0,0,1,.07.3.61.61,0,0,1,0,.19,1,1,0,0,1-.07.15l-.09.11-.09.07h0l.48.83H80.3l-.51-.91H80l.11-.08a.31.31,0,0,0,.09-.11.36.36,0,0,0-.06-.41.44.44,0,0,0-.25-.08h-.11v1.66h-.49Z"/><path d="M82.25,14.2h-.49a.49.49,0,0,1,0-.17.49.49,0,0,1,0-.17h1.39a.49.49,0,0,1,0,.17.49.49,0,0,1,0,.17h-.49v1.63h-.41Z"/><path d="M80.56,1.46V7.89l-4.1-6.43H73.25V11.79h2.44V5l4.24,6.79h3V1.46ZM63.73,6.62a2.9,2.9,0,1,1,2.91,2.91A2.87,2.87,0,0,1,63.73,6.7h0V6.62m-2.48,0a5.37,5.37,0,1,0,5.37-5.37,5.36,5.36,0,0,0-5.37,5.37h0m-4.6-3.05A1.26,1.26,0,0,1,58,4.79h0C58,5.37,57.6,6,56.39,6h-1.3V3.57Zm1.42,8.22H61L58.69,7.72a3.29,3.29,0,0,0,1.86-3A3.44,3.44,0,0,0,57,1.45h-4.4V11.79h2.54V8.2h1.16ZM43.49,1.46V3.57h2.76v8.22h2.58V3.57h2.92V1.46Zm-5.67-.21H38a5.32,5.32,0,0,1,5.37,5.27h0v.1a5.37,5.37,0,0,1-10.74,0q0-.41,0-.81l2.42.74v.07a2.9,2.9,0,1,0,3.22-2.86ZM28.74,9.68V1.46H26.15V11.79h6.43V9.68ZM21,3.57c.77,0,1.17.44,1.17,1s-.49,1-1.25,1H19.43v-2Zm0,4.1c.74,0,1.31.44,1.31,1s-.55,1-1.31,1H19.4v-2Zm-4.1,4.12H21c2.18,0,3.93-1.25,3.93-2.86a2.48,2.48,0,0,0-2-2.45A2.43,2.43,0,0,0,24.7,4c0-1.58-1.28-2.57-3.7-2.57H16.89ZM10.74,4.2,12,7.79H9.5Zm1.45-2.75H9.34L5.46,11.79H8.11L8.76,9.9H12.7l.66,1.89h2.89ZM0,11.79A10.88,10.88,0,0,0,1.71,12c2.6,0,3.54-1.45,3.54-3.75V1.46H2.73V7.6c0,1.68-.69,2.1-1.51,2.1A4.37,4.37,0,0,1,.14,9.57Z"/><path d="M38.07,6.68,36.68,0a6.66,6.66,0,0,0-5.12,4.6Z"/></svg>