<?xml version="1.0" encoding="UTF-8"?> <svg xmlns="http://www.w3.org/2000/svg" width="140" height="26.71" viewBox="0 0 140 26.71"><g id="jablotron" transform="translate(-352.018 777.645)"><g id="g8086" transform="translate(352.018 -775.531)"><path id="path8088" d="M-43.638-.112V10.731L-50.552-.112H-55.9V17.3h4.1V5.857L-44.657,17.3h5.073V-.112Zm-28.352,8.7a4.841,4.841,0,0,1,4.9-4.874,4.819,4.819,0,0,1,4.874,4.874,4.841,4.841,0,0,1-4.874,4.9,4.862,4.862,0,0,1-4.9-4.9m-4.153,0a8.959,8.959,0,0,0,9.053,9.051,8.959,8.959,0,0,0,9.053-9.051A8.96,8.96,0,0,0-67.09-.46a8.96,8.96,0,0,0-9.053,9.053M-83.9,3.444a2.128,2.128,0,0,1,2.163,2.065c0,.97-.6,2.113-2.636,2.113h-2.187V3.444H-83.9ZM-81.514,17.3h4.949l-3.93-6.863A5.548,5.548,0,0,0-77.36,5.385c0-2.761-2.363-5.5-6.217-5.5H-90.84V17.3h4.278V11.179h1.939l3.109,6.117ZM-106.11-.112V3.444h4.626V17.3h4.353V3.444h4.924V-.112h-13.9Zm-9.549-.348h.323a8.96,8.96,0,0,1,9.052,9.053,8.959,8.959,0,0,1-9.052,9.051,8.959,8.959,0,0,1-9.053-9.051,12.535,12.535,0,0,1,.074-1.368l4.08,1.244v.124a4.861,4.861,0,0,0,4.9,4.9,4.841,4.841,0,0,0,4.874-4.9,4.836,4.836,0,0,0-4.352-4.825l-.846-4.228Zm-15.294,14.2V-.112h-4.378V17.3h10.843V13.741Zm-13.007-10.3c1.293,0,1.964.747,1.964,1.692s-.82,1.666-2.114,1.666h-2.535V3.444h2.685Zm0,6.915c1.243,0,2.213.746,2.213,1.691s-.92,1.691-2.213,1.691h-2.685V10.359h2.685Zm-6.964,6.937h6.964c3.681,0,6.616-2.113,6.616-4.824a4.182,4.182,0,0,0-3.307-4.129,4.1,4.1,0,0,0,2.934-4.128c0-2.661-2.163-4.327-6.243-4.327h-6.964V17.3Zm-10.37-12.782,2.089,6.043h-4.178Zm2.436-4.626h-4.8L-170.2,17.3h4.476l1.094-3.183h6.64l1.119,3.183h4.824ZM-179.4,17.3a18.24,18.24,0,0,0,2.885.274c4.377,0,6.018-2.437,6.018-6.291V-.112h-4.3V10.234c0,2.835-1.169,3.532-2.536,3.532a7.534,7.534,0,0,1-1.816-.224Z" transform="translate(179.399 0.46)"></path></g><g id="g8090" transform="translate(405.212 -777.645)"><path id="path8092" d="M-3.525-3.621-5.863-14.887a11.223,11.223,0,0,0-8.63,7.759Z" transform="translate(14.493 14.887)"></path></g><g id="g8094" transform="translate(429.913 -754.385)"><path id="path8096" d="M-19.693-.777c0,.195-.228.294-.528.294A2.252,2.252,0,0,1-20.875-.6L-20.9.163a4.358,4.358,0,0,0,.931.094,1.019,1.019,0,0,0,1.12-1.062c0-.974-1.285-.912-1.285-1.387,0-.2.227-.257.484-.257a1.573,1.573,0,0,1,.612.119l.029-.764a2.976,2.976,0,0,0-.779-.1,1.049,1.049,0,0,0-1.182,1.03c0,1.05,1.283.936,1.283,1.387M-25.129.2h.8l.722-2.112V.2h.807V-3.127h-1.111l-.817,2.255-.831-2.255h-1.1V.2h.783V-1.912Zm-4.62-2.645a.406.406,0,0,1,.413.395c0,.185-.114.4-.5.4h-.418v-.8ZM-29.293.2h.944L-29.1-1.115a1.058,1.058,0,0,0,.6-.964,1.107,1.107,0,0,0-1.187-1.049h-1.386V.2h.816V-.972h.371Zm-5.162-2.44.4,1.154h-.8Zm.466-.883H-34.9L-36.153.2h.854l.209-.608h1.268l.214.608h.921ZM-38.494-.483V-3.127h-.834V.2h2.069V-.483Zm-4.216-1.761.4,1.154h-.8Zm.466-.883h-.916L-44.41.2h.855l.209-.608h1.267l.214.608h.921l-1.3-3.323ZM-49.3-1.466h-.806v.959a.916.916,0,0,1-1.027-.95.939.939,0,0,1,.984-.969,2.088,2.088,0,0,1,.768.118l.03-.788a2.992,2.992,0,0,0-.831-.1,1.694,1.694,0,0,0-1.746,1.743A1.674,1.674,0,0,0-50.145.257a3.487,3.487,0,0,0,.844-.1Zm-5.193-1.661v2.07l-1.32-2.07h-1.02V.2h.783V-1.987L-54.688.2h.968V-3.127ZM-59.645.2h.816V-3.127h-.816Zm-4.363-3.323v.678h.883V.2h.83V-2.449h.94v-.678Zm-2.764.883.4,1.154h-.8l.4-1.154Zm.466-.883h-.916L-68.472.2h.855l.209-.608h1.267l.214.608H-65ZM-72.2.2h2.207V-.483h-1.391v-.651h1.344v-.678h-1.344v-.637h1.391v-.678H-72.2Zm-3.086-2.645a.406.406,0,0,1,.413.395c0,.185-.113.4-.5.4h-.418v-.8ZM-74.828.2h.945l-.749-1.311a1.058,1.058,0,0,0,.6-.964,1.107,1.107,0,0,0-1.187-1.049h-1.386V.2h.816V-.972h.371L-74.828.2Zm-3.661-.821a1.859,1.859,0,0,1-.659.118.937.937,0,0,1-1.012-.95.938.938,0,0,1,.984-.969,1.6,1.6,0,0,1,.673.118l.029-.788a2.458,2.458,0,0,0-.735-.1,1.7,1.7,0,0,0-1.748,1.747A1.686,1.686,0,0,0-79.21.257a2.809,2.809,0,0,0,.749-.094l-.028-.788Z" transform="translate(80.958 3.194)"></path></g></g></svg> 