<svg id="layer" xmlns="http://www.w3.org/2000/svg" viewBox="0 0 600 209.2"><path d="M228.1,181h13.1c7.7,0,11.6,4,11.6,9.2,0,5.4-4.6,8.9-11.1,8.9h-7.3v9.3h-6.3V181m6.4,13.8h6.1c3.9,0,5.8-1.9,5.8-4.6,0-3.9-2.4-4.9-6-4.9h-5.9Z"/><path d="M269.1,181h7.2l11,27.4h-6.5l-1.9-5.3H266.4l-1.9,5.3H258L269.1,181m3.6,5h0L268,198.5h9.2Z"/><path d="M294.9,181h13.7c7,0,11.1,3.5,11.1,8.2,0,6.2-5,7.6-6.6,8.1l7.3,11.1h-7.2l-6.4-10.1h-5.9v10.1h-6.2l.2-27.4m6.1,12.8h6.8c3.1,0,5.4-1.5,5.4-4.1s-2-4.1-6.4-4.1H301Z"/><rect x="329" y="181" width="6.2" height="27.4"/><path d="M348.4,200.2c2.3,2.8,5.9,4.1,9.9,4.1,3,0,7-.8,7-3.5,0-2.2-2.4-2.8-6.8-3.6l-3.7-.7c-5.3-.9-9.9-2.6-9.9-7.6,0-5.8,6.6-8.6,12.8-8.6,5.6,0,10.3,1.7,13.7,5.5l-5.1,3.2c-1.6-2.4-4.6-3.9-8.6-3.9-3.6,0-6.3,1.1-6.3,3,0,2.3,3.1,2.8,6.8,3.5l4,.7c4.9.9,9.5,2.6,9.5,7.8,0,6.7-7.6,9.1-14.4,9.1-5.4,0-11.1-2-14.3-5.8l5.4-3.2"/><path d="M467.7,15.1H450.8l-44.4,86.4h15.3l11.1-22.2H485l11.4,22.2h15.2L467.7,15.1m-29.1,53,20.5-40.8,20.5,40.8Z"/><polyline points="0 15.1 0 101.5 78.5 101.5 78.5 92.2 12.1 92.2 12.1 15.1 0 15.1"/><polyline points="68.4 15.1 56 45.7 65 45.7 81.4 15.1 68.4 15.1"/><path d="M145.6,0C115.9,0,87.5,22.7,87.5,54.4s24.9,54.2,58.1,54.2c39.7,0,59.6-28.2,59.6-54.2C205.2,26.8,184.4,0,145.6,0m0,97.8c-22.5,0-43.4-18-43.4-43.4,0-28,24.9-43.6,43.4-43.5,31.2.2,45.6,24.9,45.6,43.5C191.2,76.8,171,97.8,145.6,97.8Z"/><path d="M284.8,65.3s21.5-6.1,21.5-25.3c0-25.2-26.7-24.9-26.7-24.9H221v86.4h12.2V65.3H269l26.5,36.2h15.3l-26-36.2M276.1,55h-43V25.4h43s16.8-.4,16.8,14.5C292.9,55.9,276.1,55,276.1,55Z"/><polyline points="521.5 15.2 521.5 101.6 600 101.6 600 92.3 533.6 92.3 533.6 15.3 521.5 15.2"/><polyline points="328.1 15.2 328.1 101.5 404.6 101.5 404.6 92 341.2 92 341.2 62.1 388.9 62.1 388.9 52.2 341.2 52.2 341.2 24.6 404.6 24.6 404.6 15.1 328.1 15.2"/><polyline points="367.8 1.1 358 12.3 389.2 1.1 367.8 1.1"/><path d="M85.5,136.1c0-3.4-3.4-4.5-8.1-4.5H65.9v8.8H77.4C82.1,140.5,85.5,139.5,85.5,136.1Z"/><path d="M29.8,131.6H17.3v8.7H29.1c4.4,0,7.4-1.3,7.4-4.4C36.4,133.2,34.5,131.6,29.8,131.6Z"/><path d="M378.9,130.8c-7.6,0-11.1,5-11.1,10.7s3.5,10.8,11.1,10.8,11.1-5.1,11.1-10.8S386.5,130.8,378.9,130.8Z"/><path d="M125.1,130.8c-7.6,0-11.1,5-11.1,10.7s3.5,10.8,11.1,10.8,11.1-5.1,11.1-10.8S132.7,130.8,125.1,130.8Z"/><path d="M0,118.2v46.6H599.8V118.2Zm31,25.2H17.2v11h-5V128.7H31.4c4.7,0,10,1.9,10,7.5C41.5,141.1,36,143.4,31,143.4Zm55.1,10.9L75.8,143.4H65.9v10.9H60.8V128.6H78.2c6.1,0,12.4,1.6,12.4,7.5,0,3.3-2.3,6.5-9,7.1l10.6,11.1Zm39,.7c-9.6,0-15.5-5.5-15.5-13.6s5.9-13.4,15.5-13.4,15.5,5.5,15.5,13.5S134.7,155,125.1,155Zm57.8-23.4H163.2v7.6h18.2v3H163.2v12.1h-5.1V128.6h24.7v3Zm49.4,22.7H204.7V128.6h27.1v3.1h-22v7.9h19.1v3.1H209.8v8.8h22.5Zm27,.4a40.65,40.65,0,0,1-7.9-1l.6-3.4a30,30,0,0,0,8,1.2c3.1,0,7.5-1.1,7.5-4.2,0-5.7-16.5-4.1-16.5-12,0-4.5,5.4-7,12.3-7a38.84,38.84,0,0,1,8.2.9l-.7,3.4a26.24,26.24,0,0,0-7.2-1.1c-3.1,0-6.8.8-6.8,3.4,0,4.9,16.5,3.8,16.5,12.2C273.3,152.6,267,154.7,259.3,154.7Zm42.2,0a41.65,41.65,0,0,1-7.9-1l.5-3.4a30,30,0,0,0,8,1.2c3.2,0,7.6-1.1,7.6-4.2,0-5.7-16.6-4.1-16.6-12,0-4.5,5.4-7,12.3-7a39.77,39.77,0,0,1,8.3.9l-.7,3.4a26.37,26.37,0,0,0-7.3-1.1c-3,0-6.7.8-6.7,3.4,0,4.9,16.5,3.8,16.5,12.2C315.6,152.6,309.2,154.7,301.5,154.7Zm40.9-.4h-5.1V128.6h5.1Zm36.5.7c-9.6,0-15.5-5.5-15.5-13.6s5.9-13.4,15.5-13.4,15.5,5.5,15.5,13.4C394.4,149.5,388.5,155,378.9,155Zm63.5-.7h-5.2l-20.4-20.2h-.1v20.2h-4.8V128.6h5.2L437.4,149h.1V128.6h4.8l.1,25.7Zm52.5,0h-5.2l-20.4-20.2h-.2v20.2h-4.7V128.6h5.1L489.9,149h.1V128.6h4.8l.1,25.7Zm49.7,0H517V128.6h27.1v3.1h-22v7.9h19.1v3.1H522.1v8.8h22.5v2.8Zm44.3,0H564.5V128.6h5.1v22.8h19.2l.1,2.9Z"/></svg>