<?xml version="1.0" encoding="UTF-8"?> <svg xmlns="http://www.w3.org/2000/svg" width="120" height="21.729" viewBox="0 0 120 21.729"><g id="loreal" transform="translate(-588.835 -367.44)"><path id="Path_246" data-name="Path 246" d="M604.771,386.639v2.549H588.835V371.662H591.7v14.977Z" transform="translate(0 -1.514)" fill-rule="evenodd"></path><path id="Path_247" data-name="Path 247" d="M608.954,378.214l3.187-6.054h-3.028l-2.39,6.054Z" transform="translate(-6.415 -1.692)" fill-rule="evenodd"></path><path id="Path_248" data-name="Path 248" d="M638.542,373.156a11.385,11.385,0,0,0-4.32-3.924,12.773,12.773,0,0,0-11.737,0,11.382,11.382,0,0,0-4.32,3.924,9.94,9.94,0,0,0,0,10.791,11.381,11.381,0,0,0,4.32,3.924,12.773,12.773,0,0,0,11.737,0,11.385,11.385,0,0,0,4.32-3.924,9.943,9.943,0,0,0,0-10.791Zm-2.48,9.687a8.7,8.7,0,0,1-3.231,3.085,9.165,9.165,0,0,1-8.8,0,8.691,8.691,0,0,1-3.231-3.085,8.123,8.123,0,0,1,0-8.453,8.681,8.681,0,0,1,3.231-3.085,9.161,9.161,0,0,1,8.8,0,8.685,8.685,0,0,1,3.231,3.085,8.123,8.123,0,0,1,0,8.453Z" transform="translate(-9.947 -0.131)" fill-rule="evenodd"></path><path id="Path_249" data-name="Path 249" d="M674.959,379.22a4.809,4.809,0,0,1-2.267,2.2,3.646,3.646,0,0,1-1.879.518h0l5.578,7.25H673.2l-5.394-7.011h-7.036v7.011H657.9V371.662h11.474a6.845,6.845,0,0,1,3.373.813,4.948,4.948,0,0,1,2.358,2.725,5.892,5.892,0,0,1-.151,4.02Zm-3.208-.12a2.775,2.775,0,0,0,.931-2.183,3.057,3.057,0,0,0-1.051-2.161,3.106,3.106,0,0,0-2.093-.545h-8.765v5.417h8.765a3.317,3.317,0,0,0,2.213-.529Z" transform="translate(-24.767 -1.514)" fill-rule="evenodd"></path><path id="Path_250" data-name="Path 250" d="M703.289,379.151v2.39h-9.721v5.1h13.068v2.549H690.7V371.662h15.936v2.549H693.568v4.939Z" transform="translate(-36.527 -1.514)" fill-rule="evenodd"></path><path id="Path_251" data-name="Path 251" d="M707.191,367.44h-4.3l-1.753,2.23,6.056-2.23Z" transform="translate(-40.269)" fill-rule="evenodd"></path><path id="Path_252" data-name="Path 252" d="M721.431,384.727l-2.271,4.462h-2.868l8.924-17.527h2.869l8.924,17.527h-2.868l-2.271-4.462Zm5.219-10.248-4.083,8.018h8.165l-4.083-8.018Z" transform="translate(-45.704 -1.514)" fill-rule="evenodd"></path><path id="Path_253" data-name="Path 253" d="M766.762,386.639v2.549H750.826V371.662h2.868v14.977Z" transform="translate(-58.088 -1.514)" fill-rule="evenodd"></path><path id="Path_254" data-name="Path 254" d="M772.5,375.745l-.024-.418h0a.656.656,0,0,0-.17-.486.281.281,0,0,0-.177-.1.561.561,0,0,0,.3-.241.836.836,0,0,0,.119-.448.921.921,0,0,0-.144-.487.905.905,0,0,0-.842-.321h-1.269v2.928h.493v-1.2h.736a.5.5,0,0,1,.348.094c.178.21.1.486.13.72a.9.9,0,0,0,.074.389h.553v-.09h0c-.1-.041-.11-.187-.122-.336Zm-.609-1.289a.713.713,0,0,1-.42.1h-.695v-.892h0c.3,0,.609-.013.91.012a.407.407,0,0,1,.324.231.47.47,0,0,1-.119.553Z" transform="translate(-65.065 -2.08)" fill-rule="evenodd"></path><path id="Path_255" data-name="Path 255" d="M772.827,372.9a2.47,2.47,0,1,0,.331,1.235,2.486,2.486,0,0,0-.331-1.235Zm-.3,2.309a2.092,2.092,0,1,1,.282-1.048,2.111,2.111,0,0,1-.282,1.048Z" transform="translate(-64.323 -1.514)" fill-rule="evenodd"></path></g></svg> 