<?xml version="1.0" encoding="UTF-8"?> <svg xmlns="http://www.w3.org/2000/svg" width="110" height="40.352" viewBox="0 0 110 40.352"><g id="Group_291" data-name="Group 291" transform="translate(-363.989 -1218.127)"><path id="Path_313" data-name="Path 313" d="M363.989,1241.532c.322.041.394-.2.509-.423a8.189,8.189,0,0,0,.641-2.874c.257-2.139.536-4.276.771-6.418s.421-4.263.638-6.394q.134-1.32.309-2.637a6.7,6.7,0,0,0-.381-3.214c-.327-.9.033-1.414,1-1.437.949-.023,1.9.008,2.849.017q.827.009,1.654.024c.859.014,1.25.395,1.541,1.29s.575,1.776.857,2.667c.171.536.331,1.076.5,1.614.251.807.5,1.613.756,2.418.236.745.484,1.485.718,2.23s.466,1.518.7,2.277a.678.678,0,0,0,.036.149c.088.146.185.286.278.428.121-.133.3-.247.353-.4.132-.373.2-.767.307-1.151.273-1.012.552-2.021.823-3.033.209-.779.41-1.561.616-2.34.285-1.078.574-2.154.858-3.233.088-.335.156-.675.247-1.008a9.177,9.177,0,0,1,.3-.991,1.436,1.436,0,0,1,1.439-.959c.757,0,1.514.005,2.272.012.783.008,1.565.006,2.348.035s1.1.518.792,1.228a7.208,7.208,0,0,0-.5,2.846,82.436,82.436,0,0,0,.548,9.179,27.1,27.1,0,0,0,.651,3.316c.224.986.485,1.966.77,2.936a9.948,9.948,0,0,0,.592,1.5c.393.818.806,1.627,1.247,2.421a1.223,1.223,0,0,1-.8,1.935,3.864,3.864,0,0,1-2.371-.3,7.89,7.89,0,0,1-3.881-3.519,12.577,12.577,0,0,1-1.271-3.073,16.669,16.669,0,0,1-.773-4.1,8.5,8.5,0,0,0-.2-1.406c-.021-.111-.166-.2-.254-.3-.1.1-.253.191-.284.311-.358,1.377-.689,2.761-1.045,4.138-.276,1.067-.59,2.124-.865,3.191-.263,1.017-.481,2.047-.757,3.061a3.077,3.077,0,0,1-.465.949.825.825,0,0,1-1.1.272,6.7,6.7,0,0,1-2.933-2.736,19.537,19.537,0,0,1-1.578-4.062c-.24-.741-.526-1.467-.772-2.207s-.483-1.509-.714-2.267c-.175-.576-.33-1.157-.507-1.732-.026-.084-.134-.211-.188-.2a.408.408,0,0,0-.249.188.813.813,0,0,0-.082.332c-.26,2.526-.524,5.051-.769,7.579a11.543,11.543,0,0,0-.063,1.845,7.933,7.933,0,0,0,.312,1.409c.044.173.136.333.195.5a.857.857,0,0,1-.817,1.264c-.472.037-.949.014-1.424.016-.654,0-1.309,0-1.964,0a1.273,1.273,0,0,1-1.03-.428c-.089-.1-.261-.128-.4-.189Zm2.12-2.911.118.021a1.464,1.464,0,0,0,.167-.379c.1-.774.184-1.552.281-2.328.264-2.112.551-4.221.792-6.335.136-1.2.112-2.418.318-3.6a22.456,22.456,0,0,0,.276-3.676,11.145,11.145,0,0,0-.178-1.49c-.1.05-.121.094-.126.139-.158,1.774-.247,3.55-.5,5.32-.357,2.486-.513,5-.792,7.5a31.448,31.448,0,0,0-.4,4.4C366.067,1238.336,366.093,1238.478,366.109,1238.621Zm14.534-15.253.2.043a2.976,2.976,0,0,0,.2-.414c.233-.768.441-1.543.686-2.307a5.644,5.644,0,0,1,.458-1.053.822.822,0,0,1,.448-.313,4.157,4.157,0,0,1,.683-.091c.189-.027.375-.065.563-.1l0-.163-1.065-.123c-.8-.091-1.081.088-1.306.839-.264.882-.536,1.761-.768,2.651A6.113,6.113,0,0,0,380.643,1223.368Zm2.121,7.5.113-.009c-.075-.974-.142-1.949-.236-2.922-.013-.133-.16-.253-.245-.379-.069.137-.193.271-.2.411A5.949,5.949,0,0,0,382.764,1230.869Zm-13.606-11.719-.005-.176a5.222,5.222,0,0,0-1.755-.081c-.056.009-.143.063-.15.106a.98.98,0,0,0,0,.422c.012.04.215.047.323.026.273-.051.539-.135.811-.187C368.64,1219.211,368.9,1219.186,369.159,1219.15Zm13.684,12.405a3.1,3.1,0,0,0,.037,1.9A2.473,2.473,0,0,0,382.843,1231.555Zm-2.3-7.412-.19-.033-.087.675.171.024Z" transform="translate(0 0)"></path><path id="Path_314" data-name="Path 314" d="M605.592,1242.725c-.257-.013-.37.133-.407.365-.074.456-.139.914-.225,1.368a1.38,1.38,0,0,1-1.552,1.274c-2.888-.041-5.775-.1-8.663-.132-.64-.007-1.281.069-1.921.105a1.84,1.84,0,0,1-.384.015c-.732-.112-1.229-.587-.819-1.382a3.192,3.192,0,0,0,.348-1.515q-.01-8.4-.012-16.792a2.369,2.369,0,0,0-.365-1.388.808.808,0,0,1,.395-1.245,2.059,2.059,0,0,1,.82-.147q5.18.012,10.36.048a1.115,1.115,0,0,1,1.252,1.292c0,.693,0,1.386,0,2.08,0,1.038-.662,1.426-1.588.984a3.89,3.89,0,0,0-1.389-.37c-.882-.058-1.771-.023-2.656-.016-.583,0-.727.171-.724.739.005,1.078,0,2.156-.005,3.234,0,.456.151.634.615.642,1.052.019,2.1.024,3.157.046,1.03.021,1.448.456,1.443,1.477,0,.539.032,1.082-.021,1.616a2.213,2.213,0,0,1-.322.914c-.183.3-.492.287-.825.178a6.759,6.759,0,0,0-1.437-.351,17.238,17.238,0,0,0-1.923-.017c-.554.009-.691.192-.685.735.015,1.411.022,2.823,0,4.235-.01.745.117,1.005.855,1.023a30.328,30.328,0,0,0,3.568-.095,5.59,5.59,0,0,0,1.624-.573.983.983,0,0,1,1.083.028,1.04,1.04,0,0,0,.4.086Zm-7.881-18.566,0-.1a1.441,1.441,0,0,0-.241-.047q-2.231-.044-4.462-.081a1.012,1.012,0,0,0-.34.052c-.217.075-.373.221-.263.465.1.223.269.248.51.148a2.612,2.612,0,0,1,.841-.2c.922-.051,1.846-.057,2.768-.1C596.919,1224.277,597.315,1224.207,597.711,1224.159Zm.837,18.452a8.1,8.1,0,0,0,4.432.059l0-.177Zm.552-9.6-.019-.209a5.42,5.42,0,0,0-.557.007.21.21,0,0,0-.133.154c0,.052.08.162.115.158C598.706,1233.1,598.9,1233.049,599.1,1233.01Z" transform="translate(-131.603 -2.965)"></path><path id="Path_315" data-name="Path 315" d="M478.377,1296.711a1.3,1.3,0,0,0-.145-.348,1.267,1.267,0,0,1,0-1.608,11.075,11.075,0,0,1,3.224-3.15c.409-.284.853-.519,1.241-.827.309-.245.216-.351-.116-.528a1.709,1.709,0,0,0-1.711.075c-.855.411-1.483-.166-1.364-1.112a3.463,3.463,0,0,1,.814-1.787c.75-.927,1.467-1.879,2.2-2.824.28-.364.569-.5.753-.317.283.289.052.561-.111.788-.746,1.041-1.516,2.065-2.265,3.1a5.835,5.835,0,0,0-.532.89.517.517,0,0,0,.007.453.509.509,0,0,0,.444.088,1.415,1.415,0,0,0,.557-.319c.3-.28.56-.6.839-.9a1.314,1.314,0,0,1,.358-.339.506.506,0,0,1,.442.006c.089.082.083.295.072.447-.006.089-.123.166-.153.26a3.7,3.7,0,0,0-.087.455,1.251,1.251,0,0,0,.48-.081,4.55,4.55,0,0,0,.665-.579c.246-.244.469-.51.713-.755s.6-.28.758-.091c.218.264.047.477-.125.677-.225.263-.469.51-.676.786-.166.221-.136.4.184.469a1.032,1.032,0,0,1,.275.153,1.3,1.3,0,0,1-.22.284,8.539,8.539,0,0,0-1.053.751,4.056,4.056,0,0,0-.662,1.008c-.4.771-.729,1.582-1.163,2.332a16.016,16.016,0,0,1-1.226,1.714,6.7,6.7,0,0,1-.523.448,1.5,1.5,0,0,0-.2.376Zm1.057-.912a2.1,2.1,0,0,0,.51-.26,9.547,9.547,0,0,0,2.252-3.116.975.975,0,0,0,.012-.386,1.011,1.011,0,0,0-.389.081,6.417,6.417,0,0,0-.791.666c-.592.6-1.177,1.207-1.742,1.83a2.01,2.01,0,0,0-.354.633C478.817,1295.553,479,1295.789,479.434,1295.8Z" transform="translate(-65.936 -38.233)"></path><path id="Path_316" data-name="Path 316" d="M506.858,1245.712c-.847,0-1.7.019-2.541-.01a2.542,2.542,0,0,1-.92-.219.72.72,0,0,1-.409-1.024,3.965,3.965,0,0,0-.065-3.379c-.131-.4-.263-.8-.365-1.212a.645.645,0,0,0-.673-.564q-2.118-.008-4.236,0a.539.539,0,0,0-.559.436c-.318,1.109-.606,2.228-.966,3.323-.53,1.609-1.484,2.728-3.349,2.652-1.486-.061-2.973-.079-4.458-.156a3.544,3.544,0,0,1-2.894-1.849c-.7-1.126-1.362-2.28-2.027-3.429-.359-.619-.688-1.255-1.038-1.879a1.047,1.047,0,0,0-.247-.291,2.413,2.413,0,0,0-.346-.2,1.235,1.235,0,0,0-.15.4c.01,1.36.012,2.721.071,4.079a9.378,9.378,0,0,0,.29,1.5c.027.125.083.243.121.365.265.856-.126,1.439-1.031,1.452-1.54.023-3.081.008-4.621,0a1.288,1.288,0,0,1-1.022-.456.757.757,0,0,1-.161-.825,6.1,6.1,0,0,0,.375-2.458q.018-7.452,0-14.9a13.083,13.083,0,0,0-.138-1.686,2.439,2.439,0,0,0-.258-.757.867.867,0,0,1,.525-1.312,1.919,1.919,0,0,1,.606-.08c1.656.011,3.312.053,4.967.04a.89.89,0,0,1,.831,1.3,4.554,4.554,0,0,0-.514,2.378c.011,1.5-.031,3-.036,4.5a1.433,1.433,0,0,0,.154.44,3.67,3.67,0,0,0,.391-.2.678.678,0,0,0,.175-.2c1-1.508,2-3.013,2.979-4.531a3.071,3.071,0,0,0,.464-1.008,1.4,1.4,0,0,0-.11-.947c-.675-1.051-.18-1.84,1.074-1.79,1.321.053,2.644.043,3.966.062.357.005.7.046.873.43a1.081,1.081,0,0,1-.166,1.121c-.8,1.158-1.6,2.323-2.4,3.482-.6.864-1.2,1.722-1.8,2.587a17.276,17.276,0,0,0-1,1.544.868.868,0,0,0,.037.71c.778,1.4,1.584,2.78,2.392,4.161.75,1.281,1.517,2.553,2.266,3.835.239.409.451.834.661,1.258.108.218.234.469.5.375a.813.813,0,0,0,.407-.474c.317-.973.605-1.956.891-2.939.222-.762.42-1.531.64-2.294s.449-1.5.672-2.248c.292-.982.577-1.967.874-2.948.23-.76.479-1.514.712-2.274.252-.821.495-1.645.741-2.467a1.418,1.418,0,0,1,.033-.15,2.8,2.8,0,0,0-.045-2.5c-.289-.572.115-1.122.762-1.236a3.338,3.338,0,0,1,.614-.035c1.489.015,2.978.061,4.466.042a1.248,1.248,0,0,1,1.209.978l1.437,4.9c.406,1.388.8,2.779,1.222,4.162.219.723.483,1.432.715,2.151.2.609.377,1.224.559,1.838.4,1.352.787,2.707,1.2,4.054a9.822,9.822,0,0,0,1.208,2.647,1.079,1.079,0,0,1,.2,1.149,1.147,1.147,0,0,1-1.072.563c-.886.018-1.771.005-2.657.005Zm-7.074-10.158c.2,0,.41-.005.614,0,.576.018.8-.213.662-.764-.206-.83-.45-1.65-.682-2.474-.1-.344-.194-.689-.315-1.026-.038-.106-.155-.183-.236-.274a3.818,3.818,0,0,0-.273.281.525.525,0,0,0-.058.182q-.427,1.453-.852,2.906a4.913,4.913,0,0,0-.152.595c-.056.353.091.544.446.568C499.219,1235.569,499.5,1235.554,499.783,1235.553Zm-5.072,2.315.184.03c.043-.183.078-.369.133-.548a5.53,5.53,0,0,1,.2-.533c.109-.254.238-.5.337-.758.073-.19.092-.4.164-.591.26-.691.557-1.369.8-2.067.346-1.013.664-2.037.975-3.062.341-1.126.681-2.253.978-3.391a3.9,3.9,0,0,0,.032-1.069c0-.1-.094-.2-.19-.393a3.643,3.643,0,0,0-.166.363q-.693,2.314-1.38,4.629c-.215.723-.432,1.446-.641,2.171q-.35,1.215-.686,2.433c-.124.453-.229.911-.352,1.365-.046.17-.134.33-.178.5C494.84,1237.252,494.779,1237.561,494.711,1237.868Zm-18.05,3.76.1,0a2.3,2.3,0,0,0,.06-.317c.03-.563.073-1.127.075-1.69q.01-6.023,0-12.046c0-.333-.011-.667-.042-1a1.574,1.574,0,0,0-.141-.384l-.139.018c-.021.207-.06.413-.06.619q0,6.793,0,13.585c0,.307.036.614.065.92A1.769,1.769,0,0,0,476.661,1241.628Zm7.363-11.219.141.1a1.422,1.422,0,0,0,.289-.213c.642-.782,1.307-1.548,1.9-2.366a2.552,2.552,0,0,0,.664-2.06,1.037,1.037,0,0,0-.19-.3,1.655,1.655,0,0,0-.209.285,10.916,10.916,0,0,1-.551,1.257c-.556.908-1.167,1.781-1.745,2.675A5.5,5.5,0,0,0,484.024,1230.409Zm16.107-6.267-.013-.213c-.666,0-1.333-.01-2,0a.32.32,0,0,0-.248.15,1.959,1.959,0,0,0-.06.463,1.627,1.627,0,0,0,.4.017c.26-.053.509-.152.769-.207C499.364,1224.27,499.749,1224.211,500.132,1224.142Zm-22.25.034.011-.162a3.908,3.908,0,0,0-1.621-.051c-.056.012-.145.072-.145.109,0,.211.024.422.04.633.135-.044.273-.081.4-.132.207-.082.4-.194.615-.258A6.943,6.943,0,0,1,477.881,1224.176Zm10.173-.012-.007-.143a3.249,3.249,0,0,0-1.565-.05c-.1.024-.155.271-.23.414.136.046.281.145.408.127a8.384,8.384,0,0,0,.89-.22Zm-4.528,14.695c.01-.128.034-.186.016-.224-.244-.5-.486-1.011-.751-1.505-.035-.065-.2-.063-.3-.092-.011.1-.067.229-.026.3.252.463.522.917.8,1.366C483.3,1238.767,483.4,1238.789,483.526,1238.858Zm19.08-2.509-.341-.391-.441.488c.1.074.222.224.3.206A1.8,1.8,0,0,0,502.605,1236.349Z" transform="translate(-64.297 -2.942)"></path><path id="Path_317" data-name="Path 317" d="M445.195,1233.52a14.229,14.229,0,0,1-.95,5.2,11.262,11.262,0,0,1-3.052,4.591,8.5,8.5,0,0,1-12.221-1.007,11.507,11.507,0,0,1-2.042-3.617,14.223,14.223,0,0,1-.778-6.088,13.683,13.683,0,0,1,1.252-4.651,11.217,11.217,0,0,1,3.233-4.188A8.064,8.064,0,0,1,436,1222a8.429,8.429,0,0,1,3.929,1.057,9.44,9.44,0,0,1,2.676,2.341A13.385,13.385,0,0,1,445.195,1233.52Zm-12.593-.139c0,.338-.025.75,0,1.159a12.177,12.177,0,0,0,1.474,5.823,1.965,1.965,0,0,0,1.829,1.186,2.021,2.021,0,0,0,1.509-.959,6.332,6.332,0,0,0,1.1-2.845,21.925,21.925,0,0,0,.143-4.84,24.571,24.571,0,0,0-.358-2.816,17.1,17.1,0,0,0-.695-2.03,3.135,3.135,0,0,0-1.363-1.7,1.309,1.309,0,0,0-1.483.011,3.979,3.979,0,0,0-1.661,2.41A13.313,13.313,0,0,0,432.6,1233.38Zm-5.457,1.717.146-.014c.015-.155.028-.311.045-.466a28.492,28.492,0,0,1,.424-3.622,11.718,11.718,0,0,1,2.441-4.873,7.55,7.55,0,0,1,3.371-2.408,7.371,7.371,0,0,1,2.6-.637,1.679,1.679,0,0,0,.462-.116l-.016-.2a8.792,8.792,0,0,0-1.306-.053,8.3,8.3,0,0,0-6.1,3.6,12.112,12.112,0,0,0-2.234,7.8A7.488,7.488,0,0,0,427.145,1235.1Zm12.319-4.516-.154.017c0,.3-.02.611,0,.914a25.768,25.768,0,0,1,.24,3.14,14.233,14.233,0,0,1-.977,5.452,3.38,3.38,0,0,1-2.347,2.145,3.691,3.691,0,0,0-.437.152,1.438,1.438,0,0,0,1.579.1,3.843,3.843,0,0,0,1.742-2.031,12.887,12.887,0,0,0,.882-4.844c.009-.653-.006-1.308-.028-1.962a6.115,6.115,0,0,0-.1-.76c-.089-.552-.182-1.1-.276-1.654C439.549,1231.03,439.5,1230.806,439.464,1230.582Zm-12.084,5.333-.185.006.062,1.136.179-.009A2.344,2.344,0,0,0,427.38,1235.914Z" transform="translate(-35.933 -2.24)"></path><path id="Path_318" data-name="Path 318" d="M563.246,1232.233q0,3.734,0,7.468a4.806,4.806,0,0,0,.369,1.91c.468,1.109.087,1.638-1.112,1.636q-2.406,0-4.813,0a1.322,1.322,0,0,1-1.115-.407.692.692,0,0,1-.131-.784,6.722,6.722,0,0,0,.539-2.773q.008-7.1,0-14.206c0-.282.029-.564.028-.846,0-.586-.217-.854-.793-.759a12.8,12.8,0,0,0-2.561.634c-.944.367-1.53.061-1.529-.949,0-.911-.015-1.822-.017-2.733a1.271,1.271,0,0,1,1.395-1.422q6.1,0,12.2.016a1.646,1.646,0,0,1,1.564,1.152,7.5,7.5,0,0,1,.4,3.028.868.868,0,0,1-1.273.792,5.33,5.33,0,0,0-2.342-.538c-.676.027-.853.2-.85.891q.008,2.561.012,5.12,0,1.386,0,2.772Zm-5.373,7.746.152,0a1.779,1.779,0,0,0,.091-.343c.031-.46.066-.921.066-1.382q0-6.619-.008-13.238c0-.295.025-.592,0-.884-.01-.114-.128-.219-.2-.328-.075.105-.207.207-.214.317-.021.318.018.639.018.959q0,5.964,0,11.929c0,.821,0,1.642.011,2.463A3.373,3.373,0,0,0,557.873,1239.979Zm-4.957-17.972.145.019c.053-.273.116-.545.155-.82a.968.968,0,0,1,1.118-.982c.653-.01,1.306-.044,1.958-.073a1.8,1.8,0,0,0,.294-.063c-.061-.106-.115-.141-.172-.144-.946-.051-1.892-.123-2.839-.126a.824.824,0,0,0-.645.368A3.274,3.274,0,0,0,552.916,1222.007Z" transform="translate(-108.85 -0.505)"></path><path id="Path_319" data-name="Path 319" d="M455.013,1292.368c-.268.195-.541.384-.8.586-.467.359-.906.76-1.4,1.079a1.248,1.248,0,0,1-1.692.011.688.688,0,0,0-.59,0,1.587,1.587,0,0,1-1.3.076.667.667,0,0,1-.343-1.088,15.311,15.311,0,0,1,1.32-1.326,1.876,1.876,0,0,1,1.134-.585,1.231,1.231,0,0,1,1.108.4.658.658,0,0,1,.031.936c-.161.216-.327.429-.466.659-.051.084-.074.277-.032.307a.422.422,0,0,0,.345.051,1.985,1.985,0,0,0,.485-.3c.633-.5,1.257-1.015,1.887-1.521.6-.485.8-.477,1.461-.074a.928.928,0,0,0,.614.072c.589-.119.67-.111.978.384a.4.4,0,0,0,.557.169,3.158,3.158,0,0,1,.423-.182c.388-.1.629.155.526.543a1.728,1.728,0,0,0-.089.253,3.947,3.947,0,0,0,0,.429c.146-.009.332.035.432-.038.536-.388,1.051-.8,1.57-1.215a.926.926,0,0,0,.115-.153c.241-.3.574-.4.758-.207.246.256.1.5-.073.721-.15.192-.319.369-.473.557a.481.481,0,0,0,0,.691c.092.112.188.368.138.42a.767.767,0,0,1-.489.214.8.8,0,0,1-.491-.179.866.866,0,0,0-1.123-.036,1.54,1.54,0,0,1-.882.119c-.157-.017-.332-.221-.428-.383-.233-.39-.35-.431-.714-.152-.122.094-.233.2-.354.3-.208.163-.474.277-.647.043-.1-.141-.042-.413-.033-.625,0-.066.1-.124.115-.194a2.482,2.482,0,0,0,.008-.384c-.131.009-.309-.034-.386.035-.275.247-.518.531-.769.8-.112.123-.189.308-.325.371a2.1,2.1,0,0,1-.59.1,1.481,1.481,0,0,1,.005-.552,4.344,4.344,0,0,1,.425-.638,3.841,3.841,0,0,0,.183-.357Zm-3.329-.066c.01-.4-.241-.563-.492-.384a15.761,15.761,0,0,0-1.337,1.066c-.1.091-.092.309-.134.469.175.009.388.085.519.012a9.284,9.284,0,0,0,1.143-.765A1.585,1.585,0,0,0,451.684,1292.3Z" transform="translate(-49.023 -42.232)"></path><path id="Path_320" data-name="Path 320" d="M497.516,1292.022a5.064,5.064,0,0,1,.712-.063,5.58,5.58,0,0,0,2.539-.532,4.675,4.675,0,0,0,2.126-1.654,9.2,9.2,0,0,0,.807-1.476,1.784,1.784,0,0,0,.078-.9c-.052-.382-.409-.5-.733-.28a7.206,7.206,0,0,0-1.225.852,6.167,6.167,0,0,0-.767,1.217,5.068,5.068,0,0,1-.385.7.5.5,0,0,1-.457.138.572.572,0,0,1-.223-.464,1.484,1.484,0,0,1,.273-.579.9.9,0,0,0,.091-1.04c-.2-.336.048-.556.26-.76a10.546,10.546,0,0,0,1.08-1.013,8.262,8.262,0,0,0,.807-1.392c.134-.266.284-.4.568-.261.3.143.265.371.126.612a3.091,3.091,0,0,0-.264.468.4.4,0,0,0,.029.344.388.388,0,0,0,.348.01,1.4,1.4,0,0,0,.421-.325,10.606,10.606,0,0,0,.675-.839.664.664,0,0,0,.019-.826.6.6,0,0,0-.756-.21,5.478,5.478,0,0,0-2.676,1.7,1.739,1.739,0,0,1-.416.447.5.5,0,0,1-.445.037c-.1-.07-.094-.285-.126-.437a.154.154,0,0,1,.042-.105,5.2,5.2,0,0,1,4.016-2.382,2,2,0,0,1,.994.334.967.967,0,0,1,.3,1.464,7.686,7.686,0,0,1-.906,1.089.526.526,0,0,0-.091.794,2.158,2.158,0,0,1,.02,2.175,5.774,5.774,0,0,1-3.775,3.312,5.544,5.544,0,0,1-2.2.279A1.114,1.114,0,0,1,497.516,1292.022Z" transform="translate(-77.26 -37.545)"></path><path id="Path_321" data-name="Path 321" d="M422.135,1289.273c.1-.452.162-.778.233-1.1.079-.361-.013-.486-.381-.554-.542-.1-.859.225-1.163.593q-.844,1.02-1.7,2.032c-.041.049-.086.115-.14.128-.161.039-.329.056-.494.082.024-.16-.006-.359.079-.472.356-.469.736-.922,1.127-1.363a.738.738,0,0,0,.163-.844c-.123-.305-.059-.613.289-.67.8-.132,1.084-.763,1.411-1.349.411-.736.778-1.5,1.172-2.244a.644.644,0,0,1,.8-.37.724.724,0,0,1,.426.853c-.083.609-.164,1.219-.27,1.825a.758.758,0,0,0,.322.866.327.327,0,0,1-.049.611,1.325,1.325,0,0,0-.735,1.286,3.058,3.058,0,0,1-.137.754c-.091.274-.312.506-.605.4C422.315,1289.667,422.222,1289.393,422.135,1289.273Zm.582-3.181-.26-.225a6.148,6.148,0,0,0-.4.633c-.016.033.164.238.244.233C422.626,1286.711,422.675,1286.446,422.717,1286.092Z" transform="translate(-31.537 -37.597)"></path><path id="Path_322" data-name="Path 322" d="M541.117,1294.484a5.29,5.29,0,0,1-.678-.334.688.688,0,0,0-.816-.019,1.576,1.576,0,0,1-.718.2c-.386.014-.533-.178-.594-.558a2.037,2.037,0,0,0-.214-.482,2.737,2.737,0,0,0-.468.279,7.185,7.185,0,0,1-.619.622c-.139.1-.374.051-.565.069-.015-.176-.092-.376-.033-.523.13-.328.1-.466-.289-.485a.263.263,0,0,1-.177-.472,14.666,14.666,0,0,1,1.322-1.1.454.454,0,0,1,.675.142.522.522,0,0,0,.794.139.6.6,0,0,1,.545-.008c.116.12.088.38.12.581,0,.011-.009.024-.013.035-.09.27-.32.585,0,.8s.547-.109.767-.278a5.825,5.825,0,0,0,.488-.536,11.244,11.244,0,0,1,1.135-1.067.8.8,0,0,1,1.186.293c.16.346-.112.78-.553,1a6.925,6.925,0,0,0-.911.615.178.178,0,0,0-.051.162.191.191,0,0,0,.149.093c.14,0,.279-.054.416-.048a.413.413,0,0,1,.3.108.4.4,0,0,1-.029.317C542.158,1294.3,541.727,1294.483,541.117,1294.484Z" transform="translate(-99.437 -42.36)"></path><path id="Path_323" data-name="Path 323" d="M443.194,1281.785a7.691,7.691,0,0,0-3.749,1.224,9.467,9.467,0,0,0-2.415,1.882,7.967,7.967,0,0,0-.52.756c-.07.107-.1.263-.193.327a2.619,2.619,0,0,1-.518.215c-.048-.194-.18-.417-.125-.575a2.485,2.485,0,0,1,.471-.741,11.564,11.564,0,0,1,3.331-2.63,9.73,9.73,0,0,1,2.846-1.13,3.78,3.78,0,0,1,2.415.157,1.562,1.562,0,0,1,.947,2.007,1.7,1.7,0,0,1-.522.622.391.391,0,0,1-.377-.024c-.083-.07-.083-.246-.1-.378-.007-.044.027-.1.047-.144a1.016,1.016,0,0,0-.831-1.508C443.66,1281.8,443.414,1281.8,443.194,1281.785Z" transform="translate(-41.471 -36.374)"></path><path id="Path_324" data-name="Path 324" d="M446.421,1283.966c.482.011.7.332.549.686-.19.431-.442.836-.667,1.252s-.147.554.318.569c.051,0,.112-.019.152,0,.165.085.433.155.463.278.072.3-.225.28-.415.3a2.12,2.12,0,0,0-1.774,1.225c-.308.631-.695,1.224-1.063,1.824a.926.926,0,0,1-.372.366.5.5,0,0,1-.448-.046.48.48,0,0,1-.006-.437c.225-.431.5-.836.734-1.261.255-.461.2-.544-.307-.666-.163-.039-.419-.193-.419-.292a.734.734,0,0,1,.288-.479,1.019,1.019,0,0,1,.563-.224c.734-.021,1.036-.536,1.3-1.088.255-.53.464-1.081.728-1.606A1.744,1.744,0,0,1,446.421,1283.966Z" transform="translate(-45.781 -38.096)"></path><path id="Path_325" data-name="Path 325" d="M554.553,1293.462c-.143.193-.219.29-.288.391a1,1,0,0,1-1.535.169c-.122-.113-.24-.231-.362-.345-.242-.227-.21-.445.116-.511a1.877,1.877,0,0,1,.619.085l.425.071a3.692,3.692,0,0,0,.068-.466.73.73,0,0,0-.086-.253,1.135,1.135,0,0,1,1.105-1.544c.174.01.339.2.509.3-.11.154-.186.364-.335.451-.507.295-.628.546-.444,1.06.09.252.2.429.526.353.13-.03.291.068.436.112.314.094.483-.026.457-.351-.015-.19-.077-.376-.109-.566a1.186,1.186,0,0,1,1.086-1.358c.191,0,.383.175.574.271-.1.164-.154.381-.295.484-.607.444-.616.432-.362,1.149a.951.951,0,0,1-.312,1.166.935.935,0,0,1-1.295-.071A6.045,6.045,0,0,1,554.553,1293.462Z" transform="translate(-108.907 -42.199)"></path><path id="Path_326" data-name="Path 326" d="M515.3,1293.53a.791.791,0,0,1,.076-.317c.373-.579.75-1.158,1.159-1.713a.436.436,0,0,1,.67-.132c.244.22.11.473-.062.681-.254.305-.541.584-.772.905a1.377,1.377,0,0,0-.111.517c.185-.042.418-.027.546-.136.466-.4.9-.836,1.342-1.263.19-.184.377-.383.661-.186.2.141.179.5-.075.748-.328.318-.479.606-.12,1.022.077.089-.016.458-.14.549-.145.106-.508.146-.605.046-.416-.426-.771-.327-1.183-.019a1.117,1.117,0,0,1-.542.169C515.59,1294.457,515.3,1294.178,515.3,1293.53Z" transform="translate(-87.552 -42.315)"></path><path id="Path_327" data-name="Path 327" d="M525.948,1294.332a1.375,1.375,0,0,1-1.172-.751.491.491,0,0,1,.07-.469c.08-.076.316-.028.465.02.111.036.182.19.294.236a.491.491,0,0,0,.383.032c.08-.054.107-.244.092-.367a1.444,1.444,0,0,0-.168-.384.854.854,0,0,1,.143-1,1.167,1.167,0,0,1,1.194-.52c.127.033.3.175.315.281a.483.483,0,0,1-.206.4c-.607.282-.647.731-.508,1.311C527.033,1293.881,526.665,1294.339,525.948,1294.332Z" transform="translate(-93.015 -42.224)"></path><path id="Path_328" data-name="Path 328" d="M532.9,1292.578a3.767,3.767,0,0,1-.26.424c-.146.177-.323.328-.467.506a.519.519,0,0,0,.026.806c.266.25.2.474-.15.59a.8.8,0,0,1-.916-.31.632.632,0,0,1-.062-.843c.323-.458.633-.929.994-1.357a.727.727,0,0,1,.544-.141C532.708,1292.261,532.794,1292.452,532.9,1292.578Z" transform="translate(-96.599 -42.889)"></path><path id="Path_329" data-name="Path 329" d="M393.429,1293.027h9.393l.024.357c-.079.1-.158.291-.236.29-2.358-.039-4.715-.109-7.073-.141-.6-.008-1.2.113-1.8.136-.107.005-.215-.172-.323-.266Z" transform="translate(-17.024 -43.781)"></path><path id="Path_330" data-name="Path 330" d="M570.238,1293.043h9.211v.343h-9.207Z" transform="translate(-119.338 -43.775)"></path><path id="Path_331" data-name="Path 331" d="M481.439,1289.516c-.126.085-.277.264-.446.284-.316.037-.4-.226-.408-.488a.336.336,0,0,1,.372-.39C481.252,1288.932,481.373,1289.133,481.439,1289.516Z" transform="translate(-67.463 -40.963)"></path><path id="Path_332" data-name="Path 332" d="M536.174,1289.572c-.113.076-.255.246-.412.26-.3.028-.405-.214-.406-.48,0-.235.122-.4.37-.388C536.023,1288.979,536.12,1289.2,536.174,1289.572Z" transform="translate(-99.155 -40.987)"></path></g></svg> 