<?xml version="1.0" encoding="UTF-8"?> <svg xmlns="http://www.w3.org/2000/svg" width="151.796" height="37.013" viewBox="0 0 151.796 37.013"><g id="logo-black" transform="translate(-140.999 -34.999)"><path id="Path_2" data-name="Path 2" d="M238.2,283.467a10.583,10.583,0,0,0-8.941,4.313l4.454,2.208a4.718,4.718,0,0,1,4.453-2.49c2.735,0,4.1,1.4,4.1,3.437v.246h-4.98c-5.259,0-8.521,2.419-8.521,6.347,0,3.33,2.455,5.645,6.592,5.645a8.421,8.421,0,0,0,6.943-3.3v2.91h4.664V291.146C246.971,286.377,243.78,283.467,238.2,283.467Zm4.1,12.273a6.241,6.241,0,0,1-5.54,3.436c-2,0-2.945-.7-2.945-2.069,0-1.473,1.157-2.383,4.032-2.383H242.3Z" transform="translate(45.831 -236.497)"></path><path id="Path_3" data-name="Path 3" d="M150.161,287.916c-3.191-.737-5.75-1.123-5.75-3.191,0-1.683,1.192-3.051,3.962-3.051a6.624,6.624,0,0,1,6,3.19l4.032-3.156a12.249,12.249,0,0,0-9.958-4.452c-5.33,0-9.082,3.366-9.082,7.574,0,5.189,4.278,6.416,8.1,7.223,3.542.807,6,1.3,6,3.682,0,1.858-1.438,3.19-4.208,3.19a7.851,7.851,0,0,1-7.013-4.032l-4.313,3.437c2.419,3.085,5.786,5.259,11.29,5.259,5.716,0,9.4-3.647,9.4-8.03C158.612,290.019,154.088,288.757,150.161,287.916Z" transform="translate(39.233 -236.948)"></path><path id="Path_4" data-name="Path 4" d="M204.863,298.979c-1.227,0-2.069-.7-2.069-2.7v-7.453h4.979v-4.278h-4.979v-6.1h-4.769v18.006c0,5.155,2.315,7.048,6.277,7.048a7.485,7.485,0,0,0,4.523-1.437l-2.208-3.787A2.492,2.492,0,0,1,204.863,298.979Z" transform="translate(43.598 -236.862)"></path><path id="Path_5" data-name="Path 5" d="M218.607,283.467a9.775,9.775,0,0,0-9.924,9.888c0,5.5,3.927,9.818,10.029,9.818a9.952,9.952,0,0,0,8.731-4.383l-3.962-2.315a5.165,5.165,0,0,1-4.7,2.525,5.255,5.255,0,0,1-5.435-4h15.042v-1.82a9.432,9.432,0,0,0-9.781-9.713Zm-5.12,7.749a5.264,5.264,0,0,1,5.12-3.646,4.777,4.777,0,0,1,4.979,3.646Z" transform="translate(44.372 -236.497)"></path><rect id="Rectangle_17" data-name="Rectangle 17" width="4.839" height="24.704" transform="translate(222.795 41.586)"></rect><path id="Path_6" data-name="Path 6" d="M169.2,283.467a9.8,9.8,0,1,0,7.1,2.808A9.855,9.855,0,0,0,169.2,283.467Zm.035,15.112a5.3,5.3,0,1,1,5.189-5.294,5.2,5.2,0,0,1-5.188,5.294Z" transform="translate(40.779 -236.497)"></path><rect id="Rectangle_18" data-name="Rectangle 18" width="4.944" height="18.603" transform="translate(232.244 47.688)"></rect><path id="Path_7" data-name="Path 7" d="M191.782,277.3a2.6,2.6,0,1,0,2.658,2.6,2.559,2.559,0,0,0-2.658-2.6Z" transform="translate(42.949 -236.945)"></path><path id="Path_8" data-name="Path 8" d="M118.493,286.586l7.764-6.515-6.515-7.764-7.764,6.515-7.764,6.515,6.515,7.764Z" transform="translate(36.785 -237.308)"></path><path id="Path_9" data-name="Path 9" d="M112.331,293.942l-7.764,6.515,6.515,7.764,7.764-6.515,7.764-6.515-6.515-7.764Z" transform="translate(36.812 -236.209)"></path></g></svg> 