<svg id="icon-analytics" xmlns="http://www.w3.org/2000/svg" xmlns:xlink="http://www.w3.org/1999/xlink" viewBox="0 0 48.04 46">
    <defs>
        <style>#icon-analytics path{fill:url(#icon-analytics-gradient);}</style>
        <linearGradient id="icon-analytics-gradient" x1="-266.82" y1="435.24" x2="-266.82" y2="434.24"
                        gradientTransform="matrix(48.04, 0, 0, -46, 12843.23, 20020.93)" gradientUnits="userSpaceOnUse">
            <stop offset="0" stop-color="#c52fef"/>
            <stop offset="0.6" stop-color="#6991f0"/>
            <stop offset="1" stop-color="#24d2ee"/>
        </linearGradient>
    </defs>
    <path d="M48,0,46.36,2,35.22,15,22.37,11.29l-.45-.12-.39.27L8.44,20.78,1.2,19,0,18.68V46H48V18.29a.38.38,0,0,0,0-.15ZM46.12,5.19v12.5l-6.94,5.94L34.56,22A.87.87,0,0,0,34,20.9a1,1,0,0,0-.34,0,.93.93,0,0,0-.81.48L26.27,19l-.33-.12a1,1,0,1,0-1.14,1L15.91,32.28,8.65,30.45a1,1,0,0,0-1-.93.91.91,0,0,0-.81.48l-5-1.24V25.67a1,1,0,0,0,0-1.92h0V21.14l2,.48a.83.83,0,0,0-.06.21,1,1,0,0,0,1,1,.94.94,0,0,0,.9-.72l2.7.69.45.12.36-.27.51-.36a.95.95,0,0,0,1.8-.42.93.93,0,0,0-.27-.69l1.84-1.32a1.12,1.12,0,0,0,.36.09,1,1,0,0,0,1-1v-.06l7.87-5.62,2,.57a.94.94,0,0,0,.72.3.55.55,0,0,0,.18-.06l7.57,2.17a.93.93,0,0,0,.9.78,1,1,0,0,0,.72-.3l.93.27.6.15.39-.45Zm0,10.87a1,1,0,1,0-1,1h0A1,1,0,0,0,46.12,16.06Zm0-5.76a1,1,0,1,0-1,1h0A1,1,0,0,0,46.12,10.3Zm-3.84,1.92a1,1,0,1,0,1,1h0A1,1,0,0,0,42.28,12.22ZM22.1,15.1a1,1,0,0,0,0,1.93,1,1,0,0,0,1-1A1,1,0,0,0,22.1,15.1Zm5.76,0a1,1,0,0,0,0,1.93,1,1,0,1,0,0-1.93Zm11.54,0a1,1,0,0,0-1,1,1,1,0,1,0,1.93,0h0a1,1,0,0,0-1-1ZM19.22,18a1,1,0,1,0,1,1A1,1,0,0,0,19.22,18Zm11.53,0a1,1,0,1,0,1,1A1,1,0,0,0,30.75,18Zm5.76,0a1,1,0,1,0,1,1h0A1,1,0,0,0,36.51,18Zm5.77,0a1,1,0,1,0,1,1h0A1,1,0,0,0,42.28,18Zm3.84,2.22V44.08H1.92V30.75l14.17,3.54.64.15.38-.51L26.3,21.05l12.76,4.56.54.18Zm-29.79.66a1,1,0,1,0,1,1,1,1,0,0,0-1-1Zm5.77,0a1,1,0,1,0,1,1,1,1,0,0,0-1-1Zm17.3,0a1,1,0,1,0,1,1h0a1,1,0,0,0-1-1h0ZM7.69,23.75a1,1,0,1,0,1,1A1,1,0,0,0,7.69,23.75Zm5.76,0a1,1,0,1,0,1,1A1,1,0,0,0,13.45,23.75Zm5.77,0a1,1,0,1,0,1,1A1,1,0,0,0,19.22,23.75ZM4.8,26.63a1,1,0,1,0,1,1A1,1,0,0,0,4.8,26.63Zm5.77,0a1,1,0,1,0,0,1.93,1,1,0,0,0,0-1.93Zm5.76,0a1,1,0,0,0,0,1.93,1,1,0,0,0,0-1.93Zm-2.88,2.89a1,1,0,1,0,1,1h0A1,1,0,0,0,13.45,29.52Z"/>
</svg>