<svg id="icon-devices" xmlns="http://www.w3.org/2000/svg" xmlns:xlink="http://www.w3.org/1999/xlink" viewBox="0 0 34 32.8">
    <defs>
        <style>#icon-devices path{fill:url(#icon-devices-gradient);}</style>
        <linearGradient id="icon-devices-gradient" x1="-271.26" y1="425.57" x2="-271.26" y2="424.57" gradientTransform="matrix(34, 0, 0, -32.8, 9240, 13958.8)"
                        gradientUnits="userSpaceOnUse">
            <stop offset="0" stop-color="#c52fef"/>
            <stop offset="0.6" stop-color="#6991f0"/>
            <stop offset="1" stop-color="#24d2ee"/>
        </linearGradient>
    </defs>
    <path d="M2.72,0A2.71,2.71,0,0,0,0,2.68V28.12A2.71,2.71,0,0,0,2.72,30.8H17V29.46H2.72a1.34,1.34,0,0,1-1.36-1.32V2.68A1.34,1.34,0,0,1,2.7,1.34H21.76a1.34,1.34,0,0,1,1.36,1.32v6h1.36v-6A2.71,2.71,0,0,0,21.76,0Zm.55,2.68a.68.68,0,0,0-.55.67V25.44a.68.68,0,0,0,.68.67H17V24.77H4.08V4H20.4V8.7h1.36V3.35a.67.67,0,0,0-.68-.67ZM19.72,9.37a2,2,0,0,0-2,2V30.79a2,2,0,0,0,2,2H32a2,2,0,0,0,2-2V11.38a2,2,0,0,0-2-2Zm0,1.34H32a.66.66,0,0,1,.68.65V30.79a.66.66,0,0,1-.66.67H19.72a.66.66,0,0,1-.68-.64V11.38a.66.66,0,0,1,.66-.67ZM21,12.05a.68.68,0,0,0-.55.67V27.45a.68.68,0,0,0,.68.67H30.6a.68.68,0,0,0,.68-.67V12.72a.68.68,0,0,0-.68-.67Zm.81,1.34h8.16V26.78H21.76ZM12.24,26.78a1,1,0,1,0,1,1A1,1,0,0,0,12.24,26.78Zm13.6,2a1,1,0,0,0,0,2,1,1,0,0,0,0-2Z"/>
</svg>