<svg xmlns="http://www.w3.org/2000/svg" viewBox="0 0 40.03 39.01">
    <path d="M20,0a20,20,0,0,0-6.32,39c1,.18,1.32-.44,1.32-1V34.29c-5.56,1.21-6.72-2.36-6.72-2.36A5.32,5.32,0,0,0,6.06,29c-1.82-1.25.13-1.22.13-1.22a4.22,4.22,0,0,1,3.07,2.06C11,32.91,13.94,32,15.08,31.52a4.26,4.26,0,0,1,1.27-2.68c-4.44-.51-9.11-2.22-9.11-9.88A7.74,7.74,0,0,1,9.3,13.59,7.17,7.17,0,0,1,9.5,8.3s1.68-.54,5.5,2a18.89,18.89,0,0,1,10,0c3.82-2.59,5.5-2,5.5-2a7.22,7.22,0,0,1,.21,5.29A7.73,7.73,0,0,1,32.77,19c0,7.68-4.68,9.37-9.13,9.86A4.8,4.8,0,0,1,25,32.53V38c0,.53.32,1.15,1.33,1A20,20,0,0,0,20,0Z"/>
</svg>