<svg id="icon-optimalization" xmlns="http://www.w3.org/2000/svg" xmlns:xlink="http://www.w3.org/1999/xlink" viewBox="0 0 52.6 49.76">
    <defs>
        <style>#icon-optimalization path{fill:url(#icon-optimalization-gradient);}</style>
        <linearGradient id="icon-optimalization-gradient" x1="-265.35" y1="437.93" x2="-265.35" y2="436.93"
                        gradientTransform="matrix(52.6, 0, 0, -49.76, 13984.23, 21792.33)" gradientUnits="userSpaceOnUse">
            <stop offset="0" stop-color="#c52fef"/>
            <stop offset="0.6" stop-color="#6991f0"/>
            <stop offset="1" stop-color="#24d2ee"/>
        </linearGradient>
    </defs>
    <path d="M18.87,0a8.59,8.59,0,0,0-8.58,8.58,8.41,8.41,0,0,0,.86,3.71l2-1a6.07,6.07,0,0,1-.61-2.71,6.29,6.29,0,1,1,12.58,0h2.28A8.59,8.59,0,0,0,18.87,0ZM40.24,5l-.15,0-.07,0a12.64,12.64,0,0,0-8.32,6.4,30,30,0,0,0-6.26-.75A24.5,24.5,0,0,0,9.93,15.83a14.48,14.48,0,0,0-4.61,6.4A5.35,5.35,0,0,1,4,21.55a3.37,3.37,0,0,1-1.68-3,2.79,2.79,0,0,1,1.53-2.68,1.14,1.14,0,0,0,.69-1.46,1.13,1.13,0,0,0-1.15-.75,1.28,1.28,0,0,0-.43.1A5.12,5.12,0,0,0,0,18.54a5.91,5.91,0,0,0,2.68,4.9,7.59,7.59,0,0,0,2,1A21.35,21.35,0,0,0,4.18,30c.21,5.09,3.66,8.82,6.25,10.9h0a1.22,1.22,0,0,1,.32.32s.07,0,0,.28c-.34,1.06-1,2.65-1,2.65v0a3.11,3.11,0,0,0,1.79,4v0l3.68,1.36a3.15,3.15,0,0,0,4-1.79s.46-1.28.86-2.36a.89.89,0,0,1,.14-.25s0,0,.14,0a21.92,21.92,0,0,0,5,.61,45.44,45.44,0,0,0,5.08-.33h.25a1,1,0,0,0,0,.11v0c.37,1.09.81,2.11.82,2.14l0,0a3.11,3.11,0,0,0,4,1.75l3.68-1.36v0a3.1,3.1,0,0,0,1.78-4l-.57-1.53a1.74,1.74,0,0,0-.11-.18h0s-.16.06.21-.14a14.76,14.76,0,0,0,6.26-6.65,2.14,2.14,0,0,1,.32-.54c.09-.08.14-.14.5-.14H49.6a3,3,0,0,0,3-3V26.41a3,3,0,0,0-3-3H47.74a1,1,0,0,1-.39,0,12.73,12.73,0,0,0-7.69-9.5,21.24,21.24,0,0,1,1.72-7.29A1.16,1.16,0,0,0,40.24,5ZM38.45,8.22a18.64,18.64,0,0,0-1.14,6.32,1.13,1.13,0,0,0,.78,1.07,10.21,10.21,0,0,1,7,8.26,2.52,2.52,0,0,0,2.65,1.82H49.6a.69.69,0,0,1,.71.68,0,0,0,0,1,0,0V32a.69.69,0,0,1-.68.71H47.74a3.12,3.12,0,0,0-2.07.75,3.46,3.46,0,0,0-.82,1.22,12.32,12.32,0,0,1-5.26,5.61,2.69,2.69,0,0,0-1.43,2.11,1.86,1.86,0,0,0,.25,1h0l.07.18L39,45a.81.81,0,0,1-.45,1.06h0L34.8,47.45A.83.83,0,0,1,33.73,47h0v0s-.45-1-.79-2a2.17,2.17,0,0,0-2.57-1.68,45.16,45.16,0,0,1-4.93.32A19.16,19.16,0,0,1,20.79,43a2.42,2.42,0,0,0-1.71.18A2.47,2.47,0,0,0,18,44.63c-.4,1-.9,2.32-.9,2.32a.82.82,0,0,1-1.06.5h0l-3.68-1.39A.82.82,0,0,1,11.89,45h0c0-.05.64-1.59,1-2.79A2.68,2.68,0,0,0,12.75,40a3.16,3.16,0,0,0-.89-.93C9.55,37.24,6.63,34,6.46,29.87,6.22,24.08,8.21,20,11.32,17.61A22.07,22.07,0,0,1,25.43,13a27.67,27.67,0,0,1,6.54.79,1.17,1.17,0,0,0,1.33-.64,9.17,9.17,0,0,1,5.15-4.93Zm1,15.25a2.18,2.18,0,0,0-2.18,2.17h0a2.18,2.18,0,0,0,4.36.1v-.1a2.17,2.17,0,0,0-2.17-2.17h0Z"/>
</svg>