<svg id="icon-speed" xmlns="http://www.w3.org/2000/svg" xmlns:xlink="http://www.w3.org/1999/xlink" viewBox="0 0 33.78 31.8">
    <defs>
        <style>#icon-speed path{fill:url(#icon-speed-gradient);}</style>
        <linearGradient id="icon-speed-gradient" x1="-271.21" y1="424.15" x2="-271.21" y2="423.15"
                        gradientTransform="matrix(33.78, 0, 0, -31.8, 9177.46, 13486.26)" gradientUnits="userSpaceOnUse">
            <stop offset="0" stop-color="#c52fef"/>
            <stop offset="0.6" stop-color="#6991f0"/>
            <stop offset="1" stop-color="#24d2ee"/>
        </linearGradient>
    </defs>
    <path d="M18.63,0a2.75,2.75,0,0,0-.4,0h0L11.27.76l-.11,0a4.68,4.68,0,0,0-1.5.66,1.81,1.81,0,0,0-.74,1.64s0,0,0,0a1.23,1.23,0,0,0,.45.76,2.1,2.1,0,0,0,.67.33,3.16,3.16,0,0,0,1.29.15h.06l6.38-.15,1.94,1.52-4.85,3.4,0,0a5.24,5.24,0,0,0-1.85,2,3.31,3.31,0,0,0,.31,3l0,0,4.07,6-2.17,0c-1.8,0-3.67.07-4.39.15a2.63,2.63,0,0,0-1.6.68,1.83,1.83,0,0,0-.55,1.35,2,2,0,0,0,.52,1.37,2.27,2.27,0,0,0,1.69.65h3.21C13.07,25.51,11.6,27,10.83,28A3.41,3.41,0,0,0,10,29.63a2,2,0,0,0,.47,1.64s0,.05.06.07a1.93,1.93,0,0,0,1.71.4,4.92,4.92,0,0,0,1.9-1.2c.63-.56,2.18-2.1,3.63-3.55s2.39-2.41,2.55-2.58h1.54a2.47,2.47,0,0,0,2.07-.86,2,2,0,0,0,0-2.22v0c-.33-.62-1.46-2.39-2.55-4.11-.91-1.44-1.5-2.35-1.77-2.77l3.71-2.36.36,2.07.06.14a2.63,2.63,0,0,0,.47.79,1.77,1.77,0,0,0,1,.5h.13s4.74-.27,5.63-.27h0a4,4,0,0,0,1.62-.4,1.76,1.76,0,0,0,1-1.35v0a1.73,1.73,0,0,0-.19-1,1.36,1.36,0,0,0-.72-.57,4.64,4.64,0,0,0-1.39-.16h0l-3.46-.19-.3-3.19a.71.71,0,0,0-.13-.34A2.75,2.75,0,0,0,27,7c-.5-.94-1.61-2.6-1.67-2.68s0,0,0-.07A1,1,0,0,0,25.07,4l-.21-.19-.63-.46L22.41,2.13C21.14,1.27,19.94.49,19.88.45l-.06,0A2.12,2.12,0,0,0,18.63,0ZM30.05,0a3.72,3.72,0,1,0,3.72,3.72h0A3.72,3.72,0,0,0,30.05,0ZM18.38,1.37h0A.75.75,0,0,1,19,1.5l0,0,2.58,1.71c.65.44,1.3.88,1.79,1.23.25.17.46.33.59.44a.64.64,0,0,1,.15.13s0-.07,0-.07,1.22,1.87,1.65,2.66a1.07,1.07,0,0,1,.19.85,1.07,1.07,0,0,1-.51.54l-1.86,1.19a.66.66,0,0,0-.42.27l-4.94,3.14a.67.67,0,0,0-.21.93l2.13,3.34c1.1,1.73,2.3,3.65,2.51,4.05v0c.25.46.19.63.09.76a1.22,1.22,0,0,1-1,.32H16.1a.63.63,0,0,0-.38-.06.6.6,0,0,0-.19.06h-4.6a.82.82,0,0,1-.7-.23.66.66,0,0,1-.17-.45.4.4,0,0,1,.13-.37,1.35,1.35,0,0,1,.82-.3c.49-.06,2.5-.12,4.29-.15s3.42,0,3.42,0a.68.68,0,0,0,.66-.69.63.63,0,0,0-.12-.37l-4.77-7a0,0,0,0,0,0,0l0,0a1.75,1.75,0,0,1-.23-1.71,4.25,4.25,0,0,1,1.41-1.48l5.6-3.92a.67.67,0,0,0,.17-.94.86.86,0,0,0-.13-.14L18.44,3A.66.66,0,0,0,18,2.85L11.32,3h-.06a2.69,2.69,0,0,1-.8-.09l-.19-.08c0-.12,0-.17.19-.3a3.5,3.5,0,0,1,1-.42s0,0,0,0Zm11.67,0a2.37,2.37,0,1,1-2.36,2.37h0A2.34,2.34,0,0,1,30,1.37ZM.54,6.1A.68.68,0,0,0,0,6.91a.66.66,0,0,0,.65.54H13.5a.68.68,0,1,0,.2-1.35H.54Zm0,3.38a.68.68,0,0,0,.13,1.35h9.45a.68.68,0,0,0,.78-.57.69.69,0,0,0-.57-.78H.54Zm25.76.66.19,2.17a.68.68,0,0,0,.63.61l4,.21h0a9.12,9.12,0,0,1,1,.09v.21c0,.11,0,.17-.24.27a2.76,2.76,0,0,1-1,.23h0c-1.15,0-5.36.27-5.55.28h0a.19.19,0,0,1-.16-.09,1.17,1.17,0,0,1-.19-.3l-.45-2.55c.62-.39,1.54-1,1.71-1.1ZM.54,12.86a.68.68,0,0,0,.13,1.35h9.46a.68.68,0,0,0,.77-.58.67.67,0,0,0-.57-.77H.54Zm0,3.38a.68.68,0,0,0,.13,1.35H12.83A.68.68,0,0,0,13.6,17a.67.67,0,0,0-.57-.77H.54ZM16,24.41h2.34c-.51.51-.74.76-1.58,1.6-1.44,1.44-3.07,3-3.59,3.5a4,4,0,0,1-1.35.9c-.24.07-.27,0-.43-.1a.56.56,0,0,1-.1-.47,2.18,2.18,0,0,1,.55-1c.94-1.11,3.72-4,4.15-4.42Z"/>
</svg>