<svg id="icon-wordpress" xmlns="http://www.w3.org/2000/svg" xmlns:xlink="http://www.w3.org/1999/xlink" viewBox="0 0 48.76 48.76">
    <defs>
        <style>#icon-wordpress path{fill:url(#icon-wordpress-gradient);}</style>
        <linearGradient id="icon-wordpress-gradient" x1="-266.9" y1="436.75" x2="-266.9" y2="435.75"
                        gradientTransform="matrix(48.76, 0, 0, -48.76, 13038.48, 21295.83)" gradientUnits="userSpaceOnUse">
            <stop offset="0" stop-color="#c52fef"/>
            <stop offset="0.6" stop-color="#6991f0"/>
            <stop offset="1" stop-color="#24d2ee"/>
        </linearGradient>
    </defs>
    <path d="M24.38,0A24.38,24.38,0,1,0,48.76,24.38,24.39,24.39,0,0,0,24.38,0Zm0,2.12A22.26,22.26,0,1,1,2.12,24.38h0A22.25,22.25,0,0,1,24.35,2.12Zm0,2.12A20.14,20.14,0,1,0,44.52,24.38,20.14,20.14,0,0,0,24.38,4.24Zm0,2.12a17.91,17.91,0,0,1,11.13,3.86,3.78,3.78,0,0,0-.85,2.4c0,1.7,1,3.18,2,4.87a10.51,10.51,0,0,1,1.71,5.73A19.88,19.88,0,0,1,36.78,30l-2.12,7L27.14,14.52l2.43-.21a.85.85,0,1,0-.1-1.7h-.11s-3.39.32-5.62.32c-2,0-5.51-.32-5.51-.32h-.11c-1.06,0-1.16,1.7-.1,1.7l2.22.21,3.29,8.9L19,37.1,11.34,14.42l2.44-.22a.85.85,0,1,0-.11-1.69h-.1s-1.39.11-2.92.2A18,18,0,0,1,24.38,6.36ZM37.19,11.7a18,18,0,0,1,3.5,5.05,15.72,15.72,0,0,1-.52,3.6,16,16,0,0,0-1.59-3.82l-.21-.42c-.85-1.38-1.48-2.44-1.48-3.39A1.77,1.77,0,0,1,37.19,11.7ZM22.9,15H24a5,5,0,0,0,1.27.1l.11.21,7.52,22.48.74,2.11c-.41.24-.82.47-1.24.68L26.71,25.44l-.74-2-.21-.74ZM9,15.05h.46l.11.21L17.18,38l.63,1.91L17.45,41c-.29-.12-.57-.27-.85-.4L8,17a17.28,17.28,0,0,1,1-1.9Zm33,5.4a18,18,0,0,1-6,17.78l5-14.49a25.13,25.13,0,0,0,1-3.29Zm-35.22.19,6.59,18a18,18,0,0,1-6.59-18Zm17.63,5.44L30,41.48a18.07,18.07,0,0,1-11,.13Z"/>
</svg>